<svg width="32" height="32" viewBox="0 0 32 32" fill="none" xmlns="http://www.w3.org/2000/svg">
<path d="M31.5 16C31.5 24.5604 24.5604 31.5 16 31.5C7.43959 31.5 0.5 24.5604 0.5 16C0.5 7.43959 7.43959 0.5 16 0.5C24.5604 0.5 31.5 7.43959 31.5 16Z" fill="white" stroke="#CED3E6"/>
<path d="M16 28C22.6274 28 28 22.6274 28 16C28 9.37258 22.6274 4 16 4C9.37258 4 4 9.37258 4 16C4 22.6274 9.37258 28 16 28Z" fill="#EFB914"/>
<path fill-rule="evenodd" clip-rule="evenodd" d="M19.7515 11.3912C20.3796 11.8841 20.9022 12.498 21.2885 13.1967C21.6747 13.8954 21.9167 14.6645 22 15.4585L19.8647 14.9275C19.6638 14.2565 19.2909 13.6497 18.7831 13.1673C18.2753 12.6848 17.6502 12.3435 16.9697 12.1772C14.8202 11.6425 12.6497 12.9205 12.121 15.0317C11.5922 17.143 12.9085 19.288 15.0587 19.8228C15.7384 19.9943 16.4511 19.9856 17.1263 19.7975C17.8016 19.6095 18.4161 19.2485 18.9092 18.7502L21.0445 19.2805C20.5971 19.9428 20.0214 20.5087 19.3515 20.9448C18.6817 21.3808 17.9312 21.6782 17.1445 21.8193L16.537 24.25L14.59 23.7663L15.073 21.835C14.7425 21.7806 14.4169 21.6996 14.0995 21.5928L13.6172 23.524L11.6702 23.0395L12.2777 20.6088C10.4942 19.2025 9.59649 16.8617 10.1747 14.548C10.753 12.2343 12.6475 10.5873 14.8847 10.1808L15.4922 7.75L17.4392 8.23375L16.9562 10.165C17.2867 10.2194 17.6123 10.3004 17.9297 10.4073L18.412 8.476L20.359 8.9605L19.7515 11.3912Z" fill="white"/>
<path fill-rule="evenodd" clip-rule="evenodd" d="M4 16C4 9.37258 9.37258 4 16 4C22.6274 4 28 9.37258 28 16C28 22.6274 22.6274 28 16 28C9.37258 28 4 22.6274 4 16Z" fill="#229E45"/>
<path fill-rule="evenodd" clip-rule="evenodd" d="M16.0462 22.9416L26 16.4807L15.9868 10L6 16.4939L16.0462 22.9416Z" fill="#F8E509"/>
<path fill-rule="evenodd" clip-rule="evenodd" d="M20.3843 16.4708C20.3843 18.7916 18.4992 20.6735 16.1717 20.6735C15.3399 20.6722 14.5273 20.4243 13.8364 19.9612C13.1455 19.4981 12.6075 18.8405 12.2902 18.0717C11.973 17.3028 11.8908 16.4572 12.0541 15.6416C12.2174 14.8261 12.6189 14.0773 13.2077 13.4899C13.7965 12.9024 14.5463 12.5028 15.3622 12.3414C16.1781 12.18 17.0236 12.2641 17.7917 12.5832C18.5598 12.9022 19.216 13.4418 19.6775 14.1338C20.139 14.8258 20.3849 15.639 20.3843 16.4708Z" fill="#2B49A3"/>
<path fill-rule="evenodd" clip-rule="evenodd" d="M14.7884 18.9898L14.6563 18.9138L14.5243 18.9799L14.554 18.8313L14.4483 18.719L14.5969 18.7025L14.6695 18.5705L14.7323 18.7091L14.8775 18.7356L14.7686 18.8346M17.6078 19.7029L17.479 19.6269L17.347 19.693L17.3734 19.5444L17.271 19.4355L17.4196 19.4189L17.4889 19.2836L17.555 19.4223L17.7002 19.4487L17.588 19.551M16.3929 18.5606L16.2806 18.4946L16.1651 18.554L16.1915 18.4252L16.099 18.3295L16.2311 18.3163L16.2905 18.1974L16.3433 18.3196L16.4721 18.3427L16.3731 18.4318M19.2453 18.1512L19.133 18.0852L19.0175 18.1446L19.0439 18.0158L18.9548 17.9234L19.0835 17.9102L19.1429 17.7947L19.1958 17.9135L19.3212 17.9366L19.2255 18.0224M16.3433 17.2961L16.2113 17.2235L16.0792 17.2895L16.1056 17.1377L16.0033 17.0287L16.1519 17.0122L16.2212 16.8769L16.2872 17.0155L16.4325 17.0419L16.3202 17.1476M12.8669 15.9921L12.7349 15.9194L12.6028 15.9855L12.6358 15.8336L12.5269 15.7247L12.6788 15.7082L12.7448 15.5728L12.8108 15.7115L12.9561 15.7379L12.8471 15.8402M13.2862 17.7286L13.1542 17.6527L13.0221 17.7187L13.0518 17.5702L12.9462 17.4612L13.0947 17.4414L13.1641 17.3093L13.2301 17.448L13.3754 17.4744L13.2664 17.5768M17.6243 15.3549L17.5054 15.2889L17.3866 15.3483L17.413 15.2162L17.3206 15.1172L17.4526 15.1007L17.5153 14.9818L17.5715 15.1073L17.7035 15.1304L17.6045 15.2195M17.3833 16.484L17.2942 16.4312L17.1984 16.4774L17.2182 16.3717L17.1456 16.2958L17.2512 16.2826L17.3008 16.1902L17.3437 16.2892L17.4427 16.3057L17.3701 16.3783M12.6755 18.0423L12.5863 17.9927L12.4972 18.0357L12.517 17.9366L12.4477 17.864L12.5467 17.8508L12.5929 17.7616L12.6358 17.8541L12.7349 17.8739L12.659 17.9399M19.2684 18.445L19.1958 18.4087L19.1231 18.4417L19.1396 18.3658L19.0835 18.313L19.1628 18.3031L19.2024 18.237L19.2354 18.3031L19.3179 18.3196L19.2552 18.3691" fill="#FFFFEF"/>
<path fill-rule="evenodd" clip-rule="evenodd" d="M12.6755 18.0422L12.5863 17.9927L12.4972 18.0356L12.517 17.9366L12.4477 17.864L12.5467 17.8508L12.5929 17.7616L12.6358 17.8541L12.7349 17.8739L12.659 17.9399" fill="#FFFFEF"/>
<path fill-rule="evenodd" clip-rule="evenodd" d="M12.6755 18.0422L12.5863 17.9927L12.4972 18.0356L12.517 17.9366L12.4477 17.8639L12.5467 17.8507L12.5929 17.7616L12.6358 17.854L12.7349 17.8738L12.659 17.9399M14.0555 18.0389L13.9696 17.9927L13.8805 18.0356L13.9003 17.9366L13.831 17.8639L13.93 17.8507L13.9762 17.7616L14.0191 17.854L14.1182 17.8705L14.0423 17.9399M13.8838 18.5011L13.7979 18.4516L13.7088 18.4978L13.7286 18.3988L13.6593 18.3228L13.7583 18.3096L13.8046 18.2205L13.8475 18.3129L13.9465 18.3327L13.8706 18.3988M16.756 17.6659L16.6702 17.613L16.5777 17.6593L16.5976 17.5602L16.5315 17.4843L16.6306 17.4744L16.6768 17.3852L16.7164 17.4777L16.8154 17.4942L16.7428 17.5635M15.9142 17.6626L15.825 17.613L15.7359 17.6593L15.7557 17.5602L15.6897 17.4843L15.7887 17.4744L15.8349 17.3819L15.8745 17.4777L15.9736 17.4942L15.901 17.5635M13.6296 17.372L13.5735 17.339L13.5173 17.3654L13.5305 17.3027L13.4876 17.2565L13.5503 17.2499L13.5768 17.1938L13.6032 17.2532L13.6659 17.2631L13.6197 17.306M19.1595 18.8048L19.0736 18.7553L18.9845 18.8015L19.0043 18.7025L18.935 18.6266L19.034 18.6134L19.0802 18.5242L19.1231 18.6167L19.2222 18.6365L19.1462 18.7025M18.4596 18.9006L18.3869 18.8544L18.311 18.894L18.3275 18.8081L18.2714 18.7487L18.3539 18.7388L18.3935 18.6629L18.4265 18.7421L18.5091 18.7553L18.4463 18.8147M18.7897 18.8907L18.7237 18.8511L18.6543 18.8841L18.6675 18.8081L18.6147 18.752L18.6907 18.7421L18.727 18.6761L18.76 18.7421L18.8359 18.7586L18.7798 18.8114M19.7405 18.0587L19.6745 18.0257L19.6084 18.0587L19.625 17.9828L19.5721 17.9267L19.6481 17.9168L19.6811 17.8507L19.7141 17.9201L19.7834 17.9333L19.7306 17.9861M18.4496 19.3661L18.3671 19.3199L18.278 19.3595L18.2978 19.267L18.2318 19.201L18.3308 19.1911L18.3737 19.1086L18.4133 19.1944L18.5124 19.2109L18.4364 19.2736M18.4563 19.7424L18.377 19.6962L18.2978 19.7391L18.3176 19.6467L18.2549 19.5807L18.344 19.5675L18.3836 19.4849L18.4199 19.5708L18.5091 19.5873L18.443 19.6533M17.8158 18.8907L17.753 18.8511L17.687 18.8841L17.7002 18.8114L17.6507 18.7553L17.7233 18.7487L17.7564 18.6827L17.7894 18.7487L17.862 18.7619L17.8092 18.8147M17.2215 18.8907L17.1555 18.8511L17.0895 18.8841L17.106 18.8114L17.0531 18.7553L17.1291 18.7487L17.1621 18.6827L17.1951 18.7487L17.2644 18.7619L17.2116 18.8147M16.208 18.0026L16.142 17.9663L16.0759 17.9993L16.0924 17.9234L16.0396 17.8705L16.1122 17.8606L16.1453 17.7946L16.1783 17.8606L16.2509 17.8771L16.1981 17.9267M16.3202 19.8085L16.2674 19.7788L16.208 19.8085L16.2212 19.7424L16.1783 19.6962L16.241 19.6896L16.2707 19.6335L16.2971 19.6929L16.3598 19.7028L16.3136 19.7457M14.7884 16.8867L14.6563 16.8108L14.5243 16.8768L14.554 16.7283L14.4483 16.6193L14.5969 16.5995L14.6695 16.4674L14.7323 16.6061L14.8775 16.6325L14.7686 16.7349" fill="#FFFFEF"/>
<path fill-rule="evenodd" clip-rule="evenodd" d="M20.107 17.9828C20.1888 17.7706 20.2528 17.5519 20.2984 17.3291C18.0601 15.3648 15.5675 14.3579 12.418 14.5658C12.3037 14.7869 12.2098 15.0178 12.1373 15.2558C15.8679 14.8993 18.6081 16.55 20.107 17.9828Z" fill="white"/>
<path d="M19.1033 16.8801L19.1793 16.923C19.1679 16.9454 19.1644 16.971 19.1694 16.9956C19.1771 17.0195 19.1936 17.0396 19.2156 17.0518C19.2387 17.0683 19.2618 17.0782 19.2816 17.0749C19.3014 17.0749 19.3146 17.065 19.3245 17.0518C19.3303 17.043 19.3326 17.0324 19.3311 17.0221C19.3284 17.0099 19.3228 16.9985 19.3146 16.989C19.308 16.9791 19.2915 16.956 19.2651 16.9296C19.238 16.9016 19.2176 16.8677 19.2057 16.8306C19.1974 16.8025 19.1996 16.7723 19.2117 16.7457C19.2238 16.719 19.2451 16.6976 19.2717 16.6853C19.2957 16.6753 19.3222 16.673 19.3476 16.6787C19.3787 16.6859 19.4079 16.6994 19.4335 16.7183C19.4797 16.7513 19.5094 16.7844 19.5193 16.824C19.5239 16.8425 19.5245 16.8618 19.5211 16.8806C19.5176 16.8993 19.5103 16.9172 19.4995 16.9329L19.4203 16.8834C19.4302 16.8636 19.4335 16.8438 19.4269 16.8273C19.4236 16.8108 19.4104 16.7943 19.3873 16.7811C19.3703 16.7674 19.3495 16.7593 19.3278 16.7579C19.3218 16.7577 19.3159 16.7592 19.3107 16.7621C19.3054 16.765 19.3011 16.7693 19.2981 16.7745C19.2915 16.7844 19.2915 16.7943 19.2948 16.8075C19.2981 16.8207 19.3146 16.8471 19.3476 16.8801C19.3806 16.9131 19.4005 16.9428 19.4137 16.9626C19.4255 16.9843 19.4308 17.0088 19.429 17.0334C19.4273 17.058 19.4185 17.0816 19.4038 17.1013C19.3883 17.1237 19.3664 17.141 19.341 17.1508C19.3163 17.1622 19.2886 17.1657 19.2618 17.1607C19.2321 17.1541 19.2024 17.1409 19.1694 17.1178C19.1198 17.0848 19.0901 17.0485 19.0802 17.0089C19.0695 16.9639 19.0766 16.9166 19.1 16.8768L19.1033 16.8801ZM18.7204 16.6292L18.8029 16.6721C18.7927 16.6949 18.7904 16.7205 18.7963 16.7447C18.8047 16.7674 18.8212 16.7862 18.8425 16.7976C18.8689 16.8141 18.8887 16.8207 18.9085 16.8174C18.9284 16.8174 18.9416 16.8075 18.9515 16.791C18.9565 16.7831 18.9588 16.7738 18.9581 16.7646C18.9581 16.7546 18.9515 16.7414 18.9416 16.7315C18.9246 16.7111 18.907 16.6913 18.8887 16.6721C18.8524 16.6358 18.8293 16.6061 18.8227 16.5797C18.8173 16.5627 18.8157 16.5447 18.818 16.527C18.8203 16.5094 18.8264 16.4924 18.8359 16.4773C18.8485 16.457 18.8669 16.4408 18.8887 16.4311C18.9114 16.4206 18.9367 16.4172 18.9614 16.4212C18.9919 16.4263 19.0211 16.4376 19.0472 16.4542C19.0967 16.4872 19.1264 16.5202 19.1363 16.5566C19.1424 16.5751 19.1443 16.5948 19.142 16.6141C19.1397 16.6335 19.1333 16.6522 19.1231 16.6688L19.0406 16.6226C19.0505 16.5995 19.0538 16.583 19.0472 16.5665C19.0406 16.55 19.0274 16.5335 19.0043 16.5202C18.986 16.5071 18.964 16.5002 18.9416 16.5004C18.9361 16.5008 18.9309 16.5025 18.9263 16.5054C18.9217 16.5083 18.9179 16.5122 18.9151 16.5169C18.9085 16.5268 18.9085 16.5368 18.9118 16.55C18.9151 16.5632 18.935 16.5896 18.968 16.6226C19.001 16.6556 19.0241 16.682 19.034 16.7018C19.0472 16.7225 19.0543 16.7466 19.0543 16.7712C19.0543 16.7957 19.0472 16.8198 19.034 16.8405C19.0198 16.8635 18.9991 16.8819 18.9746 16.8933C18.9498 16.9047 18.9221 16.9082 18.8953 16.9032C18.8614 16.8975 18.8288 16.8851 18.7996 16.8669C18.7569 16.8441 18.724 16.8066 18.7072 16.7612C18.6944 16.7172 18.6991 16.6699 18.7204 16.6292ZM18.2516 16.5037L18.4926 16.1076L18.7831 16.2891L18.7435 16.3552L18.5322 16.2231L18.4794 16.3123L18.6774 16.4344L18.6345 16.5004L18.4364 16.3783L18.3704 16.4872L18.5916 16.6193L18.552 16.6853L18.2549 16.5037H18.2516ZM17.5682 15.9425L17.6045 15.8765L17.7828 15.9656L17.7002 16.1307C17.6738 16.1373 17.6408 16.1406 17.6012 16.1373C17.5631 16.1331 17.5262 16.1219 17.4922 16.1043C17.4523 16.0848 17.4181 16.0552 17.3932 16.0184C17.3705 15.9843 17.359 15.9439 17.3602 15.9029C17.3619 15.8602 17.3731 15.8184 17.3932 15.7807C17.413 15.741 17.4426 15.707 17.479 15.6817C17.5139 15.6576 17.5555 15.6449 17.5979 15.6454C17.6309 15.6454 17.6639 15.6553 17.7035 15.6784C17.7563 15.7015 17.7894 15.7345 17.8059 15.7708C17.823 15.8069 17.8266 15.8479 17.8158 15.8864L17.7266 15.86C17.7321 15.8378 17.7298 15.8145 17.72 15.7939C17.7101 15.7741 17.6936 15.7609 17.6672 15.7477C17.6518 15.7389 17.6347 15.7335 17.6171 15.7318C17.5995 15.7301 17.5817 15.7321 17.5649 15.7378C17.5319 15.7477 17.5021 15.7774 17.479 15.8236C17.4559 15.8699 17.446 15.9128 17.4559 15.9491C17.4605 15.9663 17.4688 15.9823 17.4802 15.996C17.4916 16.0097 17.5058 16.0207 17.5219 16.0283C17.5385 16.0382 17.5583 16.0448 17.5781 16.0448C17.5978 16.0478 17.6178 16.0478 17.6375 16.0448L17.6639 15.992L17.5682 15.9425ZM14.5903 15.2063L14.6563 14.7441L14.795 14.7672L14.8313 15.0907L14.96 14.7936L15.0987 14.8134L15.0327 15.269L14.9435 15.2558L14.9997 14.8959L14.8544 15.2426L14.7653 15.2294L14.7289 14.8563L14.6761 15.2195L14.5903 15.2063ZM14.1248 15.1502L14.1677 14.688L14.5078 14.721L14.5011 14.8002L14.2535 14.7771L14.2436 14.8761L14.4747 14.8992L14.4648 14.9785L14.2337 14.9554L14.2238 15.0808L14.4813 15.1039L14.4747 15.1832L14.1248 15.1502Z" fill="#309E3A"/>
<path d="M12.583 14.863C12.583 14.8135 12.5929 14.7771 12.6061 14.7441C12.6177 14.7206 12.6334 14.6994 12.6524 14.6814C12.6693 14.6643 12.6895 14.6508 12.7118 14.6418C12.7448 14.6319 12.7778 14.6253 12.8108 14.6253C12.8802 14.6253 12.933 14.6517 12.9759 14.6913C12.9963 14.7165 13.0115 14.7456 13.0206 14.7768C13.0297 14.808 13.0324 14.8406 13.0287 14.8729C13.0287 14.9455 13.0056 15.0049 12.9627 15.0479C12.9406 15.0682 12.9145 15.0838 12.8861 15.0934C12.8577 15.1031 12.8275 15.1067 12.7976 15.104C12.7681 15.1043 12.7389 15.0986 12.7116 15.0872C12.6844 15.0759 12.6597 15.0591 12.6392 15.038C12.5981 14.9893 12.5779 14.9264 12.583 14.863Z" fill="#309E3A"/>
<path d="M12.6788 14.863C12.6788 14.9125 12.6887 14.9522 12.7118 14.9819C12.7349 15.0083 12.7646 15.0248 12.8042 15.0248C12.8214 15.026 12.8385 15.0234 12.8545 15.0171C12.8705 15.0108 12.8849 15.001 12.8967 14.9885C12.9198 14.9621 12.9297 14.9225 12.933 14.8663C12.933 14.8135 12.9264 14.7739 12.9 14.7475C12.8892 14.7342 12.8756 14.7234 12.8602 14.716C12.8448 14.7086 12.8279 14.7047 12.8108 14.7046C12.7935 14.704 12.7762 14.7073 12.7602 14.7141C12.7442 14.721 12.73 14.7312 12.7184 14.7442C12.692 14.7706 12.6821 14.8102 12.6788 14.863Z" fill="#F7FFFF"/>
<path d="M13.1278 15.1007L13.1344 14.6385H13.3325C13.382 14.6385 13.415 14.6451 13.4381 14.655C13.4612 14.6616 13.4777 14.6781 13.4909 14.6979C13.5041 14.7178 13.5107 14.7442 13.5107 14.7739C13.511 14.8056 13.4992 14.8363 13.4777 14.8597C13.4533 14.8826 13.4219 14.8965 13.3886 14.8993L13.4381 14.9389C13.4513 14.9522 13.4678 14.9786 13.4876 15.0149L13.5437 15.1073H13.4315L13.3655 15.0017L13.3192 14.9356C13.3112 14.9266 13.301 14.9197 13.2895 14.9158C13.2745 14.9115 13.259 14.9092 13.2433 14.9092H13.2235V15.1007H13.1278Z" fill="#309E3A"/>
<path d="M13.2268 14.8366H13.2928C13.3391 14.8366 13.3688 14.8366 13.3787 14.83C13.3886 14.83 13.3985 14.8201 13.4051 14.8135C13.4117 14.8069 13.415 14.7903 13.415 14.7804C13.415 14.7606 13.4117 14.7474 13.4018 14.7408C13.3952 14.7309 13.382 14.7243 13.3688 14.721H13.3027L13.2268 14.7177V14.8333V14.8366Z" fill="white"/>
<path d="M13.656 14.6616L13.8277 14.6715C13.864 14.6715 13.8937 14.6748 13.9135 14.6814C13.9392 14.6908 13.962 14.7067 13.9795 14.7276C13.9985 14.7507 14.0121 14.7778 14.0191 14.8069C14.029 14.8366 14.0324 14.8729 14.029 14.9158C14.029 14.9495 14.0234 14.983 14.0125 15.0149C13.9993 15.0479 13.9795 15.0743 13.9564 15.0941C13.9372 15.11 13.9146 15.1212 13.8904 15.1271C13.8706 15.1337 13.8409 15.1337 13.8079 15.1337L13.6329 15.1238L13.656 14.6616Z" fill="#309E3A"/>
<path d="M13.7451 14.7442L13.7286 15.0512H13.8541C13.8706 15.0512 13.8838 15.0446 13.8937 15.0347C13.9036 15.0248 13.9135 15.0116 13.9201 14.9918C13.9267 14.972 13.9333 14.9423 13.9333 14.9059L13.93 14.8234C13.9253 14.806 13.9162 14.7901 13.9036 14.7772C13.8926 14.7662 13.879 14.7582 13.864 14.7541C13.839 14.7485 13.8136 14.7452 13.7881 14.7442H13.7451Z" fill="white"/>
<path d="M15.9208 15.487L16.0297 15.038L16.175 15.071L16.2806 15.104C16.3037 15.1172 16.3235 15.137 16.3334 15.1667C16.3466 15.1931 16.3466 15.2228 16.34 15.2592C16.3334 15.2856 16.3235 15.3087 16.307 15.3252C16.2949 15.3397 16.2798 15.3513 16.2627 15.3593C16.2455 15.3673 16.2269 15.3714 16.208 15.3714C16.1849 15.3714 16.1519 15.3648 16.1089 15.3549L16.0528 15.3384L16.0132 15.5101L15.9208 15.487Z" fill="#309E3A"/>
<path d="M16.0991 15.137L16.0726 15.2624L16.1222 15.2756C16.1552 15.2822 16.1816 15.2888 16.1948 15.2855C16.2076 15.2837 16.2196 15.278 16.2291 15.2692C16.2385 15.2603 16.245 15.2487 16.2476 15.236C16.2476 15.2195 16.2476 15.2063 16.241 15.1931C16.2338 15.1797 16.2221 15.1692 16.208 15.1634L16.1453 15.1469L16.1024 15.137H16.0991Z" fill="white"/>
<path d="M16.35 15.6157L16.5051 15.1799L16.6867 15.246C16.7362 15.2625 16.7659 15.279 16.7857 15.2922C16.8022 15.3087 16.8155 15.3252 16.8188 15.3516C16.8221 15.378 16.8254 15.4011 16.8188 15.4275C16.8055 15.4606 16.7857 15.4837 16.7593 15.5002C16.7329 15.5134 16.6999 15.5167 16.6603 15.5101C16.6735 15.5266 16.6867 15.5431 16.6933 15.5629L16.7197 15.652L16.7395 15.7544L16.6372 15.7181L16.6042 15.5992C16.5982 15.5723 16.5904 15.5459 16.5811 15.52C16.5767 15.5097 16.5699 15.5006 16.5612 15.4936C16.5546 15.4837 16.5414 15.4771 16.5183 15.4705L16.5018 15.4639L16.4358 15.6487L16.35 15.6157Z" fill="#309E3A"/>
<path d="M16.5282 15.3945L16.5909 15.4176C16.6339 15.4341 16.6603 15.4407 16.6735 15.4407C16.6834 15.4407 16.6933 15.4407 16.7032 15.4308C16.7131 15.4242 16.7197 15.4143 16.723 15.4011C16.7296 15.3879 16.7296 15.3747 16.723 15.3615C16.7181 15.3487 16.7087 15.3381 16.6966 15.3318L16.6306 15.3087L16.5645 15.2856L16.5249 15.3945H16.5282Z" fill="white"/>
<path d="M16.8914 15.5992C16.9027 15.5605 16.9218 15.5246 16.9475 15.4936C16.9642 15.4736 16.9843 15.4569 17.0069 15.444C17.0274 15.4325 17.0498 15.4247 17.073 15.4209C17.106 15.4209 17.139 15.4209 17.1753 15.4341C17.2048 15.4414 17.2324 15.4549 17.2563 15.4737C17.2803 15.4925 17.2999 15.5161 17.314 15.5431C17.3404 15.5959 17.3404 15.6586 17.3206 15.7313C17.3042 15.7937 17.2639 15.8471 17.2083 15.8798C17.1588 15.9095 17.0994 15.9128 17.0367 15.893C17.0072 15.8855 16.9797 15.872 16.9558 15.8532C16.9319 15.8345 16.9122 15.8109 16.898 15.7841C16.8848 15.7552 16.8774 15.724 16.8762 15.6923C16.8751 15.6606 16.8803 15.6289 16.8914 15.5992Z" fill="#309E3A"/>
<path d="M16.9838 15.6256C16.9706 15.6751 16.9673 15.7181 16.9838 15.7511C17.0003 15.7841 17.0234 15.8039 17.0598 15.8171C17.0928 15.827 17.1258 15.8237 17.1588 15.8039C17.1918 15.7874 17.2116 15.7511 17.2281 15.6983C17.2446 15.6487 17.2446 15.6091 17.2281 15.5761C17.2216 15.5604 17.2117 15.5464 17.1992 15.535C17.1866 15.5236 17.1717 15.5151 17.1555 15.5101C17.1393 15.5045 17.122 15.5025 17.1049 15.5042C17.0878 15.5059 17.0713 15.5113 17.0565 15.52C17.0234 15.5398 17.0003 15.5728 16.9838 15.6256Z" fill="white"/>
<path d="M17.7927 16.243L18.004 15.8336L18.1789 15.9228C18.2119 15.9386 18.242 15.9598 18.2681 15.9855C18.2846 16.002 18.2945 16.0218 18.2945 16.0482C18.2945 16.0746 18.2945 16.0977 18.2813 16.1208C18.2686 16.1505 18.2449 16.1742 18.2153 16.1869C18.1822 16.1935 18.1492 16.1935 18.1129 16.1803C18.1261 16.2001 18.1327 16.2199 18.1393 16.2364C18.1459 16.2562 18.1492 16.2859 18.1525 16.3288L18.1591 16.4345L18.0601 16.385L18.0469 16.2628C18.0453 16.2351 18.042 16.2075 18.037 16.1803C18.0347 16.1679 18.029 16.1565 18.0205 16.1473L17.9809 16.1241L17.9643 16.1142L17.8752 16.2859L17.7927 16.243Z" fill="#309E3A"/>
<path d="M17.9974 16.0483L18.0601 16.0813C18.0997 16.1011 18.1261 16.1143 18.136 16.1143C18.1459 16.1143 18.1591 16.1143 18.169 16.1077C18.1789 16.1044 18.1855 16.0945 18.1921 16.0813C18.1987 16.0681 18.202 16.0549 18.1987 16.0417C18.1947 16.0285 18.1866 16.017 18.1756 16.0087C18.1563 15.9968 18.1365 15.9858 18.1162 15.9756L18.0502 15.9426L17.9974 16.0483Z" fill="white"/>
<path d="M19.5028 17.0882C19.5242 17.0542 19.5523 17.025 19.5853 17.0023C19.6076 16.9881 19.6322 16.9781 19.658 16.9726C19.6819 16.9677 19.7066 16.9677 19.7306 16.9726C19.7636 16.9792 19.7933 16.9924 19.823 17.0122C19.8487 17.0283 19.8708 17.0494 19.8879 17.0744C19.9049 17.0995 19.9166 17.1277 19.9221 17.1575C19.932 17.2136 19.9155 17.2764 19.8759 17.3391C19.8427 17.3936 19.7893 17.4328 19.7273 17.448C19.6977 17.4544 19.6672 17.4545 19.6376 17.4482C19.608 17.442 19.5801 17.4295 19.5556 17.4117C19.5299 17.3957 19.5079 17.3745 19.4908 17.3495C19.4738 17.3245 19.4621 17.2962 19.4566 17.2665C19.4467 17.207 19.4632 17.1476 19.5028 17.0882Z" fill="#309E3A"/>
<path d="M19.5853 17.141C19.5523 17.1839 19.5424 17.2235 19.549 17.2598C19.5515 17.2766 19.5574 17.2926 19.5665 17.3068C19.5756 17.321 19.5877 17.3332 19.6018 17.3424C19.6349 17.3655 19.6679 17.3721 19.7009 17.3622C19.7339 17.3523 19.7669 17.3292 19.7966 17.2829C19.8263 17.2367 19.8395 17.1971 19.8329 17.1641C19.8296 17.1311 19.8098 17.1014 19.7801 17.0783C19.7504 17.0551 19.7141 17.0518 19.6811 17.0618C19.6481 17.0684 19.615 17.0948 19.582 17.141H19.5853Z" fill="white"/>
<path d="M15.3991 15.2988L15.4751 14.9752L15.7128 15.0313L15.7029 15.0842L15.5279 15.0445L15.5114 15.1172L15.6732 15.1535L15.66 15.2096L15.4982 15.17L15.4784 15.2591L15.66 15.3021L15.6467 15.3549L15.3991 15.2988Z" fill="#309E3A"/>
</svg>
