<svg width="32" height="32" viewBox="0 0 32 32" fill="none" xmlns="http://www.w3.org/2000/svg">
<rect x="0.5" y="0.5" width="31" height="31" rx="15.5" fill="white" stroke="#CED3E6"/>
<path d="M15.569 21.2198C11.3885 21.2198 8 20.0123 8 18.3938C8 17.5493 8.9225 16.7888 10.4 16.2518C11.5535 16.992 13.4878 17.3715 15.6815 17.3715C17.8235 17.3715 19.7165 16.9088 20.879 16.2C22.2733 16.7303 23.1388 17.4705 23.1388 18.2865C23.1388 19.9073 19.7502 21.2198 15.569 21.2198Z" fill="#AC9456"/>
<path d="M15.539 17.1143C12.3695 17.1143 9.8 16.1205 9.8 14.8943C9.8 14.2148 10.592 13.6058 11.834 13.2C12.7205 13.6628 14.0488 13.9583 15.539 13.9583C17.0293 13.9583 18.3575 13.6628 19.244 13.2008C20.4883 13.608 21.278 14.2148 21.278 14.8943C21.2803 16.1205 18.71 17.1143 15.539 17.1143Z" fill="#AC9456"/>
<path d="M15.637 13.66C13.1867 13.66 11.2 12.8395 11.2 11.83C11.2 10.8212 13.1875 10 15.637 10C18.0865 10 20.074 10.8212 20.074 11.83C20.074 12.8395 18.0865 13.66 15.637 13.66Z" fill="#AC9456"/>
<path d="M4.43267 12.8068C3.76413 15.2285 3.87253 17.799 4.7426 20.1558C5.61266 22.5127 7.2005 24.537 9.28225 25.9434C11.364 27.3499 13.8347 28.0674 16.346 27.995C18.8572 27.9226 21.2824 27.0638 23.2797 25.5397C25.2769 24.0157 26.7454 21.9032 27.4782 19.5001C28.211 17.097 28.1711 14.5246 27.3641 12.1454C26.5571 9.76621 25.0237 7.70031 22.9801 6.23896C20.9365 4.7776 18.4859 3.99449 15.9735 4.00003L15.9762 5.20003C18.2373 5.19504 20.4429 5.89984 22.2821 7.21506C24.1213 8.53028 25.5014 10.3896 26.2277 12.5308C26.954 14.6721 26.9899 16.9873 26.3304 19.1501C25.6709 21.3129 24.3492 23.2141 22.5517 24.5858C20.7542 25.9574 18.5715 26.7303 16.3114 26.7955C14.0512 26.8607 11.8276 26.2149 9.95403 24.9491C8.08045 23.6833 6.6514 21.8614 5.86834 19.7402C5.08528 17.6191 4.98772 15.3056 5.5894 13.1261L4.43267 12.8068Z" fill="#AC9456"/>
</svg>
