<svg width="32" height="32" viewBox="0 0 32 32" fill="none" xmlns="http://www.w3.org/2000/svg">
<path d="M31.5 16C31.5 24.5604 24.5604 31.5 16 31.5C7.43959 31.5 0.5 24.5604 0.5 16C0.5 7.43959 7.43959 0.5 16 0.5C24.5604 0.5 31.5 7.43959 31.5 16Z" fill="white" stroke="#CED3E6"/>
<g clip-path="url(#clip0_25_22869)">
<path d="M16 27.9587C18.3652 27.9587 20.6773 27.2574 22.6439 25.9433C24.6105 24.6293 26.1433 22.7616 27.0484 20.5764C27.9536 18.3912 28.1904 15.9867 27.7289 13.667C27.2675 11.3472 26.1286 9.21636 24.4561 7.5439C22.7836 5.87144 20.6528 4.73248 18.333 4.27105C16.0133 3.80962 13.6088 4.04644 11.4236 4.95157C9.23841 5.8567 7.37071 7.38948 6.05667 9.35608C4.74263 11.3227 4.04126 13.6348 4.04126 16C4.04126 19.1717 5.30119 22.2134 7.54389 24.4561C9.78659 26.6988 12.8283 27.9587 16 27.9587Z" fill="url(#paint0_linear_25_22869)" stroke="#010101" stroke-width="0.5"/>
<path d="M7.92688 13.8559L16.0001 5.83551L24.065 13.8559L20.1035 17.7909L16.0776 13.7799L16.005 13.7073L15.9324 13.7799L11.8966 17.7942L7.92688 13.8559Z" fill="#FFF6F0" stroke="#010101"/>
<path d="M9.70459 19.0487H12.8837V19.9532H10.6586V21.1004H12.8045V22.0049H10.6586V23.1604H12.9695V24.0649H9.70459V19.0487ZM17.5137 19.0487V22.3351C17.5137 22.9095 17.3607 23.359 17.0548 23.6836C16.7489 24.0082 16.2994 24.1733 15.7062 24.1788C15.1071 24.1788 14.6564 24.0137 14.3494 23.6836C14.0424 23.3535 13.8972 22.9095 13.8972 22.3351V19.0487H14.8446V22.3351C14.8299 22.5845 14.9036 22.8311 15.0526 23.0316C15.1362 23.121 15.2392 23.1901 15.3536 23.2336C15.4681 23.2771 15.5909 23.2938 15.7128 23.2825C15.8334 23.2926 15.9547 23.2752 16.0676 23.2318C16.1805 23.1883 16.2821 23.1199 16.3648 23.0316C16.5139 22.8311 16.5875 22.5845 16.5728 22.3351V19.0487H17.5137ZM21.8053 24.0715H20.8578V22.5645C20.8623 22.463 20.8287 22.3636 20.7637 22.2855C20.7264 22.2462 20.6804 22.216 20.6294 22.1974C20.5784 22.1788 20.5239 22.1722 20.4699 22.1782H19.3805V24.0715H18.4347V19.0487H20.3577C20.5889 19.0445 20.8191 19.0808 21.0377 19.156C21.223 19.2191 21.392 19.3222 21.5329 19.458C21.6648 19.5797 21.7679 19.7291 21.835 19.8954C21.9067 20.0657 21.9432 20.2488 21.9423 20.4335V20.5986C21.9426 20.8039 21.8854 21.0052 21.7772 21.1796C21.6544 21.3659 21.4759 21.5086 21.2672 21.5873V21.7177C21.4189 21.7278 21.5606 21.7972 21.6617 21.9108C21.764 22.0248 21.8184 22.1738 21.8135 22.3268L21.8053 24.0715ZM19.3805 21.2737H20.2851C20.4739 21.2852 20.6603 21.2264 20.8083 21.1086C20.8697 21.0497 20.9176 20.9782 20.9487 20.899C20.9798 20.8198 20.9932 20.7347 20.9882 20.6498V20.5639C20.9896 20.4836 20.9743 20.4039 20.9433 20.3297C20.9123 20.2556 20.8664 20.1886 20.8083 20.1331C20.7381 20.0688 20.6554 20.0197 20.5654 19.9887C20.4754 19.9577 20.38 19.9457 20.2851 19.9532H19.3805V21.2737Z" fill="#2B363B"/>
</g>
<defs>
<linearGradient id="paint0_linear_25_22869" x1="16" y1="4.04127" x2="16" y2="27.9587" gradientUnits="userSpaceOnUse">
<stop stop-color="#99B998"/>
<stop offset="1" stop-color="#FDCEAB"/>
</linearGradient>
<clipPath id="clip0_25_22869">
<rect width="24" height="24" fill="white" transform="translate(4 4)"/>
</clipPath>
</defs>
</svg>
