<svg width="32" height="32" viewBox="0 0 32 32" fill="none" xmlns="http://www.w3.org/2000/svg">
<path d="M31.5 16C31.5 24.5604 24.5604 31.5 16 31.5C7.43959 31.5 0.5 24.5604 0.5 16C0.5 7.43959 7.43959 0.5 16 0.5C24.5604 0.5 31.5 7.43959 31.5 16Z" fill="white" stroke="#CED3E6"/>
<g clip-path="url(#clip0_3479_184828)">
<mask id="mask0_3479_184828" style="mask-type:luminance" maskUnits="userSpaceOnUse" x="4" y="4" width="24" height="24">
<path d="M28 4H4V28H28V4Z" fill="white"/>
</mask>
<g mask="url(#mask0_3479_184828)">
<path d="M16 27.64C22.4286 27.64 27.64 22.4286 27.64 16C27.64 9.57141 22.4286 4.36 16 4.36C9.57141 4.36 4.36 9.57141 4.36 16C4.36 22.4286 9.57141 27.64 16 27.64Z" fill="url(#paint0_linear_3479_184828)"/>
</g>
<g clip-path="url(#clip1_3479_184828)">
<path d="M16 6C21.5234 6 26 10.4775 26 16C26 21.5234 21.5234 26 16 26C10.4775 26 6 21.5229 6 16C6 10.4775 10.4775 6 16 6Z" fill="#F5AC37"/>
<path d="M16.3686 16.7061H20.1684C20.2494 16.7061 20.2877 16.7061 20.2935 16.5999C20.3246 16.2134 20.3246 15.8246 20.2935 15.4376C20.2935 15.3624 20.2562 15.3314 20.1747 15.3314H12.6124C12.5188 15.3314 12.4936 15.3624 12.4936 15.4502V16.5626C12.4936 16.7061 12.4936 16.7061 12.6435 16.7061H16.3686ZM19.8692 14.0313C19.88 14.003 19.88 13.9719 19.8692 13.944C19.8057 13.8059 19.7306 13.674 19.6433 13.5503C19.5119 13.3388 19.3571 13.1439 19.1807 12.9689C19.0974 12.8631 19.0011 12.7681 18.8931 12.6876C18.3522 12.2272 17.7092 11.9014 17.018 11.7376C16.6692 11.6593 16.3128 11.622 15.9555 11.6251H12.5994C12.5058 11.6251 12.4932 11.6625 12.4932 11.7439V13.9625C12.4932 14.0561 12.4932 14.0813 12.612 14.0813H19.8242C19.8242 14.0813 19.8867 14.0687 19.8993 14.0313H19.8687H19.8692ZM19.8692 18.0062C19.763 17.9945 19.6559 17.9945 19.5497 18.0062H12.6187C12.5251 18.0062 12.4936 18.0062 12.4936 18.1313V20.3003C12.4936 20.4002 12.4936 20.4254 12.6187 20.4254H15.8187C15.9717 20.4371 16.1247 20.4263 16.2745 20.3944C16.739 20.3611 17.1957 20.2603 17.6313 20.0942C17.7897 20.0393 17.9427 19.9678 18.0872 19.8818H18.1308C18.881 19.4917 19.4903 18.8788 19.8746 18.1264C19.8746 18.1264 19.9182 18.0319 19.8692 18.0071V18.0062ZM11.2376 21.55V21.5126V20.0564V19.5628V18.094C11.2376 18.0125 11.2376 18.0004 11.1377 18.0004H9.78143C9.70628 18.0004 9.67523 18.0004 9.67523 17.9005V16.7129H11.1251C11.2061 16.7129 11.2376 16.7129 11.2376 16.6067V15.4317C11.2376 15.3566 11.2376 15.3381 11.1377 15.3381H9.78143C9.70628 15.3381 9.67523 15.3381 9.67523 15.2382V14.1384C9.67523 14.0696 9.67523 14.0511 9.77513 14.0511H11.1188C11.2124 14.0511 11.2376 14.0511 11.2376 13.9323V10.5636C11.2376 10.4637 11.2376 10.4385 11.3627 10.4385H16.05C16.3902 10.452 16.7282 10.4893 17.0625 10.551C17.7515 10.6783 18.4134 10.9245 19.0187 11.2759C19.4201 11.5122 19.7895 11.7975 20.1185 12.126C20.366 12.3829 20.5892 12.661 20.7872 12.9572C20.9838 13.2573 21.1472 13.5782 21.2754 13.9134C21.2912 14.0007 21.3749 14.0597 21.4622 14.0448H22.5809C22.7245 14.0448 22.7245 14.0448 22.7308 14.1825V15.2076C22.7308 15.3075 22.6934 15.3327 22.5931 15.3327H21.7304C21.6431 15.3327 21.6179 15.3327 21.6242 15.4452C21.6584 15.8259 21.6584 16.208 21.6242 16.5887C21.6242 16.6949 21.6242 16.7075 21.7435 16.7075H22.7303C22.774 16.7637 22.7303 16.82 22.7303 16.8767C22.7366 16.9491 22.7366 17.0225 22.7303 17.0949V17.8514C22.7303 17.9576 22.6993 17.9891 22.6052 17.9891H21.424C21.3416 17.9734 21.2615 18.026 21.2426 18.1079C20.9613 18.8392 20.5113 19.4948 19.9299 20.0204C19.7175 20.2117 19.4943 20.3917 19.2612 20.5577C19.011 20.7017 18.7676 20.8516 18.5111 20.9704C18.039 21.1828 17.544 21.3394 17.036 21.4388C16.5536 21.5252 16.0644 21.5644 15.5734 21.5576H11.2358V21.5513L11.2376 21.55Z" fill="#FEFEFD"/>
</g>
</g>
<defs>
<linearGradient id="paint0_linear_3479_184828" x1="24.6786" y1="8.69759" x2="7.3583" y2="23.2709" gradientUnits="userSpaceOnUse">
<stop stop-color="#B6509E"/>
<stop offset="1" stop-color="#2EBAC6"/>
</linearGradient>
<clipPath id="clip0_3479_184828">
<rect width="24" height="24" fill="white" transform="translate(4 4)"/>
</clipPath>
<clipPath id="clip1_3479_184828">
<rect width="20" height="20" fill="white" transform="translate(6 6)"/>
</clipPath>
</defs>
</svg>
