<svg width="32" height="32" viewBox="0 0 32 32" fill="none" xmlns="http://www.w3.org/2000/svg">
<path d="M31.5 16C31.5 24.5604 24.5604 31.5 16 31.5C7.43959 31.5 0.5 24.5604 0.5 16C0.5 7.43959 7.43959 0.5 16 0.5C24.5604 0.5 31.5 7.43959 31.5 16Z" fill="white" stroke="#CED3E6"/>
<mask id="mask0_3480_184915" style="mask-type:luminance" maskUnits="userSpaceOnUse" x="4" y="4" width="24" height="24">
<path d="M28 4H4V28H28V4Z" fill="white"/>
</mask>
<g mask="url(#mask0_3480_184915)">
<path d="M16 27.64C22.4286 27.64 27.64 22.4286 27.64 16C27.64 9.57141 22.4286 4.36 16 4.36C9.57141 4.36 4.36 9.57141 4.36 16C4.36 22.4286 9.57141 27.64 16 27.64Z" fill="url(#paint0_linear_3480_184915)"/>
</g>
<mask id="mask1_3480_184915" style="mask-type:luminance" maskUnits="userSpaceOnUse" x="4" y="4" width="24" height="24">
<path d="M28 4H4V28H28V4Z" fill="white"/>
</mask>
<g mask="url(#mask1_3480_184915)">
<path d="M16 27.64C22.4286 27.64 27.64 22.4286 27.64 16C27.64 9.57141 22.4286 4.36 16 4.36C9.57141 4.36 4.36 9.57141 4.36 16C4.36 22.4286 9.57141 27.64 16 27.64Z" fill="url(#paint1_linear_3480_184915)"/>
</g>
<g clip-path="url(#clip0_3480_184915)">
<path d="M25.5 16C25.5 21.2656 21.2656 25.5 16 25.5C10.7344 25.5 6.5 21.2656 6.5 16C6.5 10.7344 10.7344 6.5 16 6.5C21.2656 6.5 25.5 10.7344 25.5 16Z" fill="#2775CA" stroke="#2775CA"/>
<path d="M18.7778 17.669C18.7778 16.2974 17.9071 15.8271 16.1658 15.6312C14.922 15.4744 14.6733 15.161 14.6733 14.6123C14.6733 14.0636 15.0879 13.711 15.9171 13.711C16.6633 13.711 17.078 13.9461 17.2852 14.5339C17.3267 14.6515 17.4511 14.7298 17.5755 14.7298H18.2388C18.4046 14.7298 18.529 14.6123 18.529 14.4556V14.4163C18.3631 13.5542 17.6169 12.888 16.6633 12.8096V11.8691C16.6633 11.7123 16.539 11.5948 16.3317 11.5556H15.7098C15.5439 11.5556 15.4195 11.6731 15.3781 11.8691V12.7704C14.1343 12.9272 13.3466 13.711 13.3466 14.6907C13.3466 15.9839 14.1758 16.4933 15.9171 16.6893C17.078 16.8852 17.4511 17.1203 17.4511 17.7474C17.4511 18.3744 16.8706 18.8055 16.0829 18.8055C15.0049 18.8055 14.6318 18.3743 14.5074 17.7865C14.466 17.6298 14.3416 17.5514 14.2173 17.5514H13.5124C13.3466 17.5514 13.2222 17.669 13.2222 17.8257V17.865C13.388 18.8446 14.0514 19.55 15.4195 19.746V20.6865C15.4195 20.8432 15.5439 20.9608 15.7512 21H16.3731C16.539 21 16.6633 20.8824 16.7048 20.6865V19.746C17.9486 19.55 18.7778 18.727 18.7778 17.669Z" fill="white"/>
<path d="M13.9592 21.395C10.8381 20.316 9.23745 16.9634 10.3979 13.9961C10.9982 12.3776 12.3187 11.1445 13.9592 10.5664C14.1193 10.4894 14.1993 10.3738 14.1993 10.1811V9.64158C14.1993 9.48741 14.1193 9.3718 13.9592 9.33333C13.9192 9.33333 13.8392 9.33333 13.7991 9.3718C9.99776 10.5279 7.91696 14.4201 9.1174 18.0809C9.83767 20.2389 11.5583 21.896 13.7991 22.5896C13.9592 22.6667 14.1193 22.5896 14.1593 22.4354C14.1993 22.397 14.1993 22.3584 14.1993 22.2814V21.7418C14.1993 21.6262 14.0793 21.4721 13.9592 21.395ZM18.2009 9.3718C18.0408 9.29476 17.8807 9.3718 17.8407 9.52598C17.8007 9.56454 17.8007 9.60302 17.8007 9.68015V10.2196C17.8007 10.3738 17.9207 10.5279 18.0408 10.605C21.1619 11.684 22.7626 15.0366 21.6021 18.0039C21.0018 19.6224 19.6813 20.8555 18.0408 21.4335C17.8807 21.5106 17.8007 21.6262 17.8007 21.8189V22.3584C17.8007 22.5126 17.8807 22.6282 18.0408 22.6667C18.0808 22.6667 18.1608 22.6667 18.2009 22.6282C22.0022 21.4721 24.083 17.5799 22.8826 13.9191C22.1623 11.7225 20.4016 10.0654 18.2009 9.3718Z" fill="white"/>
</g>
<defs>
<linearGradient id="paint0_linear_3480_184915" x1="24.6786" y1="8.69759" x2="7.3583" y2="23.2709" gradientUnits="userSpaceOnUse">
<stop stop-color="#B6509E"/>
<stop offset="1" stop-color="#2EBAC6"/>
</linearGradient>
<linearGradient id="paint1_linear_3480_184915" x1="24.6786" y1="8.69759" x2="7.3583" y2="23.2709" gradientUnits="userSpaceOnUse">
<stop stop-color="#B6509E"/>
<stop offset="1" stop-color="#2EBAC6"/>
</linearGradient>
<clipPath id="clip0_3480_184915">
<rect x="6" y="6" width="20" height="20" fill="white"/>
</clipPath>
</defs>
</svg>
