<svg width="32" height="32" viewBox="0 0 32 32" fill="none" xmlns="http://www.w3.org/2000/svg">
<path d="M31.5 16C31.5 24.5604 24.5604 31.5 16 31.5C7.43959 31.5 0.5 24.5604 0.5 16C0.5 7.43959 7.43959 0.5 16 0.5C24.5604 0.5 31.5 7.43959 31.5 16Z" fill="white" stroke="#CED3E6"/>
<mask id="mask0_3480_185006" style="mask-type:luminance" maskUnits="userSpaceOnUse" x="4" y="4" width="24" height="24">
<path d="M28 4H4V28H28V4Z" fill="white"/>
</mask>
<g mask="url(#mask0_3480_185006)">
<path d="M16 27.64C22.4286 27.64 27.64 22.4286 27.64 16C27.64 9.57141 22.4286 4.36 16 4.36C9.57141 4.36 4.36 9.57141 4.36 16C4.36 22.4286 9.57141 27.64 16 27.64Z" fill="url(#paint0_linear_3480_185006)"/>
</g>
<mask id="mask1_3480_185006" style="mask-type:luminance" maskUnits="userSpaceOnUse" x="4" y="4" width="24" height="24">
<path d="M28 4H4V28H28V4Z" fill="white"/>
</mask>
<g mask="url(#mask1_3480_185006)">
<path d="M16 27.64C22.4286 27.64 27.64 22.4286 27.64 16C27.64 9.57141 22.4286 4.36 16 4.36C9.57141 4.36 4.36 9.57141 4.36 16C4.36 22.4286 9.57141 27.64 16 27.64Z" fill="url(#paint1_linear_3480_185006)"/>
</g>
<g clip-path="url(#clip0_3480_185006)">
<path d="M16 26C21.5228 26 26 21.5228 26 16C26 10.4772 21.5228 6 16 6C10.4772 6 6 10.4772 6 16C6 21.5228 10.4772 26 16 26Z" fill="#50AF95"/>
<g clip-path="url(#clip1_3480_185006)">
<path fill-rule="evenodd" clip-rule="evenodd" d="M11.0707 9.40426L8.23439 15.7638C8.2236 15.7874 8.22018 15.8142 8.22463 15.84C8.22908 15.8659 8.24118 15.8896 8.25914 15.9076L15.9194 23.743C15.9411 23.7653 15.9701 23.7778 16.0003 23.7778C16.0304 23.7778 16.0594 23.7653 16.0811 23.743L23.7414 15.9081C23.7593 15.8901 23.7714 15.8664 23.7759 15.8405C23.7803 15.8147 23.7769 15.7879 23.7661 15.7643L20.9298 9.40474C20.9206 9.38339 20.9059 9.36529 20.8874 9.35263C20.8689 9.33996 20.8473 9.33326 20.8253 9.33332H11.1761C11.154 9.33303 11.1323 9.33957 11.1136 9.35216C11.0949 9.36474 11.08 9.38284 11.0707 9.40426Z" fill="#50AF95"/>
<path fill-rule="evenodd" clip-rule="evenodd" d="M16.9842 16.4169C16.9292 16.4213 16.645 16.4394 16.0112 16.4394C15.5071 16.4394 15.1492 16.4232 15.0236 16.4169C13.0755 16.3254 11.6213 15.9634 11.6213 15.53C11.6213 15.0965 13.0755 14.735 15.0236 14.6421V16.0563C15.151 16.0661 15.5158 16.0891 16.0199 16.0891C16.6249 16.0891 16.9278 16.0622 16.9823 16.0568V14.643C18.9264 14.7355 20.3773 15.0975 20.3773 15.53C20.3773 15.9624 18.9268 16.3244 16.9823 16.4164L16.9842 16.4169ZM16.9842 14.4968V13.2312H19.6972V11.3014H12.3106V13.2312H15.0232V14.4963C12.8184 14.6044 11.1603 15.0706 11.1603 15.6293C11.1603 16.1879 12.8184 16.6536 15.0232 16.7622V20.8177H16.9837V16.7608C19.1835 16.6527 20.8388 16.1869 20.8388 15.6288C20.8388 15.0706 19.1848 14.6049 16.9837 14.4963L16.9842 14.4968Z" fill="white"/>
</g>
</g>
<defs>
<linearGradient id="paint0_linear_3480_185006" x1="24.6786" y1="8.69759" x2="7.3583" y2="23.2709" gradientUnits="userSpaceOnUse">
<stop stop-color="#B6509E"/>
<stop offset="1" stop-color="#2EBAC6"/>
</linearGradient>
<linearGradient id="paint1_linear_3480_185006" x1="24.6786" y1="8.69759" x2="7.3583" y2="23.2709" gradientUnits="userSpaceOnUse">
<stop stop-color="#B6509E"/>
<stop offset="1" stop-color="#2EBAC6"/>
</linearGradient>
<clipPath id="clip0_3480_185006">
<rect width="20" height="20" fill="white" transform="translate(6 6)"/>
</clipPath>
<clipPath id="clip1_3480_185006">
<rect width="15.5556" height="14.4444" fill="white" transform="translate(8.22222 9.33333)"/>
</clipPath>
</defs>
</svg>
