<svg width="32" height="32" viewBox="0 0 32 32" fill="none" xmlns="http://www.w3.org/2000/svg">
<path d="M31.5 16C31.5 24.5604 24.5604 31.5 16 31.5C7.43959 31.5 0.5 24.5604 0.5 16C0.5 7.43959 7.43959 0.5 16 0.5C24.5604 0.5 31.5 7.43959 31.5 16Z" fill="white" stroke="#CED3E6"/>
<mask id="mask0_3541_184997" style="mask-type:luminance" maskUnits="userSpaceOnUse" x="4" y="4" width="24" height="24">
<path d="M28 4H4V28H28V4Z" fill="white"/>
</mask>
<g mask="url(#mask0_3541_184997)">
<path d="M16 27.64C22.4286 27.64 27.64 22.4286 27.64 16C27.64 9.57139 22.4286 4.35999 16 4.35999C9.57141 4.35999 4.36 9.57139 4.36 16C4.36 22.4286 9.57141 27.64 16 27.64Z" fill="url(#paint0_linear_3541_184997)"/>
</g>
<mask id="mask1_3541_184997" style="mask-type:luminance" maskUnits="userSpaceOnUse" x="4" y="4" width="24" height="24">
<path d="M28 4H4V28H28V4Z" fill="white"/>
</mask>
<g mask="url(#mask1_3541_184997)">
<path d="M16 27.64C22.4286 27.64 27.64 22.4286 27.64 16C27.64 9.57139 22.4286 4.35999 16 4.35999C9.57141 4.35999 4.36 9.57139 4.36 16C4.36 22.4286 9.57141 27.64 16 27.64Z" fill="url(#paint1_linear_3541_184997)"/>
</g>
<g clip-path="url(#clip0_3541_184997)">
<rect x="6" y="6" width="20" height="20" rx="10" fill="white"/>
<path d="M22.308 10.1966L21.7588 10.7457C23.0693 12.1787 23.7959 14.0502 23.7959 15.9919C23.7959 17.9337 23.0693 19.8052 21.7588 21.2381L22.308 21.7873C23.7652 20.2066 24.5743 18.1354 24.5743 15.9855C24.5743 13.8356 23.7652 11.7644 22.308 10.1838V10.1966Z" fill="#45423D"/>
<path d="M10.7592 10.2445C12.1921 8.93412 14.0636 8.20746 16.0053 8.20746C17.9471 8.20746 19.8186 8.93412 21.2516 10.2445L21.8007 9.69533C20.22 8.23807 18.1488 7.42902 15.9989 7.42902C13.849 7.42902 11.7779 8.23807 10.1972 9.69533L10.7592 10.2445Z" fill="#45423D"/>
<path d="M10.2449 21.2443C8.9361 19.8116 8.21039 17.9413 8.21039 16.0008C8.21039 14.0603 8.9361 12.19 10.2449 10.7573L9.69576 10.2082C8.2385 11.7889 7.42944 13.86 7.42944 16.0099C7.42944 18.1599 8.2385 20.231 9.69576 21.8117L10.2449 21.2443Z" fill="#45423D"/>
<path d="M21.2444 21.7519C19.8115 23.0623 17.94 23.789 15.9983 23.789C14.0565 23.789 12.185 23.0623 10.752 21.7519L10.2029 22.3011C11.7835 23.7583 13.8547 24.5674 16.0047 24.5674C18.1546 24.5674 20.2257 23.7583 21.8064 22.3011L21.2444 21.7519Z" fill="#45423D"/>
<path d="M19.4671 14.1675C19.3572 13.0217 18.3688 12.6372 17.1186 12.5201V10.9422H16.1521V12.4908C15.8977 12.4908 15.6377 12.4908 15.3796 12.4908V10.9422H14.4204V12.5311H12.46V13.5653C12.46 13.5653 13.1739 13.5525 13.1629 13.5653C13.2916 13.5511 13.4208 13.5875 13.5232 13.6667C13.6257 13.7459 13.6933 13.8618 13.712 13.99V18.3392C13.7093 18.3844 13.6975 18.4287 13.6774 18.4692C13.6572 18.5097 13.6292 18.5458 13.5949 18.5754C13.5612 18.6055 13.5218 18.6284 13.479 18.6429C13.4362 18.6574 13.3909 18.6631 13.3459 18.6596C13.3587 18.6706 12.643 18.6596 12.643 18.6596L12.46 19.8146H14.4021V21.4291H15.3686V19.8384H16.1411V21.4218H17.1094V19.8256C18.7422 19.7267 19.8808 19.3241 20.0236 17.7956C20.1389 16.5655 19.5605 16.0163 18.6361 15.7948C19.198 15.5185 19.5458 15.0059 19.4671 14.1675ZM18.1125 17.6052C18.1125 18.806 16.0551 18.6687 15.3997 18.6687V16.5381C16.0551 16.5399 18.1125 16.3513 18.1125 17.6052ZM17.6641 14.6032C17.6641 15.7015 15.9471 15.5679 15.4016 15.5679V13.6312C15.9471 13.6312 17.6641 13.4591 17.6641 14.6032Z" fill="#FF9400"/>
<path d="M15.9982 26C14.0205 25.9997 12.0874 25.4129 10.4432 24.3139C8.79895 23.215 7.51751 21.6532 6.76086 19.826C6.00421 17.9988 5.80633 15.9883 6.19224 14.0486C6.57815 12.109 7.53052 10.3273 8.92893 8.92893C10.3273 7.53052 12.109 6.57815 14.0486 6.19224C15.9883 5.80633 17.9988 6.00421 19.826 6.76086C21.6532 7.51751 23.215 8.79895 24.3139 10.4432C25.4129 12.0874 25.9997 14.0205 26 15.9982C26.0002 17.3117 25.7417 18.6124 25.2392 19.826C24.7366 21.0396 23.9999 22.1423 23.0711 23.0711C22.1423 23.9999 21.0396 24.7366 19.826 25.2392C18.6124 25.7417 17.3117 26.0002 15.9982 26ZM15.9982 6.7798C14.1761 6.78124 12.3954 7.32282 10.8811 8.33606C9.36682 9.3493 8.18688 10.7887 7.49046 12.4724C6.79403 14.1561 6.61238 16.0084 6.96847 17.7953C7.32454 19.5822 8.20237 21.2235 9.491 22.5116C10.7796 23.7997 12.4212 24.6769 14.2082 25.0322C15.9952 25.3877 17.8476 25.2052 19.531 24.5082C21.2143 23.8111 22.6533 22.6306 23.666 21.1158C24.6786 19.6012 25.2195 17.8202 25.2202 15.9982C25.2207 14.7872 24.9825 13.5879 24.5192 12.469C24.0558 11.3502 23.3765 10.3336 22.52 9.47743C21.6635 8.62128 20.6467 7.94235 19.5276 7.47947C18.4085 7.01659 17.2092 6.77883 15.9982 6.7798Z" fill="#014250"/>
</g>
<defs>
<linearGradient id="paint0_linear_3541_184997" x1="24.6786" y1="8.69758" x2="7.3583" y2="23.2709" gradientUnits="userSpaceOnUse">
<stop stop-color="#B6509E"/>
<stop offset="1" stop-color="#2EBAC6"/>
</linearGradient>
<linearGradient id="paint1_linear_3541_184997" x1="24.6786" y1="8.69758" x2="7.3583" y2="23.2709" gradientUnits="userSpaceOnUse">
<stop stop-color="#B6509E"/>
<stop offset="1" stop-color="#2EBAC6"/>
</linearGradient>
<clipPath id="clip0_3541_184997">
<rect width="20" height="20" fill="white" transform="translate(6 6)"/>
</clipPath>
</defs>
</svg>
