<svg width="32" height="32" viewBox="0 0 32 32" fill="none" xmlns="http://www.w3.org/2000/svg">
<path d="M31.5 16C31.5 24.5604 24.5604 31.5 16 31.5C7.43959 31.5 0.5 24.5604 0.5 16C0.5 7.43959 7.43959 0.5 16 0.5C24.5604 0.5 31.5 7.43959 31.5 16Z" fill="white" stroke="#CED3E6"/>
<mask id="mask0_3541_184938" style="mask-type:luminance" maskUnits="userSpaceOnUse" x="4" y="4" width="24" height="24">
<path d="M28 4H4V28H28V4Z" fill="white"/>
</mask>
<g mask="url(#mask0_3541_184938)">
<path d="M16 27.64C22.4286 27.64 27.64 22.4286 27.64 16C27.64 9.57139 22.4286 4.35999 16 4.35999C9.57141 4.35999 4.36 9.57139 4.36 16C4.36 22.4286 9.57141 27.64 16 27.64Z" fill="url(#paint0_linear_3541_184938)"/>
</g>
<mask id="mask1_3541_184938" style="mask-type:luminance" maskUnits="userSpaceOnUse" x="4" y="4" width="24" height="24">
<path d="M28 4H4V28H28V4Z" fill="white"/>
</mask>
<g mask="url(#mask1_3541_184938)">
<path d="M16 27.64C22.4286 27.64 27.64 22.4286 27.64 16C27.64 9.57139 22.4286 4.35999 16 4.35999C9.57141 4.35999 4.36 9.57139 4.36 16C4.36 22.4286 9.57141 27.64 16 27.64Z" fill="url(#paint1_linear_3541_184938)"/>
</g>
<path d="M12.3971 24C16.5198 24 16.5198 23.9387 17.2191 23.7323C18.1325 23.4623 14.6396 21.0543 12.3971 21.0543C10.1546 21.0543 8.33651 21.7139 8.33651 22.5273C8.33651 23.3407 10.1539 24 12.3971 24Z" fill="black"/>
<path d="M21.7588 11.4754L21.9485 11.6788L21.783 11.9019C16.4059 19.1421 13.3083 22.4201 11.994 21.9806C11.1937 21.7127 10.3908 20.9074 9.58789 19.7379C9.30572 19.3267 9.04066 18.8938 8.79972 18.4632C8.6393 18.1763 8.50349 17.9148 8.43292 17.7675C8.35932 17.6236 8.30627 17.4701 8.27529 17.3116L8.27165 17.2933C8.25953 17.2287 8.25468 17.2087 8.24522 17.1725C7.87614 15.7874 7.92458 14.3248 8.38449 12.9669C8.84441 11.6091 9.69546 10.416 10.8316 9.53656C11.9677 8.65708 13.3386 8.13003 14.7734 8.02112C16.2082 7.91221 17.6435 8.22625 18.9003 8.9241L18.9282 8.94149C19.8148 9.55636 20.7583 10.401 21.7588 11.4755M18.5577 9.50045C17.4156 8.87098 16.113 8.58959 14.8117 8.69126C13.5104 8.79293 12.2677 9.27317 11.2382 10.0723C10.2087 10.8714 9.43771 11.9542 9.02103 13.1861C8.60435 14.418 8.56037 15.7447 8.89454 17.0013C8.9091 17.0559 8.91576 17.0865 8.93092 17.1656L8.93395 17.1819C8.9545 17.2854 8.99008 17.3854 9.03957 17.4787C9.10395 17.6132 9.23358 17.8621 9.38684 18.1367C9.61856 18.5507 9.87308 18.9665 10.1426 19.3596C10.8682 20.416 11.5874 21.1378 12.2079 21.3454C13.0357 21.6223 16.1515 18.3376 21.0756 11.7276C20.3128 10.9037 19.4693 10.1576 18.5577 9.50045Z" fill="black"/>
<path d="M18.5577 9.50033C17.4156 8.8708 16.113 8.58938 14.8116 8.69103C13.5103 8.79268 12.2676 9.27293 11.2381 10.0721C10.2085 10.8713 9.43752 11.9541 9.02085 13.186C8.60418 14.418 8.56023 15.7447 8.89446 17.0013C8.90901 17.0559 8.91568 17.0865 8.93084 17.1656L8.93387 17.1819C8.9543 17.2856 8.98979 17.3857 9.03924 17.4792C9.10363 17.6137 9.23325 17.8626 9.38652 18.1372C9.61824 18.5511 9.87276 18.967 10.1423 19.3601C10.8679 20.4165 11.5871 21.1383 12.2075 21.3458C13.0358 21.6231 16.1513 18.3386 21.0756 11.7281C20.3128 10.9039 19.4693 10.1576 18.5577 9.50033Z" fill="#EC1C79"/>
<path d="M16.6725 23.9329C15.2232 23.9329 13.8065 23.5049 12.6015 22.7031C11.3964 21.9013 10.4572 20.7616 9.90263 19.4282C9.34802 18.0948 9.2029 16.6276 9.48564 15.2121C9.76838 13.7965 10.4663 12.4963 11.4911 11.4758C12.5158 10.4552 13.8215 9.76022 15.2429 9.47866C16.6643 9.19709 18.1377 9.3416 19.4766 9.89391C20.8156 10.4462 21.96 11.3815 22.7652 12.5815C23.5703 13.7816 24.0001 15.1924 24.0001 16.6357C24.0001 17.594 23.8106 18.5429 23.4423 19.4282C23.0741 20.3136 22.5343 21.118 21.8539 21.7956C21.1735 22.4732 20.3657 23.0107 19.4766 23.3775C18.5876 23.7442 17.6347 23.9329 16.6725 23.9329ZM16.6725 23.2634C17.9887 23.2634 19.2755 22.8747 20.3699 22.1464C21.4643 21.4182 22.3173 20.383 22.821 19.172C23.3247 17.961 23.4565 16.6284 23.1997 15.3427C22.9429 14.0571 22.309 12.8762 21.3783 11.9493C20.4475 11.0224 19.2617 10.3912 17.9707 10.1355C16.6797 9.87976 15.3415 10.011 14.1255 10.5127C12.9094 11.0143 11.87 11.8638 11.1387 12.9537C10.4074 14.0436 10.0171 15.325 10.0171 16.6358C10.0171 18.3935 10.7183 20.0793 11.9664 21.3222C13.2145 22.5651 14.9073 23.2634 16.6723 23.2634" fill="black"/>
<path d="M16.6724 23.2636C17.9887 23.2636 19.2754 22.8749 20.3699 22.1467C21.4643 21.4184 22.3173 20.3833 22.8211 19.1723C23.3248 17.9612 23.4566 16.6286 23.1998 15.343C22.943 14.0574 22.3092 12.8764 21.3784 11.9495C20.4477 11.0226 19.2619 10.3914 17.9709 10.1357C16.6799 9.87992 15.3417 10.0112 14.1257 10.5128C12.9096 11.0144 11.8702 11.8638 11.1388 12.9537C10.4075 14.0436 10.0172 15.325 10.0172 16.6358C10.0172 18.3936 10.7184 20.0793 11.9665 21.3223C13.2146 22.5652 14.9074 23.2635 16.6724 23.2635" fill="white"/>
<path fill-rule="evenodd" clip-rule="evenodd" d="M11.6938 17.9934L10.8129 15.3503H11.5848L12.0441 16.8687L12.5521 15.3428H13.1805L13.6887 16.8687L14.148 15.3503H14.9049L14.024 17.9934H13.3879L12.8572 16.4826L12.3299 17.9934H11.6938ZM15.1948 17.9748V15.3503H17.3144V15.9691H15.9179V16.3665H17.1827V16.9404H15.9179V17.3564H17.3331V17.9751L15.1948 17.9748ZM18.3499 17.9748V15.9877H17.5595V15.3503H19.8705V15.9877H19.08V17.9746L18.3499 17.9748ZM20.1907 17.9748V15.3503H20.9212V16.3324H21.8585V15.3503H22.5892V17.9746H21.8585V16.9775H20.9212V17.9746L20.1907 17.9748Z" fill="black"/>
<path d="M8.43702 14.5609C8.3477 14.5164 8.27978 14.4384 8.24819 14.3441C8.21661 14.2497 8.22395 14.1468 8.2686 14.0578C8.31325 13.9689 8.39156 13.9012 8.48629 13.8698C8.58103 13.8383 8.68443 13.8456 8.77375 13.8901L9.84917 14.4259C9.89338 14.4479 9.93281 14.4783 9.9652 14.5155C9.99759 14.5527 10.0223 14.5959 10.038 14.6426C10.0536 14.6892 10.0598 14.7385 10.0564 14.7876C10.0529 14.8367 10.0397 14.8847 10.0176 14.9287C9.9955 14.9727 9.96492 15.012 9.92758 15.0442C9.89025 15.0765 9.84691 15.1011 9.80002 15.1167C9.75314 15.1323 9.70363 15.1385 9.65433 15.135C9.60503 15.1315 9.5569 15.1184 9.51269 15.0964L8.43702 14.5609Z" fill="black"/>
<path d="M8.31323 16.3372C8.26835 16.3165 8.22798 16.2873 8.19444 16.2512C8.1609 16.215 8.13483 16.1726 8.11774 16.1265C8.10064 16.0803 8.09284 16.0312 8.09479 15.982C8.09674 15.9328 8.1084 15.8845 8.1291 15.8398C8.1498 15.7951 8.17914 15.7549 8.21544 15.7215C8.25174 15.6881 8.29429 15.6622 8.34066 15.6452C8.38703 15.6281 8.43632 15.6204 8.48571 15.6223C8.53509 15.6242 8.58361 15.6359 8.62849 15.6565L9.70415 16.1506C9.79359 16.193 9.86265 16.2688 9.89636 16.3615C9.93007 16.4543 9.92572 16.5565 9.88424 16.6461C9.84277 16.7357 9.76751 16.8054 9.67479 16.8401C9.58206 16.8748 9.47934 16.8717 9.38889 16.8315L8.31323 16.3372Z" fill="black"/>
<defs>
<linearGradient id="paint0_linear_3541_184938" x1="24.6786" y1="8.69758" x2="7.3583" y2="23.2709" gradientUnits="userSpaceOnUse">
<stop stop-color="#B6509E"/>
<stop offset="1" stop-color="#2EBAC6"/>
</linearGradient>
<linearGradient id="paint1_linear_3541_184938" x1="24.6786" y1="8.69758" x2="7.3583" y2="23.2709" gradientUnits="userSpaceOnUse">
<stop stop-color="#B6509E"/>
<stop offset="1" stop-color="#2EBAC6"/>
</linearGradient>
</defs>
</svg>
