<svg width="32" height="32" viewBox="0 0 32 32" fill="none" xmlns="http://www.w3.org/2000/svg">
<path d="M31.5 16C31.5 24.5604 24.5604 31.5 16 31.5C7.43959 31.5 0.5 24.5604 0.5 16C0.5 7.43959 7.43959 0.5 16 0.5C24.5604 0.5 31.5 7.43959 31.5 16Z" fill="white" stroke="#CED3E6"/>
<path d="M16 28C22.6274 28 28 22.6274 28 16C28 9.37258 22.6274 4 16 4C9.37258 4 4 9.37258 4 16C4 22.6274 9.37258 28 16 28Z" fill="#0054F9"/>
<path fill-rule="evenodd" clip-rule="evenodd" d="M25.3337 14.8878C25.3607 15.0888 25.381 15.2913 25.3952 15.496L25.3742 15.244L25.3292 15.496C25.3117 15.5811 25.2925 15.6659 25.2715 15.7503L25.204 16.0038L25.1695 16.12C24.9969 16.6557 24.7366 17.159 24.3992 17.6095C24.1183 18.0061 23.781 18.3596 23.398 18.6588C23.3177 18.7225 23.2509 18.8015 23.2015 18.8913C23.151 19.0073 23.1206 19.1311 23.1115 19.2573L23.0965 19.447L23.089 19.528L23.0815 19.6023L23.0725 19.6713L23.0627 19.738L23.0507 19.8033L23.0207 19.9608C22.8685 20.7318 22.5925 21.2988 22.1605 21.9528L21.7015 22.6165C21.0047 23.533 20.185 24.124 19.2025 24.4113L18.9955 24.4735L18.7832 24.5035C18.5032 24.5512 18.2198 24.5763 17.9357 24.5785H17.5592L17.3267 24.5935C17.17 24.5935 17.0252 24.6213 16.8572 24.6813C16.1747 24.8958 15.3595 25 14.356 25H14.2292L14.0387 24.9963L13.909 24.9933L13.7065 24.9858L13.564 24.9798L13.336 24.9685L13.1785 24.961C13.0316 24.9151 12.8858 24.8656 12.7412 24.8125L13.3412 24.8485L13.5685 24.8598L13.7785 24.8688L13.9765 24.8748L14.104 24.8778L14.293 24.88H14.4655C15.4067 24.8725 16.1755 24.769 16.8182 24.568C16.996 24.5035 17.1557 24.4743 17.3222 24.4743L17.5547 24.4593H17.9357C18.19 24.4593 18.4712 24.433 18.7652 24.3843L18.9692 24.3565L19.2445 24.2725C20.167 23.9845 20.941 23.4168 21.6025 22.546L22.0585 21.886C22.4987 21.2208 22.7732 20.6478 22.9187 19.8483L22.9247 19.8153L22.9367 19.7508L22.9472 19.687L22.9562 19.621L22.9637 19.5505L22.972 19.4748L22.9832 19.345L22.9937 19.1913C23.0089 19.0704 23.0418 18.9524 23.0912 18.841C23.1407 18.7435 23.2217 18.6475 23.3207 18.565C23.6954 18.2727 24.0254 17.9274 24.3002 17.5398C24.6347 17.0898 24.889 16.5993 25.0525 16.0848C25.1582 15.742 25.234 15.4 25.2782 15.0648V15.0348L25.2835 15.0123L25.3337 14.8878ZM24.9032 13.0893C24.9347 13.1793 24.9655 13.2715 24.9947 13.3638L24.9805 13.471L24.9655 13.5835L24.9617 13.6045L24.9392 13.7425V13.7823C24.8739 14.1383 24.7697 14.4861 24.6287 14.8195L24.619 14.8383V14.8548C24.619 14.8698 24.6182 14.881 24.6137 14.899L24.6062 14.9328L24.604 14.9448V14.9958C24.5688 15.2966 24.5014 15.5928 24.403 15.8793C24.253 16.3305 24.035 16.7561 23.7565 17.1415L23.6987 17.221C23.4479 17.5606 23.1496 17.8624 22.813 18.1173C22.6757 18.2118 22.558 18.3498 22.4642 18.5193C22.3777 18.6766 22.333 18.8535 22.3345 19.033C22.3345 19.2595 22.3082 19.4823 22.2572 19.735C22.1697 20.1845 22.0147 20.6181 21.7975 21.0213L21.76 21.0903L21.724 21.1563L21.6655 21.2568L21.598 21.367L21.4862 21.5448L21.1502 22.027C20.5397 22.861 19.8415 23.3853 19.0052 23.6253L18.9527 23.6425C18.9487 23.6432 18.9447 23.644 18.9407 23.6448L18.916 23.6508L18.8567 23.6673L18.823 23.6763C18.8069 23.6801 18.7906 23.6831 18.7742 23.6853L18.7367 23.6875L18.6932 23.7025C18.5027 23.74 18.2935 23.7588 18.067 23.7625L17.9815 23.7633H17.5877L17.548 23.7648L17.3177 23.776L17.2652 23.7783H17.1947C17.1447 23.7796 17.0948 23.7846 17.0455 23.7933L16.99 23.803L16.9277 23.8165L16.894 23.8248L16.819 23.8435L16.7327 23.866C16.0277 24.0715 15.2852 24.169 14.3552 24.169H14.1827L14.0672 24.1668L13.8917 24.1615L13.7072 24.154L13.5092 24.145L13.2917 24.133L12.6647 24.094L12.577 24.0933L12.5042 24.0783L12.4322 24.0685L12.3452 24.058L12.2972 24.0535L12.2522 24.0505L12.2087 24.049H12.1862C11.5585 23.9868 11.0987 23.8975 10.5962 23.6973C10.4161 23.5698 10.24 23.4367 10.0682 23.2983C10.1342 23.3395 10.2017 23.38 10.2715 23.4183L10.3442 23.4618L10.4342 23.5068C11.0072 23.764 11.494 23.8675 12.1922 23.9373H12.2132L12.2545 23.938L12.2965 23.941L12.3422 23.9448L12.3932 23.9508L12.5237 23.968L12.5882 23.9823H12.6677L13.1417 24.0123L13.3727 24.025L13.6472 24.04L13.8347 24.0475L13.954 24.0513L14.1265 24.055L14.2412 24.0565H14.356C15.2747 24.0565 16.0075 23.9613 16.702 23.7588L16.8325 23.7243L16.906 23.7063L16.972 23.6928L17.0312 23.6815C17.0972 23.671 17.1557 23.6665 17.2195 23.6665H17.2412L17.3132 23.6643L17.491 23.6545L17.5735 23.6515H17.9815C18.2335 23.6515 18.4652 23.6328 18.664 23.5938L18.7097 23.5788L18.7277 23.5765C18.7588 23.5758 18.7896 23.5708 18.8192 23.5615L18.8717 23.5465L18.901 23.539L18.9235 23.5338L18.9707 23.5188C19.7837 23.2848 20.4617 22.7763 21.0572 21.9625L21.391 21.4833L21.4502 21.3903L21.5245 21.2703L21.5665 21.2005L21.6055 21.1338L21.643 21.0693L21.6782 21.0033L21.7157 20.9343C21.918 20.5505 22.0627 20.1391 22.1455 19.7133C22.1957 19.4665 22.2205 19.2513 22.2205 19.033L22.2212 18.982C22.2287 18.7968 22.2767 18.6243 22.3645 18.4645C22.4657 18.2823 22.5955 18.1308 22.7455 18.0265C23.098 17.758 23.4062 17.443 23.6635 17.0763L23.716 17.0028C23.959 16.6548 24.1532 16.2655 24.295 15.8448C24.39 15.5675 24.4554 15.2809 24.49 14.9898V14.9448C24.49 14.9343 24.4915 14.9238 24.4937 14.9118L24.5042 14.8668C24.5052 14.8628 24.5057 14.8588 24.5057 14.8548V14.8248L24.5117 14.8L24.5252 14.7738C24.6655 14.4348 24.7682 14.0935 24.8252 13.7725L24.826 13.7343L24.8335 13.6893L24.8635 13.4928C24.8822 13.3533 24.8957 13.2183 24.9032 13.0863V13.0893ZM19.063 8.61026C19.6885 8.61026 20.2157 8.68151 20.6785 8.82326L20.7002 8.83601L20.7227 8.85851L20.7835 8.88101C21.5642 9.17801 21.988 9.49826 22.4387 10.0473L22.5902 10.2348L22.6705 10.3323C22.75 10.426 22.825 10.5048 22.924 10.5948L23.044 10.7118L23.0687 10.7358C23.089 10.7543 23.1105 10.7713 23.1332 10.7868L23.2037 10.8423L23.2862 10.9098L23.3725 10.984C23.5669 11.1566 23.7356 11.3561 23.8735 11.5765L23.9245 11.6455L23.9545 11.7055C24.2695 12.3258 24.2815 12.847 24.1435 13.6075L24.1427 13.645C24.098 13.9055 24.0271 14.1607 23.9312 14.407L23.896 14.4985L23.8832 14.5285C23.8554 14.5878 23.8396 14.6521 23.8367 14.7175C23.8271 14.7532 23.8226 14.7901 23.8232 14.827V14.9065C23.7982 15.1515 23.7409 15.392 23.653 15.622C23.5323 15.9951 23.3498 16.3452 23.113 16.6578C22.7672 17.1543 22.3615 17.5023 21.8695 17.7145C21.7697 17.7513 21.6857 17.824 21.6047 17.9365C21.5409 18.0302 21.5022 18.1386 21.4922 18.2515V18.3678C21.5312 18.8335 21.5282 19.2003 21.4607 19.5843C21.346 20.1783 21.151 20.587 20.797 21.1225L20.7107 21.2365L20.6477 21.316L20.5795 21.4008C20.4054 21.6134 20.2204 21.8169 20.0252 22.0105C19.6825 22.3495 19.3457 22.6105 19.0277 22.762C18.9502 22.7993 18.87 22.8306 18.7877 22.8558L18.6745 22.8873L18.5695 22.9023C18.3835 22.9323 18.1975 22.9473 18.0122 22.9473H17.5877L17.2007 22.9645L16.9487 22.978L16.849 22.9855L16.81 22.99C16.806 22.9914 16.802 22.9926 16.798 22.9938L16.771 23.0005L16.735 23.008L16.7095 23.0133C16.6955 23.0163 16.6821 23.0216 16.6697 23.029L16.6555 23.0365C15.9535 23.239 15.244 23.3388 14.356 23.3388H14.2457L14.0807 23.3358L13.9697 23.3328L13.7957 23.3268L13.6735 23.3208L13.5437 23.3148L13.2587 23.2983L12.7262 23.2638H12.628L12.4952 23.2465L12.2927 23.218L12.2147 23.2098L12.0655 23.1925C11.5345 23.1265 11.1812 23.0425 10.7522 22.852L10.6847 22.819L10.6427 22.7905C9.799 22.3165 9.35575 21.7533 8.90275 20.776L8.8405 20.641C8.81948 20.5939 8.79873 20.5466 8.77825 20.4993L8.74375 20.4303L8.71075 20.3628C8.69007 20.3196 8.67204 20.2753 8.65675 20.23L8.626 20.17C8.56806 20.0533 8.51746 19.933 8.4745 19.81L8.449 19.7395L8.422 19.6593L8.36725 19.492L8.35225 19.462L8.34625 19.4395L8.3485 19.423C8.02375 18.2658 8.13325 17.5285 8.76625 16.6143L8.83 16.5205L8.8465 16.5003L8.9065 16.4238L8.9815 16.3263L9.11875 16.1523L9.22975 16.0128L9.27775 15.9543L9.32275 15.9018L9.36625 15.8523L9.40825 15.8058L9.45175 15.76L9.49675 15.7135L9.54475 15.6655C9.58412 15.6166 9.61182 15.5594 9.62575 15.4983L9.64075 15.2305V15.0483C9.66625 14.4408 9.877 13.9728 10.2505 13.4358C10.2577 13.4283 10.264 13.42 10.2692 13.411L10.2782 13.396L10.2947 13.3683L10.303 13.3555L10.3352 13.2925L10.363 13.2535L10.4132 13.1515C10.474 13.0278 10.5295 12.907 10.573 12.7945L10.6262 12.631L10.6735 12.4923L10.6952 12.4338L10.7042 12.4053L10.7102 12.3828L10.723 12.31C10.753 12.0025 10.8257 11.6988 10.942 11.3898L10.9705 11.3335L10.987 11.29L11.0305 11.164L11.0455 11.1265C11.1655 10.7448 11.3035 10.462 11.5735 10.1313L11.671 10.0203L11.761 9.94676C12.3452 9.42176 12.9805 9.21176 13.7312 9.16676H13.8835C14.2412 9.16676 14.65 9.29426 15.1255 9.50276L15.1525 9.51401C15.2308 9.54442 15.3164 9.5512 15.3985 9.53351L15.4292 9.52826L15.499 9.51326L15.5717 9.48701C15.6752 9.44726 15.7817 9.40076 15.892 9.34826L15.9745 9.30851L16.126 9.22451L16.2385 9.16301C16.2985 9.13076 16.357 9.10076 16.4155 9.07226C16.8205 8.87201 17.2082 8.74451 17.6305 8.70026C17.6455 8.70026 17.6582 8.69876 17.6785 8.69426L17.71 8.68751L17.7205 8.68601H17.728L17.743 8.68376L17.7767 8.67851L17.7962 8.67701L17.8427 8.67251L17.9897 8.66201L18.0512 8.65601C18.1217 8.64701 18.2027 8.63951 18.2927 8.63351L18.4045 8.62601L18.5245 8.62076L18.6505 8.61626L18.7825 8.61326L18.9205 8.61101L19.063 8.61026ZM19.165 8.71526H18.922L18.7855 8.71751L18.7195 8.71826L18.592 8.72276C18.5702 8.72276 18.55 8.72426 18.5297 8.72501L18.412 8.73026L18.301 8.73776L18.199 8.74526L18.106 8.75426L18.0632 8.75951L17.9987 8.76551L17.8787 8.77451L17.8082 8.78051L17.7715 8.78426L17.7377 8.78951L17.7265 8.79101L17.6822 8.80001C17.6674 8.803 17.6524 8.80451 17.6372 8.80451C17.2337 8.84651 16.8572 8.97026 16.4627 9.16451C16.3834 9.20387 16.3049 9.24488 16.2272 9.28751L16.1777 9.31526L16.0247 9.40076C15.8628 9.48164 15.6963 9.55301 15.526 9.61451L15.4495 9.63026L15.4157 9.63626C15.3776 9.64299 15.339 9.6465 15.3002 9.64676C15.2242 9.64614 15.1492 9.629 15.0805 9.59651C14.62 9.39476 14.2217 9.27101 13.8835 9.27101H13.7342C13.009 9.31376 12.3955 9.51701 11.83 10.0248L11.7452 10.0945L11.6552 10.198C11.395 10.5153 11.263 10.7875 11.1452 11.1618L11.128 11.2053L11.0995 11.2878L11.08 11.3425L11.0665 11.3763L11.0387 11.431C10.9297 11.718 10.8588 12.0181 10.828 12.3235L10.8175 12.3828L10.81 12.4165L10.8017 12.4473L10.7732 12.5268L10.7507 12.5935L10.6727 12.8298C10.6124 12.9803 10.5451 13.128 10.471 13.2723L10.4537 13.3053L10.4267 13.345L10.3967 13.405L10.3862 13.4185L10.3592 13.4658C10.3517 13.479 10.3423 13.4911 10.3315 13.5018C9.9745 14.0163 9.7705 14.4693 9.7465 15.0505V15.2335L9.73075 15.511C9.71385 15.5924 9.67757 15.6686 9.625 15.733L9.553 15.805L9.5095 15.8508L9.46675 15.8973L9.42475 15.9445L9.38125 15.9948L9.3115 16.0795L9.259 16.144L9.06625 16.3893L8.9755 16.507L8.9155 16.582L8.818 16.726C8.2345 17.5893 8.14 18.2898 8.452 19.4088V19.4268L8.46475 19.4523L8.5495 19.705L8.5735 19.7748L8.611 19.876C8.6545 19.987 8.6995 20.086 8.7505 20.1813L8.7535 20.1888C8.767 20.2285 8.785 20.2713 8.80675 20.3193L8.82175 20.3515L8.87275 20.4528L8.90575 20.5278L8.968 20.6665L8.99875 20.734L9.061 20.8653C9.48475 21.7428 9.9145 22.2618 10.6982 22.7028L10.738 22.729L10.7972 22.7583C11.2135 22.942 11.5585 23.0245 12.082 23.089L12.229 23.1063L12.3062 23.1145L12.3797 23.125L12.6347 23.1595H12.7292L13.4117 23.203L13.549 23.2105L13.7995 23.2225L13.9157 23.227L14.0282 23.23L14.083 23.2315L14.2465 23.2338L14.356 23.2345C15.2342 23.2345 15.9332 23.1363 16.6195 22.9375L16.6277 22.933C16.6456 22.9238 16.6645 22.9168 16.684 22.912L16.7065 22.9068L16.7605 22.8955L16.7845 22.8895L16.8032 22.8865L16.8557 22.8813L16.9262 22.8753L17.074 22.867L17.5855 22.8438H18.0122C18.1922 22.8438 18.3722 22.8288 18.5522 22.7988L18.6527 22.7853L18.7577 22.7553C18.8305 22.7343 18.9047 22.7043 18.9812 22.6683C19.2872 22.5228 19.615 22.2685 19.951 21.937C20.1445 21.745 20.329 21.5395 20.497 21.3348L20.5645 21.2515L20.5967 21.2118L20.6552 21.1368L20.71 21.064C21.0557 20.5405 21.2447 20.143 21.3572 19.5655C21.4225 19.192 21.4255 18.8343 21.3872 18.3715V18.2448C21.406 18.0948 21.4442 17.9778 21.5185 17.8758C21.6107 17.7483 21.7105 17.662 21.8297 17.6178C22.3 17.4153 22.6907 17.08 23.0275 16.5978C23.2555 16.2978 23.434 15.9558 23.554 15.5868C23.6335 15.3895 23.683 15.1728 23.7175 14.8998V14.8263C23.7175 14.7738 23.722 14.7423 23.7325 14.7048C23.7325 14.6455 23.7437 14.599 23.7745 14.5188L23.797 14.4595L23.8322 14.3695C23.9245 14.1328 23.9933 13.8876 24.0377 13.6375V13.5985C24.1742 12.8485 24.1622 12.3475 23.86 11.752L23.8345 11.6995L23.7865 11.635C23.6547 11.4203 23.4911 11.2269 23.3012 11.0613C23.2596 11.0243 23.2171 10.9883 23.1737 10.9533L23.071 10.8708C23.0454 10.8533 23.021 10.834 22.9982 10.813L22.9667 10.783L22.8512 10.6698C22.7578 10.586 22.6703 10.4958 22.5895 10.3998L22.5557 10.3585L22.3562 10.1118C21.9025 9.56051 21.4825 9.25001 20.6747 8.95151L20.656 8.93951L20.635 8.91926L20.5712 8.90051C20.1625 8.78426 19.7012 8.72201 19.165 8.71526ZM25.2985 17.5878C25.2805 17.698 25.261 17.8083 25.2385 17.9178L25.1035 18.1083L25.039 18.196C24.7817 18.5433 24.508 18.841 24.2102 19.096C24.0729 19.2238 23.9835 19.3948 23.9567 19.5805L23.9365 19.771L23.9252 19.8573L23.9132 19.9308L23.9005 19.9983L23.8952 20.0215C23.7227 20.962 23.3815 21.6783 22.9105 22.3758L22.8055 22.5303C22.6562 22.684 22.5025 22.8325 22.3427 22.9758L22.8025 22.3045C23.2645 21.6205 23.5975 20.9185 23.7677 19.996L23.773 19.9743L23.7857 19.909L23.7932 19.8618L23.8007 19.8108L23.8112 19.7208L23.8277 19.5648C23.8622 19.3443 23.9657 19.1403 24.124 18.9993C24.4534 18.714 24.7468 18.3896 24.9977 18.0333L25.0622 17.9448C25.1455 17.8285 25.2242 17.7085 25.2992 17.5848L25.2985 17.5878ZM18.9415 9.37676C19.474 9.37676 19.9112 9.43301 20.2817 9.54476L20.2735 9.54176H20.2967L20.3155 9.54551C21.0325 9.81251 21.3617 10.0668 21.7855 10.5985L21.8987 10.7365L21.9587 10.8085L21.9865 10.8408L22.039 10.8993C22.0727 10.9368 22.105 10.9705 22.1395 11.0043L22.1935 11.0545L22.222 11.0808L22.2842 11.1355L22.3142 11.1655L22.3397 11.1895L22.366 11.2128L22.4305 11.2675L22.5235 11.3418C22.714 11.4888 22.816 11.5803 22.9397 11.7445C22.9795 11.797 23.0177 11.8525 23.056 11.9155L23.086 11.9755C23.2907 12.3783 23.3035 12.7353 23.2135 13.2978L23.1985 13.3818V13.4193C23.1692 13.6308 23.101 13.8535 22.9952 14.0965L22.9772 14.134C22.9685 14.1532 22.9605 14.1727 22.9532 14.1925L22.9382 14.236L22.924 14.2833C22.9214 14.2922 22.9189 14.3012 22.9165 14.3103L22.9022 14.3688L22.8775 14.4753L22.8565 14.5803L22.8505 14.6118L22.8482 14.6305V14.7085C22.8332 14.8863 22.789 15.0835 22.7237 15.2763C22.6284 15.5714 22.4875 15.8498 22.306 16.1013C21.994 16.5475 21.6347 16.8243 21.1682 16.978C20.9552 17.053 20.7707 17.185 20.6642 17.3433L20.6342 17.4033L20.6237 17.4168L20.5802 17.4595C20.5247 17.5218 20.5045 17.704 20.5135 17.9898L20.515 18.0168L20.5202 18.133L20.5277 18.2553L20.5442 18.5838L20.5517 18.7518C20.5592 18.9993 20.5502 19.1838 20.5165 19.3593C20.425 19.8213 20.2712 20.1423 19.9592 20.626L19.9382 20.656L19.8887 20.7228L19.8287 20.8008L19.795 20.8428C19.666 21.0048 19.525 21.1668 19.3772 21.3183C19.117 21.583 18.8627 21.787 18.6212 21.9055C18.5537 21.9385 18.4877 21.9655 18.4247 21.9835L18.3752 21.9993L18.313 22.0143C18.193 22.0382 18.0708 22.0488 17.9485 22.0458H17.6582L17.626 22.0473L17.5615 22.0503C17.5237 22.0531 17.4859 22.0568 17.4482 22.0615H17.4197L17.365 22.063L17.122 22.072L16.9225 22.081L16.7912 22.0885L16.6802 22.0975L16.6105 22.105L16.5685 22.1095L16.531 22.1148L16.4447 22.1298C16.3591 22.146 16.2754 22.1711 16.195 22.2048C15.8777 22.387 15.3955 22.4748 14.6627 22.4935L14.5127 22.4958L14.3552 22.4973C13.834 22.4973 13.2857 22.4695 12.7862 22.4223L12.7187 22.4215L12.3542 22.3765L12.2222 22.3615L12.1007 22.3458L11.9882 22.3308C11.9366 22.323 11.8851 22.3145 11.8337 22.3053L11.7385 22.288C11.5079 22.2441 11.2839 22.171 11.0717 22.0705L11.0087 22.0398C10.3255 21.661 9.96625 21.1863 9.5815 20.3343L9.457 20.0545L9.39325 19.918L9.35725 19.8378C9.25271 19.6286 9.1693 19.4095 9.10825 19.1838L9.10975 19.1673C8.84575 18.247 8.9125 17.7663 9.41275 17.0575L9.43975 17.032L9.4855 16.9735C9.52341 16.9254 9.55847 16.875 9.5905 16.8228L9.67675 16.7103C9.90196 16.4149 10.1529 16.14 10.4267 15.889L10.4792 15.8403C10.507 15.8125 10.5242 15.7803 10.5242 15.7563L10.5272 15.7398C10.5388 15.7067 10.5388 15.6708 10.5272 15.6378L10.4492 15.4053L10.4342 15.328L10.4275 15.2883L10.423 15.253L10.42 15.2178L10.4177 15.1705V15.064C10.4275 14.7505 10.5302 14.4685 10.7177 14.149L10.7665 14.0665L10.8842 13.879C10.8862 13.876 10.8882 13.873 10.8902 13.87L10.9345 13.8115L10.9525 13.7868L10.957 13.7793L10.9922 13.7118C11.0252 13.6683 11.0702 13.5873 11.1175 13.4898L11.1535 13.414L11.1895 13.3345L11.2247 13.252L11.242 13.2115L11.2742 13.1313L11.3035 13.0533L11.3095 13.03L11.3395 12.9355L11.4317 12.658L11.4415 12.6243L11.4497 12.589L11.4542 12.5695L11.4617 12.5268L11.4707 12.4765L11.4857 12.3828C11.5174 12.1321 11.5726 11.885 11.6507 11.6448L11.6522 11.623L11.656 11.6028L11.6657 11.5803L11.6807 11.5428L11.7265 11.4048L11.74 11.3673L11.7467 11.35L11.7647 11.3005L11.8135 11.1685L11.8435 11.0928L11.872 11.0245L11.8997 10.963C11.9254 10.9073 11.9544 10.8532 11.9867 10.801L12.0197 10.75C12.0379 10.7233 12.0566 10.6971 12.076 10.6713L12.1705 10.5498L12.2177 10.5025C12.64 10.1253 13.093 9.97601 13.6855 9.93251H13.792C14.0515 9.93251 14.2795 9.99626 14.5382 10.1155L14.5922 10.141L14.7347 10.2123L14.7752 10.2393L14.8165 10.261L14.8877 10.2963L14.9177 10.3105L14.9275 10.3143C15.0441 10.3685 15.1753 10.383 15.301 10.3555C15.6222 10.2629 15.9353 10.144 16.237 10L16.294 9.97151C16.7695 9.68951 17.1737 9.51926 17.6365 9.46751L17.65 9.46526L17.6897 9.45551C17.6961 9.45374 17.7027 9.45323 17.7092 9.45401C17.7295 9.44939 17.7501 9.44614 17.7707 9.44426L17.8135 9.43976L17.9432 9.43001L18.0085 9.42251L18.3535 9.39851L18.5117 9.38951C18.664 9.38201 18.8005 9.37676 18.9415 9.37676ZM18.9415 9.48176C18.7337 9.48176 18.5335 9.49001 18.277 9.50801L18.0182 9.52601L17.9897 9.52901L17.8247 9.54326L17.785 9.54701L17.7527 9.55076L17.7227 9.55601C17.7115 9.5567 17.7005 9.55872 17.6897 9.56201L17.6732 9.56576L17.6522 9.57026C17.6473 9.57068 17.6422 9.57068 17.6372 9.57026C17.2045 9.61976 16.8122 9.78476 16.345 10.0615L16.285 10.0915C15.9762 10.2396 15.6556 10.3617 15.3265 10.4568C15.1765 10.4898 15.0115 10.4718 14.8877 10.4103C14.8603 10.4009 14.8337 10.3891 14.8082 10.375L14.7227 10.3293L14.6822 10.3023L14.6222 10.2723L14.5127 10.2198L14.4377 10.1845C14.2355 10.0899 14.0153 10.0397 13.792 10.0375H13.6892C13.1222 10.0788 12.691 10.2205 12.2905 10.5775L12.25 10.618L12.2035 10.6795L12.1622 10.732L12.1435 10.7583L12.1082 10.8078L12.0925 10.8318L12.0625 10.8805L12.034 10.93C12.0115 10.9728 11.989 11.0185 11.9665 11.0703L11.9395 11.1363C11.9347 11.1482 11.9299 11.1602 11.9252 11.1723L11.8952 11.251L11.845 11.3883C11.8429 11.3932 11.8409 11.3982 11.839 11.4033L11.8262 11.4393L11.7962 11.5308L11.7797 11.5788C11.7756 11.5898 11.7714 11.6008 11.767 11.6118L11.7572 11.6358V11.6545L11.755 11.6695C11.6768 11.9064 11.6216 12.1503 11.59 12.3978L11.5787 12.469L11.569 12.5305L11.5592 12.583L11.5495 12.628L11.539 12.6685C11.5352 12.6813 11.5315 12.6948 11.5262 12.7075L11.4482 12.9423L11.4152 13.045L11.404 13.0848C11.3948 13.1106 11.3853 13.1364 11.3755 13.162L11.3432 13.2423L11.3267 13.2828L11.2922 13.363C11.2866 13.3765 11.2808 13.39 11.275 13.4035L11.239 13.4808L11.2037 13.5535C11.158 13.6473 11.1137 13.7245 11.0815 13.7665L11.0515 13.8265C11.0443 13.8395 11.0363 13.852 11.0275 13.864L10.9727 13.936L10.84 14.149L10.8092 14.2015C10.6292 14.5075 10.5325 14.7745 10.5242 15.0663V15.169L10.525 15.2125L10.528 15.2433L10.5325 15.2755L10.5385 15.313L10.5527 15.3835L10.6277 15.6055C10.644 15.6518 10.6466 15.7018 10.6352 15.7495L10.63 15.7668L10.6292 15.7788C10.6213 15.8235 10.6005 15.865 10.5692 15.898L10.5527 15.9153L10.4987 15.9655C10.2293 16.2126 9.98232 16.4832 9.76075 16.774L9.67825 16.8813C9.646 16.9338 9.6145 16.9803 9.56875 17.0388L9.51775 17.1018L9.49375 17.1243C9.04975 17.7543 8.96575 18.1878 9.166 18.979L9.19675 19.0945L9.21325 19.1545L9.21175 19.1695C9.27775 19.3983 9.35425 19.6 9.45325 19.795L9.46675 19.8265L9.553 20.0125L9.6775 20.2923C10.054 21.1263 10.4005 21.5838 11.0575 21.9483L11.1175 21.9783C11.38 22.0983 11.5915 22.1613 11.905 22.2123L12.007 22.228L12.118 22.243L12.2372 22.258L12.3662 22.2738L12.7262 22.3188H12.7915C13.3624 22.3728 13.9356 22.3976 14.509 22.393L14.656 22.39C14.704 22.3885 14.7512 22.3878 14.797 22.3855L14.9305 22.3795C15.4967 22.348 15.8837 22.2633 16.1477 22.1125C16.2536 22.0667 16.3651 22.0351 16.4792 22.0188L16.534 22.0098L16.5962 22.0023L16.6682 21.9948L16.7807 21.9858L16.9142 21.9783L17.0717 21.9708L17.4175 21.958H17.4415C17.5427 21.946 17.6065 21.943 17.692 21.943H17.9485C18.0985 21.9423 18.193 21.9355 18.2882 21.9145L18.3452 21.9003L18.4367 21.8703C18.4817 21.8553 18.5267 21.8358 18.574 21.8125C18.8027 21.7 19.0487 21.5035 19.3015 21.2463C19.4583 21.0851 19.6061 20.9154 19.744 20.7378L19.804 20.6613L19.831 20.6253L19.8715 20.569C20.176 20.0965 20.3245 19.7868 20.413 19.3398C20.4475 19.1598 20.4542 18.9663 20.443 18.6933V18.6738L20.41 18.049L20.407 17.9478C20.3995 17.6575 20.4235 17.4775 20.5037 17.389L20.5427 17.3493L20.5727 17.2915C20.6882 17.1205 20.8727 16.9825 21.0872 16.8978L21.1337 16.8805C21.5785 16.7335 21.9197 16.471 22.219 16.0428C22.399 15.7915 22.534 15.526 22.624 15.2448C22.6862 15.0588 22.729 14.8698 22.7425 14.7048V14.6598L22.7432 14.6373C22.7449 14.6111 22.7481 14.585 22.753 14.5593L22.7725 14.461L22.7927 14.374L22.81 14.3035L22.8265 14.2428L22.843 14.1895C22.8595 14.1393 22.8767 14.098 22.8992 14.0538C22.9997 13.8213 23.0665 13.6075 23.0927 13.4125L23.0935 13.375L23.1265 13.165C23.1932 12.6888 23.1692 12.3738 22.9915 12.0235L22.9637 11.9665C22.9305 11.9117 22.8945 11.8586 22.8557 11.8075C22.7647 11.6864 22.6575 11.5784 22.537 11.4865L22.4305 11.4025L22.3615 11.3478L22.3255 11.3178L22.2805 11.278L22.2535 11.2533L22.2122 11.2128L22.1485 11.1565C22.1293 11.1393 22.1103 11.1218 22.0915 11.104L22.039 11.0515C21.9835 10.9956 21.9302 10.9376 21.8792 10.8775L21.8177 10.8048L21.6287 10.573C21.2822 10.1545 20.9867 9.92801 20.4355 9.70451L20.2855 9.64676H20.2667L20.2517 9.64526C19.891 9.53651 19.4642 9.48176 18.9415 9.48176ZM19.0172 7.76426C19.5122 7.76426 19.9585 7.80551 20.359 7.88951C20.4872 7.95701 20.6192 8.02826 20.749 8.10326C20.2622 7.95326 19.6855 7.87676 19.0172 7.87676C18.6415 7.87676 18.2522 7.90076 17.941 7.93676L17.8097 7.95026L17.7347 7.96001L17.668 7.96901L17.638 7.97351L17.5787 7.98251L17.5307 7.99226C17.5159 7.99532 17.5009 7.99683 17.4857 7.99676C16.7972 8.08001 16.2782 8.29901 15.5837 8.69801L15.556 8.71151C15.4906 8.74384 15.4189 8.76174 15.346 8.76401C15.2601 8.76354 15.1751 8.74674 15.0955 8.71451C14.702 8.54912 14.2796 8.46371 13.8527 8.46326H13.6292L13.4965 8.47451C13.2726 8.49254 13.0506 8.52917 12.8327 8.58401C12.4086 8.68692 12.0056 8.86279 11.6417 9.10376C11.497 9.19901 11.3582 9.30626 11.2247 9.42626L11.0935 9.53951L10.957 9.70451C10.6742 10.0458 10.5272 10.3225 10.3795 10.723L10.336 10.8475L10.3135 10.9128C10.3014 10.9807 10.2792 11.0465 10.2475 11.1078L10.219 11.1625C10.0886 11.504 10.0029 11.861 9.964 12.2245V12.2395L9.9595 12.262L9.94 12.3108L9.9205 12.3685L9.883 12.4893L9.85675 12.5665L9.83875 12.613L9.82375 12.6505L9.79525 12.7225L9.76675 12.787L9.74125 12.8425L9.72925 12.8658L9.71875 12.8808L9.712 12.8845L9.67 12.9565L9.66475 12.9685L9.65725 12.9805L9.631 13.018C9.62696 13.0243 9.62321 13.0308 9.61975 13.0375L9.556 13.1313C9.16975 13.7155 8.95375 14.2038 8.8975 14.863C8.8825 14.9605 8.85625 15.061 8.81725 15.1765L8.72575 15.4015C8.70362 15.4559 8.67436 15.5071 8.63875 15.5538L8.59675 15.61L8.5675 15.6438C8.54915 15.666 8.53115 15.6885 8.5135 15.7113L8.401 15.8553L8.3665 15.898L8.34175 15.9288L8.2405 16.0458L8.224 16.066L8.1265 16.1943C7.357 17.2953 7.21 18.241 7.6 19.6015L7.63075 19.6938C7.72075 19.9945 7.828 20.2765 7.96225 20.5413L8.0065 20.6253L8.044 20.698C8.06125 20.7355 8.0755 20.7678 8.08525 20.7985L8.11525 20.8653L8.20225 21.0498L8.25475 21.1623L8.3065 21.2673L8.35525 21.3648L8.40325 21.4578L8.4505 21.5455L8.497 21.6295L8.521 21.6708L8.569 21.7518L8.61775 21.8313L8.64325 21.871L8.63575 21.8598C8.45749 21.6378 8.2898 21.4075 8.13325 21.1698L8.12575 21.1533L8.07025 21.0348L7.9795 20.8398C7.96675 20.8023 7.95025 20.7648 7.927 20.719L7.867 20.6028L7.816 20.5C7.69822 20.2506 7.60017 19.9923 7.52275 19.7275L7.49125 19.6345C7.0915 18.2395 7.24375 17.2593 8.0335 16.129L8.125 16.009L8.14225 15.9865L8.16175 15.9625L8.23225 15.8823L8.26225 15.847L8.2795 15.826L8.3215 15.7743L8.4235 15.6423C8.4535 15.6048 8.47975 15.5725 8.506 15.5425L8.5435 15.4915C8.57497 15.4514 8.60094 15.4072 8.62075 15.3603L8.71075 15.1375C8.74675 15.0318 8.7715 14.9365 8.78425 14.8503C8.84425 14.1453 9.082 13.63 9.50725 13.0015L9.5215 12.9813C9.528 12.9682 9.53552 12.9556 9.544 12.9438L9.56125 12.931L9.56875 12.9018L9.6235 12.8163L9.63175 12.808L9.6505 12.7683L9.67675 12.7105L9.69025 12.6783L9.71875 12.6085L9.748 12.5343L9.76 12.5005L9.823 12.3018C9.8335 12.2703 9.844 12.2425 9.85525 12.2178L9.85075 12.2275V12.2178C9.89725 11.833 9.9715 11.5 10.0877 11.1888L10.1155 11.1175L10.1455 11.0575C10.1736 11.003 10.1934 10.9446 10.204 10.8843C10.3817 10.3563 10.5332 10.039 10.8685 9.63401L11.0117 9.46151L11.218 9.28151C11.6773 8.89311 12.2206 8.61683 12.805 8.47451C13.0084 8.42321 13.2156 8.38785 13.4245 8.36876L13.5542 8.35676L13.6247 8.35076H13.8527C14.2952 8.35076 14.7295 8.44001 15.1382 8.61026C15.2042 8.63708 15.2748 8.65108 15.346 8.65151C15.394 8.65151 15.448 8.63651 15.5072 8.60951L15.5305 8.59901C16.2332 8.19476 16.7642 7.97126 17.479 7.88501C17.4947 7.88482 17.5103 7.8828 17.5255 7.87901L17.5495 7.87376L17.563 7.87151H17.5742L17.6245 7.86176L17.6845 7.85276L17.7557 7.84376L17.8375 7.83476L17.929 7.82501C18.244 7.78901 18.637 7.76426 19.0172 7.76426ZM19.5812 16.3728C19.84 16.4928 20.0537 16.5978 20.0987 16.6428C20.1137 16.6428 20.1137 16.6578 20.1137 16.6728C20.0837 16.7485 20.038 16.7935 19.9922 16.8535C19.9315 16.9285 19.8707 17.0035 19.7942 17.1243C19.7027 17.3043 19.6727 17.47 19.657 17.8758C19.642 18.3565 19.657 18.6423 19.672 18.838C19.687 19.033 19.687 19.153 19.657 19.333C19.5812 19.7095 19.429 19.9653 19.2152 20.2803C18.9565 20.6718 18.6827 21.0925 18.2402 21.2275C18.2035 21.2395 18.1967 21.2425 18.1405 21.2425H17.995C17.8877 21.2433 17.734 21.2463 17.494 21.2575C16.915 21.2725 16.6105 21.2875 16.3667 21.3325C16.1072 21.3775 15.9707 21.4375 15.8335 21.4975C15.7112 21.5425 15.6047 21.5875 15.376 21.6333C15.2545 21.6633 15.0565 21.6933 14.401 21.6933C13.7155 21.6933 13.3045 21.6933 12.7562 21.6333C12.0092 21.5433 11.629 21.5133 11.3852 21.3783C10.8302 21.0835 10.5812 20.5795 10.2152 19.768L10.1357 19.5895C10.1357 19.5745 10.1507 19.5595 10.1507 19.5745C10.1657 19.5895 10.1965 19.5895 10.2122 19.6045C10.2272 19.6045 10.2422 19.6195 10.2722 19.6195H10.4252C10.4552 19.6945 10.486 19.7545 10.5625 19.7845C10.6382 19.8145 10.7147 19.8295 10.7905 19.8295C10.867 19.8295 10.9585 19.8295 11.0342 19.8145C11.08 19.8145 11.1257 19.8295 11.1415 19.8745C11.2172 20.0545 11.3087 20.1753 11.446 20.1903H11.476C11.5067 20.1903 11.5375 20.1903 11.5982 20.1453C11.659 20.1003 11.7655 20.1303 11.8112 20.1903C11.8381 20.2195 11.8689 20.2447 11.9027 20.2653C12.04 20.4003 12.3902 20.476 12.6647 20.476C12.817 20.476 12.9542 20.461 13.0457 20.416C13.1672 20.356 13.1672 20.266 13.1522 20.236L13.1222 20.0553C13.1222 20.0553 13.1372 20.0403 13.1372 20.0553C13.1522 20.0853 13.1672 20.1453 13.228 20.1453H13.243C13.3195 20.1453 13.4417 20.1753 13.4717 20.2503C13.4867 20.2953 13.5025 20.3253 13.5175 20.3553C13.5632 20.4303 13.6697 20.521 13.8527 20.521H13.8677C14.0965 20.521 14.2645 20.446 14.3702 20.311C14.3702 20.296 14.386 20.296 14.386 20.281C14.4317 20.221 14.554 20.221 14.5997 20.266C14.6597 20.326 14.7362 20.341 14.8127 20.341H14.8577C14.9072 20.3362 14.955 20.3202 14.9973 20.2942C15.0397 20.2683 15.0756 20.233 15.1022 20.191C15.1475 20.1281 15.1787 20.0562 15.1937 19.9803C15.1937 19.9503 15.2387 19.9503 15.2545 19.9653C15.2995 20.0103 15.361 20.0403 15.4675 20.0403C15.4982 20.0403 15.5132 20.0403 15.544 20.0253C15.742 19.9803 15.8335 19.8303 15.8792 19.6495C15.8792 19.6495 15.8942 19.6345 15.8942 19.6495C15.94 19.7095 16.0315 19.7695 16.1837 19.7695H16.2137C16.2526 19.7678 16.2906 19.7575 16.3249 19.7394C16.3593 19.7212 16.3892 19.6956 16.4125 19.6645C16.4744 19.5766 16.5064 19.4712 16.504 19.3638C16.504 19.3188 16.534 19.2888 16.5797 19.2738C16.7193 19.2118 16.8455 19.1232 16.951 19.0128L16.9915 18.958C17.0065 18.928 17.0365 18.898 17.0672 18.898C17.1895 18.868 17.2502 18.853 17.296 18.823C17.341 18.808 17.3717 18.793 17.4632 18.778C18.2102 18.673 18.3467 18.643 18.5147 18.5373C18.7585 18.3723 18.7735 18.1615 18.7735 17.9508C18.7885 17.7708 18.7885 17.5758 18.9415 17.335C18.9865 17.245 19.048 17.14 19.1087 17.0193C19.2152 16.8243 19.3675 16.5535 19.474 16.4028C19.5047 16.3728 19.5505 16.3578 19.5812 16.3728ZM13.7462 19.5288L14.3102 19.5588L14.3252 19.6938C14.3402 19.8445 14.3252 20.0403 14.2187 20.1753C14.1422 20.2803 14.0207 20.3253 13.8377 20.3253C13.7155 20.3253 13.6697 20.2803 13.6547 20.2503C13.5632 20.1003 13.6547 19.7553 13.7462 19.5288ZM12.9542 18.3415C12.9542 18.3865 12.9392 18.4465 12.9242 18.5065C12.9242 18.5823 12.9085 18.6873 12.8935 18.823C12.8627 19.078 12.8477 19.4088 12.8935 19.8595C12.9085 19.9795 12.9235 20.1153 12.9385 20.2503C12.9085 20.2653 12.802 20.2953 12.619 20.2953C12.3445 20.2953 12.0857 20.2203 12.0092 20.1453L11.9942 20.1303C11.9335 20.0853 11.8877 20.0403 11.8877 19.9503C11.8877 19.9203 11.9027 19.8903 11.9327 19.8453C11.9482 19.8121 11.969 19.7817 11.9942 19.7553C12.04 19.6945 12.1007 19.6195 12.1465 19.5288C12.3145 19.2438 12.3752 19.1688 12.4517 19.0488L12.4667 19.0188C12.5117 18.958 12.5732 18.883 12.6497 18.7473C12.7097 18.6573 12.7712 18.5823 12.802 18.5223C12.8777 18.4323 12.9235 18.3715 12.9542 18.3415ZM15.0715 19.3338C15.0865 19.4838 15.0865 19.9045 14.95 20.0703C14.92 20.1153 14.8735 20.1303 14.8435 20.1453C14.7977 20.1453 14.767 20.1453 14.7362 20.1153C14.6297 20.0215 14.6155 19.7643 14.614 19.5633V19.4088C14.782 19.3638 14.98 19.3338 15.0715 19.3338ZM11.1265 18.928C11.2727 19.0068 11.5015 19.0398 11.8315 19.0465L11.9792 19.048C11.9942 19.033 12.0242 19.033 12.055 19.033C12.04 19.138 11.9185 19.4238 11.7205 19.6945C11.5525 19.9195 11.461 19.9795 11.446 19.9795C11.3695 19.9645 11.2937 19.7845 11.233 19.5895C11.2022 19.5145 11.1872 19.4395 11.1715 19.3795C11.1265 19.2288 11.1265 19.048 11.1265 18.928ZM13.4567 18.4323C13.5246 18.4308 13.5922 18.4415 13.6562 18.4638L13.7162 18.4923C13.7612 18.5073 13.8227 18.5673 13.8227 18.6873C13.8077 18.8523 13.7312 19.093 13.609 19.3188C13.4875 19.5588 13.3502 19.7695 13.2587 19.8895C13.1822 19.6945 13.0457 19.2288 13.0915 18.853V18.823C13.1065 18.703 13.1365 18.5973 13.198 18.5223C13.228 18.4623 13.3352 18.4323 13.4567 18.4323ZM15.727 19.1838V19.4688C15.712 19.6188 15.6655 19.8145 15.5132 19.8445C15.4525 19.8595 15.4067 19.8445 15.3917 19.8145C15.2852 19.7245 15.2695 19.4395 15.2852 19.2438C15.3452 19.2438 15.4375 19.2288 15.544 19.2138C15.6047 19.1988 15.6655 19.1838 15.727 19.1838ZM16.306 19.0788C16.321 19.2438 16.336 19.4688 16.2752 19.5588C16.2602 19.5738 16.2452 19.5888 16.2145 19.5888C16.138 19.5888 16.0772 19.5738 16.0465 19.5288C15.9707 19.4388 15.9857 19.2588 16.0015 19.1538L16.306 19.0788ZM10.5925 18.7323C10.6997 18.7773 10.8212 18.8073 10.9435 18.8223C10.9127 19.018 10.9585 19.3038 10.9885 19.3938C10.9885 19.4688 11.0035 19.4988 11.0192 19.5438L11.0042 19.5588H10.7147C10.6847 19.5588 10.654 19.5588 10.6382 19.5288C10.6195 19.4862 10.6093 19.4403 10.6082 19.3938C10.565 19.1758 10.5599 18.952 10.5932 18.7323H10.5925ZM10.1507 18.6123L10.2272 18.6423C10.288 18.6573 10.3337 18.6723 10.3645 18.6873C10.3495 18.8373 10.3345 18.988 10.3345 19.138C10.3345 19.1883 10.3405 19.2453 10.3495 19.3L10.3645 19.3788H10.273C10.258 19.3788 10.243 19.3788 10.2272 19.3638L10.1665 19.3038C10.1207 19.2288 10.1207 19.1538 10.1207 19.0788C10.1207 18.928 10.1207 18.7773 10.1507 18.6123ZM14.0965 18.5373C14.2645 18.4923 14.4625 18.4773 14.5232 18.5223C14.584 18.5973 14.4625 18.9273 14.401 19.063C14.386 19.123 14.356 19.168 14.341 19.213C14.2945 19.228 14.1422 19.213 13.99 19.183L14.0965 18.5373ZM14.8277 18.5223C14.8735 18.4923 14.965 18.4923 15.0257 18.5373C15.1172 18.6123 15.148 18.7023 15.1172 18.8073C15.1022 18.8523 15.0722 19.003 15.0565 19.093L14.6297 19.078C14.6597 18.943 14.6905 18.823 14.7212 18.718C14.7512 18.6123 14.7977 18.5373 14.8277 18.5223ZM15.6197 18.4473C15.6505 18.5673 15.6505 18.7773 15.6505 18.9123L15.3152 19.018C15.3302 18.883 15.361 18.703 15.361 18.5823C15.361 18.4923 15.391 18.4773 15.391 18.4623H15.4067L15.6197 18.4473ZM13.7312 10.8723C13.8835 10.8723 14.0507 10.9473 14.2337 11.0523C14.4625 11.1723 14.7362 11.3223 15.0872 11.3373C15.2395 11.3373 15.4525 11.2923 15.6655 11.2323L15.7982 11.2165C16.3952 11.1468 17.2607 11.0928 17.7985 11.428C18.3467 11.758 18.454 12.4953 18.499 13.1568C18.514 13.3518 18.499 13.5918 18.484 13.8475L18.469 14.0838C18.4352 14.7108 18.4502 15.307 18.9107 15.4413C19.1237 15.5013 19.7635 15.6963 20.449 15.997C20.5105 16.027 20.5105 16.102 20.464 16.147C20.449 16.162 20.434 16.162 20.419 16.177C20.3732 16.207 20.3275 16.252 20.2817 16.297C20.2517 16.3428 20.2052 16.3428 20.1602 16.3278C20.023 16.2528 19.8092 16.1628 19.5812 16.0728H19.5662C19.5505 16.0578 19.5505 16.0578 19.5355 16.0578L19.4065 16.0075C19.2302 15.9408 19.0492 15.8872 18.865 15.847C18.3775 15.757 18.0272 16.027 17.905 16.117C17.7527 16.237 17.7227 16.297 17.707 16.3878C17.692 16.4328 17.677 16.4778 17.5855 16.6128C17.3875 16.8685 17.281 16.9443 17.1737 17.0043C17.0581 17.0585 16.9623 17.1477 16.9 17.2593C16.8085 17.4093 16.8085 17.56 16.8235 17.7558V18.1308C16.8235 18.4923 16.8085 18.6573 16.7935 18.7473C16.7935 18.7923 16.7785 18.8073 16.7785 18.8223V18.8373L16.747 18.874C16.7095 18.9115 16.6525 18.9543 16.5947 18.988C16.5497 19.018 16.504 18.988 16.4882 18.943L16.4732 18.898L16.4837 18.8328C16.4882 18.7863 16.4882 18.7323 16.4882 18.6723V18.6123C16.4882 18.5823 16.5032 18.5373 16.5032 18.4923C16.5182 18.4023 16.534 18.2823 16.4275 18.2365C16.321 18.1915 16.1837 18.2065 16.0772 18.2365C16.0472 18.2365 16.0315 18.2515 16.0007 18.2515H15.9857C15.925 18.2665 15.742 18.2815 15.6812 18.2815L15.4525 18.2965C15.3917 18.2815 15.346 18.3115 15.3002 18.3415L15.2545 18.3865C15.2395 18.4165 15.2087 18.4165 15.178 18.4015C15.0565 18.2965 14.8735 18.3115 14.767 18.3715C14.767 18.3865 14.737 18.3865 14.7212 18.4165C14.7062 18.4315 14.6912 18.4165 14.6912 18.4165C14.5232 18.2365 14.0965 18.3565 14.0207 18.3865L13.99 18.4015C13.975 18.4015 13.96 18.4165 13.96 18.4315V18.4615L13.9135 18.4068C13.8832 18.3738 13.8471 18.3466 13.807 18.3265C13.6523 18.2462 13.4737 18.2248 13.3045 18.2665C13.2437 18.2815 13.1822 18.2365 13.1372 18.1915C13.1222 18.1765 13.0915 18.1615 13.0757 18.1465C13.0157 18.1165 12.9542 18.1315 12.8935 18.1765C12.832 18.2215 12.7562 18.1915 12.7255 18.1315C12.6805 18.0415 12.634 17.9665 12.5582 17.9215C12.5125 17.8915 12.4517 17.8765 12.406 17.8608C12.2976 17.8258 12.1818 17.8207 12.0707 17.8458C12.0557 17.8608 12.025 17.8608 12.0092 17.8758C11.9642 17.9058 11.8877 17.9058 11.857 17.8608C11.812 17.8308 11.7655 17.7858 11.7047 17.7708C11.6264 17.7434 11.5421 17.7382 11.461 17.7558C11.431 17.7558 11.4002 17.7558 11.3695 17.7258C11.2894 17.6667 11.1948 17.6304 11.0957 17.6208C11.0095 17.6026 10.9199 17.6078 10.8362 17.6358C10.8062 17.6358 10.7912 17.6358 10.7762 17.6208C10.6997 17.5308 10.5775 17.485 10.456 17.47H10.3487C10.3187 17.47 10.3037 17.44 10.3187 17.425C10.5293 17.154 10.7637 16.9025 11.0192 16.6735C11.5217 16.2378 11.5525 16.102 11.5367 15.847V15.817C11.5367 15.652 11.4767 15.5313 11.4152 15.4263C11.3702 15.3213 11.3237 15.2313 11.3087 15.0805C11.2937 14.9905 11.431 14.6898 11.4917 14.614C11.5832 14.509 11.644 14.404 11.6897 14.329C11.7197 14.269 11.7505 14.209 11.7812 14.179C12.0092 13.8775 12.0857 13.6375 12.1772 13.3218C12.2072 13.2168 12.253 13.0818 12.2987 12.946C12.3752 12.736 12.3902 12.601 12.406 12.4653C12.421 12.3153 12.451 12.1645 12.5425 11.8938C12.7405 11.353 12.802 11.2323 12.8477 11.1873C13.03 11.0073 13.2437 10.9023 13.7005 10.8723H13.7312ZM9.87625 18.3123C9.92275 18.3423 9.95275 18.3723 9.9985 18.4023L10.0442 18.4473V18.4623C9.99925 18.6273 9.9685 18.8073 9.9685 18.973C9.9685 18.988 9.9535 18.988 9.9535 18.973C9.913 18.7893 9.85 18.5125 9.865 18.3655L9.87625 18.3123ZM16.2902 18.3873C16.3052 18.4023 16.2902 18.4323 16.2902 18.4623C16.2902 18.5073 16.2752 18.5523 16.2752 18.6123V18.8373C16.1837 18.8673 16.0922 18.8673 15.9857 18.8673V18.6123C15.9857 18.5523 15.9857 18.4623 16.0007 18.4323L16.0922 18.4173C16.153 18.4023 16.2445 18.3873 16.2902 18.3873ZM12.238 18.0415L12.2875 18.049C12.3227 18.0595 12.3602 18.076 12.3902 18.0865H12.4052C12.4052 18.1015 12.4202 18.1015 12.4202 18.1015H12.436L12.451 18.1165C12.466 18.1165 12.466 18.1315 12.466 18.1315L12.4742 18.1465L12.4855 18.169L12.4967 18.1915C12.5275 18.2665 12.5425 18.3565 12.5582 18.4465C12.5582 18.4765 12.5732 18.4915 12.6182 18.5215C12.6032 18.5515 12.5732 18.5973 12.5432 18.6423C12.4967 18.7173 12.4517 18.7773 12.421 18.8223H12.406C12.253 18.8223 12.1007 18.8073 11.9635 18.7923C11.8877 18.7923 11.827 18.7773 11.7505 18.7623L11.659 18.7473L11.674 18.7323L11.7505 18.6273C11.7962 18.5673 11.842 18.4923 11.8877 18.4323C11.9327 18.3573 11.9942 18.2823 12.04 18.2065C12.055 18.1765 12.0857 18.1465 12.1007 18.1165L12.112 18.1128C12.1165 18.1083 12.1165 18.1015 12.1165 18.1015L12.1315 18.0865L12.1352 18.076C12.1397 18.0715 12.1465 18.0715 12.1465 18.0715C12.1465 18.0565 12.1615 18.0565 12.1615 18.0565C12.1615 18.0415 12.1765 18.0415 12.1922 18.0415H12.238ZM11.6282 17.9065C11.6372 17.9073 11.6432 17.911 11.6432 17.9215H11.659L11.689 17.9365C11.674 17.9215 11.7047 17.9665 11.7047 17.9665C11.7392 18.022 11.7475 18.0618 11.7565 18.097L11.7655 18.1315C11.6897 18.2365 11.629 18.3415 11.5525 18.4465C11.5225 18.4915 11.4767 18.5515 11.446 18.5973L11.3852 18.6873C11.3287 18.6742 11.2727 18.6592 11.2172 18.6423L11.08 18.5973C11.065 18.5973 11.065 18.5973 11.05 18.5823C11.05 18.5725 11.0425 18.562 11.0342 18.5523L11.0192 18.5373C11.0342 18.5073 11.0492 18.4773 11.065 18.4323L11.1565 18.2523C11.2172 18.1465 11.2937 18.0415 11.4002 17.9658C11.4002 17.9658 11.4152 17.9658 11.4152 17.9508C11.4545 17.9205 11.5029 17.9046 11.5525 17.9058L11.6282 17.9065ZM18.8342 16.132C18.8957 16.147 19.0322 16.192 19.1545 16.237C19.1995 16.252 19.2302 16.312 19.1995 16.3578C19.1087 16.4928 19.0022 16.6878 18.88 16.9143C18.82 17.0193 18.7585 17.1393 18.7127 17.2143C18.5447 17.5 18.5297 17.7558 18.5147 17.9508C18.4997 18.1608 18.4997 18.2515 18.3625 18.3265C18.256 18.4015 18.1487 18.4165 17.4175 18.5215C17.296 18.5365 17.2352 18.5665 17.1895 18.5823C17.1745 18.5823 17.1745 18.5823 17.1587 18.5973C17.1137 18.6123 17.0522 18.5823 17.0672 18.5223C17.0672 18.4173 17.0822 18.2973 17.0822 18.1465V17.7708C17.0672 17.5908 17.0672 17.5158 17.128 17.425C17.1895 17.335 17.2352 17.305 17.311 17.245C17.4175 17.17 17.5697 17.0793 17.7985 16.7785C17.9207 16.6135 17.9357 16.5385 17.9665 16.4635C17.9665 16.4335 17.9815 16.4185 18.073 16.3578C18.1645 16.2828 18.454 16.072 18.8342 16.132ZM10.8977 17.8315C10.9427 17.8015 10.9892 17.8165 11.0342 17.8165C11.08 17.8165 11.1257 17.8165 11.1715 17.8315C11.2015 17.8465 11.2172 17.8465 11.2172 17.8465C11.0957 17.9515 11.0042 18.0865 10.9127 18.2373L10.7905 18.4773L10.7755 18.5073C10.7305 18.4923 10.6997 18.4923 10.654 18.4773L10.5317 18.4323C10.5167 18.4173 10.5017 18.4173 10.4867 18.4023C10.5317 18.3273 10.5775 18.2673 10.6082 18.1923C10.669 18.1023 10.7297 18.0123 10.8062 17.9223C10.8362 17.8923 10.867 17.8465 10.8977 17.8315ZM10.3982 17.674L10.432 17.6778L10.456 17.6815C10.5324 17.6917 10.6027 17.729 10.654 17.7865C10.5827 17.8668 10.519 17.9538 10.4605 18.0423L10.3795 18.1773C10.3495 18.2373 10.303 18.2823 10.288 18.3423C10.243 18.3273 10.2122 18.3123 10.1665 18.2973L10.075 18.2373C10.075 18.2373 10.045 18.2223 10.045 18.2073H10.0292C10.0442 18.1773 10.0592 18.1473 10.0592 18.1323C10.0742 18.0873 10.105 18.0423 10.1357 17.9973C10.1815 17.9223 10.2422 17.8315 10.288 17.7565C10.3053 17.7243 10.332 17.6982 10.3645 17.6815L10.3982 17.674ZM17.7437 7.00151C17.881 7.02626 18.0175 7.05401 18.1532 7.08551L17.989 7.09976L17.8345 7.11476L17.7482 7.12226L17.6357 7.13426L17.5435 7.14551L17.4917 7.15301L17.4482 7.16051H17.4407L17.3702 7.17251C17.3578 7.17425 17.3453 7.17501 17.3327 7.17476C16.7702 7.23776 16.2722 7.39976 15.694 7.66451C15.4176 7.80598 15.0985 7.83991 14.7985 7.75976C14.4735 7.68295 14.1409 7.6432 13.807 7.64126H13.5505C13.1852 7.65476 12.8005 7.72151 12.3925 7.83401C11.7467 8.02847 11.1517 8.36262 10.6495 8.81276L10.4717 8.97251L10.2895 9.18251C9.928 9.62276 9.76375 9.93326 9.5665 10.4613L9.5185 10.5925L9.49375 10.6615C9.48722 10.6884 9.47921 10.715 9.46975 10.741L9.45325 10.7845L9.3835 10.9885C9.2545 11.371 9.169 11.7348 9.13 12.082L9.12625 12.097C9.09625 12.1698 9.06625 12.2575 9.052 12.3145L9.046 12.337C9.03833 12.3609 9.02905 12.3842 9.01825 12.4068L8.99425 12.457L8.98975 12.4698L8.9845 12.4818L8.94475 12.547L8.9425 12.556C8.93664 12.5758 8.92724 12.5943 8.91475 12.6108L8.90725 12.619L8.8405 12.718C8.43775 13.3263 8.191 13.8528 8.07925 14.5608C8.06425 14.7205 8.0095 14.875 7.91875 15.0355L7.67275 15.46C7.66728 15.4683 7.66178 15.4765 7.65625 15.4848L7.62625 15.526C7.60739 15.5523 7.58631 15.5769 7.56325 15.5995L7.44325 15.7465C7.06825 16.2843 6.82825 16.7845 6.69325 17.3118C6.67976 17.207 6.66801 17.1019 6.658 16.9968L6.7255 16.8123C6.87025 16.4373 7.0735 16.0653 7.34575 15.6745L7.4725 15.5193C7.49656 15.4956 7.5184 15.4697 7.53775 15.442L7.56925 15.397L7.81225 14.977C7.89475 14.83 7.94425 14.6913 7.95775 14.5458C8.0785 13.7845 8.34775 13.231 8.78875 12.5778L8.81575 12.5403L8.8255 12.5253L8.8345 12.4953L8.87425 12.4315L8.87875 12.4195L8.89075 12.3918L8.91625 12.3363C8.92364 12.32 8.92966 12.3032 8.93425 12.286L8.94175 12.2575L8.962 12.1923L8.986 12.1218L9.013 12.0528L9.01 12.0603L9.01975 11.9793C9.064 11.6508 9.14725 11.3088 9.26725 10.9518L9.301 10.8543L9.33475 10.7538L9.361 10.6833L9.3715 10.648L9.3775 10.627L9.403 10.5565L9.45175 10.4215C9.65425 9.87926 9.82375 9.55901 10.1965 9.10526L10.384 8.88926L10.567 8.72426C11.0832 8.26181 11.695 7.91868 12.3587 7.71926C12.7462 7.60741 13.1454 7.54097 13.5482 7.52126H13.807C14.137 7.52126 14.4917 7.56401 14.8285 7.64351C15.1052 7.71476 15.394 7.68476 15.64 7.55651C16.2317 7.28576 16.7425 7.12001 17.326 7.05476C17.341 7.05476 17.356 7.05326 17.3822 7.04876L17.4227 7.04126H17.4362C17.4427 7.03995 17.4492 7.0387 17.4557 7.03751L17.5015 7.03001L17.5562 7.02251L17.6207 7.01501L17.7347 7.00376L17.7437 7.00151ZM12.7562 14.5548C12.6546 14.5444 12.5519 14.5494 12.4517 14.5698C12.4367 14.5698 12.406 14.5848 12.3902 14.5848C12.3752 14.5848 12.3752 14.5998 12.3602 14.5998C12.3295 14.6148 12.3145 14.6298 12.2837 14.6448L12.2687 14.6598L12.2537 14.6748C12.2265 14.6865 12.2046 14.7079 12.1922 14.7348C12.1007 14.8705 12.0857 15.0205 12.055 15.2013C12.04 15.2913 12.025 15.3963 11.995 15.5313C11.9792 15.577 11.9792 15.607 11.9792 15.637C11.9792 15.667 11.9792 15.712 11.9492 15.787L11.9335 15.817C11.9335 15.847 11.9185 15.877 11.9035 15.907C11.8877 15.937 11.8877 15.9528 11.8727 15.9828L11.8577 16.0128L11.8112 16.1028C11.7047 16.3435 11.7355 16.4785 11.7662 16.5993C11.7812 16.6143 11.7812 16.6293 11.7812 16.6443C11.8112 16.7193 11.857 16.7943 11.9185 16.8543C12.0092 16.9443 12.1315 17.0043 12.223 17.0343H12.3145C12.802 17.0343 13.8835 16.2685 14.0357 15.592C14.0657 15.442 14.0807 15.2013 13.807 14.9605L13.792 14.9455C13.792 14.9455 13.792 14.9305 13.777 14.9305C13.747 14.9155 13.7312 14.8855 13.7005 14.8705C13.6397 14.8405 13.579 14.7955 13.5025 14.7655H13.4875C13.4725 14.7505 13.4417 14.7505 13.426 14.7355C13.411 14.7355 13.396 14.7355 13.381 14.7205C13.381 14.7205 13.366 14.7055 13.3502 14.7055C13.3502 14.6905 13.3352 14.6905 13.3352 14.6905C13.2737 14.6605 13.198 14.6455 13.1065 14.6155C12.9916 14.5857 12.8745 14.5656 12.7562 14.5555V14.5548ZM12.7712 14.8855C12.7262 14.9455 12.6955 14.9905 12.6497 15.0955C12.5275 15.3813 12.5125 15.532 12.5125 15.667C12.5125 15.727 12.5125 15.787 12.4975 15.847C12.4835 15.8949 12.4628 15.9406 12.436 15.9828C12.3602 16.1478 12.2687 16.3735 12.2987 16.6743C12.2387 16.6443 12.1465 16.5843 12.1315 16.5393C12.1315 16.5243 12.1315 16.5093 12.1165 16.4943C12.1015 16.4043 12.0857 16.3435 12.1465 16.2085C12.2987 15.8478 12.3295 15.757 12.3445 15.667C12.3445 15.652 12.3445 15.622 12.3595 15.607C12.3902 15.472 12.406 15.337 12.421 15.247C12.436 15.0963 12.451 15.0055 12.5125 14.9305C12.5275 14.9005 12.5882 14.8855 12.6647 14.8855H12.7712ZM18.1487 10.3165C18.85 10.2415 19.459 10.1665 20.0837 10.3915C20.3732 10.4965 20.9672 10.8123 21.1195 11.113C21.226 11.323 21.409 11.4888 21.775 11.8195C21.9272 11.9695 22.048 12.0573 22.1365 12.1263L22.186 12.1653C22.3082 12.2703 22.3382 12.2853 22.384 12.3603C22.5062 12.616 22.4605 12.8718 22.399 13.2175C22.3615 13.405 22.3232 13.51 22.285 13.6173L22.2625 13.6833C22.201 13.8183 22.1402 13.9833 22.0795 14.2848C22.057 14.3748 22.051 14.4475 22.0427 14.5173L22.0337 14.5848C22.0187 14.7198 22.0037 14.7948 21.9572 14.9605C21.9122 15.0805 21.8357 15.2913 21.6677 15.517C21.5312 15.697 21.2875 16.0128 20.9822 16.0428H20.8757C19.9922 15.592 19.2302 15.2613 18.9557 15.1863C18.652 15.0963 18.682 14.4348 18.7277 13.8633C18.7427 13.6083 18.7577 13.3533 18.7427 13.1425C18.6977 12.406 18.5755 11.6088 17.9207 11.203C17.5397 10.963 17.0372 10.903 16.5497 10.903C16.6097 10.873 16.6712 10.8355 16.7372 10.7973L16.8385 10.7373C17.113 10.5723 17.4632 10.3773 17.8135 10.3473C17.9244 10.3292 18.0364 10.319 18.1487 10.3165ZM16.8385 11.5938C16.2752 11.4288 15.8185 11.7588 15.727 11.8345C15.7089 11.848 15.6936 11.865 15.6822 11.8845C15.6708 11.904 15.6635 11.9256 15.6606 11.948C15.6577 11.9704 15.6594 11.9931 15.6655 12.0149C15.6717 12.0366 15.6821 12.0569 15.6962 12.0745C15.757 12.1495 15.8635 12.1645 15.94 12.1045C15.955 12.1045 16.0315 12.0445 16.153 11.9845C16.2295 11.9545 16.2752 12.0295 16.2295 12.0895C16.2145 12.1195 16.1837 12.1495 16.1687 12.1795L16.1537 12.1953V12.2253L16.1387 12.2553C16.123 12.2553 16.123 12.2703 16.123 12.2703C16.108 12.2703 16.108 12.2853 16.108 12.2853C16.093 12.3153 16.0465 12.3753 16.0165 12.4353C16.0165 12.4353 16.0015 12.4503 16.0015 12.4653C15.9857 12.4803 15.9857 12.4953 15.9707 12.5103L15.8755 12.6753C15.8282 12.757 15.7847 12.8328 15.757 12.8868C15.6197 13.1418 15.6047 13.5633 15.6812 13.924C15.6962 13.984 15.6355 14.044 15.5747 14.014C15.5153 13.9855 15.467 13.938 15.4375 13.879V13.8048C15.4352 13.6785 15.4251 13.5525 15.4075 13.4275V13.4125C15.3923 13.3282 15.3923 13.2418 15.4075 13.1575V13.1425C15.4675 12.8268 15.4825 12.736 15.4982 12.706C15.5432 12.616 15.4982 12.526 15.4217 12.481C15.346 12.436 15.2395 12.481 15.1937 12.556C15.1787 12.601 15.148 12.661 15.0715 13.0818V13.0968C15.0415 13.2468 15.0565 13.3525 15.0715 13.4575V13.4725C15.094 13.6225 15.1 13.7125 15.1015 13.7725V13.8333C15.1015 13.8933 15.1015 13.9233 15.1322 13.9983C15.2852 14.3448 15.727 14.4198 15.9707 14.4648C16.0622 14.4798 16.1987 14.5098 16.3667 14.5098C16.5947 14.5098 16.8692 14.4648 17.113 14.2698C17.2352 14.1798 17.311 14.044 17.4482 13.8033C17.677 13.4133 17.7985 13.1875 17.7835 12.8868C17.7835 12.496 17.5855 12.2103 17.5247 12.1203C17.4482 12.0153 17.2352 11.6995 16.8385 11.5938ZM13.9592 11.3988C13.8527 11.3988 13.7612 11.4138 13.6697 11.4438C13.6247 11.4588 13.579 11.4738 13.5482 11.4888L13.4717 11.5338C13.4267 11.5638 13.396 11.5938 13.3652 11.6238C13.228 11.7438 13.1822 11.9095 13.1215 12.0903C13.0607 12.2703 12.9842 12.5103 12.7862 12.8418C12.7562 12.8868 12.7412 12.9318 12.7105 12.9768C12.5582 13.2318 12.4667 13.3675 12.5125 13.5783C12.5882 13.8933 12.985 14.0133 13.1822 14.0133H13.1972C13.4717 14.0133 13.5632 13.9833 13.9592 13.8933C14.371 13.7883 14.4775 13.4133 14.5232 13.1268L14.5382 13.0068C14.6297 12.406 14.6755 12.1353 14.6755 11.9995C14.6305 11.7145 14.5382 11.6095 14.4775 11.5645C14.3266 11.4564 14.1449 11.3984 13.9592 11.3988ZM13.8227 11.7438C13.7906 11.8256 13.7548 11.9059 13.7155 11.9845C13.6247 12.1953 13.5332 12.436 13.4875 12.526C13.411 12.676 13.3502 12.766 13.2895 12.841C13.228 12.931 13.1822 12.9918 13.1522 13.0968C13.0915 13.2618 13.0757 13.4575 13.1222 13.6683C13.015 13.6533 12.8477 13.5783 12.817 13.4883C12.802 13.4133 12.847 13.3533 12.9692 13.1425C12.9992 13.0975 13.015 13.0525 13.0457 13.0075C13.2587 12.646 13.3502 12.3753 13.411 12.1803C13.4875 11.9703 13.5175 11.8803 13.6247 11.8045C13.7005 11.7895 13.7612 11.7595 13.8227 11.7445V11.7438ZM6.61975 15.8898C6.62725 15.5545 6.6535 15.2245 6.697 14.8998L6.66175 15.2028L7.036 14.608C7.10451 14.5081 7.14775 14.3931 7.162 14.2728C7.25523 13.7717 7.42203 13.2872 7.657 12.835L7.69675 12.757L7.735 12.685L7.7545 12.6505L7.792 12.583L7.831 12.517L7.87225 12.4488L7.9165 12.3775L7.9915 12.259L8.11675 12.0693L8.155 12.0145L8.161 12.0048L8.17075 11.9928L8.21275 11.8705C8.26901 11.4675 8.36318 11.0708 8.494 10.6855L8.53375 10.5715L8.54725 10.519V10.4875C8.61475 10.399 8.6845 10.3128 8.75575 10.2273L8.7055 10.3765C8.70328 10.3866 8.70078 10.3966 8.698 10.4065L8.689 10.4305L8.677 10.4508V10.5258L8.6755 10.5415L8.65825 10.6075C8.50825 11.02 8.4025 11.452 8.33875 11.899L8.29525 12.0273L8.293 12.0385C8.29137 12.0438 8.2891 12.0488 8.28625 12.0535L8.281 12.061V12.0708L8.26225 12.0895L8.25475 12.0948L8.22475 12.1398L8.13025 12.2838L8.0515 12.406L7.984 12.5133L7.963 12.547L7.924 12.613L7.8865 12.6783L7.84975 12.7458L7.81225 12.8163L7.7725 12.8928C7.5475 13.3308 7.3825 13.7928 7.29025 14.2915C7.27341 14.4302 7.22323 14.5627 7.144 14.6778L6.7465 15.3115L6.6385 15.4773C6.6235 15.6888 6.616 15.9025 6.616 16.117L6.61975 15.8898Z" fill="white"/>
</svg>
