<svg width="32" height="32" viewBox="0 0 32 32" fill="none" xmlns="http://www.w3.org/2000/svg">
<rect x="0.5" y="0.5" width="31" height="31" rx="15.5" fill="white"/>
<g clip-path="url(#clip0_1076_144533)">
<path d="M6.71703 12.82C6.52459 13.5224 6.4257 14.247 6.42291 14.9753C6.42291 15.0265 6.42291 15.0765 6.42291 15.1265C6.42901 16.0066 6.33028 16.8844 6.1288 17.7412C5.72291 17.5971 5.30527 17.3053 4.90644 16.8C3.85703 15.4706 4.20585 13.3388 5.49997 12.8371C5.98938 12.6476 6.3988 12.6876 6.7188 12.8118C6.71794 12.8144 6.71735 12.8172 6.71703 12.82Z" fill="#A16552"/>
<path d="M6.71703 12.82C6.52459 13.5224 6.4257 14.247 6.42291 14.9753C6.42291 15.0265 6.42291 15.0765 6.42291 15.1265C6.42901 16.0066 6.33028 16.8844 6.1288 17.7412C5.72291 17.5971 5.30527 17.3053 4.90644 16.8C3.85703 15.4706 4.20585 13.3388 5.49997 12.8371C5.98938 12.6476 6.3988 12.6876 6.7188 12.8118C6.71794 12.8144 6.71735 12.8172 6.71703 12.82Z" fill="#F5DCB4"/>
<path d="M26.053 16.8006C25.6548 17.3047 25.2366 17.5965 24.8307 17.7418C24.6294 16.8851 24.5307 16.0076 24.5366 15.1276C24.5366 15.0776 24.5366 15.0276 24.5366 14.9765C24.5339 14.2453 24.434 13.5178 24.2395 12.8129C24.5595 12.6888 24.9689 12.6488 25.4583 12.8382C26.7524 13.3388 27.1019 15.4706 26.053 16.8006Z" fill="#A16552"/>
<path d="M26.053 16.8006C25.6548 17.3047 25.2366 17.5965 24.8307 17.7418C24.6294 16.8851 24.5307 16.0076 24.5366 15.1276C24.5366 15.0776 24.5366 15.0276 24.5366 14.9765C24.5339 14.2453 24.434 13.5178 24.2395 12.8129C24.5595 12.6888 24.9689 12.6488 25.4583 12.8382C26.7524 13.3388 27.1019 15.4706 26.053 16.8006Z" fill="#F5DCB4"/>
<path d="M22.0206 17.7682C21.8299 18.0627 21.7077 18.3962 21.6631 18.7442C21.6185 19.0922 21.6526 19.4458 21.7629 19.7788C21.9353 20.2859 22.0894 20.86 22.0894 21.2871C22.0882 24.4118 19.13 26.9412 15.4794 26.9412C11.8288 26.9412 8.86881 24.4118 8.86881 21.2871C8.86881 20.86 9.02293 20.2871 9.19528 19.7788C9.30569 19.4459 9.33991 19.0925 9.29542 18.7446C9.25092 18.3967 9.12885 18.0632 8.93822 17.7688C8.56625 17.1866 8.36791 16.5103 8.36646 15.8194C8.36646 13.7459 10.1312 12.0641 12.3106 12.0641C13.0141 12.0624 13.7062 12.2427 14.3194 12.5876C14.6729 12.7888 15.0727 12.8945 15.4794 12.8945C15.8861 12.8945 16.2859 12.7888 16.6394 12.5876C17.2524 12.2428 17.9443 12.0627 18.6476 12.0647C20.8241 12.0647 22.5923 13.7465 22.5923 15.82C22.5929 16.338 22.4811 16.85 22.2647 17.3206C22.1939 17.4753 22.1124 17.6249 22.0206 17.7682Z" fill="#A16552"/>
<path d="M22.0206 17.7682C21.8299 18.0627 21.7077 18.3962 21.6631 18.7442C21.6185 19.0922 21.6526 19.4458 21.7629 19.7788C21.9353 20.2859 22.0894 20.86 22.0894 21.2871C22.0882 24.4118 19.13 26.9412 15.4794 26.9412C11.8288 26.9412 8.86881 24.4118 8.86881 21.2871C8.86881 20.86 9.02293 20.2871 9.19528 19.7788C9.30569 19.4459 9.33991 19.0925 9.29542 18.7446C9.25092 18.3967 9.12885 18.0632 8.93822 17.7688C8.56625 17.1866 8.36791 16.5103 8.36646 15.8194C8.36646 13.7459 10.1312 12.0641 12.3106 12.0641C13.0141 12.0624 13.7062 12.2427 14.3194 12.5876C14.6729 12.7888 15.0727 12.8945 15.4794 12.8945C15.8861 12.8945 16.2859 12.7888 16.6394 12.5876C17.2524 12.2428 17.9443 12.0627 18.6476 12.0647C20.8241 12.0647 22.5923 13.7465 22.5923 15.82C22.5929 16.338 22.4811 16.85 22.2647 17.3206C22.1939 17.4753 22.1124 17.6249 22.0206 17.7682Z" fill="#F5DCB4"/>
<path d="M12.1125 21.9859C12.0584 21.9858 12.0049 21.9972 11.9556 22.0194C11.9063 22.0416 11.8624 22.0741 11.8267 22.1148C11.791 22.1554 11.7643 22.2031 11.7486 22.2549C11.7329 22.3066 11.7284 22.3611 11.7354 22.4147C11.9707 24.0882 13.5589 25.3823 15.4795 25.3823C17.4001 25.3823 18.9895 24.0882 19.2236 22.4147C19.2307 22.3611 19.2262 22.3067 19.2105 22.255C19.1948 22.2033 19.1682 22.1556 19.1326 22.115C19.0969 22.0744 19.053 22.0419 19.0038 22.0196C18.9546 21.9973 18.9012 21.9858 18.8472 21.9859H12.1125Z" fill="#4E3F3F"/>
<path d="M13.3047 24.7594C13.957 25.1665 14.7105 25.3823 15.4794 25.3823C16.2483 25.3823 17.0018 25.1665 17.6541 24.7594C17.3812 23.8147 16.5088 24.0324 15.4776 24.0324C14.4465 24.0324 13.5776 23.8147 13.3047 24.7594Z" fill="#E6646E"/>
<path d="M25.9059 12.1388C25.1235 11.8353 24.5029 11.9953 24.0665 12.2465C23.9599 11.9327 23.8372 11.6246 23.6988 11.3235C23.5976 11.1031 23.4884 10.8857 23.3712 10.6712C22.1741 8.48117 20.1612 6.66353 17.8529 5.89529L17.8059 4.65176L16.3106 5.54941L16.1306 5.52941C16.02 5.51941 15.9106 5.51176 15.7988 5.50705L15.5806 4.56588L15.5165 4.29411C15.4417 4.29411 15.3688 4.29411 15.2976 4.30235C13.9065 4.41529 13.2141 5.67941 13.1059 5.89588C10.7941 6.66411 8.78469 8.48235 7.58763 10.6712C7.46998 10.8853 7.36077 11.1027 7.25998 11.3235C7.12175 11.6248 6.99884 11.9328 6.89175 12.2465L6.83587 12.2153C6.40292 11.9829 5.80175 11.8488 5.05292 12.1388C3.40881 12.7765 2.96528 15.4859 4.29763 17.1765C4.84116 17.8635 5.41528 18.24 5.96351 18.4076C5.95645 18.4382 5.94939 18.4694 5.94292 18.5006C5.8438 18.9545 5.7939 19.4178 5.7941 19.8824C5.7941 23.1076 8.17292 25.8824 11.5812 27.1018C12.3814 27.3879 13.2113 27.5827 14.0553 27.6824C14.4934 27.7343 14.9341 27.7618 15.3753 27.7647H15.48C20.8288 27.7647 25.1647 24.2353 25.1647 19.8824C25.165 19.4174 25.1151 18.9537 25.0159 18.4994C25.0088 18.4682 25.0023 18.4371 24.9947 18.4065C25.5459 18.2388 26.1176 17.8624 26.6606 17.1747C27.9935 15.4859 27.5494 12.7759 25.9059 12.1388ZM6.71704 12.82C6.5246 13.5224 6.42571 14.247 6.42292 14.9753C6.42292 15.0265 6.42292 15.0765 6.42292 15.1265C6.42903 16.0066 6.33029 16.8844 6.12881 17.7412C5.72292 17.5971 5.30528 17.3053 4.90645 16.8C3.85704 15.4706 4.20587 13.3388 5.49998 12.8371C5.98939 12.6476 6.39881 12.6876 6.71881 12.8118C6.71795 12.8144 6.71736 12.8172 6.71704 12.82ZM22.2647 17.3206C22.1939 17.4753 22.1124 17.6249 22.0206 17.7682C21.8299 18.0627 21.7077 18.3962 21.6631 18.7442C21.6185 19.0922 21.6526 19.4458 21.7629 19.7788C21.9353 20.2859 22.0894 20.86 22.0894 21.2871C22.0882 24.4118 19.13 26.9412 15.4794 26.9412C11.8288 26.9412 8.86881 24.4118 8.86881 21.2871C8.86881 20.86 9.02292 20.2871 9.19528 19.7788C9.30568 19.4459 9.33991 19.0925 9.29541 18.7446C9.25092 18.3967 9.12885 18.0632 8.93822 17.7688C8.56625 17.1866 8.36791 16.5103 8.36645 15.8194C8.36645 13.7459 10.1312 12.0641 12.3106 12.0641C13.0141 12.0624 13.7062 12.2427 14.3194 12.5876C14.6729 12.7888 15.0727 12.8945 15.4794 12.8945C15.8861 12.8945 16.2859 12.7888 16.6394 12.5876C17.2524 12.2428 17.9443 12.0627 18.6476 12.0647C20.8241 12.0647 22.5923 13.7465 22.5923 15.82C22.5929 16.338 22.4811 16.85 22.2647 17.3206ZM26.0529 16.8006C25.6547 17.3047 25.2365 17.5965 24.8306 17.7418C24.6293 16.8851 24.5306 16.0076 24.5365 15.1276C24.5365 15.0776 24.5365 15.0276 24.5365 14.9765C24.5338 14.2453 24.4339 13.5178 24.2394 12.8129C24.5594 12.6888 24.9688 12.6488 25.4582 12.8382C26.7523 13.3388 27.1017 15.4706 26.0529 16.8006Z" fill="#A16552"/>
<path d="M13.8375 19.1602L13.8297 19.1773C13.759 19.3322 13.8272 19.515 13.982 19.5858L14.7333 19.9289C14.8881 19.9996 15.071 19.9314 15.1417 19.7766L15.1495 19.7595C15.2202 19.6046 15.1521 19.4218 14.9972 19.351L14.246 19.0079C14.0911 18.9372 13.9083 19.0054 13.8375 19.1602Z" fill="#4E3F3F"/>
<path d="M15.8092 19.7604L15.817 19.7775C15.8877 19.9324 16.0706 20.0005 16.2254 19.9298L16.9767 19.5867C17.1315 19.5159 17.1997 19.3331 17.129 19.1782L17.1211 19.1611C17.0504 19.0063 16.8675 18.9381 16.7127 19.0088L15.9615 19.352C15.8066 19.4227 15.7384 19.6055 15.8092 19.7604Z" fill="#4E3F3F"/>
<path d="M12.083 17.3194C11.4577 17.3194 10.9507 16.8394 10.9507 16.2465V15.8888C10.9507 15.2965 11.4577 14.8159 12.083 14.8159C12.7083 14.8159 13.2148 15.2965 13.2148 15.8888V16.2465C13.2148 16.8394 12.7083 17.3194 12.083 17.3194Z" fill="#4E3F3F"/>
<path d="M12.083 14.8159V16.0676C12.0896 16.2133 12.1522 16.3507 12.2576 16.4514C12.363 16.5521 12.5031 16.6083 12.6489 16.6083C12.7947 16.6083 12.9348 16.5521 13.0402 16.4514C13.1456 16.3507 13.2081 16.2133 13.2148 16.0676V15.8912C13.2148 15.2941 12.7083 14.8159 12.083 14.8159Z" fill="#5D5360"/>
<path d="M12.083 15.8888C12.2915 15.8888 12.4606 15.7287 12.4606 15.5312C12.4606 15.3336 12.2915 15.1735 12.083 15.1735C11.8744 15.1735 11.7053 15.3336 11.7053 15.5312C11.7053 15.7287 11.8744 15.8888 12.083 15.8888Z" fill="white"/>
<path d="M18.8759 17.3194C18.2506 17.3194 17.7441 16.8394 17.7441 16.2465V15.8888C17.7441 15.2965 18.2506 14.8159 18.8759 14.8159C19.5012 14.8159 20.0083 15.2965 20.0083 15.8888V16.2465C20.0083 16.8394 19.5 17.3194 18.8759 17.3194Z" fill="#4E3F3F"/>
<path d="M18.876 14.8159V16.0676C18.8841 16.2123 18.9472 16.3484 19.0525 16.448C19.1578 16.5476 19.2972 16.6031 19.4422 16.6031C19.5871 16.6031 19.7265 16.5476 19.8318 16.448C19.9371 16.3484 20.0002 16.2123 20.0083 16.0676V15.8912C20.0083 15.2941 19.5001 14.8159 18.876 14.8159Z" fill="#5D5360"/>
<path d="M18.8759 15.8888C19.0845 15.8888 19.2536 15.7287 19.2536 15.5312C19.2536 15.3336 19.0845 15.1735 18.8759 15.1735C18.6674 15.1735 18.4983 15.3336 18.4983 15.5312C18.4983 15.7287 18.6674 15.8888 18.8759 15.8888Z" fill="white"/>
</g>
<rect x="0.5" y="0.5" width="31" height="31" rx="15.5" stroke="#CED3E6"/>
<defs>
<clipPath id="clip0_1076_144533">
<rect width="25" height="23.4118" fill="white" transform="translate(3.5 4.29411)"/>
</clipPath>
</defs>
</svg>
