<svg width="32" height="32" viewBox="0 0 32 32" fill="none" xmlns="http://www.w3.org/2000/svg">
<path d="M31.5 16C31.5 24.5604 24.5604 31.5 16 31.5C7.43959 31.5 0.5 24.5604 0.5 16C0.5 7.43959 7.43959 0.5 16 0.5C24.5604 0.5 31.5 7.43959 31.5 16Z" fill="white" stroke="#CED3E6"/>
<path d="M22.0935 15.0538C21.9313 15.0192 21.7623 14.9857 21.587 14.9537C21.5369 14.5502 21.4493 14.159 21.328 13.784C23.6073 14.1508 25.081 14.734 25.081 15.3908C25.081 15.3982 25.0809 15.4055 25.0805 15.4127C25.0261 16.5129 20.8372 17.4012 15.6776 17.4012C10.4842 17.4012 6.27417 16.5013 6.27417 15.3911C6.27417 15.3843 6.27433 15.3775 6.27465 15.3707C6.30484 14.7144 7.80608 14.1335 10.1072 13.7712C9.98516 14.1458 9.89678 14.5366 9.84587 14.9396C9.64264 14.976 9.44772 15.0141 9.26173 15.0538C9.01806 15.106 8.79507 15.1597 8.5928 15.2143V15.2146C8.37701 15.2728 8.18478 15.332 8.01614 15.391C8.34287 15.5052 8.75812 15.6202 9.26173 15.7278C9.43234 15.7643 9.61045 15.7994 9.79561 15.8329V15.8332C11.3518 16.1156 13.4054 16.2922 15.6776 16.2922C17.987 16.2922 20.0706 16.1097 21.6357 15.8193V15.819C21.7936 15.7897 21.9464 15.7593 22.0935 15.7278C22.5973 15.6201 23.0127 15.5051 23.3395 15.3908C23.0127 15.2765 22.5973 15.1616 22.0935 15.0538Z" fill="white"/>
<path d="M22.762 11.9239C22.7623 11.9186 22.7624 11.9134 22.7624 11.9081C22.7624 11.3155 21.1883 10.8021 18.8925 10.5519C19.4388 10.914 19.9242 11.3668 20.3292 11.8898C20.3589 11.8959 20.3884 11.902 20.4176 11.9081C20.3964 11.9127 20.375 11.9171 20.3536 11.9216L20.3537 11.9218C19.184 12.1622 17.5518 12.3182 15.7206 12.3182C13.8848 12.3182 12.2491 12.1615 11.0788 11.92L11.079 11.9197C11.0604 11.9159 11.0419 11.9121 11.0235 11.9081C11.0488 11.9029 11.0743 11.8976 11.1001 11.8923C11.5049 11.3688 11.9903 10.9156 12.5367 10.5532C10.2474 10.8039 8.67873 11.3165 8.67873 11.9081V11.9084L8.67871 11.9084C8.67871 12.6488 12.088 13.2373 14.3858 13.4C14.9 13.4363 15.7051 13.4389 15.7051 13.4389C15.9892 13.4513 16.5069 13.4367 17.0189 13.4014C19.3293 13.2421 22.728 12.6601 22.762 11.9239Z" fill="white"/>
<path d="M8.67871 19.5911C8.67871 19.2039 9.35066 18.8505 10.4568 18.5823C10.6333 18.9362 10.8418 19.27 11.0784 19.5796C11.06 19.5835 11.0417 19.5873 11.0235 19.5911C11.0486 19.5964 11.0738 19.6017 11.0994 19.6069C11.101 19.609 11.1027 19.6112 11.1043 19.6133H11.1296C12.2962 19.8489 13.9112 20.0011 15.7205 20.0011C17.5299 20.0011 19.1449 19.8489 20.3114 19.6133H20.3268C20.3278 19.612 20.3289 19.6106 20.3299 19.6093C20.3594 19.6033 20.3887 19.5973 20.4176 19.5911C20.3966 19.5867 20.3754 19.5823 20.354 19.5779C20.5906 19.2681 20.799 18.9342 20.9754 18.5801C22.0868 18.8486 22.7624 19.2029 22.7624 19.5911C22.7624 19.5985 22.7621 19.6059 22.7617 19.6133C22.7073 20.442 19.5757 21.1101 15.7205 21.1101C11.8654 21.1101 8.73377 20.442 8.67942 19.6133C8.67892 19.6059 8.67871 19.5985 8.67871 19.5911Z" fill="white"/>
<path d="M18.5301 15.2884L20.1791 12.4902L24.6239 19.413L24.626 20.7416L24.6115 11.5993C24.601 11.3758 24.4823 11.1713 24.293 11.0507L16.2907 6.44782C16.1036 6.3558 15.8661 6.35691 15.6793 6.45072C15.654 6.46344 15.6304 6.47711 15.6078 6.49217L15.5799 6.50972L7.81232 11.0109L7.7822 11.0247C7.74338 11.0424 7.70428 11.0652 7.66739 11.0914C7.5201 11.197 7.42228 11.3533 7.39064 11.5283C7.38594 11.5548 7.38235 11.5819 7.38083 11.6093L7.39299 19.0593L11.5331 12.6425C12.0543 11.7917 13.19 11.5174 14.2443 11.5325L15.4816 11.5651L8.19103 23.2571L9.05042 23.7518L16.4283 11.5769L19.6894 11.5651L12.3306 24.0472L15.3972 25.8112L15.7636 26.0217C15.9186 26.0848 16.1013 26.0879 16.2576 26.0314L24.3723 21.3288L22.8208 22.2279L18.5301 15.2884ZM19.1592 24.3499L16.0619 19.4886L17.9527 16.2801L22.0204 22.6917L19.1592 24.3499Z" fill="#2D374B"/>
<path d="M16.0613 19.4887L19.1587 24.35L22.0198 22.6918L17.9521 16.2802L16.0613 19.4887Z" fill="#28A0F0"/>
<path d="M24.6255 20.7417L24.6234 19.4131L20.1786 12.4903L18.5296 15.2885L22.8205 22.228L24.372 21.3289C24.5241 21.2054 24.6162 21.024 24.6259 20.8283L24.6255 20.7417Z" fill="#28A0F0"/>
<path d="M6 21.9947L8.19089 23.2571L15.4815 11.5651L14.2442 11.5325C13.19 11.5176 12.0543 11.7917 11.533 12.6425L7.39285 19.0593L6 21.1994V21.9947Z" fill="white"/>
<path d="M19.6892 11.5651L16.4281 11.5769L9.05021 23.7518L11.6291 25.2365L12.3303 24.0472L19.6892 11.5651Z" fill="white"/>
<path d="M26 11.5482C25.9728 10.8662 25.6035 10.242 25.0251 9.87849L16.918 5.21623C16.3458 4.92815 15.6311 4.92774 15.0578 5.21609C14.9901 5.25022 7.17385 9.78343 7.17385 9.78343C7.06567 9.83524 6.96149 9.897 6.86353 9.96719C6.34721 10.3373 6.03247 10.9124 6 11.5441V21.1995L7.39285 19.0594L7.38069 11.6093C7.38235 11.5821 7.3858 11.5551 7.3905 11.5287C7.422 11.3534 7.51996 11.1971 7.66724 11.0914C7.70413 11.0652 15.6538 6.46345 15.679 6.45074C15.866 6.35692 16.1033 6.35582 16.2904 6.44784L24.2927 11.0507C24.482 11.1713 24.6007 11.3758 24.6112 11.5993V20.8281C24.6015 21.0237 24.5241 21.2052 24.372 21.3287L22.8205 22.2277L22.02 22.6917L19.1589 24.3498L16.2573 26.0313C16.101 26.0878 15.9182 26.0846 15.7633 26.0216L12.3303 24.0471L11.629 25.2364L14.7142 27.0127C14.8162 27.0707 14.9071 27.1221 14.9817 27.1641C15.0972 27.2289 15.176 27.2721 15.2038 27.2857C15.423 27.3922 15.7385 27.4541 16.0228 27.4541C16.2834 27.4541 16.5376 27.4063 16.7781 27.3121L25.2061 22.4314C25.6898 22.0565 25.9744 21.4913 26 20.8791V11.5482Z" fill="#96BEDC"/>
</svg>
