<svg width="32" height="32" viewBox="0 0 32 32" fill="none" xmlns="http://www.w3.org/2000/svg">
<path d="M31.5 16C31.5 24.5604 24.5604 31.5 16 31.5C7.43959 31.5 0.5 24.5604 0.5 16C0.5 7.43959 7.43959 0.5 16 0.5C24.5604 0.5 31.5 7.43959 31.5 16Z" fill="white" stroke="#CED3E6"/>
<rect x="4" y="4" width="24" height="24" rx="12" fill="#5465F5"/>
<path d="M7.36 7.83997H24.16V24.64H7.36V7.83997Z" fill="url(#paint0_linear_3541_206828)"/>
<path d="M9.76 10.24H21.76V22.24H9.76V10.24Z" fill="url(#paint1_linear_3541_206828)"/>
<path d="M9.28 16.24C9.28 12.9263 11.9663 10.24 15.28 10.24C18.5937 10.24 21.28 12.9263 21.28 16.24V22.24H9.28V16.24Z" fill="url(#paint2_linear_3541_206828)"/>
<defs>
<linearGradient id="paint0_linear_3541_206828" x1="24.16" y1="7.83997" x2="7.36" y2="24.64" gradientUnits="userSpaceOnUse">
<stop offset="0.4999" stop-color="#D9D9D9"/>
<stop offset="0.5" stop-color="#131313"/>
</linearGradient>
<linearGradient id="paint1_linear_3541_206828" x1="21.76" y1="10.24" x2="9.76" y2="22.24" gradientUnits="userSpaceOnUse">
<stop offset="0.4999" stop-color="#D9D9D9"/>
<stop offset="0.5" stop-color="#131313"/>
</linearGradient>
<linearGradient id="paint2_linear_3541_206828" x1="21.28" y1="10.24" x2="9.28" y2="21.76" gradientUnits="userSpaceOnUse">
<stop offset="0.5" stop-color="#5465F5"/>
<stop offset="0.5001" stop-color="#D9D9D9"/>
</linearGradient>
</defs>
</svg>
