<svg width="32" height="32" viewBox="0 0 32 32" fill="none" xmlns="http://www.w3.org/2000/svg">
<path d="M31.5 16C31.5 24.5604 24.5604 31.5 16 31.5C7.43959 31.5 0.5 24.5604 0.5 16C0.5 7.43959 7.43959 0.5 16 0.5C24.5604 0.5 31.5 7.43959 31.5 16Z" fill="white" stroke="#CED3E6"/>
<path d="M27.3866 15.6933C27.3866 9.23526 22.1513 4 15.6933 4C9.23526 4 4 9.23526 4 15.6933C4 22.1513 9.23526 27.3866 15.6933 27.3866C22.1513 27.3866 27.3866 22.1513 27.3866 15.6933Z" fill="url(#paint0_linear_3479_184620)"/>
<path d="M22.0935 15.0538C21.9313 15.0192 21.7623 14.9857 21.587 14.9537C21.5369 14.5502 21.4493 14.159 21.328 13.784C23.6073 14.1508 25.081 14.734 25.081 15.3908C25.081 15.3982 25.0809 15.4055 25.0805 15.4127C25.0261 16.5129 20.8372 17.4012 15.6776 17.4012C10.4842 17.4012 6.27417 16.5013 6.27417 15.3911C6.27417 15.3843 6.27433 15.3775 6.27465 15.3707C6.30484 14.7144 7.80608 14.1335 10.1072 13.7712C9.98516 14.1458 9.89678 14.5366 9.84587 14.9396C9.64264 14.976 9.44772 15.0141 9.26173 15.0538C9.01806 15.106 8.79507 15.1597 8.5928 15.2143V15.2146C8.37701 15.2728 8.18478 15.332 8.01614 15.391C8.34287 15.5052 8.75812 15.6202 9.26173 15.7278C9.43234 15.7643 9.61045 15.7994 9.79561 15.8329V15.8332C11.3518 16.1156 13.4054 16.2922 15.6776 16.2922C17.987 16.2922 20.0706 16.1097 21.6357 15.8193V15.819C21.7936 15.7897 21.9464 15.7593 22.0935 15.7278C22.5973 15.6201 23.0127 15.5051 23.3395 15.3908C23.0127 15.2765 22.5973 15.1616 22.0935 15.0538Z" fill="white"/>
<path d="M22.762 11.9239C22.7623 11.9186 22.7624 11.9134 22.7624 11.9081C22.7624 11.3155 21.1883 10.8021 18.8925 10.5519C19.4388 10.914 19.9242 11.3668 20.3292 11.8898C20.3589 11.8959 20.3884 11.902 20.4176 11.9081C20.3964 11.9127 20.375 11.9171 20.3536 11.9216L20.3537 11.9218C19.184 12.1622 17.5518 12.3182 15.7206 12.3182C13.8848 12.3182 12.2491 12.1615 11.0788 11.92L11.079 11.9197C11.0604 11.9159 11.0419 11.9121 11.0235 11.9081C11.0488 11.9029 11.0743 11.8976 11.1001 11.8923C11.5049 11.3688 11.9903 10.9156 12.5367 10.5532C10.2474 10.8039 8.67873 11.3165 8.67873 11.9081V11.9084L8.67871 11.9084C8.67871 12.6488 12.088 13.2373 14.3858 13.4C14.9 13.4363 15.7051 13.4389 15.7051 13.4389C15.9892 13.4513 16.5069 13.4367 17.0189 13.4014C19.3293 13.2421 22.728 12.6601 22.762 11.9239Z" fill="white"/>
<path d="M8.67871 19.5911C8.67871 19.2039 9.35066 18.8505 10.4568 18.5823C10.6333 18.9362 10.8418 19.27 11.0784 19.5796C11.06 19.5835 11.0417 19.5873 11.0235 19.5911C11.0486 19.5964 11.0738 19.6017 11.0994 19.6069C11.101 19.609 11.1027 19.6112 11.1043 19.6133H11.1296C12.2962 19.8489 13.9112 20.0011 15.7205 20.0011C17.5299 20.0011 19.1449 19.8489 20.3114 19.6133H20.3268C20.3278 19.612 20.3289 19.6106 20.3299 19.6093C20.3594 19.6033 20.3887 19.5973 20.4176 19.5911C20.3966 19.5867 20.3754 19.5823 20.354 19.5779C20.5906 19.2681 20.799 18.9342 20.9754 18.5801C22.0868 18.8486 22.7624 19.2029 22.7624 19.5911C22.7624 19.5985 22.7621 19.6059 22.7617 19.6133C22.7073 20.442 19.5757 21.1101 15.7205 21.1101C11.8654 21.1101 8.73377 20.442 8.67942 19.6133C8.67892 19.6059 8.67871 19.5985 8.67871 19.5911Z" fill="white"/>
<defs>
<linearGradient id="paint0_linear_3479_184620" x1="25.4086" y1="5.4811" x2="7.09684" y2="25.1393" gradientUnits="userSpaceOnUse">
<stop stop-color="#5D24C6"/>
<stop offset="1" stop-color="#9C4ED6"/>
</linearGradient>
</defs>
</svg>
