<svg width="32" height="32" viewBox="0 0 32 32" fill="none" xmlns="http://www.w3.org/2000/svg">
<rect x="0.5" y="0.5" width="31" height="31" rx="15.5" fill="white" stroke="#CED3E6"/>
<rect x="4.8999" y="4.5" width="23" height="23" rx="11.5" stroke="url(#paint0_linear_3552_191015)"/>
<path d="M16.569 21.2198C12.3885 21.2198 9 20.0123 9 18.3938C9 17.5493 9.9225 16.7888 11.4 16.2518C12.5535 16.992 14.4878 17.3715 16.6815 17.3715C18.8235 17.3715 20.7165 16.9088 21.879 16.2C23.2733 16.7303 24.1388 17.4705 24.1388 18.2865C24.1388 19.9073 20.7502 21.2198 16.569 21.2198Z" fill="#1E1E1E"/>
<path d="M16.539 17.1143C13.3695 17.1143 10.8 16.1205 10.8 14.8943C10.8 14.2148 11.592 13.6058 12.834 13.2C13.7205 13.6628 15.0488 13.9583 16.539 13.9583C18.0293 13.9583 19.3575 13.6628 20.244 13.2008C21.4883 13.608 22.278 14.2148 22.278 14.8943C22.2803 16.1205 19.71 17.1143 16.539 17.1143Z" fill="#1E1E1E"/>
<path d="M16.637 13.66C14.1867 13.66 12.2 12.8395 12.2 11.83C12.2 10.8212 14.1875 10 16.637 10C19.0865 10 21.074 10.8212 21.074 11.83C21.074 12.8395 19.0865 13.66 16.637 13.66Z" fill="#1E1E1E"/>
<path d="M27 20C27 17.2386 24.7614 15 22 15C19.2386 15 17 17.2386 17 20C17 22.7614 19.2386 25 22 25C24.7614 25 27 22.7614 27 20Z" fill="url(#paint1_linear_3552_191015)"/>
<path d="M24.7367 19.7266C24.6674 19.7117 24.5951 19.6974 24.5201 19.6837C24.4987 19.5112 24.4613 19.3439 24.4094 19.1836C25.384 19.3404 26.0142 19.5898 26.0142 19.8707C26.0142 19.8738 26.0141 19.8769 26.0139 19.88C25.9907 20.3505 24.1995 20.7303 21.9933 20.7303C19.7726 20.7303 17.9724 20.3455 17.9724 19.8708C17.9724 19.8679 17.9725 19.865 17.9726 19.862C17.9855 19.5814 18.6275 19.333 19.6114 19.1781C19.5592 19.3383 19.5214 19.5054 19.4997 19.6777C19.4128 19.6933 19.3294 19.7096 19.2499 19.7266C19.1457 19.7489 19.0504 19.7718 18.9639 19.7952V19.7953C18.8716 19.8202 18.7894 19.8455 18.7173 19.8707C18.857 19.9196 19.0346 19.9687 19.2499 20.0148C19.3228 20.0304 19.399 20.0453 19.4782 20.0597V20.0598C20.1436 20.1806 21.0217 20.2561 21.9933 20.2561C22.9808 20.2561 23.8717 20.1781 24.5409 20.0539V20.0537C24.6085 20.0412 24.6738 20.0282 24.7367 20.0148C24.9521 19.9687 25.1298 19.9195 25.2695 19.8707C25.1298 19.8218 24.9521 19.7726 24.7367 19.7266Z" fill="white"/>
<path d="M25.0225 18.3882C25.0227 18.386 25.0227 18.3837 25.0227 18.3815C25.0227 18.1281 24.3496 17.9085 23.368 17.8015C23.6016 17.9564 23.8091 18.15 23.9823 18.3736C23.995 18.3762 24.0076 18.3789 24.0201 18.3815C24.011 18.3834 24.0019 18.3853 23.9927 18.3872L23.9928 18.3873C23.4926 18.4901 22.7947 18.5568 22.0117 18.5568C21.2267 18.5568 20.5273 18.4898 20.0268 18.3866L20.0269 18.3864C20.019 18.3848 20.0111 18.3831 20.0032 18.3815C20.014 18.3792 20.025 18.377 20.036 18.3747C20.2091 18.1509 20.4166 17.9571 20.6503 17.8021C19.6714 17.9093 19.0006 18.1285 19.0006 18.3815V18.3816L19.0006 18.3816C19.0006 18.6982 20.4584 18.9498 21.4409 19.0194C21.6608 19.0349 22.005 19.036 22.005 19.036C22.1265 19.0413 22.3479 19.0351 22.5668 19.02C23.5547 18.9519 25.008 18.703 25.0225 18.3882Z" fill="white"/>
<path d="M19.0006 21.6667C19.0006 21.5011 19.2879 21.35 19.7609 21.2353C19.8364 21.3866 19.9255 21.5294 20.0267 21.6618C20.0188 21.6634 20.011 21.6651 20.0032 21.6667C20.0139 21.669 20.0247 21.6712 20.0357 21.6734C20.0364 21.6743 20.0371 21.6753 20.0378 21.6762H20.0486C20.5474 21.7769 21.238 21.842 22.0117 21.842C22.7853 21.842 23.4759 21.7769 23.9747 21.6762H23.9813C23.9817 21.6756 23.9821 21.675 23.9826 21.6745C23.9952 21.6719 24.0077 21.6693 24.0201 21.6667C24.0111 21.6648 24.002 21.6629 23.9929 21.661C24.094 21.5286 24.1832 21.3858 24.2586 21.2344C24.7339 21.3492 25.0227 21.5007 25.0227 21.6667C25.0227 21.6699 25.0226 21.673 25.0224 21.6762C24.9992 22.0305 23.6601 22.3162 22.0117 22.3162C20.3632 22.3162 19.0241 22.0305 19.0009 21.6762C19.0007 21.673 19.0006 21.6699 19.0006 21.6667Z" fill="white"/>
<defs>
<linearGradient id="paint0_linear_3552_191015" x1="20" y1="4.5" x2="11.5" y2="27" gradientUnits="userSpaceOnUse">
<stop stop-color="#692CC9"/>
<stop offset="1" stop-color="#9348D4"/>
</linearGradient>
<linearGradient id="paint1_linear_3552_191015" x1="26.1542" y1="15.6333" x2="18.3242" y2="24.0391" gradientUnits="userSpaceOnUse">
<stop stop-color="#5D24C6"/>
<stop offset="1" stop-color="#9C4ED6"/>
</linearGradient>
</defs>
</svg>
