<svg width="32" height="32" viewBox="0 0 32 32" fill="none" xmlns="http://www.w3.org/2000/svg">
<path d="M31.5 16C31.5 24.5604 24.5604 31.5 16 31.5C7.43959 31.5 0.5 24.5604 0.5 16C0.5 7.43959 7.43959 0.5 16 0.5C24.5604 0.5 31.5 7.43959 31.5 16Z" fill="white" stroke="#CED3E6"/>
<path d="M26.5 16C26.5 21.8197 21.8197 26.5 16 26.5C10.1803 26.5 5.5 21.8197 5.5 16C5.5 10.1803 10.1803 5.5 16 5.5C21.8197 5.5 26.5 10.1803 26.5 16Z" fill="#2775CA" stroke="#2775CA"/>
<path d="M19.0554 17.8358C19.0554 16.3271 18.0977 15.8098 16.1823 15.5943C14.8141 15.4218 14.5405 15.077 14.5405 14.4735C14.5405 13.8699 14.9966 13.482 15.9087 13.482C16.7296 13.482 17.1857 13.7407 17.4136 14.3873C17.4593 14.5166 17.5961 14.6028 17.7329 14.6028H18.4625C18.645 14.6028 18.7818 14.4735 18.7818 14.3011V14.2579C18.5994 13.3096 17.7785 12.5768 16.7296 12.4906V11.456C16.7296 11.2835 16.5927 11.1542 16.3648 11.1111H15.6807C15.4982 11.1111 15.3614 11.2404 15.3158 11.456V12.4474C13.9476 12.6199 13.0812 13.482 13.0812 14.5597C13.0812 15.9823 13.9932 16.5426 15.9087 16.7582C17.1857 16.9737 17.5961 17.2324 17.5961 17.9221C17.5961 18.6119 16.9576 19.086 16.0911 19.086C14.9053 19.086 14.4949 18.6117 14.358 17.9651C14.3125 17.7928 14.1757 17.7065 14.0389 17.7065H13.2635C13.0812 17.7065 12.9443 17.8358 12.9443 18.0083V18.0514C13.1267 19.129 13.8564 19.905 15.3614 20.1206V21.1551C15.3614 21.3275 15.4982 21.4568 15.7262 21.5H16.4103C16.5927 21.5 16.7296 21.3707 16.7752 21.1551V20.1206C18.1434 19.905 19.0554 18.9997 19.0554 17.8358Z" fill="white"/>
<path d="M13.7553 21.9346C10.322 20.7477 8.5613 17.0599 9.83785 13.7958C10.4981 12.0154 11.9506 10.659 13.7553 10.0232C13.9314 9.93843 14.0194 9.81126 14.0194 9.59925V9.00583C14.0194 8.83624 13.9314 8.70907 13.7553 8.66675C13.7112 8.66675 13.6232 8.66675 13.5792 8.70907C9.39765 9.98075 7.10876 14.2621 8.42925 18.2891C9.22155 20.6629 11.1143 22.4857 13.5792 23.2487C13.7553 23.3334 13.9314 23.2487 13.9753 23.0791C14.0194 23.0368 14.0194 22.9943 14.0194 22.9096V22.3161C14.0194 22.1889 13.8873 22.0194 13.7553 21.9346ZM18.421 8.70907C18.2449 8.62432 18.0688 8.70907 18.0249 8.87866C17.9808 8.92108 17.9808 8.96341 17.9808 9.04825V9.64167C17.9808 9.81126 18.1129 9.98075 18.2449 10.0656C21.6782 11.2524 23.4389 14.9403 22.1624 18.2044C21.5021 19.9847 20.0496 21.3411 18.2449 21.977C18.0688 22.0617 17.9808 22.1889 17.9808 22.4009V22.9943C17.9808 23.1639 18.0688 23.2911 18.2449 23.3334C18.289 23.3334 18.377 23.3334 18.421 23.2911C22.6026 22.0194 24.8915 17.738 23.571 13.7111C22.7787 11.2949 20.8419 9.47208 18.421 8.70907Z" fill="white"/>
<path d="M26.5 24.25C26.5 25.4978 25.4978 26.5 24.25 26.5C23.0022 26.5 22 25.4978 22 24.25C22 23.0022 23.0022 22 24.25 22C25.4978 22 26.5 23.0022 26.5 24.25Z" fill="black" stroke="black"/>
<line x1="22.6003" y1="23.8964" x2="23.8967" y2="22.6001" stroke="white"/>
<line x1="22.6003" y1="23.8964" x2="23.8967" y2="22.6001" stroke="white"/>
<line x1="22.6003" y1="23.8964" x2="23.8967" y2="22.6001" stroke="white"/>
<line x1="24.5449" y1="25.841" x2="25.8412" y2="24.5447" stroke="white"/>
<line x1="24.5449" y1="25.841" x2="25.8412" y2="24.5447" stroke="white"/>
<line x1="24.5449" y1="25.841" x2="25.8412" y2="24.5447" stroke="white"/>
<line x1="23.8967" y1="25.8999" x2="22.6003" y2="24.6036" stroke="white"/>
<line x1="23.8967" y1="25.8999" x2="22.6003" y2="24.6036" stroke="white"/>
<line x1="23.8967" y1="25.8999" x2="22.6003" y2="24.6036" stroke="white"/>
<line x1="25.8413" y1="23.9554" x2="24.5449" y2="22.659" stroke="white"/>
<line x1="25.8413" y1="23.9554" x2="24.5449" y2="22.659" stroke="white"/>
<line x1="25.8413" y1="23.9554" x2="24.5449" y2="22.659" stroke="white"/>
</svg>
