<svg width="32" height="32" viewBox="0 0 32 32" fill="none" xmlns="http://www.w3.org/2000/svg">
<g clip-path="url(#clip0_35_41368)">
<rect x="0.5" y="0.5" width="31" height="31" rx="15.5" fill="white" stroke="#CED3E6"/>
<g clip-path="url(#clip1_35_41368)">
<path d="M16 28C22.6274 28 28 22.6274 28 16C28 9.37258 22.6274 4 16 4C9.37258 4 4 9.37258 4 16C4 22.6274 9.37258 28 16 28Z" fill="#1E1E1E"/>
<path d="M16.069 21.7697C11.8885 21.7697 8.5 20.5622 8.5 18.9437C8.5 18.0992 9.4225 17.3388 10.9 16.8018C12.0535 17.542 13.9878 17.9215 16.1815 17.9215C18.3235 17.9215 20.2165 17.4587 21.379 16.75C22.7733 17.2802 23.6388 18.0205 23.6388 18.8365C23.6388 20.4572 20.2502 21.7697 16.069 21.7697Z" fill="white"/>
<path d="M16.489 16.9142C13.3195 16.9142 10.75 15.9205 10.75 14.6942C10.75 14.0147 11.542 13.4057 12.784 13C13.6705 13.4627 14.9988 13.7582 16.489 13.7582C17.9793 13.7582 19.3075 13.4628 20.194 13.0008C21.4383 13.408 22.228 14.0147 22.228 14.6942C22.2303 15.9205 19.66 16.9142 16.489 16.9142Z" fill="white"/>
<path d="M15.937 13.66C13.4868 13.66 11.5 12.8395 11.5 11.83C11.5 10.8212 13.4875 10 15.937 10C18.3865 10 20.374 10.8212 20.374 11.83C20.374 12.8395 18.3865 13.66 15.937 13.66Z" fill="white"/>
</g>
</g>
<defs>
<clipPath id="clip0_35_41368">
<rect width="32" height="32" fill="white"/>
</clipPath>
<clipPath id="clip1_35_41368">
<rect width="24" height="24" fill="white" transform="translate(4 4)"/>
</clipPath>
</defs>
</svg>
