<svg width="32" height="32" viewBox="0 0 32 32" fill="none" xmlns="http://www.w3.org/2000/svg">
<rect x="0.5" y="0.5" width="31" height="31" rx="15.5" fill="white" stroke="#CED3E6"/>
<path d="M16.0563 3.6046C18.2101 3.61438 20.3242 4.18521 22.1903 5.26083C24.0563 6.33646 25.6099 7.87976 26.6979 9.73864C27.7858 11.5975 28.3707 13.7078 28.3947 15.8615C28.4188 18.0153 27.8812 20.1381 26.8351 22.0208L25.7516 21.4187C26.6931 19.7243 27.1769 17.8137 27.1553 15.8754C27.1336 13.937 26.6073 12.0378 25.6281 10.3648C24.6489 8.69179 23.2507 7.30282 21.5712 6.33475C19.8918 5.36669 17.9891 4.85294 16.0506 4.84414L16.0563 3.6046Z" fill="#0000FF"/>
<path d="M26.7066 22.2464C25.6212 24.1068 24.0698 25.6523 22.2052 26.7305C20.3407 27.8087 18.2274 28.3825 16.0736 28.3953C13.9197 28.4081 11.7998 27.8594 9.92254 26.8034C8.04533 25.7473 6.47568 24.2204 5.36829 22.373L6.43147 21.7357C7.42811 23.3984 8.84079 24.7726 10.5303 25.723C12.2198 26.6735 14.1278 27.1673 16.0662 27.1557C18.0046 27.1442 19.9066 26.6278 21.5847 25.6574C23.2628 24.687 24.6591 23.2961 25.6359 21.6217L26.7066 22.2464Z" fill="#FF9400"/>
<path d="M5.23716 22.149C4.1687 20.2788 3.606 18.1625 3.60449 16.0086C3.60299 13.8548 4.16274 11.7377 5.22858 9.86604C6.29443 7.99438 7.82957 6.43275 9.68273 5.33506C11.5359 4.23736 13.6431 3.64148 15.7966 3.60614L15.817 4.84553C13.8788 4.87733 11.9823 5.41362 10.3145 6.40155C8.64662 7.38948 7.26499 8.79494 6.30573 10.4794C5.34647 12.1639 4.84269 14.0693 4.84404 16.0078C4.8454 17.9462 5.35183 19.8509 6.31344 21.5341L5.23716 22.149Z" fill="#FF2323"/>
<path fill-rule="evenodd" clip-rule="evenodd" d="M18.3167 7.86174L16.1255 5.6705L13.9343 7.86174H14.9672V9.45693C14.4665 9.53806 13.9998 9.6745 13.5672 9.86624C12.8172 10.1986 12.227 10.661 11.7966 11.2533C11.3705 11.8456 11.1595 12.5381 11.1638 13.3307C11.1595 14.2981 11.477 15.0672 12.1162 15.6383C12.7554 16.2093 13.6269 16.629 14.7306 16.8975L16.156 17.2554C16.6332 17.3705 17.0359 17.4983 17.3641 17.639C17.6965 17.7796 17.9479 17.95 18.1183 18.1503C18.2931 18.3506 18.3804 18.5978 18.3804 18.8918C18.3804 19.2071 18.2845 19.4863 18.0928 19.7292C17.901 19.9721 17.6304 20.1617 17.281 20.2981C16.9358 20.4344 16.5288 20.5026 16.0601 20.5026C15.5828 20.5026 15.1546 20.4302 14.7753 20.2853C14.4003 20.1361 14.0999 19.9167 13.874 19.6269C13.6524 19.3329 13.5267 18.9664 13.4969 18.5275H10.8186C10.8399 19.4692 11.0679 20.2597 11.5026 20.8989C11.9415 21.5338 12.5509 22.0133 13.3307 22.3371C14.1148 22.661 15.0352 22.8229 16.0921 22.8229C17.1574 22.8229 18.0672 22.6631 18.8215 22.3435C19.58 22.0196 20.1595 21.5658 20.5601 20.982C20.9649 20.3939 21.1695 19.6993 21.1737 18.8982C21.1695 18.3527 21.0693 17.8691 20.8733 17.4472C20.6815 17.0253 20.4109 16.6588 20.0615 16.3478C19.7121 16.0367 19.2987 15.7746 18.8215 15.5615C18.3442 15.3485 17.82 15.178 17.249 15.0502L16.0729 14.7689C15.7874 14.705 15.5189 14.6283 15.2675 14.5388C15.0161 14.4451 14.7945 14.3364 14.6027 14.2128C14.4109 14.085 14.2597 13.9337 14.1489 13.759C14.0423 13.5843 13.9933 13.3797 14.0019 13.1454C14.0019 12.8641 14.0828 12.6127 14.2448 12.3911C14.4109 12.1695 14.6496 11.9969 14.9607 11.8733C15.2717 11.7455 15.6531 11.6816 16.1048 11.6816C16.7696 11.6816 17.2959 11.8243 17.6837 12.1098C18.0715 12.3954 18.2909 12.7959 18.3421 13.3115H20.9948C20.982 12.5317 20.7732 11.8456 20.3683 11.2533C19.9635 10.661 19.3967 10.1986 18.6681 9.86624C18.1793 9.642 17.6343 9.4934 17.0331 9.42044V7.86174H18.3167ZM17.0331 23.2308H14.9672V26.3297H17.0331V23.2308Z" fill="url(#paint0_linear_3552_190983)"/>
<defs>
<linearGradient id="paint0_linear_3552_190983" x1="20.5002" y1="10.3188" x2="10.102" y2="22.9017" gradientUnits="userSpaceOnUse">
<stop stop-color="#B6519F"/>
<stop offset="1" stop-color="#30BAC6"/>
</linearGradient>
</defs>
</svg>
