<svg width="32" height="32" viewBox="0 0 32 32" fill="none" xmlns="http://www.w3.org/2000/svg">
<path d="M31.5 16C31.5 24.5604 24.5604 31.5 16 31.5C7.43959 31.5 0.5 24.5604 0.5 16C0.5 7.43959 7.43959 0.5 16 0.5C24.5604 0.5 31.5 7.43959 31.5 16Z" fill="white" stroke="#CED3E6"/>
<g clip-path="url(#clip0_33_22652)">
<path d="M16 28C22.6274 28 28 22.6274 28 16C28 9.37258 22.6274 4 16 4C9.37258 4 4 9.37258 4 16C4 22.6274 9.37258 28 16 28Z" fill="#F7931A"/>
<path d="M21.274 14.515C21.5095 12.943 20.3118 12.0978 18.6753 11.5338L19.2062 9.40375L17.9103 9.08125L17.3928 11.155C17.0523 11.0695 16.7028 10.99 16.354 10.9105L16.8752 8.82325L15.5793 8.5L15.0482 10.6292C14.7662 10.5647 14.4888 10.5018 14.2203 10.4343L14.2218 10.4275L12.4338 9.98125L12.0888 11.3658C12.0888 11.3658 13.051 11.5863 13.0308 11.5998C13.5558 11.731 13.6503 12.0782 13.6345 12.3542L13.03 14.7805C13.066 14.7895 13.1125 14.803 13.165 14.8232L13.0278 14.7895L12.1803 18.1885C12.1158 18.3475 11.953 18.5867 11.5855 18.496C11.599 18.5147 10.6435 18.2612 10.6435 18.2612L10 19.7448L11.6875 20.1655C12.001 20.2443 12.3085 20.3267 12.6107 20.404L12.0745 22.558L13.3698 22.8805L13.9008 20.7505C14.2548 20.8457 14.5983 20.9342 14.9343 21.0182L14.4048 23.1392L15.7008 23.4617L16.237 21.3123C18.448 21.7308 20.11 21.562 20.8098 19.5625C21.3738 17.953 20.782 17.0238 19.6188 16.4185C20.4663 16.2235 21.1037 15.6663 21.274 14.515V14.515ZM18.3115 18.6685C17.9118 20.2788 15.2005 19.408 14.3215 19.1898L15.034 16.336C15.913 16.5557 18.7308 16.99 18.3115 18.6685ZM18.7128 14.4918C18.3475 15.9565 16.0915 15.2118 15.3603 15.0295L16.0052 12.442C16.7365 12.6242 19.0938 12.964 18.7128 14.4918Z" fill="white"/>
</g>
<defs>
<clipPath id="clip0_33_22652">
<rect width="24" height="24" fill="white" transform="translate(4 4)"/>
</clipPath>
</defs>
</svg>
