<svg width="32" height="32" viewBox="0 0 32 32" fill="none" xmlns="http://www.w3.org/2000/svg">
<path d="M31.5 16C31.5 24.5604 24.5604 31.5 16 31.5C7.43959 31.5 0.5 24.5604 0.5 16C0.5 7.43959 7.43959 0.5 16 0.5C24.5604 0.5 31.5 7.43959 31.5 16Z" fill="white" stroke="#CED3E6"/>
<g clip-path="url(#clip0_423_67066)">
<path d="M16.0001 4.05078L18.9608 7.07372L11.5056 14.5066L8.54492 11.5548L16.0001 4.05078Z" fill="#F0B90B" stroke="#F0B90B" stroke-width="0.0564787"/>
<path d="M20.4946 8.53174L23.4553 11.5547L11.5056 23.4686L8.54492 20.5168L20.4946 8.53174Z" fill="#F0B90B" stroke="#F0B90B" stroke-width="0.0564787"/>
<path d="M7.01145 13.0127L9.97213 16.0356L7.01145 18.9874L4.05078 16.0356L7.01145 13.0127Z" fill="#F0B90B" stroke="#F0B90B" stroke-width="0.0564787"/>
<path d="M24.9888 13.0127L27.9494 16.0356L15.9997 27.9496L13.0391 24.9978L24.9888 13.0127Z" fill="#F0B90B" stroke="#F0B90B" stroke-width="0.0564787"/>
</g>
<defs>
<clipPath id="clip0_423_67066">
<rect width="24" height="24" fill="white" transform="translate(4 4)"/>
</clipPath>
</defs>
</svg>
