<svg width="32" height="32" viewBox="0 0 32 32" fill="none" xmlns="http://www.w3.org/2000/svg">
<path d="M31.5 16C31.5 24.5604 24.5604 31.5 16 31.5C7.43959 31.5 0.5 24.5604 0.5 16C0.5 7.43959 7.43959 0.5 16 0.5C24.5604 0.5 31.5 7.43959 31.5 16Z" fill="white" stroke="#CED3E6"/>
<path d="M16 28C22.6276 28 28 22.6276 28 16C28 9.3724 22.6276 4 16 4C9.3724 4 4 9.3724 4 16C4 22.6276 9.3724 28 16 28Z" fill="#070A0E"/>
<path fill-rule="evenodd" clip-rule="evenodd" d="M10.9324 20.0236C10.5736 19.804 10.354 19.414 10.354 18.994V16.6492C10.354 16.3708 10.5808 16.1452 10.8592 16.1464C10.948 16.1464 11.0356 16.1704 11.1124 16.2148L16.4032 19.3C16.7128 19.48 16.9036 19.8112 16.9036 20.17V22.5988C16.9048 22.9324 16.6348 23.2036 16.3012 23.2036C16.1896 23.2036 16.0792 23.1724 15.9844 23.1148L10.9324 20.0236ZM18.8188 15.5728C19.1284 15.7528 19.318 16.0852 19.3192 16.4428V21.3724C19.3192 21.5176 19.2412 21.652 19.114 21.7228L17.956 22.3744C17.9416 22.3828 17.926 22.3888 17.9092 22.3936V19.6564C17.9092 19.3024 17.7232 18.9736 17.4184 18.7912L12.772 16.012V12.922C12.772 12.6436 12.9988 12.418 13.2772 12.4192C13.366 12.4192 13.4536 12.4432 13.5304 12.4876L18.8188 15.5728ZM21.1348 11.932C21.4456 12.112 21.6364 12.4444 21.6364 12.8032V20.0032C21.6352 20.1508 21.5536 20.2864 21.424 20.3572L20.326 20.95V15.9376C20.326 15.5836 20.14 15.256 19.8376 15.0736L15.088 12.2248V9.29441C15.088 9.20561 15.112 9.11801 15.1552 9.04121C15.2956 8.80121 15.604 8.71961 15.844 8.85881L21.1348 11.932Z" fill="#00D395"/>
</svg>
