<svg width="32" height="32" viewBox="0 0 32 32" fill="none" xmlns="http://www.w3.org/2000/svg">
<path d="M31.5 16C31.5 24.5604 24.5604 31.5 16 31.5C7.43959 31.5 0.5 24.5604 0.5 16C0.5 7.43959 7.43959 0.5 16 0.5C24.5604 0.5 31.5 7.43959 31.5 16Z" fill="white" stroke="#CED3E6"/>
<g clip-path="url(#clip0_4223_28869)">
<path d="M16 27.1864C22.4027 27.1864 27.5932 21.9959 27.5932 15.5932C27.5932 9.19051 22.4027 4 16 4C9.59725 4 4.40674 9.19051 4.40674 15.5932C4.40674 21.9959 9.59725 27.1864 16 27.1864Z" fill="#162435"/>
<path d="M12.4735 15.5933C12.4735 14.8228 11.8467 14.1968 11.0771 14.1968C10.307 14.1968 9.68018 14.8228 9.68018 15.5933C9.68018 16.3641 10.3062 16.9901 11.0771 16.9901C11.8475 16.9901 12.4735 16.3633 12.4735 15.5933ZM10.2997 15.5933C10.2997 15.1649 10.6475 14.8163 11.0771 14.8163C11.5062 14.8163 11.854 15.1641 11.854 15.5933C11.854 16.0228 11.5046 16.3706 11.0771 16.3706C10.6495 16.3706 10.2997 16.0208 10.2997 15.5933Z" fill="white"/>
<path d="M16 14.1968C15.2295 14.1968 14.6035 14.8228 14.6035 15.5933C14.6035 16.3641 15.2295 16.9901 16 16.9901C16.7708 16.9901 17.3969 16.3633 17.3969 15.5933C17.3969 14.8236 16.77 14.1968 16 14.1968ZM16 16.3706C15.5716 16.3706 15.223 16.0208 15.223 15.5933C15.223 15.1657 15.5708 14.8163 16 14.8163C16.4295 14.8163 16.7773 15.1641 16.7773 15.5933C16.7773 16.0228 16.4275 16.3706 16 16.3706Z" fill="white"/>
<path d="M21.225 12.8385C21.1294 11.5031 20.0852 10.4263 18.7636 10.2827C18.6615 8.84679 17.4615 7.70984 15.9999 7.70984C14.5379 7.70984 13.3388 8.84679 13.2358 10.2827C11.9142 10.4263 10.8692 11.5031 10.7744 12.8385C10.4868 12.8694 10.2127 12.9455 9.95842 13.0586C9.75991 13.1465 9.71068 13.408 9.86485 13.5622C9.95638 13.6541 10.0939 13.6761 10.2127 13.6244C10.5613 13.4702 10.9571 13.4072 11.372 13.4621C12.3019 13.5862 13.056 14.3208 13.2009 15.2475C13.4226 16.6598 12.2596 17.8712 10.8606 17.7337C9.81726 17.6316 8.98825 16.7635 8.92886 15.7177C8.89916 15.186 9.06227 14.6934 9.35556 14.3041C9.44831 14.1809 9.4361 14.008 9.32749 13.8998C9.19488 13.7672 8.97523 13.7802 8.86214 13.9295C8.51231 14.3932 8.30566 14.97 8.30566 15.5932C8.30566 17.0198 9.3881 18.1974 10.7744 18.3479C10.87 19.6826 11.9142 20.7593 13.2358 20.9029C13.3379 22.3385 14.5379 23.4758 15.9999 23.4758C17.4615 23.4758 18.6607 22.3385 18.7636 20.9029C20.0852 20.7593 21.1294 19.6826 21.225 18.3479C22.6117 18.1966 23.6941 17.0186 23.6941 15.5932C23.6941 14.1679 22.6117 12.989 21.225 12.8385ZM20.6026 12.8406C20.3411 12.8702 20.0917 12.937 19.8582 13.0342C19.857 12.2654 19.2302 11.6393 18.4613 11.6393C17.6925 11.6393 17.0657 12.2654 17.0644 13.0342C16.831 12.9361 16.5812 12.8702 16.3196 12.8406C16.4189 11.7463 17.3411 10.8856 18.4613 10.8856C19.5816 10.8856 20.5034 11.7463 20.6026 12.8406ZM13.848 15.5932C13.848 14.4071 14.8137 13.4414 15.9999 13.4414C17.1861 13.4414 18.1514 14.4071 18.1514 15.5932C18.1514 16.7794 17.1861 17.7451 15.9999 17.7451C14.8137 17.7451 13.848 16.7794 13.848 15.5932ZM16.7768 20.7052C16.7768 21.1328 16.4274 21.4826 15.9999 21.4826C15.5724 21.4826 15.2225 21.1328 15.2225 20.7052C15.2225 20.2777 15.5703 19.9283 15.9999 19.9283C16.4291 19.9283 16.7768 20.2761 16.7768 20.7052ZM15.2225 10.4812C15.2225 10.0525 15.5724 9.70388 15.9999 9.70388C16.4274 9.70388 16.7768 10.0517 16.7768 10.4812C16.7768 10.9104 16.4291 11.2582 15.9999 11.2582C15.5703 11.2582 15.2225 10.9088 15.2225 10.4812ZM18.4613 17.3713C18.8897 17.3713 19.2387 17.7207 19.2387 18.1482C19.2387 18.5757 18.8909 18.9256 18.4613 18.9256C18.0318 18.9256 17.684 18.5778 17.684 18.1482C17.684 17.7191 18.0318 17.3713 18.4613 17.3713ZM17.684 13.0362C17.684 12.6087 18.0318 12.2589 18.4613 12.2589C18.8909 12.2589 19.2387 12.6087 19.2387 13.0362C19.2387 13.4637 18.8909 13.8136 18.4613 13.8136C18.0318 13.8136 17.684 13.4658 17.684 13.0362ZM15.9999 8.32937C17.1202 8.32937 18.0419 9.19011 18.1412 10.2844C17.8808 10.314 17.6303 10.3808 17.3964 10.4784C17.3947 9.70835 16.7695 9.08435 15.9999 9.08435C15.2299 9.08435 14.605 9.70835 14.603 10.4784C14.3695 10.3808 14.1198 10.3153 13.8582 10.2844C13.9575 9.19011 14.8796 8.32937 15.9999 8.32937ZM12.1416 13.0342C11.9077 12.9361 11.6583 12.8702 11.3968 12.8406C11.496 11.7463 12.4178 10.8856 13.5385 10.8856C14.6587 10.8856 15.5805 11.7463 15.6798 12.8406C15.4182 12.8702 15.1689 12.937 14.935 13.0342C14.9341 12.2654 14.3073 11.6393 13.5385 11.6393C12.7697 11.6393 12.1424 12.2654 12.1416 13.0342ZM12.7611 13.0362C12.7611 12.6087 13.1089 12.2589 13.5385 12.2589C13.9676 12.2589 14.3154 12.6087 14.3154 13.0362C14.3154 13.4637 13.966 13.8136 13.5385 13.8136C13.1109 13.8136 12.7611 13.4658 12.7611 13.0362ZM13.5385 17.3713C13.966 17.3713 14.3154 17.7207 14.3154 18.1482C14.3154 18.5757 13.966 18.9256 13.5385 18.9256C13.1109 18.9256 12.7611 18.5778 12.7611 18.1482C12.7611 17.7191 13.1089 17.3713 13.5385 17.3713ZM11.3968 18.3459C11.6583 18.3162 11.9077 18.2495 12.1416 18.1523C12.1436 18.9219 12.7684 19.5459 13.5385 19.5459C14.3081 19.5459 14.9333 18.9219 14.935 18.1523C15.1689 18.2503 15.4182 18.3162 15.679 18.3459C15.5789 19.4401 14.6567 20.3001 13.5373 20.3001C12.4178 20.3001 11.496 19.4393 11.396 18.3459H11.3968ZM15.9999 22.8563C14.8796 22.8563 13.9575 21.9955 13.8582 20.9009C14.1189 20.8712 14.3695 20.8045 14.603 20.7073C14.6038 21.4761 15.2299 22.1021 15.9999 22.1021C16.7695 22.1021 17.3956 21.4761 17.3964 20.7073C17.6303 20.8045 17.8796 20.8704 18.1404 20.9009C18.0411 21.9955 17.1194 22.8563 15.9987 22.8563H15.9999ZM18.4613 20.3001C17.3419 20.3001 16.4201 19.4393 16.3196 18.3459C16.5812 18.3162 16.831 18.2495 17.0644 18.1523C17.0665 18.9219 17.6925 19.5459 18.4613 19.5459C19.2302 19.5459 19.8562 18.9219 19.8582 18.1523C20.0917 18.2503 20.3411 18.3162 20.6026 18.3459C20.5025 19.4401 19.5808 20.3001 18.4613 20.3001ZM20.9227 17.7439C19.7366 17.7439 18.7709 16.7786 18.7709 15.5924C18.7709 14.4062 19.7366 13.4405 20.9227 13.4405C22.1089 13.4405 23.0746 14.4062 23.0746 15.5924C23.0746 16.7786 22.1089 17.7439 20.9227 17.7439Z" fill="white"/>
<path d="M20.9228 14.1968C20.1532 14.1968 19.5264 14.8228 19.5264 15.5933C19.5264 16.3641 20.1532 16.9901 20.9228 16.9901C21.6929 16.9901 22.3197 16.3633 22.3197 15.5933C22.3197 14.8236 21.6937 14.1968 20.9228 14.1968ZM20.9228 16.3706C20.4945 16.3706 20.1459 16.0208 20.1459 15.5933C20.1459 15.1657 20.4937 14.8163 20.9228 14.8163C21.3524 14.8163 21.7002 15.1641 21.7002 15.5933C21.7002 16.0228 21.3524 16.3706 20.9228 16.3706Z" fill="white"/>
</g>
<defs>
<clipPath id="clip0_4223_28869">
<rect width="24" height="23.1864" fill="white" transform="translate(4 4)"/>
</clipPath>
</defs>
</svg>
