<svg width="32" height="32" viewBox="0 0 32 32" fill="none" xmlns="http://www.w3.org/2000/svg">
<path d="M31.5 16C31.5 24.5604 24.5604 31.5 16 31.5C7.43959 31.5 0.5 24.5604 0.5 16C0.5 7.43959 7.43959 0.5 16 0.5C24.5604 0.5 31.5 7.43959 31.5 16Z" fill="white" stroke="#CED3E6"/>
<g clip-path="url(#clip0_3_27759)">
<path d="M27.5 16C27.5 22.3739 22.3739 27.5 16 27.5C9.6261 27.5 4.5 22.3739 4.5 16C4.5 9.6261 9.6261 4.5 16 4.5C22.3739 4.5 27.5 9.6261 27.5 16Z" stroke="#F6F6F6"/>
<g clip-path="url(#clip1_3_27759)">
<path d="M16 4.66666C22.2598 4.66666 27.3333 9.74121 27.3333 16C27.3333 22.2598 22.2598 27.3333 16 27.3333C9.74118 27.3333 4.66663 22.2593 4.66663 16C4.66663 9.74121 9.74118 4.66666 16 4.66666Z" fill="#F5AC37"/>
<path d="M16.4177 16.8003H20.7242C20.816 16.8003 20.8594 16.8003 20.866 16.6799C20.9012 16.2418 20.9012 15.8012 20.866 15.3626C20.866 15.2774 20.8237 15.2422 20.7313 15.2422H12.1607C12.0546 15.2422 12.0261 15.2774 12.0261 15.3769V16.6376C12.0261 16.8003 12.0261 16.8003 12.1959 16.8003H16.4177ZM20.3851 13.7688C20.3973 13.7367 20.3973 13.7015 20.3851 13.6699C20.3131 13.5133 20.228 13.3639 20.129 13.2236C19.9801 12.9839 19.8047 12.7631 19.6047 12.5647C19.5104 12.4448 19.4013 12.3372 19.2789 12.2459C18.6658 11.7242 17.937 11.355 17.1537 11.1693C16.7584 11.0806 16.3545 11.0383 15.9495 11.0418H12.1459C12.0398 11.0418 12.0256 11.0842 12.0256 11.1765V13.6908C12.0256 13.7969 12.0256 13.8254 12.1602 13.8254H20.3341C20.3341 13.8254 20.4049 13.8111 20.4192 13.7688H20.3845H20.3851ZM20.3851 18.2737C20.2647 18.2604 20.1433 18.2604 20.023 18.2737H12.1679C12.0618 18.2737 12.0261 18.2737 12.0261 18.4155V20.8737C12.0261 20.9869 12.0261 21.0155 12.1679 21.0155H15.7945C15.9679 21.0287 16.1413 21.0165 16.3111 20.9803C16.8375 20.9425 17.3551 20.8283 17.8488 20.6401C18.0283 20.5779 18.2017 20.4968 18.3654 20.3994H18.4149C19.2651 19.9572 19.9556 19.2626 20.3912 18.4099C20.3912 18.4099 20.4406 18.3028 20.3851 18.2747V18.2737ZM10.6026 22.29V22.2477V20.5973V20.0378V18.3731C10.6026 18.2808 10.6026 18.2671 10.4894 18.2671H8.95227C8.8671 18.2671 8.83191 18.2671 8.83191 18.1538V16.8079H10.4751C10.5669 16.8079 10.6026 16.8079 10.6026 16.6876V15.356C10.6026 15.2708 10.6026 15.2499 10.4894 15.2499H8.95227C8.8671 15.2499 8.83191 15.2499 8.83191 15.1367V13.8902C8.83191 13.8122 8.83191 13.7913 8.94513 13.7913H10.468C10.5741 13.7913 10.6026 13.7913 10.6026 13.6566V9.83872C10.6026 9.7255 10.6026 9.69694 10.7444 9.69694H16.0566C16.4422 9.71224 16.8252 9.75457 17.2042 9.82444C17.985 9.96877 18.7352 10.2477 19.4211 10.6461C19.8761 10.9138 20.2948 11.2372 20.6676 11.6095C20.9481 11.9007 21.2011 12.2159 21.4255 12.5514C21.6483 12.8916 21.8335 13.2552 21.9788 13.6352C21.9967 13.7341 22.0915 13.8009 22.1905 13.7841H23.4583C23.621 13.7841 23.621 13.7841 23.6282 13.9402V15.102C23.6282 15.2152 23.5858 15.2438 23.4721 15.2438H22.4944C22.3955 15.2438 22.3669 15.2438 22.3741 15.3713C22.4128 15.8027 22.4128 16.2357 22.3741 16.6672C22.3741 16.7875 22.3741 16.8018 22.5092 16.8018H23.6277C23.6771 16.8656 23.6277 16.9293 23.6277 16.9936C23.6348 17.0757 23.6348 17.1588 23.6277 17.2409V18.0983C23.6277 18.2186 23.5925 18.2543 23.4859 18.2543H22.1471C22.0538 18.2365 21.963 18.2961 21.9416 18.389C21.6228 19.2177 21.1128 19.9608 20.4539 20.5565C20.2132 20.7732 19.9602 20.9772 19.696 21.1654C19.4125 21.3286 19.1366 21.4985 18.8459 21.6331C18.3109 21.8738 17.7499 22.0513 17.1741 22.164C16.6273 22.2619 16.073 22.3063 15.5165 22.2987H10.6006V22.2915L10.6026 22.29Z" fill="#FEFEFD"/>
</g>
</g>
<defs>
<clipPath id="clip0_3_27759">
<rect x="4" y="4" width="24" height="24" fill="white"/>
</clipPath>
<clipPath id="clip1_3_27759">
<rect width="22.6667" height="22.6667" fill="white" transform="translate(4.66663 4.66666)"/>
</clipPath>
</defs>
</svg>
