<svg width="32" height="32" viewBox="0 0 32 32" fill="none" xmlns="http://www.w3.org/2000/svg">
<path d="M31.5 16C31.5 24.5604 24.5604 31.5 16 31.5C7.43959 31.5 0.5 24.5604 0.5 16C0.5 7.43959 7.43959 0.5 16 0.5C24.5604 0.5 31.5 7.43959 31.5 16Z" fill="white" stroke="#CED3E6"/>
<g clip-path="url(#clip0_3484_184761)">
<path d="M16.0004 28.0009C22.6281 28.0009 28.0009 22.6281 28.0009 16.0004C28.0009 9.37278 22.6281 4 16.0004 4C9.37278 4 4 9.37278 4 16.0004C4 22.6281 9.37278 28.0009 16.0004 28.0009Z" fill="#161E53"/>
<path d="M20.1109 11.9052L20.952 9.6671H19.5702L19.0151 11.1386C18.7112 10.979 18.3919 10.8507 18.0619 10.7557L18.4726 9.6662H17.0908L16.7555 10.5557C16.7115 10.5557 16.6676 10.553 16.6228 10.553H15.0177C14.8043 10.5261 14.5944 10.4786 14.3909 10.4096C14.32 10.3862 14.251 10.3602 14.1829 10.3324L13.7273 11.5412L10.197 20.9089H12.8557L12.3186 22.3338H13.7004L14.2384 20.9089H15.336L14.7989 22.3338H16.1807L16.7178 20.908C19.5756 20.8596 21.8523 18.5031 21.8038 15.6453C21.7796 14.2187 21.1672 12.8656 20.1118 11.9052H20.1109ZM12.0649 19.6159L14.9935 11.8479C15.1253 11.8604 15.2571 11.8658 15.3889 11.8658C15.5207 11.8658 15.6588 11.8595 15.7906 11.847H16.2713L13.3426 19.6159H12.0649ZM14.7236 19.6159L17.6073 11.9716C17.94 12.0595 18.2592 12.1904 18.5578 12.3617L15.8211 19.615H14.7236V19.6159ZM19.372 18.4771C18.7901 19.0626 18.0359 19.4464 17.22 19.5702L19.6061 13.2422C20.8964 14.7845 20.7942 17.0558 19.372 18.4771Z" fill="#FFBB51"/>
</g>
<defs>
<clipPath id="clip0_3484_184761">
<rect width="24" height="24" fill="white" transform="translate(4 4)"/>
</clipPath>
</defs>
</svg>
