<svg width="32" height="32" viewBox="0 0 32 32" fill="none" xmlns="http://www.w3.org/2000/svg">
<rect x="0.5" y="0.5" width="31" height="31" rx="15.5" fill="white" stroke="#CED3E6"/>
<rect x="4" y="4" width="24" height="24" rx="12" fill="black"/>
<g clip-path="url(#clip0_3552_190942)">
<mask id="mask0_3552_190942" style="mask-type:luminance" maskUnits="userSpaceOnUse" x="7" y="7" width="18" height="18">
<path d="M7 7H24.1818V25H7V7Z" fill="white"/>
</mask>
<g mask="url(#mask0_3552_190942)">
<path fill-rule="evenodd" clip-rule="evenodd" d="M9.02816 12.6442L12.6692 7L7.24135 12.3954C6.78969 12.8444 7.00225 13.6114 7.62141 13.7672L10.4983 14.4912C10.2414 14.8925 9.95053 15.3986 9.72449 15.9352C9.51728 16.4266 9.34463 16.9893 9.32756 17.5466C9.31007 18.1172 9.45719 18.7287 9.94271 19.2113C10.6722 19.9364 11.2018 20.1894 11.6249 20.3914C11.6564 20.4064 11.6872 20.4211 11.7175 20.4358C11.9143 20.5308 12.0598 20.6087 12.214 20.7313C12.3698 20.8551 12.5589 21.0442 12.8017 21.3762C12.8449 21.4353 12.8908 21.4984 12.939 21.5651C13.4687 22.2956 14.2999 23.4422 15.3725 24.2033C15.9711 24.6279 16.6814 24.9615 17.4937 25.0269C18.3164 25.0931 19.1756 24.8782 20.0501 24.3184C20.8877 23.782 21.4397 23.1847 21.6994 22.4889C21.9609 21.7882 21.8835 21.1015 21.6932 20.4786C21.519 19.9081 21.2283 19.3264 20.957 18.7835L20.9565 18.7824L20.9511 18.7718L20.9058 18.6811C20.609 18.0863 20.3291 17.5113 20.1427 16.9093C19.779 15.7342 20.0258 15.2251 20.1808 15.0234C20.2553 14.9265 20.3499 14.8466 20.4582 14.7892C20.4985 14.7678 20.5308 14.7551 20.5486 14.7488L20.5582 14.7455L20.5753 14.7415L20.6046 14.732L20.7334 14.6901L21.0727 14.579C21.3537 14.487 21.7291 14.3636 22.1064 14.2387C22.4831 14.1139 22.8636 13.9867 23.1542 13.8871C23.2987 13.8376 23.4247 13.7938 23.5178 13.7599C23.5634 13.7434 23.607 13.727 23.643 13.7126C23.6601 13.7057 23.6837 13.6959 23.7082 13.6844C23.7274 13.6755 23.7463 13.6659 23.7648 13.6555L23.7659 13.6549C23.824 13.6223 23.8774 13.582 23.9247 13.5352C24.2172 13.2445 24.1236 12.8881 24.114 12.8515L24.1135 12.8498C24.0983 12.7906 24.0757 12.7336 24.0462 12.68C24.027 12.6453 24.0053 12.6119 23.9814 12.5802C23.956 12.5465 23.9278 12.5134 23.9064 12.4889C23.8459 12.4207 23.7843 12.3536 23.7216 12.2876C23.6327 12.1933 21.9069 10.4554 20.4571 8.99544C19.453 7.98448 18.5814 7.10667 18.477 7C18.4894 7.01258 19.4179 8.46485 20.337 9.9023C21.2376 11.3109 22.1292 12.7053 22.1409 12.7172C21.9829 12.7701 21.817 12.8252 21.6509 12.8803C21.1956 13.0311 20.74 13.1809 20.284 13.3297L20.1753 13.3651L20.1664 13.3676L20.1598 13.3694C20.1344 13.3768 20.1024 13.3868 20.065 13.4001C19.9904 13.4265 19.8924 13.4666 19.7817 13.5251C19.4909 13.6791 19.2367 13.8935 19.0366 14.1538C18.523 14.8214 18.3068 15.8464 18.766 17.3304C18.9912 18.0579 19.3222 18.7295 19.6153 19.3172L19.6442 19.3748C19.9359 19.9594 20.1768 20.442 20.315 20.8946C20.4527 21.3456 20.462 21.688 20.349 21.9908C20.2341 22.2987 19.9501 22.6792 19.2702 23.1146C18.6271 23.5262 18.0788 23.6374 17.6097 23.5997C17.1303 23.5611 16.6647 23.3611 16.2093 23.0379C15.341 22.4217 14.6442 21.4646 14.0951 20.7103C14.0513 20.6501 14.0085 20.5913 13.9665 20.5341C13.6669 20.1245 13.3919 19.8342 13.1132 19.6128C12.8331 19.3902 12.5736 19.2573 12.3466 19.1477C12.3139 19.1319 12.2814 19.1165 12.249 19.101C11.8762 18.9234 11.5181 18.7525 10.9612 18.1989C10.8329 18.0712 10.7581 17.8879 10.7672 17.5902C10.7768 17.2793 10.8794 16.9003 11.0529 16.4884C11.399 15.6673 11.948 14.8963 12.1674 14.605C12.5254 14.1294 12.2706 13.4602 11.7087 13.3187L9.02816 12.6442ZM15.1001 18.4978C15.1001 18.4978 13.99 18.4978 13.2501 17.821C12.5101 17.144 13.2501 15.7903 13.2501 15.7903C13.2501 15.7903 13.4659 15.9256 14.283 16.8733C15.1001 17.821 15.1001 18.4978 15.1001 18.4978Z" fill="url(#paint0_linear_3552_190942)"/>
</g>
</g>
<defs>
<linearGradient id="paint0_linear_3552_190942" x1="15.5962" y1="15.1256" x2="15.5681" y2="25.0385" gradientUnits="userSpaceOnUse">
<stop stop-color="#22E1FF"/>
<stop offset="1" stop-color="#002EFF"/>
</linearGradient>
<clipPath id="clip0_3552_190942">
<rect width="17.1818" height="18" fill="white" transform="translate(7 7)"/>
</clipPath>
</defs>
</svg>
