<svg width="32" height="32" viewBox="0 0 32 32" fill="none" xmlns="http://www.w3.org/2000/svg">
<path d="M31.5 16C31.5 24.5604 24.5604 31.5 16 31.5C7.43959 31.5 0.5 24.5604 0.5 16C0.5 7.43959 7.43959 0.5 16 0.5C24.5604 0.5 31.5 7.43959 31.5 16Z" fill="white" stroke="#CED3E6"/>
<g clip-path="url(#clip0_4223_29122)">
<path d="M13.65 4.6458C11.5279 5.18274 9.89152 6.10314 8.28075 7.73949C3.67858 12.3161 3.67858 19.2705 8.25522 23.8727C12.8318 28.4493 19.8629 28.4493 24.3884 23.8727C28.9906 19.2194 28.9906 12.3161 24.414 7.71391C21.4737 4.7992 17.5363 3.67422 13.65 4.6458ZM15.0562 9.52922V12.1883L14.0079 13.1854C13.1642 13.978 12.9341 14.3615 12.8318 15.3076C12.5506 17.6853 13.9568 19.245 16.3857 19.245C17.7408 19.245 17.9453 19.1682 18.7891 18.3245C20.3999 16.6882 20.2209 14.0803 18.38 12.853L17.613 12.3417V9.58037V6.84462L18.3289 6.99805C20.809 7.58609 23.4936 9.81048 24.5674 12.1372C25.0276 13.1087 25.1299 13.8502 25.1554 15.7933C25.1554 17.9666 25.0788 18.3757 24.4396 19.6285C23.4936 21.4693 21.985 22.9778 20.2209 23.8727C18.9169 24.5375 18.5079 24.6142 16.3346 24.6142C14.3914 24.5886 13.65 24.4864 12.6784 24.0261C10.9909 23.2591 9.15009 21.4438 8.25522 19.7052C7.59046 18.3757 7.51374 17.9666 7.51374 15.7933C7.51374 13.6201 7.59046 13.211 8.22965 11.9581C9.07337 10.3474 9.89152 9.4014 11.3489 8.37867C12.2182 7.76506 14.238 6.89576 14.8772 6.84462C14.9795 6.84462 15.0562 8.04631 15.0562 9.52922Z" fill="black"/>
</g>
<defs>
<clipPath id="clip0_4223_29122">
<rect width="24" height="23.5862" fill="white" transform="translate(4 4)"/>
</clipPath>
</defs>
</svg>
