<svg width="32" height="32" viewBox="0 0 32 32" fill="none" xmlns="http://www.w3.org/2000/svg">
<circle cx="16" cy="16" r="15.5" fill="white" stroke="#CED3E6"/>
<circle cx="16" cy="16" r="12" fill="#D9D9D9"/>
<g clip-path="url(#clip0_3599_191032)">
<mask id="mask0_3599_191032" style="mask-type:luminance" maskUnits="userSpaceOnUse" x="4" y="4" width="24" height="24">
<path d="M28 16C28 9.37258 22.6274 4 16 4C9.37258 4 4 9.37258 4 16C4 22.6274 9.37258 28 16 28C22.6274 28 28 22.6274 28 16Z" fill="white"/>
</mask>
<g mask="url(#mask0_3599_191032)">
<path d="M16 28C22.6274 28 28 22.6274 28 16C28 9.37258 22.6274 4 16 4C9.37258 4 4 9.37258 4 16C4 22.6274 9.37258 28 16 28Z" fill="url(#paint0_radial_3599_191032)"/>
<path d="M21.1693 22.1626C18.7248 21.7552 12.4529 19.3733 11.1632 13.0643C10.5181 10.0073 11.1272 5.53601 11.1272 5.53601C6.34796 7.73252 3.52148 12.9897 4.61763 18.3881C5.90734 24.6971 12.1071 28.8101 18.4529 27.528C21.724 26.8874 24.3448 24.9446 26.0522 22.3494C25.2011 22.737 23.6138 22.5701 21.1693 22.1626Z" fill="url(#paint1_linear_3599_191032)"/>
<path fill-rule="evenodd" clip-rule="evenodd" d="M15.9367 5.46503L7.00212 10.3928V10.4313L8.09566 11.1101V11.1035L15.9367 6.66169L23.7778 11.1035V15.1098C23.7778 16.4973 23.7085 17.4153 23.3037 18.4938L22.2512 17.8004C22.1312 17.7213 21.9758 17.8283 22.0069 17.9686L22.6781 21.0042C22.7018 21.1112 22.8235 21.1632 22.9173 21.1066L25.4741 19.5584C25.5939 19.4859 25.5693 19.3053 25.4344 19.2675L24.3189 18.9547C24.783 17.7309 24.8714 16.6559 24.8714 15.1098V10.3928L15.9367 5.46503Z" fill="url(#paint2_linear_3599_191032)"/>
<path fill-rule="evenodd" clip-rule="evenodd" d="M8.08515 10.3018C8.03439 10.2047 7.90328 10.1862 7.82763 10.2655L5.68103 12.5145C5.58182 12.6184 5.65927 12.7903 5.80285 12.7848L7.05747 12.7371V15.1205C7.05747 20.5106 10.7656 25.5733 15.8115 26.8099L15.9404 26.8414L16.0694 26.8099C19.2691 26.0258 22.0259 23.5798 23.5453 20.6109L22.6186 20.0344C21.2603 22.737 18.7781 24.9768 15.9404 25.7173C11.4881 24.5554 8.14467 20.0059 8.14467 15.1205L8.14419 12.8615L9.28573 13.1787C9.42067 13.2162 9.53527 13.0745 9.47035 12.9504L8.08515 10.3018Z" fill="url(#paint3_linear_3599_191032)"/>
<path d="M13.841 16.5487V17.4399H10.8893V16.5487H13.841ZM11.2626 11.8946V17.4399H10.12V11.8946H11.2626ZM13.4563 14.1531V15.0215H10.8893V14.1531H13.4563ZM13.8372 11.8946V12.7896H10.8893V11.8946H13.8372Z" fill="white"/>
<path d="M16.2831 11.8946V17.4399H15.1443V11.8946H16.2831ZM17.9893 11.8946V12.7896H13.4647V11.8946H17.9893Z" fill="white"/>
<path d="M20.6866 15.9888C20.6866 15.8898 20.6714 15.8009 20.6408 15.7222C20.613 15.641 20.5597 15.5673 20.481 15.5013C20.4022 15.4328 20.2917 15.3655 20.1496 15.2995C20.0074 15.2335 19.8233 15.1649 19.5973 15.0938C19.3459 15.0126 19.1073 14.9212 18.8813 14.8196C18.6579 14.718 18.4598 14.6 18.2871 14.4654C18.117 14.3283 17.9825 14.1696 17.8834 13.9893C17.787 13.809 17.7387 13.5996 17.7387 13.3609C17.7387 13.1298 17.7895 12.9204 17.891 12.7325C17.9926 12.5421 18.1348 12.3796 18.3176 12.245C18.5004 12.1079 18.7163 12.0025 18.9651 11.9289C19.2164 11.8552 19.4919 11.8184 19.7915 11.8184C20.2003 11.8184 20.5571 11.8921 20.8618 12.0393C21.1664 12.1866 21.4026 12.3885 21.5701 12.6449C21.7403 12.9013 21.8253 13.1946 21.8253 13.5247H20.6904C20.6904 13.3622 20.6562 13.22 20.5875 13.0981C20.5216 12.9737 20.42 12.8759 20.2829 12.8049C20.1483 12.7338 19.9782 12.6982 19.7725 12.6982C19.5744 12.6982 19.4094 12.7287 19.2774 12.7896C19.1453 12.848 19.0463 12.928 18.9803 13.0296C18.9143 13.1286 18.8813 13.2403 18.8813 13.3647C18.8813 13.4587 18.9041 13.5437 18.9498 13.6199C18.9981 13.6961 19.0692 13.7672 19.1631 13.8332C19.2571 13.8992 19.3726 13.9614 19.5097 14.0198C19.6468 14.0782 19.8055 14.1353 19.9858 14.1912C20.288 14.2826 20.5533 14.3854 20.7818 14.4997C21.0128 14.6139 21.2058 14.7421 21.3606 14.8843C21.5155 15.0265 21.6323 15.1878 21.711 15.368C21.7898 15.5483 21.8291 15.7527 21.8291 15.9812C21.8291 16.2224 21.7822 16.4382 21.6882 16.6287C21.5942 16.8191 21.4584 16.9803 21.2806 17.1124C21.103 17.2444 20.8909 17.3447 20.6446 17.4133C20.3984 17.4818 20.1229 17.5161 19.8182 17.5161C19.544 17.5161 19.2736 17.4805 19.007 17.4094C18.7404 17.3358 18.4979 17.2254 18.2795 17.0781C18.0637 16.9308 17.8911 16.7429 17.7616 16.5144C17.6321 16.2859 17.5673 16.0155 17.5673 15.7032H18.7137C18.7137 15.8758 18.7404 16.0218 18.7937 16.1412C18.847 16.2605 18.9219 16.357 19.0184 16.4306C19.1174 16.5043 19.2342 16.5576 19.3688 16.5906C19.5059 16.6236 19.6557 16.6401 19.8182 16.6401C20.0163 16.6401 20.1787 16.6122 20.3058 16.5563C20.4352 16.5005 20.5304 16.423 20.5914 16.324C20.6549 16.225 20.6866 16.1133 20.6866 15.9888Z" fill="white"/>
<path d="M15.8498 24.4C16.3271 24.4 16.5986 23.9887 16.5986 23.285C16.5986 22.8367 16.5657 22.2935 16.4834 21.7957L18.4171 18.64H17.2981L16.2407 20.6231L16.1749 20.4215C15.8786 19.541 15.4631 18.64 14.5826 18.64C14.3029 18.64 14.0766 18.7141 13.8914 18.8622C13.48 19.2119 13.48 19.8743 13.48 20.08H13.8544C13.8791 19.899 13.9778 19.3929 14.4057 19.3929C15.1257 19.3929 15.4549 20.6971 15.7017 21.6928C15.3314 22.5815 15.1257 23.2234 15.1257 23.5648C15.1257 23.968 15.3561 24.4 15.8498 24.4Z" fill="white"/>
</g>
</g>
<defs>
<radialGradient id="paint0_radial_3599_191032" cx="0" cy="0" r="1" gradientUnits="userSpaceOnUse" gradientTransform="translate(28 0.640001) rotate(131.262) scale(29.9318)">
<stop stop-color="#FBFAF5"/>
<stop offset="0.289222" stop-color="#F3F3F3"/>
<stop offset="0.527498" stop-color="#98A2B0"/>
<stop offset="0.738019" stop-color="#232323"/>
</radialGradient>
<linearGradient id="paint1_linear_3599_191032" x1="7.95716" y1="24.0062" x2="17.7351" y2="15.6834" gradientUnits="userSpaceOnUse">
<stop stop-color="#29A0F0"/>
<stop offset="1" stop-color="#29A0F0" stop-opacity="0"/>
</linearGradient>
<linearGradient id="paint2_linear_3599_191032" x1="21.509" y1="4.23161" x2="9.6174" y2="9.76902" gradientUnits="userSpaceOnUse">
<stop offset="0.445694" stop-color="white"/>
<stop offset="1" stop-color="white" stop-opacity="0"/>
</linearGradient>
<linearGradient id="paint3_linear_3599_191032" x1="9.91282" y1="30.1586" x2="22.8538" y2="22.6498" gradientUnits="userSpaceOnUse">
<stop offset="0.559619" stop-color="white"/>
<stop offset="0.918509" stop-color="white" stop-opacity="0"/>
</linearGradient>
<clipPath id="clip0_3599_191032">
<rect width="24" height="24" fill="white" transform="translate(4 4)"/>
</clipPath>
</defs>
</svg>
