<svg width="32" height="32" viewBox="0 0 32 32" fill="none" xmlns="http://www.w3.org/2000/svg">
<path d="M31.5 16C31.5 24.5604 24.5604 31.5 16 31.5C7.43959 31.5 0.5 24.5604 0.5 16C0.5 7.43959 7.43959 0.5 16 0.5C24.5604 0.5 31.5 7.43959 31.5 16Z" fill="white" stroke="#CED3E6"/>
<g clip-path="url(#clip0_29_22875)">
<path fill-rule="evenodd" clip-rule="evenodd" d="M8.3944 6.10254L4.01836 15.2944C4.00171 15.3286 3.99643 15.3672 4.0033 15.4046C4.01017 15.442 4.02882 15.4763 4.05654 15.5023L15.8752 26.8274C15.9087 26.8596 15.9535 26.8776 16 26.8776C16.0465 26.8776 16.0912 26.8596 16.1248 26.8274L27.9434 15.503C27.9711 15.477 27.9898 15.4427 27.9966 15.4053C28.0035 15.3679 27.9982 15.3293 27.9816 15.2951L23.6055 6.10325C23.5914 6.07238 23.5687 6.04622 23.5401 6.02792C23.5115 6.00961 23.4783 5.99992 23.4443 6.00001H8.55702C8.52292 5.99959 8.48941 6.00904 8.46056 6.02724C8.4317 6.04543 8.40872 6.07158 8.3944 6.10254Z" fill="#50AF95"/>
<path fill-rule="evenodd" clip-rule="evenodd" d="M17.5184 16.2383C17.4335 16.2447 16.9951 16.2708 16.0173 16.2708C15.2395 16.2708 14.6873 16.2475 14.4935 16.2383C11.4878 16.1061 9.24427 15.5828 9.24427 14.9564C9.24427 14.3299 11.4878 13.8074 14.4935 13.673V15.7172C14.6901 15.7313 15.2529 15.7646 16.0307 15.7646C16.964 15.7646 17.4314 15.7257 17.5155 15.7179V13.6745C20.5149 13.8081 22.7535 14.3313 22.7535 14.9564C22.7535 15.5814 20.5156 16.1047 17.5155 16.2376L17.5184 16.2383ZM17.5184 13.463V11.6339H21.7042V8.84448H10.3077V11.6339H14.4928V13.4623C11.0911 13.6186 8.53296 14.2924 8.53296 15.0999C8.53296 15.9074 11.0911 16.5805 14.4928 16.7375V22.5991H17.5177V16.7354C20.9116 16.5791 23.4655 15.906 23.4655 15.0992C23.4655 14.2924 20.9137 13.6193 17.5177 13.4623L17.5184 13.463Z" fill="white"/>
</g>
<defs>
<clipPath id="clip0_29_22875">
<rect width="24" height="20.8776" fill="white" transform="translate(4 6)"/>
</clipPath>
</defs>
</svg>
