<svg width="37" height="38" viewBox="0 0 37 38" fill="none" xmlns="http://www.w3.org/2000/svg">
<circle cx="18.5" cy="19" r="18" fill="#1D1B1D" stroke="#363232"/>
<path d="M18.8832 6.28137L18.7147 6.8544V23.4809L18.8832 23.6492L26.589 19.0872L18.8832 6.28137Z" fill="#6B6B6B"/>
<path d="M18.8832 6.28137L11.1771 19.0872L18.8832 23.6492V15.5792V6.28137Z" fill="#A2A2A2"/>
<path d="M18.8832 25.1104L18.7882 25.2263V31.149L18.8832 31.4265L26.5937 20.5508L18.8832 25.1104Z" fill="#4F4E4E"/>
<path d="M18.8832 31.4265V25.1104L11.1771 20.5508L18.8832 31.4265Z" fill="#A2A2A2"/>
<path d="M18.8832 23.6492L26.589 19.0873L18.8832 15.5792V23.6492Z" fill="#797979"/>
<path d="M11.1771 19.0873L18.8832 23.6492V15.5792L11.1771 19.0873Z" fill="#D4D4D4"/>
<g style="mix-blend-mode:overlay">
<path d="M18.4978 6.42749L18.3293 7.00052V23.627L18.4978 23.7953L26.2036 19.2333L18.4978 6.42749Z" fill="#ACE730"/>
<path d="M18.4978 6.42749L10.7917 19.2333L18.4978 23.7953V15.7253V6.42749Z" fill="#ACE730"/>
<path d="M18.4978 25.2565L18.4028 25.3725V31.2951L18.4978 31.5726L26.2083 20.6969L18.4978 25.2565Z" fill="#ACE730"/>
<path d="M18.4978 31.5726V25.2565L10.7917 20.6969L18.4978 31.5726Z" fill="#ACE730"/>
<path d="M18.4978 23.7954L26.2036 19.2334L18.4978 15.7253V23.7954Z" fill="#ACE730"/>
<path d="M10.7917 19.2334L18.4978 23.7954V15.7253L10.7917 19.2334Z" fill="#ACE730"/>
</g>
<circle cx="18.5" cy="19" r="17.5" stroke="#1BE3C2" stroke-width="2"/>
<rect x="0.110962" y="23.0127" width="19.999" height="14" rx="7" fill="url(#paint0_radial_3782_2518)"/>
<path d="M4.75013 33.8127L5.8477 27.2014H7.24549L6.34161 32.6602H9.17592L8.98224 33.8127H4.75013Z" fill="white"/>
<path d="M9.90791 33.8127L11.0055 27.2014H13.6138C14.1131 27.2014 14.5231 27.2972 14.8437 27.4887C15.1666 27.6781 15.3925 27.9417 15.5217 28.2796C15.6529 28.6153 15.6831 29.0027 15.612 29.4418C15.5389 29.8829 15.3796 30.2714 15.1343 30.6071C14.8911 30.9407 14.5747 31.2011 14.1852 31.3883C13.7957 31.5756 13.3459 31.6692 12.8358 31.6692H11.1733L11.3573 30.549H12.7939C13.065 30.549 13.2964 30.5027 13.4879 30.4102C13.6816 30.3155 13.8355 30.1853 13.9495 30.0196C14.0636 29.8517 14.1379 29.6591 14.1723 29.4418C14.2089 29.2201 14.197 29.0275 14.1368 28.8639C14.0765 28.7004 13.9657 28.5734 13.8043 28.483C13.645 28.3905 13.4309 28.3442 13.1619 28.3442H12.2193L11.3057 33.8127H9.90791Z" fill="white"/>
<defs>
<radialGradient id="paint0_radial_3782_2518" cx="0" cy="0" r="1" gradientUnits="userSpaceOnUse" gradientTransform="translate(10.1105 30.0127) rotate(-180) scale(13.1812 25.64)">
<stop stop-color="#090D18"/>
<stop offset="0.5" stop-color="#090D18" stop-opacity="0.505208"/>
<stop offset="1" stop-color="#090D18" stop-opacity="0"/>
</radialGradient>
</defs>
</svg>
