<svg width="32" height="32" viewBox="0 0 32 32" fill="none" xmlns="http://www.w3.org/2000/svg">
<path d="M31.5 16C31.5 24.5604 24.5604 31.5 16 31.5C7.43959 31.5 0.5 24.5604 0.5 16C0.5 7.43959 7.43959 0.5 16 0.5C24.5604 0.5 31.5 7.43959 31.5 16Z" fill="white" stroke="#CED3E6"/>
<rect x="4" y="4" width="24" height="24" rx="12" fill="#0074E2"/>
<path d="M17.0001 23.6C20.1711 23.6 22.7417 21.0206 22.7417 17.8386C22.7417 14.6566 20.1711 12.0771 17.0001 12.0771C13.8291 12.0771 11.2585 14.6566 11.2585 17.8386C11.2585 21.0206 13.8291 23.6 17.0001 23.6Z" fill="white"/>
<path d="M13.4019 8.83224C13.4019 9.7069 12.6955 10.4145 11.826 10.4145C10.9564 10.4145 10.25 9.7069 10.25 8.83224C10.25 7.95758 10.9564 7.25 11.826 7.25C12.6955 7.25 13.4019 7.95758 13.4019 8.83224Z" fill="#3055FF" stroke="white" stroke-width="0.5"/>
<path d="M11.8023 14.4759V11.7637C11.8023 11.6466 11.8487 11.5343 11.9314 11.4513L12.757 10.6226L11.9314 9.794C11.759 9.62097 11.7595 9.34052 11.9323 9.16806C12.1055 8.99564 12.3858 8.99612 12.5586 9.16916L13.6954 10.3102C13.8677 10.4829 13.8677 10.7623 13.6954 10.935L12.6876 11.9466V13.3924C13.8023 12.3041 15.3236 11.6336 17.0001 11.6336C20.4131 11.6336 23.1848 14.4135 23.1848 17.8384C23.1848 21.2633 20.4131 24.0431 17.0001 24.0431C13.5871 24.0431 10.8149 21.2633 10.8149 17.8384C10.8149 16.5996 11.1778 15.4452 11.8023 14.4759ZM12.5055 15.0229C11.9964 15.8396 11.7016 16.8048 11.7016 17.8384C11.7016 20.7731 14.0755 23.1564 17.0001 23.1564C19.9247 23.1564 22.2982 20.7731 22.2982 17.8384C22.2982 14.9037 19.9247 12.5203 17.0001 12.5203C15.2154 12.5203 13.6361 13.4078 12.6757 14.7663C12.6231 14.8425 12.5612 14.9329 12.5055 15.0229Z" fill="black"/>
<path d="M11.4586 14.3762C10.8332 15.3809 10.4717 16.5676 10.4717 17.8384C10.4717 21.4533 13.3976 24.3869 17.0003 24.3869C20.6029 24.3869 23.5289 21.4533 23.5289 17.8384C23.5289 14.2234 20.6029 11.2898 17.0003 11.2898C15.5081 11.2898 14.1318 11.793 13.0317 12.6397C13.0317 12.6397 13.0317 12.0886 13.0317 12.0886L13.9391 11.1777C14.2449 10.8708 14.2449 10.3744 13.9391 10.0675L12.8023 8.92646C12.496 8.61901 11.9974 8.61817 11.6898 8.92451C11.3826 9.23094 11.3817 9.72924 11.688 10.0367L12.2719 10.6226L11.688 11.2086C11.5413 11.356 11.4586 11.5555 11.4586 11.7637V14.3762ZM11.8025 14.4759V11.7637C11.8025 11.6466 11.8489 11.5342 11.9316 11.4513L12.7572 10.6226L11.9316 9.794C11.7592 9.62096 11.7596 9.34051 11.9324 9.16805C12.1057 8.99563 12.3859 8.99612 12.5587 9.16915L13.6955 10.3102C13.8679 10.4829 13.8679 10.7623 13.6955 10.935L12.6878 11.9466V13.3924C13.8025 12.3041 15.3238 11.6336 17.0003 11.6336C20.4133 11.6336 23.185 14.4135 23.185 17.8384C23.185 21.2633 20.4133 24.0431 17.0003 24.0431C13.5872 24.0431 10.8151 21.2633 10.8151 17.8384C10.8151 16.5996 11.178 15.4452 11.8025 14.4759ZM12.5057 15.0229C11.9965 15.8396 11.7017 16.8048 11.7017 17.8384C11.7017 20.7731 14.0756 23.1564 17.0003 23.1564C19.9249 23.1564 22.2984 20.7731 22.2984 17.8384C22.2984 14.9037 19.9249 12.5203 17.0003 12.5203C15.2155 12.5203 13.6363 13.4078 12.6759 14.7663C12.6233 14.8425 12.5614 14.9329 12.5057 15.0229ZM12.7974 15.2048C12.7974 15.2045 12.7974 15.2043 12.7979 15.204C12.85 15.1198 12.9079 15.0352 12.9574 14.9636C13.8555 13.6939 15.3318 12.8641 17.0003 12.8641C19.7353 12.8641 21.9545 15.0937 21.9545 17.8384C21.9545 20.583 19.7353 22.8126 17.0003 22.8126C14.2648 22.8126 12.0456 20.583 12.0456 17.8384C12.0456 16.8715 12.321 15.9687 12.7974 15.2048Z" fill="white"/>
<path d="M12.3116 22.5471C11.7675 22.0009 11.3374 21.3833 11.0219 20.724C10.834 20.331 10.362 20.1645 9.96904 20.3525C9.96904 20.3525 9.96904 20.3526 9.9686 20.3526C9.57567 20.5407 9.40949 21.0126 9.59734 21.4057C9.98761 22.2215 10.5193 22.986 11.1929 23.6618C11.5005 23.9705 12.0009 23.9714 12.3098 23.6638C12.6183 23.3561 12.6192 22.8558 12.3116 22.5471ZM12.0658 22.792C11.493 22.2174 11.0409 21.5675 10.7089 20.8738C10.6037 20.6535 10.339 20.5602 10.1189 20.6656C9.89833 20.7711 9.80507 21.0355 9.91026 21.2559C10.2842 22.0373 10.7938 22.7696 11.4387 23.4169C11.6115 23.5899 11.8917 23.5904 12.0645 23.418C12.2378 23.2455 12.2382 22.9651 12.0658 22.792Z" fill="white"/>
<path d="M12.0658 22.7921C11.493 22.2175 11.0408 21.5676 10.7089 20.8739C10.6037 20.6536 10.3389 20.5603 10.1188 20.6657C9.89826 20.7712 9.805 21.0356 9.91019 21.256C10.2841 22.0374 10.7937 22.7697 11.4386 23.417C11.6114 23.59 11.8916 23.5905 12.0644 23.4181C12.2377 23.2456 12.2381 22.9652 12.0658 22.7921Z" fill="black"/>
<path d="M21.6887 13.13C22.2327 13.6762 22.6628 14.2938 22.9784 14.9531C23.1662 15.3461 23.6383 15.5126 24.0312 15.3246C24.4246 15.1365 24.5908 14.6646 24.4029 14.2714C24.0126 13.4557 23.4805 12.6912 22.8073 12.0153C22.4997 11.7066 21.9994 11.7057 21.6904 12.0134C21.3819 12.321 21.381 12.8213 21.6887 13.13ZM21.9344 12.8851C22.5072 13.4597 22.9594 14.1096 23.2913 14.8033C23.3969 15.0236 23.6613 15.1169 23.8814 15.0115C24.1019 14.9061 24.1952 14.6416 24.0895 14.4212C23.7161 13.6398 23.2064 12.9076 22.5616 12.2603C22.3888 12.0872 22.1085 12.0867 21.9353 12.2592C21.7625 12.4316 21.762 12.7121 21.9344 12.8851Z" fill="white"/>
<path d="M21.9344 12.8851C22.5072 13.4597 22.9594 14.1096 23.2913 14.8033C23.397 15.0236 23.6613 15.1169 23.8814 15.0115C24.1019 14.9061 24.1952 14.6416 24.0896 14.4212C23.7161 13.6398 23.2065 12.9076 22.5616 12.2602C22.3888 12.0872 22.1086 12.0867 21.9353 12.2592C21.7625 12.4316 21.7621 12.712 21.9344 12.8851Z" fill="black"/>
</svg>
