<svg width="59" height="57" xmlns="http://www.w3.org/2000/svg" xmlns:xlink="http://www.w3.org/1999/xlink" xml:space="preserve" overflow="hidden"><g transform="translate(-493 -216)"><g><g><g><g><g><path d="M522.5 273C538.24 273 551 260.24 551 244.5 551 228.76 538.24 216 522.5 216 506.76 216 494 228.76 494 244.5 494 260.24 506.76 273 522.5 273Z" fill="#162435" fill-rule="nonzero" fill-opacity="1"/><path d="M513.831 244.5C513.831 242.606 512.29 241.067 510.398 241.067 508.505 241.067 506.964 242.606 506.964 244.5 506.964 246.395 508.503 247.934 510.398 247.934 512.292 247.934 513.831 246.393 513.831 244.5ZM508.487 244.5C508.487 243.447 509.342 242.59 510.398 242.59 511.453 242.59 512.308 243.445 512.308 244.5 512.308 245.556 511.449 246.411 510.398 246.411 509.347 246.411 508.487 245.551 508.487 244.5Z" fill="#FFFFFF" fill-rule="nonzero" fill-opacity="1"/><path d="M522.5 241.067C520.606 241.067 519.067 242.606 519.067 244.5 519.067 246.395 520.606 247.934 522.5 247.934 524.395 247.934 525.934 246.393 525.934 244.5 525.934 242.608 524.393 241.067 522.5 241.067ZM522.5 246.411C521.447 246.411 520.59 245.551 520.59 244.5 520.59 243.449 521.445 242.59 522.5 242.59 523.556 242.59 524.411 243.445 524.411 244.5 524.411 245.556 523.551 246.411 522.5 246.411Z" fill="#FFFFFF" fill-rule="nonzero" fill-opacity="1"/><path d="M535.345 237.728C535.11 234.445 532.543 231.798 529.294 231.445 529.043 227.915 526.093 225.12 522.5 225.12 518.906 225.12 515.958 227.915 515.705 231.445 512.456 231.798 509.887 234.445 509.654 237.728 508.947 237.804 508.273 237.991 507.648 238.269 507.16 238.485 507.039 239.128 507.418 239.507 507.643 239.733 507.981 239.787 508.273 239.66 509.13 239.281 510.103 239.126 511.123 239.261 513.409 239.566 515.263 241.372 515.619 243.65 516.164 247.122 513.305 250.1 509.866 249.762 507.301 249.511 505.263 247.377 505.117 244.806 505.044 243.499 505.445 242.288 506.166 241.331 506.394 241.028 506.364 240.603 506.097 240.337 505.771 240.011 505.231 240.043 504.953 240.41 504.093 241.55 503.585 242.968 503.585 244.5 503.585 248.007 506.246 250.902 509.654 251.272 509.889 254.553 512.456 257.2 515.705 257.553 515.956 261.082 518.906 263.878 522.5 263.878 526.093 263.878 529.041 261.082 529.294 257.553 532.543 257.2 535.11 254.553 535.345 251.272 538.754 250.9 541.415 248.004 541.415 244.5 541.415 240.996 538.754 238.098 535.345 237.728ZM533.815 237.733C533.172 237.806 532.559 237.97 531.985 238.209 531.982 236.319 530.441 234.78 528.551 234.78 526.661 234.78 525.12 236.319 525.117 238.209 524.543 237.968 523.929 237.806 523.286 237.733 523.53 235.043 525.797 232.927 528.551 232.927 531.305 232.927 533.571 235.043 533.815 237.733ZM517.21 244.5C517.21 241.584 519.584 239.21 522.5 239.21 525.416 239.21 527.789 241.584 527.789 244.5 527.789 247.416 525.416 249.79 522.5 249.79 519.584 249.79 517.21 247.416 517.21 244.5ZM524.41 257.067C524.41 258.118 523.551 258.978 522.5 258.978 521.449 258.978 520.589 258.118 520.589 257.067 520.589 256.016 521.444 255.157 522.5 255.157 523.555 255.157 524.41 256.012 524.41 257.067ZM520.589 231.933C520.589 230.879 521.449 230.022 522.5 230.022 523.551 230.022 524.41 230.877 524.41 231.933 524.41 232.988 523.555 233.843 522.5 233.843 521.444 233.843 520.589 232.984 520.589 231.933ZM528.551 248.871C529.604 248.871 530.462 249.73 530.462 250.781 530.462 251.832 529.607 252.692 528.551 252.692 527.495 252.692 526.64 251.837 526.64 250.781 526.64 249.726 527.495 248.871 528.551 248.871ZM526.64 238.214C526.64 237.163 527.495 236.303 528.551 236.303 529.607 236.303 530.462 237.163 530.462 238.214 530.462 239.265 529.607 240.125 528.551 240.125 527.495 240.125 526.64 239.27 526.64 238.214ZM522.5 226.643C525.254 226.643 527.52 228.759 527.764 231.449 527.124 231.522 526.508 231.686 525.933 231.926 525.929 230.033 524.392 228.499 522.5 228.499 520.607 228.499 519.071 230.033 519.066 231.926 518.492 231.686 517.878 231.525 517.235 231.449 517.479 228.759 519.746 226.643 522.5 226.643ZM513.015 238.209C512.44 237.968 511.827 237.806 511.184 237.733 511.428 235.043 513.694 232.927 516.449 232.927 519.203 232.927 521.469 235.043 521.713 237.733 521.07 237.806 520.457 237.97 519.882 238.209 519.88 236.319 518.339 234.78 516.449 234.78 514.559 234.78 513.017 236.319 513.015 238.209ZM514.538 238.214C514.538 237.163 515.393 236.303 516.449 236.303 517.504 236.303 518.359 237.163 518.359 238.214 518.359 239.265 517.5 240.125 516.449 240.125 515.398 240.125 514.538 239.27 514.538 238.214ZM516.449 248.871C517.5 248.871 518.359 249.73 518.359 250.781 518.359 251.832 517.5 252.692 516.449 252.692 515.398 252.692 514.538 251.837 514.538 250.781 514.538 249.726 515.393 248.871 516.449 248.871ZM511.184 251.267C511.827 251.194 512.44 251.03 513.015 250.791 513.02 252.683 514.556 254.217 516.449 254.217 518.341 254.217 519.878 252.683 519.882 250.791 520.457 251.032 521.07 251.194 521.711 251.267 521.465 253.957 519.198 256.071 516.446 256.071 513.694 256.071 511.428 253.955 511.182 251.267L511.184 251.267ZM522.5 262.355C519.746 262.355 517.479 260.239 517.235 257.548 517.876 257.475 518.492 257.311 519.066 257.072 519.068 258.962 520.607 260.501 522.5 260.501 524.392 260.501 525.931 258.962 525.933 257.072 526.508 257.311 527.121 257.473 527.762 257.548 527.518 260.239 525.252 262.355 522.497 262.355L522.5 262.355ZM528.551 256.071C525.799 256.071 523.533 253.955 523.286 251.267 523.929 251.194 524.543 251.03 525.117 250.791 525.122 252.683 526.661 254.217 528.551 254.217 530.441 254.217 531.98 252.683 531.985 250.791 532.559 251.032 533.172 251.194 533.815 251.267 533.569 253.957 531.303 256.071 528.551 256.071ZM534.602 249.787C531.686 249.787 529.312 247.414 529.312 244.498 529.312 241.582 531.686 239.208 534.602 239.208 537.518 239.208 539.892 241.582 539.892 244.498 539.892 247.414 537.518 249.787 534.602 249.787Z" fill="#FFFFFF" fill-rule="nonzero" fill-opacity="1"/><path d="M534.602 241.067C532.71 241.067 531.169 242.606 531.169 244.5 531.169 246.395 532.71 247.934 534.602 247.934 536.495 247.934 538.036 246.393 538.036 244.5 538.036 242.608 536.497 241.067 534.602 241.067ZM534.602 246.411C533.549 246.411 532.692 245.551 532.692 244.5 532.692 243.449 533.547 242.59 534.602 242.59 535.658 242.59 536.513 243.445 536.513 244.5 536.513 245.556 535.658 246.411 534.602 246.411Z" fill="#FFFFFF" fill-rule="nonzero" fill-opacity="1"/></g></g></g></g></g></g></svg>