<svg width="32" height="32" viewBox="0 0 32 32" fill="none" xmlns="http://www.w3.org/2000/svg">
<path d="M31.5 16C31.5 24.5604 24.5604 31.5 16 31.5C7.43959 31.5 0.5 24.5604 0.5 16C0.5 7.43959 7.43959 0.5 16 0.5C24.5604 0.5 31.5 7.43959 31.5 16Z" fill="white" stroke="#CED3E6"/>
<rect x="4.5" y="4.5" width="23" height="23" rx="11.5" fill="url(#paint0_radial_3537_184768)" stroke="#FFC8A3"/>
<path d="M15.957 8V13.8641L20.9134 16.0788L15.957 8Z" fill="white" fill-opacity="0.602"/>
<path d="M15.957 8L11 16.0788L15.957 13.8641V8Z" fill="white"/>
<path d="M15.957 19.8788V23.8633L20.9167 17.0016L15.957 19.8788Z" fill="white" fill-opacity="0.602"/>
<path d="M15.957 23.8634V19.8782L11 17.0017L15.957 23.8634Z" fill="white"/>
<path d="M15.957 18.9565L20.9134 16.0786L15.957 13.8652V18.9565Z" fill="white" fill-opacity="0.2"/>
<path d="M11 16.0786L15.957 18.9565V13.8652L11 16.0786Z" fill="white" fill-opacity="0.602"/>
<g clip-path="url(#clip0_3537_184768)">
<path d="M16 28C14.3803 28 12.8089 27.6825 11.3289 27.0568C9.89967 26.4523 8.61695 25.587 7.51457 24.4854C6.41304 23.3839 5.54773 22.1003 4.9432 20.6711C4.31751 19.1911 4 17.6197 4 16C4 14.3803 4.31751 12.8089 4.9432 11.3289C5.54773 9.89967 6.41304 8.61695 7.51457 7.51457C8.61695 6.41304 9.89967 5.54773 11.3289 4.9432C12.8089 4.31751 14.3803 4 16 4C17.6197 4 19.1911 4.31751 20.6711 4.9432C22.1003 5.54773 23.3831 6.41304 24.4854 7.51457C25.587 8.6161 26.4523 9.89967 27.0568 11.3289C27.6825 12.8089 28 14.3803 28 16C28 17.6197 27.6825 19.1911 27.0568 20.6711C26.4523 22.1003 25.587 23.3831 24.4854 24.4854C23.3839 25.587 22.1003 26.4523 20.6711 27.0568C19.1911 27.6833 17.6197 28 16 28Z" fill="white"/>
<path d="M16 27.3642C22.2762 27.3642 27.3641 22.2763 27.3641 16C27.3641 9.72377 22.2762 4.63586 16 4.63586C9.72376 4.63586 4.63586 9.72377 4.63586 16C4.63586 22.2763 9.72376 27.3642 16 27.3642Z" fill="black"/>
<path d="M21.986 16C21.986 14.7825 21.6203 13.6496 20.9937 12.703L22.8522 10.8446L21.1808 9.17323L19.3275 11.0266C18.3758 10.3874 17.2311 10.014 16.0008 10.014C14.7833 10.014 13.6505 10.3797 12.7039 11.0063L10.8446 9.14783L9.17322 10.8192L11.0266 12.6726C10.3874 13.6242 10.014 14.7689 10.014 15.9992C10.014 17.2167 10.3797 18.3495 11.0063 19.2961L9.14782 21.1554L10.8192 22.8268L12.6725 20.9734C13.6242 21.6127 14.7689 21.986 15.9992 21.986C17.2167 21.986 18.3495 21.6203 19.2961 20.9937L21.1554 22.853L22.8268 21.1817L20.9734 19.3283C21.6126 18.3749 21.986 17.2302 21.986 16ZM12.3787 16C12.3787 14.0027 14.0035 12.3779 16.0008 12.3779C17.9982 12.3779 19.6229 14.0027 19.6229 16C19.6229 17.9973 17.9982 19.6221 16.0008 19.6221C14.0035 19.6221 12.3787 17.9973 12.3787 16Z" fill="white"/>
</g>
<defs>
<radialGradient id="paint0_radial_3537_184768" cx="0" cy="0" r="1" gradientUnits="userSpaceOnUse" gradientTransform="translate(16 16) rotate(90) scale(12)">
<stop offset="0.546875" stop-color="#FD8763"/>
<stop offset="0.848958" stop-color="#FDA264" stop-opacity="0.86"/>
<stop offset="1" stop-color="#FD6461" stop-opacity="0.78"/>
</radialGradient>
<clipPath id="clip0_3537_184768">
<rect width="24" height="24" fill="white" transform="translate(4 4)"/>
</clipPath>
</defs>
</svg>
