<svg width="56" height="56" xmlns="http://www.w3.org/2000/svg" xmlns:xlink="http://www.w3.org/1999/xlink" xml:space="preserve" overflow="hidden"><g transform="translate(-717 -78)"><g><g><g><g><path d="M773 106.5C773 121.688 760.688 134 745.5 134 730.312 134 718 121.688 718 106.5 718 91.3122 730.312 79 745.5 79 760.688 79 773 91.3122 773 106.5Z" fill="#121212" fill-rule="nonzero" fill-opacity="1"/><path d="M746.875 111.648 746.875 113.573C746.875 113.837 747.029 114.101 747.271 114.211L752.716 116.917C752.947 117.027 753.079 117.258 753.079 117.5L753.079 118.182C753.079 118.424 752.947 118.655 752.716 118.765L746.028 122.087C745.687 122.263 745.291 122.263 744.95 122.087L738.262 118.765C738.031 118.655 737.899 118.424 737.899 118.182L737.899 117.5C737.899 117.258 738.031 117.027 738.262 116.917L743.707 114.211C743.949 114.101 744.103 113.837 744.103 113.573L744.103 111.648C744.103 111.406 743.916 111.175 743.663 111.153 742.871 111.054 742.222 110.922 741.738 110.757 740.737 110.438 739.967 109.602 739.692 108.568L735.721 93.597 735.622 93.256C735.622 91.87 740.044 90.759 745.489 90.759 750.934 90.759 755.356 91.87 755.356 93.256L755.257 93.597 751.286 108.568C751.022 109.591 750.252 110.416 749.24 110.757 748.745 110.933 748.107 111.065 747.315 111.153 747.073 111.175 746.875 111.406 746.875 111.648Z" fill="#FFAF1D" fill-rule="nonzero" fill-opacity="1"/></g></g></g></g></g></svg>