<svg width="37" height="37" viewBox="0 0 37 37" fill="none" xmlns="http://www.w3.org/2000/svg">
<g clip-path="url(#clip0_1686_1215)">
<path d="M36.4998 18.5C36.4998 28.4411 28.4409 36.5 18.4998 36.5C8.55863 36.5 0.499756 28.4411 0.499756 18.5C0.499756 8.55887 8.55863 0.5 18.4998 0.5C28.4409 0.5 36.4998 8.55887 36.4998 18.5Z" fill="#16182E" stroke="#374B6D"/>
<path d="M19.1818 19.8062H26.2115C26.3614 19.8062 26.4321 19.8062 26.4429 19.6098C26.5004 18.8946 26.5004 18.1754 26.4429 17.4594C26.4429 17.3204 26.3738 17.2629 26.2232 17.2629H12.2329C12.0597 17.2629 12.0131 17.3204 12.0131 17.4827V19.5407C12.0131 19.8062 12.0131 19.8062 12.2903 19.8062H19.1818ZM25.6579 14.8578C25.6779 14.8054 25.6779 14.7479 25.6579 14.6963C25.5405 14.4407 25.4015 14.1968 25.24 13.9679C24.9969 13.5766 24.7105 13.2161 24.3841 12.8923C24.2301 12.6966 24.052 12.521 23.8522 12.3719C22.8515 11.5203 21.6618 10.9175 20.3831 10.6145C19.7379 10.4697 19.0786 10.4006 18.4176 10.4064H12.2087C12.0355 10.4064 12.0122 10.4755 12.0122 10.6262V14.7304C12.0122 14.9036 12.0122 14.9502 12.232 14.9502H25.5746C25.5746 14.9502 25.6904 14.9269 25.7137 14.8578H25.6571H25.6579ZM25.6579 22.2114C25.4614 22.1897 25.2633 22.1897 25.0668 22.2114H12.2445C12.0713 22.2114 12.0131 22.2114 12.0131 22.4428V26.4555C12.0131 26.6403 12.0131 26.6869 12.2445 26.6869H18.1645C18.4475 26.7086 18.7306 26.6886 19.0078 26.6295C19.867 26.5679 20.712 26.3814 21.5178 26.0742C21.8109 25.9726 22.0939 25.8403 22.3612 25.6812H22.4419C23.8297 24.9595 24.9569 23.8256 25.6679 22.4336C25.6679 22.4336 25.7486 22.2588 25.6579 22.213V22.2114ZM9.68954 28.7674V28.6983V26.0043V25.091V22.3737C9.68954 22.223 9.68954 22.2005 9.50472 22.2005H6.99554C6.85652 22.2005 6.79907 22.2005 6.79907 22.0157V19.8187H9.48141C9.63127 19.8187 9.68954 19.8187 9.68954 19.6223V17.4486C9.68954 17.3095 9.68954 17.2754 9.50472 17.2754H6.99554C6.85652 17.2754 6.79907 17.2754 6.79907 17.0906V15.0559C6.79907 14.9286 6.79907 14.8944 6.98389 14.8944H9.46976C9.64292 14.8944 9.68954 14.8944 9.68954 14.6747V8.4425C9.68954 8.25768 9.68954 8.21106 9.92098 8.21106H18.5924C19.2218 8.23603 19.847 8.30513 20.4655 8.41919C21.7401 8.65479 22.9647 9.11017 24.0844 9.76036C24.827 10.1974 25.5105 10.7252 26.1191 11.333C26.577 11.8083 26.9899 12.3228 27.3562 12.8706C27.72 13.4259 28.0222 14.0195 28.2595 14.6397C28.2886 14.8012 28.4435 14.9103 28.605 14.8828H30.6746C30.9401 14.8828 30.9401 14.8828 30.9518 15.1375V17.034C30.9518 17.2188 30.8827 17.2654 30.6971 17.2654H29.1011C28.9396 17.2654 28.893 17.2654 28.9047 17.4735C28.9679 18.1778 28.9679 18.8847 28.9047 19.589C28.9047 19.7854 28.9047 19.8087 29.1253 19.8087H30.951C31.0317 19.9128 30.951 20.0169 30.951 20.1218C30.9626 20.2558 30.9626 20.3915 30.951 20.5255V21.925C30.951 22.1214 30.8935 22.1797 30.7195 22.1797H28.5342C28.3819 22.1506 28.2337 22.248 28.1987 22.3995C27.6784 23.7523 26.8459 24.9653 25.7703 25.9377C25.3773 26.2915 24.9644 26.6245 24.5332 26.9317C24.0703 27.1981 23.6199 27.4753 23.1454 27.6951C22.2721 28.088 21.3563 28.3777 20.4164 28.5617C19.524 28.7216 18.619 28.794 17.7108 28.7815H9.68621V28.7699L9.68954 28.7674Z" fill="url(#paint0_linear_1686_1215)"/>
</g>
<defs>
<linearGradient id="paint0_linear_1686_1215" x1="6.99997" y1="18" x2="31" y2="18" gradientUnits="userSpaceOnUse">
<stop stop-color="#83F7A4"/>
<stop offset="1" stop-color="#62C9D2"/>
</linearGradient>
<clipPath id="clip0_1686_1215">
<rect width="37" height="37" fill="white"/>
</clipPath>
</defs>
</svg>
