<svg width="32" height="32" viewBox="0 0 32 32" fill="none" xmlns="http://www.w3.org/2000/svg">
<path d="M31.5 16C31.5 24.5604 24.5604 31.5 16 31.5C7.43959 31.5 0.5 24.5604 0.5 16C0.5 7.43959 7.43959 0.5 16 0.5C24.5604 0.5 31.5 7.43959 31.5 16Z" fill="white" stroke="#CED3E6"/>
<path d="M31.5 16C31.5 24.5604 24.5604 31.5 16 31.5C7.43959 31.5 0.5 24.5604 0.5 16C0.5 7.43959 7.43959 0.5 16 0.5C24.5604 0.5 31.5 7.43959 31.5 16Z" fill="white" stroke="#CED3E6"/>
<path d="M31.5 16C31.5 24.5604 24.5604 31.5 16 31.5C7.43959 31.5 0.5 24.5604 0.5 16C0.5 7.43959 7.43959 0.5 16 0.5C24.5604 0.5 31.5 7.43959 31.5 16Z" fill="white" stroke="#CED3E6"/>
<path d="M31.5 16C31.5 24.5604 24.5604 31.5 16 31.5C7.43959 31.5 0.5 24.5604 0.5 16C0.5 7.43959 7.43959 0.5 16 0.5C24.5604 0.5 31.5 7.43959 31.5 16Z" fill="white" stroke="#CED3E6"/>
<path d="M31.5 16C31.5 24.5604 24.5604 31.5 16 31.5C7.43959 31.5 0.5 24.5604 0.5 16C0.5 7.43959 7.43959 0.5 16 0.5C24.5604 0.5 31.5 7.43959 31.5 16Z" fill="white" stroke="#CED3E6"/>
<path d="M31.5 16C31.5 24.5604 24.5604 31.5 16 31.5C7.43959 31.5 0.5 24.5604 0.5 16C0.5 7.43959 7.43959 0.5 16 0.5C24.5604 0.5 31.5 7.43959 31.5 16Z" fill="white" stroke="#CED3E6"/>
<path d="M31.5 16C31.5 24.5604 24.5604 31.5 16 31.5C7.43959 31.5 0.5 24.5604 0.5 16C0.5 7.43959 7.43959 0.5 16 0.5C24.5604 0.5 31.5 7.43959 31.5 16Z" fill="white" stroke="#CED3E6"/>
<g clip-path="url(#clip0_4232_39536)">
<path d="M27.25 16C27.25 22.2133 22.2133 27.25 16 27.25C9.78673 27.25 4.75 22.2133 4.75 16C4.75 9.78673 9.78673 4.75 16 4.75C22.2133 4.75 27.25 9.78673 27.25 16Z" fill="#FFAF1D"/>
<path d="M16.5627 18.1061V18.8936C16.5627 19.0016 16.6257 19.1096 16.7247 19.1546L18.9522 20.2616C19.0467 20.3066 19.1007 20.4011 19.1007 20.5001V20.7791C19.1007 20.8781 19.0467 20.9726 18.9522 21.0176L16.2162 22.3766C16.0767 22.4486 15.9147 22.4486 15.7752 22.3766L13.0392 21.0176C12.9447 20.9726 12.8907 20.8781 12.8907 20.7791V20.5001C12.8907 20.4011 12.9447 20.3066 13.0392 20.2616L15.2667 19.1546C15.3657 19.1096 15.4287 19.0016 15.4287 18.8936V18.1061C15.4287 18.0071 15.3522 17.9126 15.2487 17.9036C14.9247 17.8631 14.6592 17.8091 14.4612 17.7416C14.0517 17.6111 13.7367 17.2691 13.6242 16.8461L11.9997 10.7215L11.9592 10.582C11.9592 10.015 13.7682 9.56055 15.9957 9.56055C18.2232 9.56055 20.0322 10.015 20.0322 10.582L19.9917 10.7215L18.3672 16.8461C18.2592 17.2646 17.9442 17.6021 17.5302 17.7416C17.3277 17.8136 17.0667 17.8676 16.7427 17.9036C16.6437 17.9126 16.5627 18.0071 16.5627 18.1061Z" fill="white"/>
</g>
<defs>
<clipPath id="clip0_4232_39536">
<rect width="24" height="24" fill="white" transform="translate(4 4)"/>
</clipPath>
</defs>
</svg>
