<svg width="32" height="32" viewBox="0 0 32 32" fill="none" xmlns="http://www.w3.org/2000/svg">
<path d="M31.5 16C31.5 24.5604 24.5604 31.5 16 31.5C7.43959 31.5 0.5 24.5604 0.5 16C0.5 7.43959 7.43959 0.5 16 0.5C24.5604 0.5 31.5 7.43959 31.5 16Z" fill="white" stroke="#CED3E6"/>
<g clip-path="url(#clip0_25_22868)">
<path d="M16.0008 28.0017C22.6287 28.0017 28.0017 22.6287 28.0017 16.0008C28.0017 9.37295 22.6287 4 16.0008 4C9.37295 4 4 9.37295 4 16.0008C4 22.6287 9.37295 28.0017 16.0008 28.0017Z" fill="#243E90"/>
<path d="M16.0042 26.9168C22.0329 26.9168 26.9202 22.0296 26.9202 16.0008C26.9202 9.97205 22.0329 5.08478 16.0042 5.08478C9.97541 5.08478 5.08813 9.97205 5.08813 16.0008C5.08813 22.0296 9.97541 26.9168 16.0042 26.9168Z" fill="#FFCD05"/>
<path d="M15.971 26.0776C21.5362 26.0776 26.0477 21.5661 26.0477 16.0008C26.0477 10.4356 21.5362 5.92413 15.971 5.92413C10.4058 5.92413 5.89429 10.4356 5.89429 16.0008C5.89429 21.5661 10.4058 26.0776 15.971 26.0776Z" fill="#243E90"/>
<path d="M15.913 7.90295L15.5597 9.00268L16.1104 9.18183L15.913 7.90295Z" fill="#FFCD05"/>
<path d="M15.913 7.90295L16.2696 9.00268L15.7256 9.18183L15.913 7.90295Z" fill="#FFCD05"/>
<path d="M17.0127 8.70245H15.8516V9.27969L17.0127 8.70245Z" fill="#FFCD05"/>
<path d="M17.0126 8.70245L16.0771 9.38087L15.7371 8.91311L17.0126 8.70245Z" fill="#FFCD05"/>
<path d="M16.5913 9.99457L16.2347 8.89484L15.6857 9.07398L16.5913 9.99457Z" fill="#FFCD05"/>
<path d="M16.5913 9.99457L15.6575 9.3145L15.9892 8.84674L16.5913 9.99457Z" fill="#FFCD05"/>
<path d="M14.8132 8.70245H15.9743V9.27969L14.8132 8.70245Z" fill="#FFCD05"/>
<path d="M14.8132 8.70245L15.7487 9.38087L16.0805 8.91311L14.8132 8.70245Z" fill="#FFCD05"/>
<path d="M15.2279 9.99457L15.5862 8.89484L16.1352 9.07398L15.2279 9.99457Z" fill="#FFCD05"/>
<path d="M15.2279 9.99457L16.1634 9.3145L15.8317 8.84674L15.2279 9.99457Z" fill="#FFCD05"/>
<path d="M15.913 21.7748L15.5597 22.8746L16.1104 23.0537L15.913 21.7748Z" fill="#FFCD05"/>
<path d="M15.913 21.7748L16.2696 22.8746L15.7256 23.0537L15.913 21.7748Z" fill="#FFCD05"/>
<path d="M17.0127 22.5743H15.8516V23.1516L17.0127 22.5743Z" fill="#FFCD05"/>
<path d="M17.0126 22.5743L16.0771 23.2528L15.7371 22.7867L17.0126 22.5743Z" fill="#FFCD05"/>
<path d="M16.5913 23.8665L16.2347 22.7667L15.6857 22.9459L16.5913 23.8665Z" fill="#FFCD05"/>
<path d="M16.5913 23.8665L15.6575 23.1947L15.9892 22.7269L16.5913 23.8665Z" fill="#FFCD05"/>
<path d="M14.8132 22.5743H15.9743V23.1516L14.8132 22.5743Z" fill="#FFCD05"/>
<path d="M14.8132 22.5743L15.7487 23.2528L16.0805 22.7867L14.8132 22.5743Z" fill="#FFCD05"/>
<path d="M15.2279 23.8665L15.5862 22.7667L16.1352 22.9459L15.2279 23.8665Z" fill="#FFCD05"/>
<path d="M15.2279 23.8665L16.1634 23.1864L15.8317 22.7186L15.2279 23.8665Z" fill="#FFCD05"/>
<path d="M8.97625 14.8397L8.61963 15.9395L9.16866 16.1169L8.97625 14.8397Z" fill="#FFCD05"/>
<path d="M8.97622 14.8397L9.33451 15.9395L8.78381 16.1169L8.97622 14.8397Z" fill="#FFCD05"/>
<path d="M10.0758 15.6376H8.92468V16.2165L10.0758 15.6376Z" fill="#FFCD05"/>
<path d="M10.0758 15.6376L9.14033 16.3176L8.80029 15.8499L10.0758 15.6376Z" fill="#FFCD05"/>
<path d="M9.65622 16.9297L9.2996 15.8317L8.7489 16.0091L9.65622 16.9297Z" fill="#FFCD05"/>
<path d="M9.65622 16.9297L8.7207 16.2513L9.06074 15.7836L9.65622 16.9297Z" fill="#FFCD05"/>
<path d="M7.87646 15.6376H9.03757V16.2165L7.87646 15.6376Z" fill="#FFCD05"/>
<path d="M7.87646 15.6376L8.81198 16.3176L9.15202 15.8499L7.87646 15.6376Z" fill="#FFCD05"/>
<path d="M8.29773 16.9297L8.65435 15.8317L9.20339 16.0091L8.29773 16.9297Z" fill="#FFCD05"/>
<path d="M8.29773 16.9297L9.23159 16.2513L8.89984 15.7836L8.29773 16.9297Z" fill="#FFCD05"/>
<path d="M11.7645 10.9202L12.7 10.2417L12.3683 9.77399L11.7645 10.9202Z" fill="#FFCD05"/>
<path d="M11.7645 10.9202L12.1228 9.82043L12.6718 9.99958L11.7645 10.9202Z" fill="#FFCD05"/>
<path d="M11.3448 9.63135L12.2804 10.3114L12.6204 9.84366L11.3448 9.63135Z" fill="#FFCD05"/>
<path d="M11.3448 9.63135H12.506V10.2086L11.3448 9.63135Z" fill="#FFCD05"/>
<path d="M12.4446 8.83185L12.088 9.92494L12.637 10.1041L12.4446 8.83185Z" fill="#FFCD05"/>
<path d="M12.4446 8.83185L12.8012 9.92494L12.2522 10.1041L12.4446 8.83185Z" fill="#FFCD05"/>
<path d="M13.1246 10.9202L12.1891 10.2417L12.5208 9.77399L13.1246 10.9202Z" fill="#FFCD05"/>
<path d="M13.1246 10.9202L12.7663 9.82043L12.2173 9.99958L13.1246 10.9202Z" fill="#FFCD05"/>
<path d="M13.5442 9.63135L12.6087 10.3114L12.2687 9.84366L13.5442 9.63135Z" fill="#FFCD05"/>
<path d="M13.5443 9.63135H12.3832V10.2086L13.5443 9.63135Z" fill="#FFCD05"/>
<path d="M10.5835 13.463L10.2286 12.3632L9.67786 12.5424L10.5835 13.463Z" fill="#FFCD05"/>
<path d="M10.5835 13.463L9.64795 12.7829L9.98799 12.3151L10.5835 13.463Z" fill="#FFCD05"/>
<path d="M9.22668 13.463L10.1622 12.7829L9.82216 12.3151L9.22668 13.463Z" fill="#FFCD05"/>
<path d="M9.22668 13.463L9.58829 12.3632L10.139 12.5424L9.22668 13.463Z" fill="#FFCD05"/>
<path d="M8.80701 12.1708L9.74252 12.8493L10.0743 12.3815L8.80701 12.1708Z" fill="#FFCD05"/>
<path d="M8.80701 12.1708H9.96811V12.7448L8.80701 12.1708Z" fill="#FFCD05"/>
<path d="M11.0049 12.1708L10.071 12.8493L9.73926 12.3815L11.0049 12.1708Z" fill="#FFCD05"/>
<path d="M11.0049 12.1708H9.84375V12.7448L11.0049 12.1708Z" fill="#FFCD05"/>
<path d="M9.90672 11.3713L10.2633 12.4711L9.71265 12.6486L9.90672 11.3713Z" fill="#FFCD05"/>
<path d="M9.90675 11.3713L9.54846 12.4711L10.0992 12.6486L9.90675 11.3713Z" fill="#FFCD05"/>
<path d="M11.0049 19.106H9.84375V19.6848L11.0049 19.106Z" fill="#FFCD05"/>
<path d="M11.0049 19.106L10.071 19.786L9.73926 19.3183L11.0049 19.106Z" fill="#FFCD05"/>
<path d="M10.5835 20.3981L10.2268 19.2984L9.67615 19.4775L10.5835 20.3981Z" fill="#FFCD05"/>
<path d="M10.5835 20.3981L9.64795 19.7197L9.98799 19.252L10.5835 20.3981Z" fill="#FFCD05"/>
<path d="M9.22668 20.3981L10.1622 19.7197L9.82216 19.252L9.22668 20.3981Z" fill="#FFCD05"/>
<path d="M9.22668 20.3981L9.58829 19.2984L10.139 19.4775L9.22668 20.3981Z" fill="#FFCD05"/>
<path d="M9.90672 18.3065L10.2633 19.4062L9.71265 19.5853L9.90672 18.3065Z" fill="#FFCD05"/>
<path d="M9.90675 18.3065L9.54846 19.4062L10.0992 19.5853L9.90675 18.3065Z" fill="#FFCD05"/>
<path d="M8.80701 19.106H9.96811V19.6848L8.80701 19.106Z" fill="#FFCD05"/>
<path d="M8.80701 19.106L9.74252 19.786L10.0743 19.3183L8.80701 19.106Z" fill="#FFCD05"/>
<path d="M13.5444 21.6454H12.3833V22.2227L13.5444 21.6454Z" fill="#FFCD05"/>
<path d="M13.5444 21.6454L12.6088 22.3239L12.2688 21.8561L13.5444 21.6454Z" fill="#FFCD05"/>
<path d="M13.1247 22.9376L12.7664 21.8378L12.2174 22.017L13.1247 22.9376Z" fill="#FFCD05"/>
<path d="M13.1247 22.9376L12.1892 22.2575L12.521 21.7897L13.1247 22.9376Z" fill="#FFCD05"/>
<path d="M11.7645 22.9376L12.7 22.2575L12.3683 21.7897L11.7645 22.9376Z" fill="#FFCD05"/>
<path d="M11.7645 22.9376L12.1228 21.8378L12.6718 22.017L11.7645 22.9376Z" fill="#FFCD05"/>
<path d="M12.4446 20.8459L12.8012 21.9457L12.2522 22.1248L12.4446 20.8459Z" fill="#FFCD05"/>
<path d="M12.4446 20.8459L12.088 21.9457L12.637 22.1248L12.4446 20.8459Z" fill="#FFCD05"/>
<path d="M11.3448 21.6454H12.506V22.2227L11.3448 21.6454Z" fill="#FFCD05"/>
<path d="M11.3448 21.6454L12.2804 22.3239L12.6204 21.8561L11.3448 21.6454Z" fill="#FFCD05"/>
<path d="M22.8481 14.8397L23.2063 15.9395L22.6556 16.1169L22.8481 14.8397Z" fill="#FFCD05"/>
<path d="M22.8481 14.8397L22.4915 15.9395L23.0405 16.1169L22.8481 14.8397Z" fill="#FFCD05"/>
<path d="M21.75 15.6376H22.9111V16.2165L21.75 15.6376Z" fill="#FFCD05"/>
<path d="M21.75 15.6376L22.6839 16.3176L23.0156 15.8499L21.75 15.6376Z" fill="#FFCD05"/>
<path d="M22.1697 16.9297L22.5263 15.8317L23.0753 16.0091L22.1697 16.9297Z" fill="#FFCD05"/>
<path d="M22.1697 16.9297L23.1052 16.2513L22.7735 15.7836L22.1697 16.9297Z" fill="#FFCD05"/>
<path d="M23.9478 15.6376H22.7867V16.2165L23.9478 15.6376Z" fill="#FFCD05"/>
<path d="M23.9478 15.6376L23.0123 16.3176L22.6805 15.8499L23.9478 15.6376Z" fill="#FFCD05"/>
<path d="M23.5215 16.9297L23.1648 15.8317L22.6141 16.0091L23.5215 16.9297Z" fill="#FFCD05"/>
<path d="M23.5215 16.9297L22.5859 16.2513L22.9177 15.7836L23.5215 16.9297Z" fill="#FFCD05"/>
<path d="M20.0598 10.9202L19.1243 10.2417L19.4643 9.77399L20.0598 10.9202Z" fill="#FFCD05"/>
<path d="M20.0598 10.9201L19.7065 9.82373L19.1558 10.0029L20.0598 10.9201Z" fill="#FFCD05"/>
<path d="M20.4794 9.63135L19.5406 10.3114L19.2089 9.84366L20.4794 9.63135Z" fill="#FFCD05"/>
<path d="M20.4795 9.63135H19.3184V10.2086L20.4795 9.63135Z" fill="#FFCD05"/>
<path d="M19.3747 8.83185L19.738 9.92494L19.189 10.1041L19.3747 8.83185Z" fill="#FFCD05"/>
<path d="M19.3747 8.83185L19.0231 9.92494L19.5738 10.1041L19.3747 8.83185Z" fill="#FFCD05"/>
<path d="M18.7013 10.9202L19.6368 10.2417L19.3051 9.77399L18.7013 10.9202Z" fill="#FFCD05"/>
<path d="M18.7013 10.9202L19.0579 9.82043L19.6086 9.99958L18.7013 10.9202Z" fill="#FFCD05"/>
<path d="M18.2816 9.63135L19.2171 10.3114L19.5489 9.84366L18.2816 9.63135Z" fill="#FFCD05"/>
<path d="M18.2816 9.63135H19.4427V10.2086L18.2816 9.63135Z" fill="#FFCD05"/>
<path d="M21.2407 13.463L21.5973 12.3632L22.1464 12.5424L21.2407 13.463Z" fill="#FFCD05"/>
<path d="M21.2407 13.463L22.1746 12.7829L21.8428 12.3151L21.2407 13.463Z" fill="#FFCD05"/>
<path d="M22.5992 13.463L21.6637 12.7829L21.9954 12.3151L22.5992 13.463Z" fill="#FFCD05"/>
<path d="M22.5992 13.463L22.241 12.3632L21.6969 12.5424L22.5992 13.463Z" fill="#FFCD05"/>
<path d="M23.0239 12.1708L22.0883 12.8493L21.7566 12.3815L23.0239 12.1708Z" fill="#FFCD05"/>
<path d="M23.0239 12.1708H21.8628V12.7448L23.0239 12.1708Z" fill="#FFCD05"/>
<path d="M20.8195 12.1708L21.755 12.8493L22.095 12.3815L20.8195 12.1708Z" fill="#FFCD05"/>
<path d="M20.8195 12.1708H21.9806V12.7448L20.8195 12.1708Z" fill="#FFCD05"/>
<path d="M21.9192 11.3713L21.5626 12.4711L22.1117 12.6486L21.9192 11.3713Z" fill="#FFCD05"/>
<path d="M21.9192 11.3713L22.2775 12.4711L21.7268 12.6486L21.9192 11.3713Z" fill="#FFCD05"/>
<path d="M20.8195 19.106H21.9806V19.6848L20.8195 19.106Z" fill="#FFCD05"/>
<path d="M20.8195 19.106L21.755 19.786L22.095 19.3183L20.8195 19.106Z" fill="#FFCD05"/>
<path d="M21.2407 20.3981L21.5973 19.2984L22.1464 19.4775L21.2407 20.3981Z" fill="#FFCD05"/>
<path d="M21.2407 20.3981L22.1746 19.7197L21.8428 19.252L21.2407 20.3981Z" fill="#FFCD05"/>
<path d="M22.5992 20.3981L21.6637 19.7197L21.9954 19.252L22.5992 20.3981Z" fill="#FFCD05"/>
<path d="M22.5992 20.3981L22.241 19.2984L21.6969 19.4775L22.5992 20.3981Z" fill="#FFCD05"/>
<path d="M21.9192 18.3065L21.5626 19.4062L22.1117 19.5853L21.9192 18.3065Z" fill="#FFCD05"/>
<path d="M21.9192 18.3065L22.2775 19.4062L21.7268 19.5853L21.9192 18.3065Z" fill="#FFCD05"/>
<path d="M23.024 19.106H21.8629V19.6848L23.024 19.106Z" fill="#FFCD05"/>
<path d="M23.024 19.106L22.0885 19.786L21.7567 19.3183L23.024 19.106Z" fill="#FFCD05"/>
<path d="M18.2816 21.6454H19.4427V22.2227L18.2816 21.6454Z" fill="#FFCD05"/>
<path d="M18.2816 21.6454L19.2171 22.3239L19.5489 21.8561L18.2816 21.6454Z" fill="#FFCD05"/>
<path d="M18.7013 22.9376L19.0579 21.8378L19.6086 22.017L18.7013 22.9376Z" fill="#FFCD05"/>
<path d="M18.7013 22.9376L19.6368 22.2575L19.3051 21.7897L18.7013 22.9376Z" fill="#FFCD05"/>
<path d="M20.0598 22.9376L19.1243 22.2575L19.4643 21.7897L20.0598 22.9376Z" fill="#FFCD05"/>
<path d="M20.0598 22.9376L19.7065 21.8378L19.1558 22.017L20.0598 22.9376Z" fill="#FFCD05"/>
<path d="M19.3748 20.8459L19.0165 21.9457L19.5672 22.1248L19.3748 20.8459Z" fill="#FFCD05"/>
<path d="M19.3748 20.8459L19.7314 21.9457L19.1824 22.1248L19.3748 20.8459Z" fill="#FFCD05"/>
<path d="M20.4795 21.6454H19.3184V22.2227L20.4795 21.6454Z" fill="#FFCD05"/>
<path d="M20.4794 21.6454L19.5406 22.3239L19.2089 21.8561L20.4794 21.6454Z" fill="#FFCD05"/>
</g>
<defs>
<clipPath id="clip0_25_22868">
<rect width="24" height="24" fill="white" transform="translate(4 4)"/>
</clipPath>
</defs>
</svg>
