<svg width="32" height="32" viewBox="0 0 32 32" fill="none" xmlns="http://www.w3.org/2000/svg">
<path d="M31.5 16C31.5 24.5604 24.5604 31.5 16 31.5C7.43959 31.5 0.5 24.5604 0.5 16C0.5 7.43959 7.43959 0.5 16 0.5C24.5604 0.5 31.5 7.43959 31.5 16Z" fill="white" stroke="#CED3E6"/>
<g clip-path="url(#clip0_4223_29131)">
<path d="M16.0002 4.38284C9.48906 4.38284 4.21077 9.66117 4.21077 16.1723C4.21077 22.6835 9.48906 27.9618 16.0002 27.9618C22.5113 27.9618 27.7896 22.6835 27.7896 16.1723C27.7896 9.66117 22.5113 4.38284 16.0002 4.38284Z" fill="url(#paint0_linear_4223_29131)"/>
<path d="M16.0002 4.38284C9.48906 4.38284 4.21077 9.66117 4.21077 16.1723C4.21077 22.6835 9.48906 27.9618 16.0002 27.9618C22.5113 27.9618 27.7896 22.6835 27.7896 16.1723C27.7896 9.66117 22.5113 4.38284 16.0002 4.38284Z" fill="black" fill-opacity="0.8"/>
<path d="M4.42114 16.1723C4.42114 9.77743 9.60517 4.59338 16 4.59338C22.3949 4.59338 27.5789 9.77743 27.5789 16.1723C27.5789 22.5672 22.3949 27.7513 16 27.7513C9.60517 27.7513 4.42114 22.5672 4.42114 16.1723Z" stroke="url(#paint1_linear_4223_29131)" stroke-opacity="0.4"/>
<path d="M18.035 11.6281C18.0903 11.5238 18.1788 11.4401 18.2869 11.3899C18.4355 11.3216 18.5858 11.3147 18.7242 11.4122C18.7709 11.4456 18.8082 11.4903 18.8325 11.5419C18.9572 11.8108 19.0812 12.0802 19.1951 12.3547C19.3781 12.7979 19.6259 13.2099 19.8285 13.6441C20.1161 14.2618 20.4062 14.878 20.6986 15.4929C20.8662 15.8449 21.0249 16.2048 21.2353 16.5365C21.2929 16.6239 21.3559 16.7077 21.424 16.7874C21.4528 16.82 21.4885 16.8459 21.5286 16.8634C21.8357 17.0032 22.1663 17.0299 22.496 17.0505C22.6642 17.0611 22.8293 17.0385 22.9963 17.0385C23.3164 17.039 23.6364 17.0396 23.9547 17.0505C24.1656 17.058 24.3762 17.0822 24.5861 17.1041C24.6672 17.1153 24.7474 17.1321 24.8262 17.1542C24.8591 17.1634 24.8908 17.1762 24.9208 17.1924C25.0919 17.2795 25.1261 17.4257 25.0083 17.574C24.91 17.6993 24.783 17.7998 24.6375 17.8671C24.3275 18.0058 24.0042 18.1138 23.6725 18.1897C23.3453 18.2696 23.0206 18.3586 22.6983 18.4568C22.2051 18.6117 21.6997 18.7258 21.187 18.798C20.8458 18.8418 20.5019 18.8633 20.1577 18.8622C19.8482 18.8634 19.5391 18.8401 19.2288 18.8289C18.7554 18.8116 18.2833 18.7766 17.8106 18.7382C17.1184 18.6874 16.4231 18.7649 15.7607 18.9665C15.3135 19.0966 14.8645 19.2221 14.4189 19.3635C14.209 19.4301 14.0059 19.5263 13.8057 19.6129C13.5409 19.7262 13.2791 19.8489 13.0119 19.9587C12.3614 20.2289 11.6839 20.4 10.9696 20.4025C10.5946 20.4113 10.2194 20.3879 9.84824 20.3326C9.6266 20.2944 9.40269 20.2771 9.18517 20.2016C8.48841 19.9557 8.02401 19.495 7.859 18.7745C7.81429 18.587 7.81266 18.3922 7.85423 18.2043C7.8958 18.0164 7.97951 17.8402 8.09924 17.6886C8.21658 17.5346 8.32972 17.3723 8.45612 17.2232C8.70854 16.9191 9.0226 16.6703 9.37831 16.4927C9.7093 16.3251 10.0711 16.2244 10.4426 16.1966C10.6802 16.1742 10.9194 16.1754 11.1569 16.2003C11.2378 16.2091 11.3173 16.23 11.3977 16.2433C11.4351 16.2474 11.4714 16.2513 11.5182 16.2565C11.5282 16.2276 11.5358 16.1979 11.5409 16.1678C11.5591 15.9134 11.5752 15.6587 11.5923 15.4043C11.5997 15.3372 11.603 15.2703 11.6058 15.2033C11.6115 15.0688 11.6127 14.9343 11.6211 14.8007C11.6402 14.503 11.6369 14.2029 11.7029 13.9092C11.7122 13.8631 11.7173 13.8162 11.7182 13.7691C11.728 13.5355 11.8116 13.3233 11.9116 13.1162C11.9215 13.0949 11.9331 13.0744 11.9466 13.055C12.1379 12.798 12.3709 12.5738 12.6362 12.3914C13.1501 12.0361 13.7217 11.7695 14.3267 11.6032C14.7499 11.4857 15.1828 11.4051 15.6204 11.3622C16.0246 11.3268 16.4319 11.3404 16.833 11.4026C16.9713 11.4238 17.1109 11.443 17.2482 11.4525C17.4867 11.4681 17.7217 11.5187 17.9452 11.6027C17.973 11.6125 17.9994 11.6181 18.035 11.6281ZM11.8342 16.335C11.878 16.3526 11.9209 16.3734 11.9663 16.3867C12.301 16.4879 12.6363 16.5885 12.9719 16.6886L13.0212 16.6974C12.9859 16.6703 12.9454 16.6506 12.9022 16.6393C12.6514 16.5635 12.4018 16.4872 12.1501 16.4141C12.0462 16.3838 11.9397 16.3616 11.8347 16.3356C11.8142 16.2033 11.8258 16.1795 11.9474 16.1255C12.0004 16.1013 12.0539 16.0815 12.1063 16.0567C12.9169 15.704 13.7669 15.4463 14.6391 15.2889C15.3019 15.1651 15.972 15.0817 16.6455 15.0392C17.2236 14.9985 17.8038 14.9947 18.3826 15.028C18.8292 15.0484 19.273 15.1095 19.7084 15.2104C19.908 15.2553 20.1029 15.3185 20.2906 15.3993C20.3574 15.4275 20.4119 15.4782 20.4443 15.5423C20.5337 15.7161 20.6283 15.8878 20.7212 16.0603L21.1387 16.8363C21.1537 16.8641 21.1823 16.8916 21.1482 16.9407C21.075 16.9182 20.9971 16.8975 20.9215 16.8709C20.5314 16.7368 20.1281 16.6442 19.7183 16.5946C19.3133 16.5402 18.9045 16.5055 18.4964 16.4792C18.1741 16.4589 17.8495 16.464 17.5258 16.4614C17.3316 16.4551 17.1373 16.4589 16.9436 16.4727C16.5842 16.5079 16.2266 16.5611 15.8685 16.6042L14.1155 16.8289C14.096 16.8312 14.077 16.8352 14.058 16.8381L14.0557 16.859C14.3174 16.8915 14.5758 16.9462 14.8281 17.0225C14.6694 17.0129 14.5118 16.9935 14.3536 16.9789C14.1955 16.9644 14.0349 16.9568 13.8746 16.9409C13.7143 16.9251 13.5697 16.8742 13.4106 16.8946C13.4432 16.9185 13.4791 16.9378 13.5172 16.9519C13.8212 17.072 14.1318 17.1748 14.4476 17.2601C14.8806 17.3681 15.3104 17.4902 15.7407 17.6068C15.8954 17.6482 16.0485 17.6989 16.2059 17.7256C16.4608 17.7691 16.7181 17.8006 16.9753 17.8287C17.1583 17.8487 17.3422 17.86 17.5258 17.8739C17.6758 17.8854 17.8245 17.8933 17.9741 17.9041C18.3419 17.9321 18.7097 17.929 19.0778 17.9237C19.654 17.9167 20.2286 17.8656 20.7965 17.7709C20.9905 17.7365 21.1813 17.6846 21.3721 17.6331C21.5466 17.5866 21.7158 17.5256 21.8898 17.4785C22.1874 17.3998 22.492 17.4332 22.7957 17.4531C22.8737 17.4577 22.9511 17.4729 23.0288 17.4841C23.1299 17.4991 23.2299 17.519 23.3316 17.529C23.5413 17.5519 23.7521 17.5705 23.963 17.5825C24.16 17.5935 24.3565 17.5983 24.5554 17.5962C24.6402 17.5907 24.7242 17.576 24.8058 17.5524C24.8418 17.5425 24.8751 17.5249 24.9034 17.5008C24.9864 17.4337 24.9814 17.3553 24.8854 17.3097C24.8088 17.273 24.727 17.248 24.6429 17.2354C24.3428 17.1903 24.0396 17.1683 23.7362 17.1695C23.5999 17.1713 23.4635 17.1747 23.3274 17.1748C23.2389 17.1746 23.1502 17.1699 23.0613 17.1674C23.2342 17.2119 23.4085 17.2438 23.5821 17.2772C23.7424 17.3081 23.9026 17.3406 24.0626 17.3737C24.0959 17.383 24.1283 17.3946 24.1599 17.4083L24.1544 17.4283C24.1317 17.4291 24.1088 17.4316 24.0864 17.4303C24.0218 17.4271 23.9567 17.4233 23.8925 17.4174C23.6818 17.3982 23.4711 17.3835 23.2619 17.3562C23.0526 17.3288 22.8314 17.2874 22.6159 17.2543C22.4172 17.2237 22.217 17.2012 22.0193 17.1662C21.7759 17.1204 21.5377 17.0505 21.3083 16.9577C21.2568 16.9395 21.2141 16.9028 21.1886 16.855C20.9869 16.4804 20.7791 16.109 20.581 15.7319C20.3582 15.3082 20.1413 14.8807 19.9245 14.4532C19.761 14.1311 19.5964 13.8095 19.4424 13.4834C19.2234 13.0145 19.0099 12.5462 18.798 12.0737C18.7282 11.917 18.6425 11.7664 18.6245 11.5953C18.4871 11.5408 18.2811 11.5923 18.197 11.7004C18.3026 11.7675 18.4497 11.7486 18.5585 11.864C18.5272 11.8797 18.4936 11.8907 18.4589 11.8964C18.4012 11.8952 18.3437 11.8876 18.2876 11.8738C18.1557 11.841 18.0275 11.7897 17.8936 11.7645C17.6666 11.7196 17.4371 11.6856 17.2086 11.6483C16.9727 11.6118 16.734 11.5971 16.4954 11.6042C16.2335 11.6089 15.9701 11.6023 15.7087 11.6132C14.8499 11.656 14.0509 11.9111 13.2873 12.2858C13.0386 12.4118 12.8013 12.5583 12.5778 12.7237C12.4425 12.8158 12.3338 12.9409 12.262 13.0867C12.0597 13.5167 11.9824 13.9754 11.9538 14.4433C11.939 14.6914 11.9242 14.9406 11.9068 15.1867C11.8895 15.4329 11.8696 15.676 11.8497 15.9201C11.8388 16.0202 11.8277 16.1207 11.8207 16.2212C11.8055 16.2623 11.7987 16.3033 11.8342 16.335ZM24.7883 17.6345C24.6921 17.6673 24.5981 17.7065 24.5001 17.7303C24.3758 17.765 24.2486 17.7883 24.1199 17.7999C23.8705 17.8143 23.6242 17.769 23.3776 17.7376C23.131 17.7061 22.8981 17.6729 22.6585 17.6388C22.5399 17.6246 22.4198 17.6289 22.3026 17.6516C22.0255 17.698 21.7679 17.8077 21.4998 17.8846C21.3401 17.9305 21.1822 17.9861 21.02 18.0234C20.8017 18.074 20.5787 18.1052 20.3598 18.1558C20.0857 18.21 19.8065 18.2354 19.5268 18.2314C19.1101 18.237 18.6964 18.2006 18.2812 18.1774C18.0501 18.1643 17.8186 18.1641 17.5868 18.157C17.3277 18.1465 17.0686 18.1414 16.8114 18.1144C16.5849 18.0896 16.3607 18.0434 16.1362 18.001C15.8816 17.9535 15.6311 17.8865 15.3871 17.8006C14.9691 17.653 14.5516 17.5067 14.1301 17.3705C13.5922 17.1963 13.0523 17.0286 12.5103 16.8673C12.0928 16.742 11.6735 16.6222 11.2508 16.5131C11.0923 16.4723 10.9291 16.4528 10.7655 16.4549C10.3787 16.4636 9.99852 16.5532 9.65005 16.7177C9.44353 16.8134 9.24319 16.9215 9.05014 17.0413C8.8997 17.1335 8.75843 17.2394 8.62824 17.3577C8.33123 17.6336 8.1263 17.992 8.04043 18.3856C7.97113 18.6631 8.01367 18.9566 8.15911 19.2045C8.28163 19.4072 8.43822 19.5879 8.62218 19.739C8.63435 19.7485 8.64715 19.7571 8.66058 19.7649C8.62723 19.7023 8.58711 19.6435 8.54092 19.5894C8.40113 19.4231 8.29081 19.2349 8.2146 19.0326C8.11471 18.7386 8.11791 18.4514 8.27679 18.1757C8.38702 17.9939 8.53772 17.8393 8.71751 17.7234C9.04256 17.5026 9.40955 17.3782 9.78934 17.2913C10.2968 17.1726 10.816 17.1085 11.3378 17.0998C11.5589 17.0974 11.7801 17.1027 12.0016 17.1058C12.1312 17.1077 12.2613 17.1053 12.3898 17.1182C12.6104 17.1335 12.8299 17.163 13.0468 17.2063C13.2845 17.2623 13.5145 17.3526 13.7464 17.4308C14.2245 17.5915 14.7027 17.7507 15.1784 17.9173C15.5666 18.0555 15.9661 18.1603 16.3725 18.2304C16.8781 18.3073 17.3884 18.3496 17.8997 18.357C18.2232 18.3668 18.5468 18.3811 18.87 18.3887C19.1013 18.3945 19.3342 18.4073 19.5646 18.3913C20.1157 18.3537 20.663 18.2891 21.1946 18.1304C21.4 18.0689 21.6071 18.0137 21.8119 17.9521C21.9159 17.9207 22.0162 17.875 22.1209 17.8469C22.4631 17.7537 22.81 17.7917 23.156 17.8284C23.2709 17.841 23.3843 17.8673 23.4993 17.8788C23.6143 17.8903 23.7308 17.8891 23.8458 17.9006C23.9849 17.9136 24.125 17.9117 24.2636 17.8952C24.4708 17.8739 24.633 17.7688 24.7869 17.6421L24.7883 17.6345Z" fill="#FF890E"/>
<path d="M10.9593 16.5463C10.9917 16.547 11.024 16.5506 11.0558 16.5568C11.4574 16.6694 11.859 16.7826 12.2605 16.8967C12.2791 16.9019 12.2961 16.9118 12.3098 16.9254C11.8363 16.8836 11.3953 16.7247 10.9485 16.5879L10.9593 16.5463Z" fill="#FF890E"/>
</g>
<defs>
<linearGradient id="paint0_linear_4223_29131" x1="21.7525" y1="13.646" x2="10.3618" y2="13.646" gradientUnits="userSpaceOnUse">
<stop stop-color="#FF8320"/>
<stop offset="1" stop-color="#FFD3AF"/>
</linearGradient>
<linearGradient id="paint1_linear_4223_29131" x1="25.1696" y1="9.68813" x2="10.3902" y2="9.4955" gradientUnits="userSpaceOnUse">
<stop stop-color="#FF8320"/>
<stop offset="1" stop-color="#FFB173"/>
</linearGradient>
<clipPath id="clip0_4223_29131">
<rect width="24" height="24" fill="white" transform="translate(4 4)"/>
</clipPath>
</defs>
</svg>
