<svg width="32" height="32" viewBox="0 0 32 32" fill="none" xmlns="http://www.w3.org/2000/svg">
<path d="M31.5 16C31.5 24.5604 24.5604 31.5 16 31.5C7.43959 31.5 0.5 24.5604 0.5 16C0.5 7.43959 7.43959 0.5 16 0.5C24.5604 0.5 31.5 7.43959 31.5 16Z" fill="white" stroke="#CED3E6"/>
<g clip-path="url(#clip0_4223_29146)">
<path d="M27.5862 15.7931C27.5862 22.3063 22.3989 27.5863 16 27.5863C9.60113 27.5863 4.41382 22.3063 4.41382 15.7931C4.41382 9.27996 9.60113 4 16 4C22.3989 4 27.5862 9.27996 27.5862 15.7931Z" fill="#121825"/>
<path d="M15.9994 7.0782C16.2853 8.18649 16.7172 9.23632 17.2777 10.195C17.4902 10.0255 17.6981 9.86527 17.8991 9.71567C16.9377 8.03334 16.3853 6.0798 16.3853 4H15.6134C15.6134 6.0798 15.061 8.03334 14.0996 9.71567C14.3006 9.86527 14.5085 10.0266 14.721 10.195C15.2815 9.23632 15.7134 8.18649 15.9994 7.0782Z" fill="#E5D540"/>
<path d="M21.9708 13.8588C21.7434 13.7291 21.5229 13.5876 21.3104 13.438C21.0784 13.2801 20.859 13.1118 20.6419 12.9352C20.4375 12.774 20.2399 12.6056 20.0469 12.4244C19.792 12.1848 19.5451 11.9334 19.3096 11.6738C19.1086 11.8188 18.9007 11.9802 18.6917 12.1497C18.9696 12.4676 19.2671 12.7704 19.5795 13.0499C19.769 13.2264 19.9654 13.3994 20.1698 13.5607C20.3858 13.7372 20.6097 13.9032 20.8384 14.0634C21.0543 14.2131 21.2748 14.3545 21.4988 14.4913C22.4452 15.0618 23.472 15.5014 24.5609 15.7925C23.472 16.0836 22.444 16.5232 21.4988 17.0937C21.2748 17.2316 21.0543 17.3732 20.8384 17.5216C20.6109 17.6829 20.387 17.8477 20.1698 18.0243C19.9654 18.1856 19.7679 18.3587 19.5795 18.5352C19.2671 18.8146 18.9696 19.1174 18.6917 19.4354C18.9007 19.6049 19.1086 19.7651 19.3096 19.9112C19.5451 19.6517 19.792 19.4003 20.0469 19.1606C20.2399 18.9795 20.4375 18.8111 20.6419 18.6498C20.8579 18.4732 21.0784 18.3037 21.3104 18.1471C21.5229 17.9974 21.7434 17.8559 21.9708 17.7262C23.6236 16.7477 25.5395 16.1854 27.5862 16.1854V15.3997C25.5395 15.3997 23.6236 14.8374 21.9708 13.8588Z" fill="#E5D540"/>
<path d="M10.6896 18.1471C10.9216 18.3049 11.141 18.4732 11.3581 18.6498C11.5625 18.8111 11.7601 18.9795 11.953 19.1606C12.208 19.4003 12.4549 19.6517 12.6904 19.9112C12.8914 19.7662 13.0993 19.6049 13.3083 19.4354C13.0304 19.1174 12.7329 18.8146 12.4205 18.5352C12.2309 18.3587 12.0346 18.1856 11.8301 18.0243C11.6142 17.8477 11.3902 17.6818 11.1617 17.5216C10.9457 17.372 10.7252 17.2305 10.5013 17.0937C9.55483 16.5232 8.528 16.0836 7.43915 15.7925C8.528 15.5014 9.55598 15.0618 10.5013 14.4913C10.7252 14.3534 10.9457 14.2119 11.1617 14.0634C11.3891 13.9021 11.6131 13.7372 11.8301 13.5607C12.0346 13.3994 12.2321 13.2264 12.4205 13.0499C12.7329 12.7704 13.0304 12.4676 13.3083 12.1497C13.0993 11.9802 12.8914 11.82 12.6904 11.6738C12.4549 11.9334 12.208 12.1848 11.953 12.4244C11.7601 12.6056 11.5625 12.774 11.3581 12.9352C11.1421 13.1118 10.9216 13.2813 10.6896 13.438C10.4771 13.5876 10.2566 13.7291 10.0292 13.8588C8.37639 14.8374 6.46057 15.3997 4.41382 15.3997V16.1854C6.46057 16.1854 8.37639 16.7477 10.0292 17.7262C10.2566 17.8559 10.4771 17.9974 10.6896 18.1471Z" fill="#E5D540"/>
<path d="M15.9994 24.5082C15.7134 23.3998 15.2815 22.35 14.721 21.3914C14.5085 21.5608 14.3006 21.721 14.0996 21.8707C15.061 23.553 15.6134 25.5065 15.6134 27.5863H16.3853C16.3853 25.5065 16.9377 23.553 17.8991 21.8707C17.6981 21.721 17.4902 21.5597 17.2777 21.3914C16.7172 22.35 16.2853 23.3998 15.9994 24.5082Z" fill="#E5D540"/>
<path d="M21.7538 18.7924C21.5263 18.9491 21.3023 19.1186 21.0852 19.2998C22.0432 20.7659 22.4831 21.9291 22.676 22.5896C22.0271 22.3932 20.8843 21.9455 19.444 20.9704C19.2395 20.8289 19.027 20.6793 18.8065 20.518C18.6055 20.3684 18.4045 20.2117 18.192 20.0387C17.999 19.8809 17.7981 19.7125 17.5936 19.536C17.4512 19.4097 17.3042 19.2764 17.1537 19.1385H17.1503C16.9653 18.9654 16.7793 18.7889 16.5898 18.5995L18.509 16.646L18.756 16.3947C18.9409 16.5876 19.1189 16.7805 19.2854 16.9652H19.2889C19.4198 17.1183 19.5519 17.268 19.6748 17.4176C19.8907 17.2411 20.1147 17.0715 20.3433 16.9149C20.1963 16.7384 20.0423 16.5571 19.8724 16.3724C19.7058 16.1877 19.5324 15.9866 19.3474 15.7949C19.5324 15.602 19.707 15.4021 19.8724 15.2174C20.0423 15.0326 20.1963 14.8515 20.3433 14.675C20.1159 14.5171 19.8919 14.3487 19.6748 14.1722C19.5508 14.3219 19.4198 14.4715 19.2889 14.6247H19.2854C19.1189 14.8094 18.942 15.0023 18.756 15.1952L18.509 14.9438L16.5898 12.9903C16.7793 12.802 16.9642 12.6243 17.1503 12.4514H17.1537C17.3042 12.3134 17.4512 12.1801 17.5936 12.0538C17.7981 11.8773 17.999 11.7078 18.192 11.5512C18.4045 11.3781 18.6055 11.2215 18.8065 11.0718C19.027 10.9105 19.2395 10.7608 19.444 10.6194C20.8843 9.64434 22.0271 9.19658 22.676 9.00018C22.4831 9.66072 22.0432 10.8239 21.0852 12.29C21.3012 12.4712 21.5251 12.6395 21.7538 12.7974C23.418 10.278 23.6305 8.57934 23.6419 8.48461L23.704 7.95386L23.1826 8.01699C23.0895 8.02868 21.4218 8.24496 18.9455 9.93896C18.7411 10.0769 18.5285 10.2254 18.3126 10.3914C18.1116 10.541 17.9071 10.6977 17.6981 10.8707C17.5017 11.0274 17.3007 11.1969 17.0952 11.3781C16.9217 11.5231 16.7437 11.6844 16.5657 11.854H16.5622C16.3773 12.0234 16.1912 12.2035 16.0017 12.3929L15.9982 12.3894L15.9948 12.3929C15.8052 12.2046 15.6204 12.0234 15.4343 11.854H15.4309C15.2528 11.6844 15.076 11.5243 14.9014 11.3781C14.6969 11.1969 14.4959 11.0286 14.2984 10.8707C14.0893 10.6977 13.8848 10.541 13.6839 10.3914C13.4679 10.2265 13.2555 10.0769 13.051 9.93896C10.5758 8.24496 8.90698 8.02868 8.81392 8.01699L8.29248 7.95386L8.3545 8.48461C8.36599 8.57934 8.57847 10.2768 10.2427 12.7974C10.4702 12.6407 10.6942 12.4712 10.9112 12.29C9.9533 10.8239 9.51339 9.66072 9.32044 9.00018C9.96939 9.19658 11.1122 9.64434 12.5525 10.6194C12.757 10.7608 12.9694 10.9105 13.1899 11.0718C13.391 11.2215 13.592 11.3781 13.8045 11.5512C13.9974 11.709 14.1985 11.8773 14.4029 12.0538C14.5453 12.1801 14.6923 12.3134 14.8428 12.4514H14.8462C15.0312 12.6243 15.2172 12.8009 15.4068 12.9903L13.4874 14.9438L13.2405 15.1952C13.0556 15.0023 12.8776 14.8094 12.711 14.6247H12.7076C12.5767 14.4715 12.4446 14.3219 12.3216 14.1722C12.1057 14.3487 11.8818 14.5182 11.6532 14.675C11.8002 14.8515 11.9542 15.0326 12.1241 15.2174C12.2906 15.4021 12.4641 15.6031 12.649 15.7949C12.4641 15.9878 12.2895 16.1877 12.1241 16.3724C11.9542 16.5571 11.8002 16.7384 11.6532 16.9149C11.8807 17.0727 12.1046 17.2411 12.3216 17.4176C12.4457 17.268 12.5767 17.1183 12.7076 16.9652H12.711C12.8776 16.7805 13.0545 16.5876 13.2405 16.3947L13.4874 16.646L15.4068 18.5995C15.2172 18.7877 15.0323 18.9654 14.8462 19.1385H14.8428C14.6923 19.2764 14.5453 19.4097 14.4029 19.536C14.1985 19.7125 13.9974 19.882 13.8045 20.0387C13.592 20.2117 13.391 20.3684 13.1899 20.518C12.9694 20.6793 12.757 20.8289 12.5525 20.9704C11.1122 21.9455 9.96939 22.3932 9.32044 22.5896C9.51339 21.9291 9.9533 20.7659 10.9112 19.2998C10.6953 19.1186 10.4713 18.9503 10.2427 18.7924C8.57847 21.3118 8.36599 23.0105 8.3545 23.1052L8.29248 23.636L8.81392 23.5728C8.90698 23.5611 10.5747 23.3448 13.051 21.6509C13.2555 21.5129 13.4679 21.3644 13.6839 21.1984C13.8848 21.0488 14.0893 20.8921 14.2984 20.7191C14.4948 20.5625 14.6957 20.3929 14.9014 20.2117C15.0748 20.0668 15.2528 19.9054 15.4309 19.7359H15.4343C15.6192 19.5664 15.8052 19.3863 15.9948 19.1969L15.9982 19.2004L16.0017 19.1969C16.1912 19.3852 16.3761 19.5664 16.5622 19.7359H16.5657C16.7437 19.9054 16.9206 20.0656 17.0952 20.2117C17.2996 20.3929 17.5006 20.5613 17.6981 20.7191C17.9071 20.8921 18.1116 21.0488 18.3126 21.1984C18.5285 21.3633 18.7411 21.5129 18.9455 21.6509C21.4207 23.3448 23.0895 23.5611 23.1826 23.5728L23.704 23.636L23.6419 23.1052C23.6305 23.0105 23.418 21.313 21.7538 18.7924ZM16.2509 17.7508L15.9994 18.0068L15.7478 17.7508L14.0755 16.0486L13.824 15.7926L14.0755 15.5365L15.7478 13.8343L15.9994 13.5783L16.2509 13.8343L17.9233 15.5365L18.1748 15.7926L17.9233 16.0486L16.2509 17.7508Z" fill="#E5D540"/>
</g>
<defs>
<clipPath id="clip0_4223_29146">
<rect width="24" height="23.5862" fill="white" transform="translate(4 4)"/>
</clipPath>
</defs>
</svg>
