<svg width="32" height="32" viewBox="0 0 32 32" fill="none" xmlns="http://www.w3.org/2000/svg">
<path d="M0.5 16C0.5 7.43959 7.43959 0.5 16 0.5C24.5604 0.5 31.5 7.43959 31.5 16C31.5 24.5604 24.5604 31.5 16 31.5C7.43959 31.5 0.5 24.5604 0.5 16Z" fill="white" stroke="#CED3E6"/>
<rect x="4" y="4" width="24" height="24" rx="12" fill="#3763FF"/>
<path d="M7 8L25 24H7V8Z" fill="#363636"/>
<path d="M15.8548 24.7025V7.42976H16.9613V24.7025H15.8548ZM18.7898 13.1311C18.7358 12.5868 18.5041 12.164 18.0948 11.8626C17.6855 11.5613 17.13 11.4106 16.4283 11.4106C15.9515 11.4106 15.5489 11.4781 15.2205 11.613C14.8922 11.7434 14.6403 11.9256 14.4649 12.1595C14.2939 12.3934 14.2085 12.6588 14.2085 12.9557C14.1995 13.2031 14.2512 13.419 14.3636 13.6034C14.4806 13.7878 14.6403 13.9475 14.8427 14.0825C15.0451 14.2129 15.279 14.3276 15.5444 14.4266C15.8098 14.521 16.0932 14.602 16.3945 14.6695L17.636 14.9663C18.2388 15.1013 18.792 15.2812 19.2958 15.5061C19.7996 15.731 20.2359 16.0077 20.6048 16.336C20.9736 16.6644 21.2592 17.0512 21.4617 17.4965C21.6686 17.9418 21.7743 18.4524 21.7788 19.0281C21.7743 19.8738 21.5584 20.607 21.131 21.2277C20.7082 21.8439 20.0965 22.323 19.2958 22.6649C18.4997 23.0022 17.5393 23.1709 16.4148 23.1709C15.2992 23.1709 14.3277 23 13.5 22.6581C12.6769 22.3162 12.0336 21.8102 11.5703 21.14C11.1115 20.4653 10.8709 19.6309 10.8484 18.6368H13.6754C13.7069 19.1001 13.8396 19.4869 14.0735 19.7973C14.3119 20.1032 14.629 20.3348 15.0249 20.4923C15.4252 20.6452 15.8773 20.7217 16.381 20.7217C16.8758 20.7217 17.3054 20.6497 17.6698 20.5058C18.0386 20.3618 18.3242 20.1617 18.5266 19.9053C18.7291 19.6489 18.8303 19.3542 18.8303 19.0214C18.8303 18.711 18.7381 18.4501 18.5536 18.2387C18.3737 18.0273 18.1083 17.8474 17.7575 17.6989C17.4111 17.5505 16.986 17.4156 16.4823 17.2941L14.9776 16.9163C13.8126 16.6329 12.8928 16.1898 12.218 15.5871C11.5433 14.9843 11.2082 14.1724 11.2127 13.1514C11.2082 12.3147 11.4309 11.5838 11.8807 10.9585C12.335 10.3333 12.958 9.84525 13.7497 9.4944C14.5413 9.14354 15.4409 8.96812 16.4485 8.96812C17.4741 8.96812 18.3692 9.14354 19.1339 9.4944C19.9031 9.84525 20.5013 10.3333 20.9286 10.9585C21.3559 11.5838 21.5764 12.308 21.5899 13.1311H18.7898Z" fill="white"/>
</svg>
