<svg width="32" height="32" viewBox="0 0 32 32" fill="none" xmlns="http://www.w3.org/2000/svg">
<path d="M31.5 16C31.5 24.5604 24.5604 31.5 16 31.5C7.43959 31.5 0.5 24.5604 0.5 16C0.5 7.43959 7.43959 0.5 16 0.5C24.5604 0.5 31.5 7.43959 31.5 16Z" fill="white" stroke="#CED3E6"/>
<g clip-path="url(#clip0_32_22697)">
<path d="M16 28C22.65 28 28 22.65 28 16C28 9.34996 22.65 4 16 4C9.34996 4 4 9.34996 4 16C4 22.65 9.34996 28 16 28Z" fill="#6F41D8"/>
<path d="M19.3947 14.1287C19.1487 13.9853 18.8294 13.9853 18.5587 14.1287L16.6394 15.2313L15.3361 15.95L13.4167 17.052C13.1707 17.196 12.8514 17.196 12.5807 17.052L11.0554 16.1893C10.8094 16.046 10.6374 15.7827 10.6374 15.4947V13.7933C10.6374 13.506 10.7847 13.2427 11.0554 13.0987L12.5554 12.26C12.8021 12.116 13.1221 12.116 13.3927 12.26L14.8927 13.0987C15.1394 13.2427 15.3114 13.506 15.3114 13.7933V14.896L16.6147 14.1527V13.0507C16.6162 12.9075 16.5779 12.7668 16.5041 12.6442C16.4303 12.5215 16.3239 12.4218 16.1967 12.356L13.4167 10.7747C13.1707 10.6307 12.8514 10.6307 12.5807 10.7747L9.75141 12.356C9.62428 12.4218 9.51788 12.5215 9.44409 12.6442C9.37029 12.7668 9.33197 12.9075 9.33341 13.0507V16.2373C9.33341 16.5253 9.48075 16.7887 9.75141 16.9327L12.5807 18.514C12.8267 18.6573 13.1467 18.6573 13.4167 18.514L15.3361 17.4353L16.6394 16.6927L18.5587 15.6147C18.8047 15.4707 19.1241 15.4707 19.3947 15.6147L20.8954 16.4533C21.1421 16.5967 21.3134 16.86 21.3134 17.148V18.8493C21.3134 19.1367 21.1667 19.4 20.8954 19.544L19.3954 20.4067C19.1487 20.5507 18.8287 20.5507 18.5587 20.4067L17.0581 19.568C16.8114 19.424 16.6394 19.1607 16.6394 18.8733V17.7707L15.3361 18.514V19.616C15.3361 19.9033 15.4834 20.1673 15.7541 20.3107L18.5834 21.892C18.8294 22.036 19.1487 22.036 19.4194 21.892L22.2487 20.3107C22.4947 20.1673 22.6667 19.904 22.6667 19.616V16.4293C22.6682 16.2862 22.6299 16.1455 22.5561 16.0228C22.4823 15.9002 22.3759 15.8004 22.2487 15.7347L19.3954 14.1287H19.3947Z" fill="white"/>
</g>
<defs>
<clipPath id="clip0_32_22697">
<rect x="4" y="4" width="24" height="24" fill="white"/>
</clipPath>
</defs>
</svg>
