<svg width="32" height="32" viewBox="0 0 32 32" fill="none" xmlns="http://www.w3.org/2000/svg">
<path d="M31.5 16C31.5 24.5604 24.5604 31.5 16 31.5C7.43959 31.5 0.5 24.5604 0.5 16C0.5 7.43959 7.43959 0.5 16 0.5C24.5604 0.5 31.5 7.43959 31.5 16Z" fill="white" stroke="#CED3E6"/>
<g clip-path="url(#clip0_35_22632)">
<path d="M28 16C28 9.37258 22.6274 4 16 4C9.37258 4 4 9.37258 4 16C4 22.6274 9.37258 28 16 28C22.6274 28 28 22.6274 28 16Z" fill="black"/>
<path d="M7.21924 10.8079L21.2331 24.8218L24.8356 21.2193L10.8217 7.20547L7.21924 10.8079Z" fill="white"/>
<path d="M10.8218 24.8218L24.8357 10.808L21.2332 7.20551L7.21936 21.2194L10.8218 24.8218Z" fill="white"/>
<path d="M23.5616 16C23.5616 11.8238 20.1762 8.43835 16 8.43835C11.8238 8.43835 8.43835 11.8238 8.43835 16C8.43835 20.1762 11.8238 23.5616 16 23.5616C20.1762 23.5616 23.5616 20.1762 23.5616 16Z" fill="black"/>
<path d="M18.8453 14.1092C18.6431 13.9937 18.3832 13.9937 18.152 14.1092L16.5344 15.0618L15.4367 15.668L13.8479 16.6207C13.6457 16.7361 13.3857 16.7361 13.1546 16.6207L11.9125 15.8701C11.7103 15.7546 11.5658 15.5237 11.5658 15.2639V13.8205C11.5658 13.5895 11.6814 13.3586 11.9125 13.2143L13.1546 12.4926C13.3568 12.3771 13.6168 12.3771 13.8479 12.4926L15.09 13.2431C15.2923 13.3586 15.4367 13.5895 15.4367 13.8494V14.802L16.5344 14.1669V13.1854C16.5344 12.9545 16.4188 12.7235 16.1877 12.5792L13.8768 11.2224C13.6746 11.1069 13.4146 11.1069 13.1835 11.2224L10.8148 12.6081C10.5837 12.7235 10.4681 12.9545 10.4681 13.1854V15.899C10.4681 16.1299 10.5837 16.3608 10.8148 16.5052L13.1546 17.862C13.3568 17.9774 13.6168 17.9774 13.8479 17.862L15.4367 16.9382L16.5344 16.3031L18.1232 15.3794C18.3254 15.2639 18.5854 15.2639 18.8164 15.3794L20.0586 16.101C20.2608 16.2165 20.4052 16.4474 20.4052 16.7072V18.1507C20.4052 18.3816 20.2897 18.6125 20.0586 18.7569L18.8453 19.4785C18.6431 19.594 18.3832 19.594 18.152 19.4785L16.9099 18.7569C16.7077 18.6414 16.5633 18.4105 16.5633 18.1507V17.2269L15.4656 17.862V18.8146C15.4656 19.0456 15.5811 19.2765 15.8122 19.4208L18.152 20.7776C18.3543 20.8931 18.6142 20.8931 18.8453 20.7776L21.1852 19.4208C21.3874 19.3054 21.5318 19.0744 21.5318 18.8146V16.0722C21.5318 15.8412 21.4163 15.6103 21.1852 15.4659L18.8453 14.1092Z" fill="#8247E5"/>
</g>
<defs>
<clipPath id="clip0_35_22632">
<rect width="24" height="24" fill="white" transform="translate(4 4)"/>
</clipPath>
</defs>
</svg>
