<svg width="32" height="32" viewBox="0 0 32 32" fill="none" xmlns="http://www.w3.org/2000/svg">
<path d="M31.5 16C31.5 24.5604 24.5604 31.5 16 31.5C7.43959 31.5 0.5 24.5604 0.5 16C0.5 7.43959 7.43959 0.5 16 0.5C24.5604 0.5 31.5 7.43959 31.5 16Z" fill="white" stroke="#CED3E6"/>
<path d="M9.84072 10.9667L5.7399 9.83636C5.50219 10.2136 5.31821 10.6221 5.19324 11.0501L6.29426 19.7599L9.84072 10.9667Z" fill="#C8A8FF"/>
<path d="M25.6939 19.7598L16.4335 4.01952C16.0836 3.98813 15.7312 3.99462 15.3827 4.03885L9.84072 10.9667L25.6939 19.7598Z" fill="#875FE3"/>
<path d="M26.795 11.0501L25.6939 19.7598L26.5767 21.5514C26.7981 21.0497 26.9327 20.514 26.9746 19.9673V12.0331C26.9491 11.7001 26.8889 11.3706 26.795 11.0501Z" fill="#9B65EA"/>
<path d="M6.2942 19.7598L15.1219 27.9209C15.6966 28.0264 16.2857 28.0264 16.8604 27.9209L25.6862 19.7598H6.2942Z" fill="#875FE3"/>
<path d="M6.2942 19.7598H25.6939L9.84073 10.9667L6.2942 19.7598Z" fill="#AB83F2"/>
<path d="M5.19318 11.0501C5.10012 11.3708 5.03991 11.7002 5.01349 12.0331V19.9673C5.05511 20.5143 5.19036 21.0501 5.41335 21.5514L6.2942 19.7598L5.19318 11.0501ZM15.3827 4.03885C14.8771 4.10495 14.3854 4.25159 13.9262 4.47321L7.08234 8.43831C6.54458 8.80836 6.0878 9.28403 5.73983 9.83634L9.84073 10.9667L15.3827 4.03885Z" fill="#9B65EA"/>
<path d="M26.795 11.0501C26.4858 9.98798 25.8191 9.06532 24.9077 8.43833L18.0619 4.47323C17.5505 4.22618 16.999 4.07251 16.4335 4.01947L25.6939 19.7598L26.795 11.0501ZM16.8681 27.9209C17.2813 27.8442 17.6826 27.7138 18.0619 27.5331L24.9077 23.566C25.6394 23.0632 26.2172 22.3671 26.5767 21.5553L25.6939 19.7637L16.8681 27.9209ZM5.41335 21.5514C5.77218 22.3636 6.3501 23.0599 7.08234 23.5621L13.9262 27.5292C14.3063 27.7097 14.7082 27.8401 15.1219 27.9169L6.2942 19.7598L5.41335 21.5514Z" fill="#6D33CC"/>
</svg>
