<svg width="32" height="32" viewBox="0 0 32 32" fill="none" xmlns="http://www.w3.org/2000/svg">
<rect x="0.5" y="0.5" width="31" height="31" rx="15.5" fill="white" stroke="#CED3E6"/>
<path d="M16 28C22.6274 28 28 22.6274 28 16C28 9.37258 22.6274 4 16 4C9.37258 4 4 9.37258 4 16C4 22.6274 9.37258 28 16 28Z" fill="#1E1E1E"/>
<path d="M9.96591 19V10.2727H12.2727V11.8125H12.375C12.5568 11.3011 12.8598 10.8977 13.2841 10.6023C13.7083 10.3068 14.2159 10.1591 14.8068 10.1591C15.4053 10.1591 15.9148 10.3087 16.3352 10.608C16.7557 10.9034 17.036 11.3049 17.1761 11.8125H17.267C17.4451 11.3125 17.767 10.9129 18.233 10.6136C18.7027 10.3106 19.2576 10.1591 19.8977 10.1591C20.7121 10.1591 21.3731 10.4186 21.8807 10.9375C22.392 11.4527 22.6477 12.1837 22.6477 13.1307V19H20.233V13.608C20.233 13.1231 20.1042 12.7595 19.8466 12.517C19.589 12.2746 19.267 12.1534 18.8807 12.1534C18.4413 12.1534 18.0985 12.2936 17.8523 12.5739C17.6061 12.8504 17.483 13.2159 17.483 13.6705V19H15.1364V13.5568C15.1364 13.1288 15.0133 12.7879 14.767 12.5341C14.5246 12.2803 14.2045 12.1534 13.8068 12.1534C13.5379 12.1534 13.2955 12.2216 13.0795 12.358C12.8674 12.4905 12.6989 12.678 12.5739 12.9205C12.4489 13.1591 12.3864 13.4394 12.3864 13.7614V19H9.96591Z" fill="white"/>
<rect x="10" y="22" width="2" height="12.7" transform="rotate(-90 10 22)" fill="white"/>
</svg>
