<svg width="32" height="32" viewBox="0 0 32 32" fill="none" xmlns="http://www.w3.org/2000/svg">
<path d="M31.5 16C31.5 24.5604 24.5604 31.5 16 31.5C7.43959 31.5 0.5 24.5604 0.5 16C0.5 7.43959 7.43959 0.5 16 0.5C24.5604 0.5 31.5 7.43959 31.5 16Z" fill="white" stroke="#CED3E6"/>
<g clip-path="url(#clip0_4227_39122)">
<path d="M16.0401 27.9599C22.6454 27.9378 27.9821 22.5652 27.9599 15.96C27.9378 9.35468 22.5652 4.01797 15.9599 4.04011C9.35465 4.06224 4.01797 9.43482 4.04011 16.0401C4.06224 22.6454 9.43483 27.9821 16.0401 27.9599Z" fill="#0074F0"/>
<path opacity="0.2" d="M23.4755 23.4278C27.5763 19.2996 27.5557 12.6248 23.4276 8.52409C19.2995 4.42333 12.6247 4.44387 8.52393 8.572L23.4755 23.4278Z" fill="white"/>
<path d="M15.5117 11.2764C15.6723 11.26 15.8352 11.2516 16.0001 11.2516C18.6216 11.2516 20.7467 13.3767 20.7467 15.9983C20.7467 18.0425 19.4544 19.7849 17.6423 20.4531L16.0317 22.7182C19.7285 22.7011 22.7201 19.6991 22.7201 15.9983C22.7201 12.5231 20.0823 9.66412 16.6997 9.31421L15.5117 11.2764Z" fill="white"/>
<path d="M15.8475 9.28003C12.2066 9.3611 9.28003 12.3379 9.28003 15.9983C9.28003 19.4228 11.8415 22.249 15.153 22.6655L16.5402 20.7146C16.3629 20.7347 16.1827 20.745 16 20.745C13.3785 20.745 11.2534 18.6199 11.2534 15.9983C11.2534 13.8976 12.618 12.1156 14.5092 11.4905L15.8475 9.28003Z" fill="white"/>
<path d="M17.6423 20.4532C19.4545 19.785 20.7468 18.0426 20.7468 15.9983H22.7201C22.7201 19.6991 19.7285 22.7012 16.0317 22.7182L17.6423 20.4532Z" fill="url(#paint0_linear_4227_39122)"/>
<path d="M15.8475 9.28003C12.2066 9.3611 9.28003 12.3379 9.28003 15.9983C9.28003 15.9983 11.2534 16.0267 11.2534 15.9983C11.2534 13.8976 12.618 12.1156 14.5092 11.4905L15.8475 9.28003Z" fill="url(#paint1_linear_4227_39122)"/>
<path d="M15.9883 21.4916L19.3625 16.74L15.9883 18.7312L12.616 16.74L15.9883 21.4916Z" fill="white"/>
<path opacity="0.1" d="M15.9878 21.4916L19.3619 16.74L15.9878 18.7312V21.4916Z" fill="#0074F0"/>
<path d="M15.9778 18.1006L19.3688 16.1057L15.9778 10.5049L12.5869 16.1057L15.9778 18.1006Z" fill="url(#paint2_linear_4227_39122)"/>
<path d="M15.9778 18.1006L19.3688 16.1057L15.9778 10.5049L12.5869 16.1057L15.9778 18.1006Z" fill="white"/>
<path opacity="0.1" d="M15.9778 18.1004L12.5869 16.1057L15.9778 10.5049V18.1004Z" fill="#0074F0"/>
<path opacity="0.1" d="M15.9778 18.1008V14.5161L12.5869 16.1058L15.9778 18.1008Z" fill="#0074F0"/>
<path opacity="0.1" d="M15.978 18.1008V14.5161L19.369 16.1058L15.978 18.1008Z" fill="#0074F0"/>
</g>
<defs>
<linearGradient id="paint0_linear_4227_39122" x1="11.5757" y1="24.4182" x2="18.9765" y2="19.5703" gradientUnits="userSpaceOnUse">
<stop stop-color="#1A82FF" stop-opacity="0.5"/>
<stop offset="1" stop-color="white"/>
</linearGradient>
<linearGradient id="paint1_linear_4227_39122" x1="19.6267" y1="6.18679" x2="12.5455" y2="11.3031" gradientUnits="userSpaceOnUse">
<stop stop-color="#1A82FF" stop-opacity="0.5"/>
<stop offset="1" stop-color="white"/>
</linearGradient>
<linearGradient id="paint2_linear_4227_39122" x1="8.76371" y1="12.5331" x2="14.7044" y2="16.1584" gradientUnits="userSpaceOnUse">
<stop stop-color="#1C313F"/>
<stop offset="1" stop-color="white"/>
</linearGradient>
<clipPath id="clip0_4227_39122">
<rect width="24" height="24" fill="white" transform="translate(4 4)"/>
</clipPath>
</defs>
</svg>
