<svg width="32" height="32" viewBox="0 0 32 32" fill="none" xmlns="http://www.w3.org/2000/svg">
<path d="M31.5 16C31.5 24.5604 24.5604 31.5 16 31.5C7.43959 31.5 0.5 24.5604 0.5 16C0.5 7.43959 7.43959 0.5 16 0.5C24.5604 0.5 31.5 7.43959 31.5 16Z" fill="white" stroke="#CED3E6"/>
<path d="M31.5 16C31.5 24.5604 24.5604 31.5 16 31.5C7.43959 31.5 0.5 24.5604 0.5 16C0.5 7.43959 7.43959 0.5 16 0.5C24.5604 0.5 31.5 7.43959 31.5 16Z" fill="white" stroke="#CED3E6"/>
<path d="M31.5 16C31.5 24.5604 24.5604 31.5 16 31.5C7.43959 31.5 0.5 24.5604 0.5 16C0.5 7.43959 7.43959 0.5 16 0.5C24.5604 0.5 31.5 7.43959 31.5 16Z" fill="white" stroke="#CED3E6"/>
<path d="M31.5 16C31.5 24.5604 24.5604 31.5 16 31.5C7.43959 31.5 0.5 24.5604 0.5 16C0.5 7.43959 7.43959 0.5 16 0.5C24.5604 0.5 31.5 7.43959 31.5 16Z" fill="white" stroke="#CED3E6"/>
<path d="M31.5 16C31.5 24.5604 24.5604 31.5 16 31.5C7.43959 31.5 0.5 24.5604 0.5 16C0.5 7.43959 7.43959 0.5 16 0.5C24.5604 0.5 31.5 7.43959 31.5 16Z" fill="white" stroke="#CED3E6"/>
<path d="M31.5 16C31.5 24.5604 24.5604 31.5 16 31.5C7.43959 31.5 0.5 24.5604 0.5 16C0.5 7.43959 7.43959 0.5 16 0.5C24.5604 0.5 31.5 7.43959 31.5 16Z" fill="white" stroke="#CED3E6"/>
<path d="M31.5 16C31.5 24.5604 24.5604 31.5 16 31.5C7.43959 31.5 0.5 24.5604 0.5 16C0.5 7.43959 7.43959 0.5 16 0.5C24.5604 0.5 31.5 7.43959 31.5 16Z" fill="white" stroke="#CED3E6"/>
<path d="M31.5 16C31.5 24.5604 24.5604 31.5 16 31.5C7.43959 31.5 0.5 24.5604 0.5 16C0.5 7.43959 7.43959 0.5 16 0.5C24.5604 0.5 31.5 7.43959 31.5 16Z" fill="white" stroke="#CED3E6"/>
<path d="M27.5 16C27.5 22.3513 22.3513 27.5 16 27.5C9.64873 27.5 4.5 22.3513 4.5 16C4.5 9.64873 9.64873 4.5 16 4.5C22.3513 4.5 27.5 9.64873 27.5 16Z" fill="#708B96" stroke="#708B96"/>
<path d="M10.6765 21V19.0984H12.7166V19.0131C12.0881 18.6119 11.5909 18.0845 11.2251 17.4311C10.8594 16.7777 10.6765 15.9947 10.6765 15.082C10.6765 14.3292 10.8026 13.6385 11.0547 13.0099C11.3068 12.3814 11.6637 11.8398 12.1254 11.3853C12.587 10.9272 13.1321 10.5721 13.7607 10.32C14.3928 10.0678 15.0852 9.94176 15.8381 9.94176C16.5909 9.94176 17.2816 10.0678 17.9102 10.32C18.5423 10.5721 19.0891 10.9272 19.5508 11.3853C20.0124 11.8398 20.3693 12.3814 20.6214 13.0099C20.8736 13.6385 20.9996 14.3292 20.9996 15.082C20.9996 15.9947 20.8168 16.7777 20.451 17.4311C20.0852 18.0845 19.5881 18.6119 18.9595 19.0131V19.0984H20.9996V21H16.6744V18.6136C17.0579 18.4574 17.4006 18.2159 17.7024 17.8892C18.0043 17.5625 18.2404 17.1754 18.4109 16.728C18.5849 16.277 18.6719 15.7869 18.6719 15.2578C18.6719 14.6364 18.5511 14.0806 18.3097 13.5906C18.0717 13.0969 17.7397 12.7081 17.3136 12.424C16.8874 12.1399 16.3956 11.9979 15.8381 11.9979C15.4261 11.9979 15.0462 12.0795 14.6982 12.2429C14.3501 12.4027 14.0501 12.63 13.7979 12.9247C13.5458 13.2195 13.3505 13.5657 13.212 13.9634C13.0735 14.3576 13.0043 14.7891 13.0043 15.2578C13.0043 15.7869 13.0895 16.277 13.2599 16.728C13.4339 17.1754 13.6719 17.5625 13.9737 17.8892C14.2756 18.2159 14.6183 18.4574 15.0018 18.6136V21H10.6765Z" fill="white"/>
</svg>
