<svg width="32" height="32" viewBox="0 0 32 32" fill="none" xmlns="http://www.w3.org/2000/svg">
<path d="M31.5 16C31.5 24.5604 24.5604 31.5 16 31.5C7.43959 31.5 0.5 24.5604 0.5 16C0.5 7.43959 7.43959 0.5 16 0.5C24.5604 0.5 31.5 7.43959 31.5 16Z" fill="white" stroke="#CED3E6"/>
<path d="M23.3714 15.8345C23.3782 15.9675 23.3765 16.0987 23.3697 16.2316C23.1294 20.2947 20.0565 23.3608 15.9968 23.3489C11.799 23.337 8.66138 20.1567 8.65456 16.0254C8.64434 11.7356 11.9558 8.64228 16.0036 8.64909C20.1264 8.65591 23.1737 11.814 23.3714 15.8345ZM15.9729 11.9231C13.7352 11.9623 11.903 13.7842 11.9303 15.9964C11.9575 18.2461 13.6789 20.0953 16.0667 20.0698C18.3505 20.0459 20.0821 18.2189 20.0821 15.9828C20.0821 13.7467 18.1783 11.8839 15.9729 11.9231Z" fill="url(#paint0_linear_12_28140)"/>
<path d="M15.7821 28.0001C12.849 27.8518 10.3504 26.9315 8.20467 25.0959C6.36059 23.516 5.11302 21.5509 4.45004 19.2245C4.16371 18.2241 3.97965 17.193 4.0018 16.1465C4.02396 15.1887 4.73977 14.6535 5.5766 14.9364C5.94132 15.0608 6.19868 15.296 6.25662 15.6931C6.31287 16.08 6.35036 16.4737 6.40149 16.8606C6.41854 16.9935 6.43217 17.1248 6.4458 17.2577C6.77815 20.8913 9.69254 24.2557 13.1881 25.2629C13.9857 25.493 14.7953 25.5646 15.6083 25.6464C15.9645 25.6822 16.3445 25.6635 16.6479 25.8697C17.0177 26.1219 17.2751 26.49 17.1882 26.957C17.0978 27.4342 16.8251 27.8092 16.3121 27.9234C16.0957 27.9711 15.8741 27.9864 15.7821 28.0001Z" fill="url(#paint1_linear_12_28140)"/>
<path d="M16.2831 4.00303C21.3791 4.15131 25.858 7.51905 27.4056 12.3321C27.7328 13.3478 27.8896 14.3875 27.9867 15.4408C28.014 15.7305 28.0021 16.0219 27.9254 16.3066C27.7805 16.8485 27.2931 17.1809 26.7255 17.1246C26.1427 17.065 25.7864 16.7139 25.7421 16.1361C25.6058 14.3483 25.2854 12.615 24.3241 11.0538C23.0152 8.92683 21.1762 7.50031 18.7936 6.74188C17.8511 6.44192 16.8762 6.43169 15.9184 6.2783C15.2401 6.16923 14.7561 5.70395 14.7833 5.13129C14.8123 4.52114 15.3031 4.05757 15.9764 4.00303C16.0769 3.99621 16.1792 4.00303 16.2831 4.00303Z" fill="url(#paint2_linear_12_28140)"/>
<path d="M26.233 20.6509C26.8853 20.6509 27.4141 20.1221 27.4141 19.4698C27.4141 18.8175 26.8853 18.2887 26.233 18.2887C25.5807 18.2887 25.0519 18.8175 25.0519 19.4698C25.0519 20.1221 25.5807 20.6509 26.233 20.6509Z" fill="url(#paint3_linear_12_28140)"/>
<path d="M5.76912 13.7348C6.4186 13.7348 6.94511 13.2083 6.94511 12.5588C6.94511 11.9093 6.4186 11.3828 5.76912 11.3828C5.11965 11.3828 4.59314 11.9093 4.59314 12.5588C4.59314 13.2083 5.11965 13.7348 5.76912 13.7348Z" fill="url(#paint4_linear_12_28140)"/>
<defs>
<linearGradient id="paint0_linear_12_28140" x1="8.65454" y1="15.999" x2="23.3758" y2="15.999" gradientUnits="userSpaceOnUse">
<stop stop-color="#1568B3"/>
<stop offset="1" stop-color="#15B088"/>
</linearGradient>
<linearGradient id="paint1_linear_12_28140" x1="4" y1="21.4305" x2="17.2051" y2="21.4305" gradientUnits="userSpaceOnUse">
<stop stop-color="#1568B3"/>
<stop offset="1" stop-color="#15B088"/>
</linearGradient>
<linearGradient id="paint2_linear_12_28140" x1="14.7822" y1="10.5654" x2="28" y2="10.5654" gradientUnits="userSpaceOnUse">
<stop stop-color="#1568B3"/>
<stop offset="1" stop-color="#15B088"/>
</linearGradient>
<linearGradient id="paint3_linear_12_28140" x1="19.1142" y1="19.4698" x2="21.4764" y2="19.4698" gradientUnits="userSpaceOnUse">
<stop stop-color="#1568B3"/>
<stop offset="0.04" stop-color="#1574AC"/>
<stop offset="0.13" stop-color="#158A9F"/>
<stop offset="0.23" stop-color="#159B95"/>
<stop offset="0.36" stop-color="#15A78D"/>
<stop offset="0.54" stop-color="#15AE89"/>
<stop offset="1" stop-color="#15B088"/>
</linearGradient>
<linearGradient id="paint4_linear_12_28140" x1="4.59314" y1="12.5588" x2="6.94511" y2="12.5588" gradientUnits="userSpaceOnUse">
<stop stop-color="#1568B3"/>
<stop offset="0.31" stop-color="#156BB1"/>
<stop offset="0.52" stop-color="#1574AC"/>
<stop offset="0.7" stop-color="#1583A3"/>
<stop offset="0.87" stop-color="#159896"/>
<stop offset="1" stop-color="#15B088"/>
</linearGradient>
</defs>
</svg>
