<svg width="32" height="32" viewBox="0 0 32 32" fill="none" xmlns="http://www.w3.org/2000/svg">
<path d="M31.5 16C31.5 24.5604 24.5604 31.5 16 31.5C7.43959 31.5 0.5 24.5604 0.5 16C0.5 7.43959 7.43959 0.5 16 0.5C24.5604 0.5 31.5 7.43959 31.5 16Z" fill="white" stroke="#CED3E6"/>
<path d="M28 16C28 22.6274 22.6274 28 16 28C9.37258 28 4 22.6274 4 16C4 9.37258 9.37258 4 16 4C22.6274 4 28 9.37258 28 16Z" fill="black" stroke="url(#paint0_linear_4223_29857)"/>
<path d="M18.4113 16.4824C18.3614 16.7139 18.2812 16.9378 18.1729 17.1483C18.0574 17.3563 17.9157 17.5486 17.7512 17.7204C17.5796 17.8851 17.3877 18.027 17.18 18.1427C16.9696 18.2509 16.7461 18.3313 16.515 18.3818C16.2806 18.4228 16.042 18.4345 15.8047 18.4166C15.5695 18.3891 15.3389 18.3311 15.1186 18.2441C14.8994 18.1511 14.6931 18.03 14.5049 17.8839C14.3238 17.7296 14.1632 17.5527 14.027 17.3574C13.8992 17.1579 13.7976 16.9427 13.7248 16.7172C13.6605 16.4878 13.6255 16.2513 13.6205 16.0131H15.2178C15.2254 16.0928 15.2396 16.1718 15.2601 16.2492C15.2874 16.3242 15.3212 16.3967 15.3614 16.4657C15.4111 16.5308 15.4662 16.5915 15.5262 16.6473C15.5911 16.6951 15.6604 16.7367 15.7332 16.7713C15.8079 16.7992 15.8855 16.8186 15.9644 16.8294C16.0448 16.8351 16.1257 16.8336 16.2058 16.8248C16.2822 16.8049 16.3565 16.778 16.428 16.7446C16.4977 16.6998 16.5636 16.6492 16.6249 16.5934C16.6807 16.5321 16.7312 16.4662 16.7761 16.3966C16.8095 16.3245 16.8363 16.2496 16.8561 16.1726C16.8671 16.0909 16.8712 16.0083 16.8683 15.9259C16.8565 15.8468 16.8368 15.7691 16.8093 15.694C16.7748 15.621 16.7334 15.5516 16.6857 15.4866C16.63 15.4265 16.5694 15.3713 16.5043 15.3216C16.4357 15.2808 16.3632 15.2468 16.2879 15.2201C16.2091 15.2006 16.1287 15.1885 16.0477 15.1839H9.81958V13.5901H16.0416C16.2794 13.5943 16.5156 13.6295 16.7443 13.6945C16.9695 13.7674 17.1844 13.8692 17.3836 13.9972C17.5787 14.1333 17.7554 14.2941 17.9095 14.4755C18.0564 14.6608 18.1788 14.8643 18.2738 15.0809C18.3604 15.3005 18.4183 15.5304 18.4461 15.7649C18.4645 16.0046 18.4528 16.2456 18.4113 16.4824Z" fill="url(#paint1_linear_4223_29857)"/>
<path d="M20.2249 16.8411C20.1404 17.2529 19.9984 17.6509 19.8032 18.0231C19.6015 18.3909 19.3509 18.7295 19.0581 19.0296C18.758 19.3223 18.42 19.5732 18.0531 19.7757C17.6811 19.9706 17.2839 20.1126 16.8728 20.198C16.4615 20.2753 16.0415 20.2962 15.6245 20.26C15.2095 20.215 14.8028 20.1131 14.4154 19.9573C14.03 19.7932 13.669 19.5768 13.3425 19.3141C13.022 19.0435 12.7394 18.731 12.5023 18.3849C12.2722 18.0336 12.0921 17.652 11.9671 17.251C11.8503 16.847 11.7888 16.4291 11.7843 16.0085H13.3454C13.3499 16.2743 13.389 16.5383 13.4618 16.794C13.5419 17.0461 13.6552 17.2863 13.7988 17.5084C13.9506 17.7268 14.1299 17.9247 14.3323 18.0971C14.5393 18.2625 14.7676 18.3994 15.0109 18.5042C15.2566 18.6022 15.5143 18.6668 15.7771 18.6964C16.0417 18.7174 16.3078 18.7042 16.569 18.6571C16.8279 18.6027 17.0781 18.5131 17.3126 18.3907C17.5444 18.2618 17.7583 18.1029 17.9488 17.9183C18.1333 17.7262 18.2924 17.511 18.422 17.2781C18.5429 17.0427 18.6324 16.7923 18.688 16.5334C18.7345 16.2718 18.7472 16.0053 18.7257 15.7404C18.6969 15.4771 18.6324 15.2189 18.5339 14.9731C18.4299 14.7305 18.2947 14.5025 18.1318 14.295C17.9597 14.0928 17.762 13.9137 17.5439 13.7624C17.3222 13.6186 17.0823 13.5052 16.8305 13.4252C16.5753 13.3525 16.3116 13.3135 16.0462 13.3092H9.81958V11.7377H16.0416C16.4606 11.7422 16.8771 11.8044 17.2793 11.9224C17.68 12.0478 18.0615 12.2281 18.4128 12.4581C18.7585 12.6956 19.0706 12.9786 19.3408 13.2995C19.6033 13.6266 19.8199 13.9882 19.9846 14.374C20.1394 14.7621 20.2411 15.1694 20.2869 15.5848C20.3235 16.0044 20.3026 16.4271 20.2249 16.8411Z" fill="url(#paint2_linear_4223_29857)"/>
<path d="M22.061 17.2058C21.9405 17.7991 21.7369 18.3723 21.4562 18.9085C21.1684 19.4389 20.8073 19.926 20.3835 20.3553C19.9541 20.7789 19.4678 21.1405 18.9387 21.4299C18.4033 21.7109 17.831 21.9147 17.2386 22.0353C16.6471 22.148 16.0427 22.177 15.4431 22.1215C14.842 22.059 14.2527 21.9112 13.693 21.6827C13.1368 21.4493 12.6164 21.1385 12.1469 20.7595C11.6848 20.3726 11.2779 19.9239 10.9379 19.4261C10.6058 18.9208 10.3469 18.371 10.1687 17.793C9.99758 17.2136 9.90853 16.6129 9.90418 16.0087H11.4957C11.5006 16.456 11.5667 16.9006 11.6921 17.3299C11.8252 17.7582 12.0175 18.1657 12.2634 18.5407C12.515 18.9101 12.816 19.2431 13.158 19.5305C13.5064 19.8105 13.8913 20.0415 14.3021 20.2172C14.7169 20.3843 15.1527 20.4933 15.5972 20.541C16.04 20.5788 16.4859 20.5565 16.9227 20.4744C17.361 20.3829 17.7843 20.2301 18.1801 20.0204C18.5718 19.8055 18.9323 19.5382 19.252 19.2258C19.5658 18.9071 19.8347 18.5471 20.0515 18.1558C20.2611 17.7595 20.4139 17.3355 20.5054 16.8965C20.5874 16.4571 20.6092 16.0086 20.5704 15.5632C20.5232 15.1181 20.4148 14.6817 20.2485 14.2662C20.0732 13.8548 19.8425 13.4693 19.5629 13.1205C19.2755 12.7779 18.943 12.4759 18.5745 12.223C17.8259 11.7238 16.9469 11.4569 16.0476 11.4556H9.81958V9.86243H16.0416C16.647 9.8662 17.2489 9.95538 17.8295 10.1273C18.4067 10.3062 18.9557 10.5661 19.4601 10.8992C19.9583 11.2384 20.4065 11.646 20.7916 12.1099C21.1713 12.5795 21.4832 13.1002 21.718 13.6567C21.946 14.2178 22.0936 14.8083 22.1563 15.4108C22.2084 16.0107 22.1763 16.6149 22.061 17.2058Z" fill="url(#paint3_linear_4223_29857)"/>
<defs>
<linearGradient id="paint0_linear_4223_29857" x1="25.8959" y1="10.7917" x2="6.10419" y2="21.7292" gradientUnits="userSpaceOnUse">
<stop stop-color="#ED3123"/>
<stop offset="1" stop-color="#F1931C"/>
</linearGradient>
<linearGradient id="paint1_linear_4223_29857" x1="9.81958" y1="13.7073" x2="13.7949" y2="20.7312" gradientUnits="userSpaceOnUse">
<stop stop-color="#ED2A24"/>
<stop offset="1" stop-color="#F3AE1B"/>
</linearGradient>
<linearGradient id="paint2_linear_4223_29857" x1="9.81958" y1="11.9447" x2="17.8575" y2="21.7076" gradientUnits="userSpaceOnUse">
<stop stop-color="#ED2A24"/>
<stop offset="1" stop-color="#F3AE1B"/>
</linearGradient>
<linearGradient id="paint3_linear_4223_29857" x1="9.81958" y1="10.1603" x2="21.6034" y2="21.8883" gradientUnits="userSpaceOnUse">
<stop stop-color="#ED2A24"/>
<stop offset="1" stop-color="#F3AE1B"/>
</linearGradient>
</defs>
</svg>
