<svg width="33" height="33" viewBox="0 0 33 33" fill="none" xmlns="http://www.w3.org/2000/svg">
<path d="M31.5732 16.8003C31.5732 25.3607 24.6337 32.3003 16.0732 32.3003C7.51283 32.3003 0.573242 25.3607 0.573242 16.8003C0.573242 8.23988 7.51283 1.30029 16.0732 1.30029C24.6337 1.30029 31.5732 8.23988 31.5732 16.8003Z" fill="white" stroke="#CED3E6"/>
<path d="M25.2734 14.4C25.2734 19.3836 21.4758 23.4803 16.6165 23.954C16.7279 22.5879 16.3042 21.2319 15.4349 20.1723C14.5655 19.1127 13.3185 18.4322 11.9569 18.2746V5.55516L11.9537 5.54758C13.1313 5.05276 14.396 4.79867 15.6734 4.8003C20.9754 4.8003 25.2734 9.0983 25.2734 14.4Z" fill="#DEDEDE"/>
<path d="M6.10779 24.1202C6.01524 23.3157 6.10925 22.5006 6.38255 21.7383C6.65584 20.976 7.10107 20.2869 7.6837 19.7244C9.40487 22.3013 12.3409 23.9999 15.6734 23.9999C15.9917 23.9999 16.3061 23.9846 16.6165 23.954C16.4161 26.4159 14.5007 28.4743 11.9532 28.7656C9.05649 29.097 6.43924 27.0169 6.10779 24.1202Z" fill="#1E4480"/>
<path d="M11.9569 5.55519V18.2746C13.3185 18.4323 14.5655 19.1127 15.4349 20.1723C16.3042 21.232 16.7279 22.5879 16.6165 23.954C16.3062 23.9843 15.9919 23.9997 15.6734 24C12.3409 24 9.40487 22.3013 7.6837 19.7245C8.51861 18.9152 9.59823 18.4055 10.7537 18.2751H10.7572V6.16327L10.7527 6.15569C11.138 5.92504 11.5392 5.72184 11.9532 5.54761L11.9569 5.55519Z" fill="#152E51"/>
<path d="M6.07368 14.4C6.07368 10.8968 7.95022 7.83159 10.7527 6.15564L10.7572 6.16322V18.2741H10.7537C9.59811 18.4047 8.51846 18.9148 7.6837 19.7244C6.63084 18.1486 6.07042 16.2952 6.07368 14.4Z" fill="#DEDEDE"/>
</svg>
