<svg width="32" height="32" viewBox="0 0 32 32" fill="none" xmlns="http://www.w3.org/2000/svg">
<path d="M31.5 16C31.5 24.5604 24.5604 31.5 16 31.5C7.43959 31.5 0.5 24.5604 0.5 16C0.5 7.43959 7.43959 0.5 16 0.5C24.5604 0.5 31.5 7.43959 31.5 16Z" fill="white" stroke="#CED3E6"/>
<rect x="4" y="4" width="24" height="24" rx="12" fill="#090808"/>
<path fill-rule="evenodd" clip-rule="evenodd" d="M20.8895 9.16194C19.6575 9.13121 18.4305 9.18468 17.2095 9.32195C17.3316 9.199 17.4916 9.119 17.6895 9.08194C18.785 8.95057 19.8516 8.9771 20.8895 9.16194Z" fill="#63013F"/>
<path fill-rule="evenodd" clip-rule="evenodd" d="M20.8895 9.16198C20.8895 10.0155 20.8895 10.8685 20.8895 11.722C20.0053 11.6706 19.1518 11.7241 18.3295 11.882C18.1695 11.9885 18.0095 12.0955 17.8495 12.202C17.796 12.202 17.7429 12.202 17.6895 12.202C16.7985 11.9931 15.892 11.9931 14.9695 12.202C15.1733 10.8243 15.9198 9.8643 17.2095 9.32198C18.4305 9.18472 19.6575 9.13124 20.8895 9.16198Z" fill="#FB1492"/>
<path fill-rule="evenodd" clip-rule="evenodd" d="M20.8894 9.16211C21.0472 9.98443 21.1007 10.8379 21.0494 11.7221C21.9336 11.6707 22.787 11.7242 23.6093 11.8821C22.7559 11.8821 21.9028 11.8821 21.0494 11.8821C21.0494 12.4686 21.0494 13.0556 21.0494 13.6421C21.0923 13.8981 21.0388 14.1112 20.8894 14.2821C20.8894 13.4821 20.8894 12.6821 20.8894 11.8821C20.0359 11.8821 19.1828 11.8821 18.3293 11.8821C19.1517 11.7242 20.0051 11.6707 20.8894 11.7221C20.8894 10.8686 20.8894 10.0156 20.8894 9.16211Z" fill="#90134B"/>
<path fill-rule="evenodd" clip-rule="evenodd" d="M18.3294 11.8821C19.1828 11.8821 20.0359 11.8821 20.8894 11.8821C20.8894 12.6821 20.8894 13.4821 20.8894 14.2821C20.8052 14.5591 20.6452 14.7722 20.4094 14.9221C19.5559 14.9221 18.7028 14.9221 17.8494 14.9221C17.8494 14.0156 17.8494 13.1086 17.8494 12.2021C18.0094 12.0955 18.1694 11.9886 18.3294 11.8821Z" fill="black"/>
<path fill-rule="evenodd" clip-rule="evenodd" d="M23.6093 11.8821C23.6093 12.4686 23.6093 13.0556 23.6093 13.6421C22.7558 13.6421 21.9028 13.6421 21.0493 13.6421C21.0493 13.0556 21.0493 12.4686 21.0493 11.8821C21.9028 11.8821 22.7558 11.8821 23.6093 11.8821Z" fill="#FE317A"/>
<path fill-rule="evenodd" clip-rule="evenodd" d="M17.6895 12.202C17.6895 12.3086 17.6895 12.4155 17.6895 12.522C17.5345 12.8593 17.481 13.2324 17.5295 13.642C16.6613 13.597 15.8078 13.65 14.9695 13.802C14.9695 13.2686 14.9695 12.7355 14.9695 12.202C15.892 11.9932 16.7985 11.9932 17.6895 12.202Z" fill="#FD3278"/>
<path fill-rule="evenodd" clip-rule="evenodd" d="M17.6895 12.522C17.6895 13.3754 17.6895 14.2285 17.6895 15.082C17.636 15.082 17.5829 15.082 17.5295 15.082C16.7295 15.082 15.9295 15.082 15.1295 15.082C15.076 15.082 15.023 15.082 14.9695 15.082C14.9695 14.6554 14.9695 14.2285 14.9695 13.802C15.8078 13.65 16.6613 13.5969 17.5295 13.642C17.481 13.2323 17.5345 12.8592 17.6895 12.522Z" fill="#F73F68"/>
<path fill-rule="evenodd" clip-rule="evenodd" d="M17.6895 12.2021C17.7429 12.2021 17.796 12.2021 17.8495 12.2021C17.8495 13.1087 17.8495 14.0156 17.8495 14.9222C18.7029 14.9222 19.556 14.9222 20.4095 14.9222C19.5333 15.0805 18.6267 15.1335 17.6895 15.0821C17.6895 14.2287 17.6895 13.3756 17.6895 12.5222C17.6895 12.4156 17.6895 12.3087 17.6895 12.2021Z" fill="#460F19"/>
<path fill-rule="evenodd" clip-rule="evenodd" d="M21.0495 13.6421C21.9029 13.6421 22.756 13.6421 23.6095 13.6421C23.636 14.1781 23.609 14.7116 23.5295 15.2421C23.4975 15.533 23.364 15.7465 23.1295 15.8821C22.1956 15.7549 21.2356 15.648 20.2495 15.5621C19.7846 15.7267 19.3312 15.7267 18.8895 15.5621C18.4907 15.6775 18.0907 15.784 17.6895 15.8821C17.6895 15.6156 17.6895 15.3486 17.6895 15.0821C18.6267 15.1335 19.5333 15.0804 20.4095 14.9221C20.6453 14.7722 20.8053 14.5591 20.8895 14.2821C21.0389 14.1111 21.0924 13.8981 21.0495 13.6421Z" fill="#FB4961"/>
<path fill-rule="evenodd" clip-rule="evenodd" d="M14.9694 15.082C14.9694 15.402 14.9694 15.722 14.9694 16.042C13.6123 16.218 12.3054 16.218 11.0494 16.042C10.6595 16.1788 10.2595 16.2853 9.84937 16.362C10.2283 15.7708 10.7618 15.3708 11.4494 15.162C12.6216 15.082 13.7946 15.0554 14.9694 15.082Z" fill="#FA5159"/>
<path fill-rule="evenodd" clip-rule="evenodd" d="M23.1295 15.882C22.9787 16.2993 22.7118 16.6197 22.3295 16.842C20.7985 16.6315 19.252 16.6315 17.6895 16.842C17.6895 16.522 17.6895 16.202 17.6895 15.882C18.0907 15.7839 18.4907 15.6774 18.8895 15.562C19.3312 15.7266 19.7846 15.7266 20.2495 15.562C21.2356 15.6479 22.1956 15.7549 23.1295 15.882Z" fill="#FD5855"/>
<path fill-rule="evenodd" clip-rule="evenodd" d="M14.9695 16.042C14.9695 16.6285 14.9695 17.2155 14.9695 17.802C14.0613 17.7755 13.1548 17.802 12.2495 17.882C12.1623 17.997 12.0558 18.0769 11.9295 18.122C11.092 17.81 10.1851 17.7035 9.20951 17.802C9.25793 18.2117 9.20445 18.5847 9.0495 18.922C8.87982 17.9073 9.14633 17.0538 9.84949 16.362C10.2596 16.2854 10.6596 16.1788 11.0495 16.042C12.3055 16.218 13.6124 16.218 14.9695 16.042Z" fill="#F9604B"/>
<path fill-rule="evenodd" clip-rule="evenodd" d="M22.3295 16.842C22.049 17.1178 21.7291 17.3578 21.3695 17.562C20.1526 17.7717 18.9261 17.8517 17.6895 17.802C17.6895 17.482 17.6895 17.162 17.6895 16.842C19.252 16.6315 20.7985 16.6315 22.3295 16.842Z" fill="#F36046"/>
<path fill-rule="evenodd" clip-rule="evenodd" d="M14.9695 15.082C15.023 15.082 15.076 15.082 15.1295 15.082C15.1295 15.9355 15.1295 16.7886 15.1295 17.642C15.9295 17.642 16.7295 17.642 17.5295 17.642C17.5295 16.7886 17.5295 15.9355 17.5295 15.082C17.5829 15.082 17.636 15.082 17.6895 15.082C17.6895 15.3486 17.6895 15.6155 17.6895 15.882C17.6895 16.202 17.6895 16.522 17.6895 16.842C17.6895 17.162 17.6895 17.482 17.6895 17.802C16.7829 17.802 15.876 17.802 14.9695 17.802C14.9695 17.2155 14.9695 16.6286 14.9695 16.042C14.9695 15.722 14.9695 15.402 14.9695 15.082Z" fill="#582017"/>
<path fill-rule="evenodd" clip-rule="evenodd" d="M15.1294 15.082C15.9294 15.082 16.7294 15.082 17.5294 15.082C17.5294 15.9355 17.5294 16.7886 17.5294 17.642C16.7294 17.642 15.9294 17.642 15.1294 17.642C15.1294 16.7886 15.1294 15.9355 15.1294 15.082Z" fill="black"/>
<path fill-rule="evenodd" clip-rule="evenodd" d="M14.9694 17.8022C14.9694 18.4422 14.9694 19.0822 14.9694 19.7222C15.0229 20.2009 14.8629 20.574 14.4894 20.8422C13.5829 20.8422 12.6759 20.8422 11.7694 20.8422C11.7694 20.0422 11.7694 19.2422 11.7694 18.4422C11.742 18.2834 11.7955 18.1769 11.9294 18.1222C12.0557 18.0771 12.1623 17.9971 12.2494 17.8822C13.1547 17.8022 14.0612 17.7757 14.9694 17.8022Z" fill="#030100"/>
<path fill-rule="evenodd" clip-rule="evenodd" d="M11.9293 18.1221C11.7954 18.1768 11.7419 18.2834 11.7693 18.4421C11.6144 18.7794 11.5609 19.1524 11.6093 19.5621C10.9247 19.533 10.2312 19.48 9.5293 19.4021C9.36635 19.5128 9.20637 19.6198 9.04932 19.7221C9.04932 19.4556 9.04932 19.1886 9.04932 18.9221C9.20426 18.5848 9.25774 18.2118 9.20932 17.8021C10.1849 17.7036 11.0918 17.8101 11.9293 18.1221Z" fill="#FD7838"/>
<path fill-rule="evenodd" clip-rule="evenodd" d="M14.9695 17.802C15.876 17.802 16.7829 17.802 17.6895 17.802C17.7413 18.9519 17.6882 20.0719 17.5295 21.162C17.5808 20.6184 17.5274 20.0849 17.3695 19.562C16.6806 19.4302 16.0137 19.3767 15.3695 19.402C15.2562 19.543 15.1227 19.6496 14.9695 19.722C14.9695 19.082 14.9695 18.442 14.9695 17.802Z" fill="#FA7737"/>
<path fill-rule="evenodd" clip-rule="evenodd" d="M11.6093 19.5621C11.6093 20.0421 11.6093 20.5221 11.6093 21.0021C10.7558 21.0021 9.90279 21.0021 9.04932 21.0021C9.04932 20.5756 9.04932 20.1486 9.04932 19.7221C9.20637 19.6198 9.36635 19.5128 9.5293 19.4021C10.2312 19.48 10.9247 19.533 11.6093 19.5621Z" fill="#FC8928"/>
<path fill-rule="evenodd" clip-rule="evenodd" d="M17.5295 21.1621C17.4895 21.5099 17.3295 21.7768 17.0495 21.9621C17.0319 21.8635 16.9784 21.7836 16.8895 21.7221C16.5695 21.6956 16.2495 21.6686 15.9295 21.6421C14.5358 21.6492 13.1493 21.6492 11.7695 21.6421C11.7695 21.4286 11.7695 21.2155 11.7695 21.0021C12.7068 21.0534 13.6133 21.0004 14.4895 20.8421C14.863 20.5739 15.023 20.2008 14.9695 19.7221C15.1228 19.6497 15.2563 19.5431 15.3696 19.4021C16.0138 19.3768 16.6807 19.4303 17.3696 19.5621C17.5274 20.085 17.5809 20.6185 17.5295 21.1621Z" fill="#FB921F"/>
<path fill-rule="evenodd" clip-rule="evenodd" d="M11.7695 18.4421C11.7695 19.2421 11.7695 20.0421 11.7695 20.8421C12.676 20.8421 13.583 20.8421 14.4895 20.8421C13.6133 21.0005 12.7068 21.0535 11.7695 21.0021C11.7695 21.2156 11.7695 21.4287 11.7695 21.6421C11.7695 22.3356 11.7695 23.0287 11.7695 23.7221C11.6112 22.8464 11.5581 21.9394 11.6095 21.0021C11.6095 20.5221 11.6095 20.0421 11.6095 19.5621C11.5611 19.1525 11.6146 18.7794 11.7695 18.4421Z" fill="#7B480D"/>
<path fill-rule="evenodd" clip-rule="evenodd" d="M11.7695 21.6421C13.1493 21.6492 14.5358 21.6492 15.9295 21.6421C16.2495 21.6686 16.5695 21.6956 16.8895 21.7221C16.9784 21.7836 17.0319 21.8636 17.0495 21.9621C16.5881 22.9806 15.7881 23.5406 14.6495 23.6421C13.6912 23.7221 12.7308 23.7486 11.7695 23.7221C11.7695 23.0286 11.7695 22.3356 11.7695 21.6421Z" fill="#FBA60E"/>
</svg>
