<svg width="32" height="32" viewBox="0 0 32 32" fill="none" xmlns="http://www.w3.org/2000/svg">
<path d="M31.5 16C31.5 24.5604 24.5604 31.5 16 31.5C7.43959 31.5 0.5 24.5604 0.5 16C0.5 7.43959 7.43959 0.5 16 0.5C24.5604 0.5 31.5 7.43959 31.5 16Z" fill="white" stroke="#CED3E6"/>
<path d="M16.0012 4V16.8452L26.0005 21.6965L16.0012 4Z" fill="#90DC85"/>
<path d="M21.8052 14.26L16.0012 16.8452L26.0005 21.6965L21.8052 14.26Z" fill="#8AD880"/>
<path d="M16.0006 4L6 21.6965L16.0006 16.8452V4Z" fill="#74BA6A"/>
<path d="M10.3104 14.04L6 21.6965L16.0006 16.8452L10.3104 14.04Z" fill="white"/>
<path d="M10.3104 14.04L6 21.6965L16.0006 16.8452L10.3104 14.04Z" fill="#69A65F"/>
<path d="M16.0012 27.9999L26.0005 21.6961L16.0012 16.8477V27.9999Z" fill="#63A561"/>
<path d="M6 21.6961L16.0006 27.9999V16.8477L6 21.6961Z" fill="#599151"/>
</svg>
