<svg width="32" height="32" viewBox="0 0 32 32" fill="none" xmlns="http://www.w3.org/2000/svg">
<path d="M31.5 16C31.5 24.5604 24.5604 31.5 16 31.5C7.43959 31.5 0.5 24.5604 0.5 16C0.5 7.43959 7.43959 0.5 16 0.5C24.5604 0.5 31.5 7.43959 31.5 16Z" fill="white" stroke="#CED3E6"/>
<g clip-path="url(#clip0_4227_39058)">
<path d="M4 16C4 22.6274 9.37258 28 16 28C22.6274 28 28 22.6274 28 16C28 9.37258 22.6274 4 16 4C9.37258 4 4 9.37258 4 16Z" fill="black"/>
<path d="M17.2626 14.7372V8.84399H13.8951C12.7787 8.84399 11.7081 9.28747 10.9187 10.0769C10.1293 10.8663 9.68579 11.9369 9.68579 13.0533C9.68579 14.1697 10.1293 15.2403 10.9187 16.0297C11.7081 16.8191 12.7787 17.2626 13.8951 17.2626H14.7372V14.7372H17.2626Z" fill="white"/>
<path d="M18.1048 14.7373H17.2627V17.2627H14.7373V23.1559H18.1048C19.2212 23.1559 20.2918 22.7124 21.0812 21.923C21.8706 21.1336 22.3141 20.063 22.3141 18.9466C22.3141 17.8302 21.8706 16.7596 21.0812 15.9702C20.2918 15.1808 19.2212 14.7373 18.1048 14.7373Z" fill="white"/>
</g>
<defs>
<clipPath id="clip0_4227_39058">
<rect width="24" height="24" fill="white" transform="translate(4 4)"/>
</clipPath>
</defs>
</svg>
