<svg width="32" height="32" viewBox="0 0 32 32" fill="none" xmlns="http://www.w3.org/2000/svg">
<circle cx="16" cy="16" r="15.5" fill="white" stroke="#CED3E6"/>
<g clip-path="url(#clip0_239_38047)">
<path d="M17.1471 13.2639C16.7178 13.57 16.1924 13.75 15.625 13.75C14.1753 13.75 13 12.5747 13 11.125C13 9.67525 14.1753 8.5 15.625 8.5C16.5647 8.5 17.3891 8.99381 17.8529 9.73611M11.5 22.0654H13.4577C13.713 22.0654 13.9667 22.0957 14.2141 22.1565L16.2827 22.6592C16.7315 22.7685 17.1991 22.7791 17.6526 22.6911L19.9397 22.2461C20.5439 22.1284 21.0997 21.8391 21.5353 21.4154L23.1534 19.8413C23.6155 19.3925 23.6155 18.6643 23.1534 18.2148C22.7374 17.8101 22.0785 17.7645 21.6078 18.1077L19.7219 19.4836C19.4519 19.6811 19.1232 19.7874 18.7852 19.7874H16.9641L18.1233 19.7873C18.7767 19.7873 19.3059 19.2725 19.3059 18.6369V18.4069C19.3059 17.8791 18.9367 17.419 18.4106 17.2914L16.6214 16.8563C16.3303 16.7857 16.0321 16.75 15.7324 16.75C15.0087 16.75 13.6989 17.3491 13.6989 17.3491L11.5 18.2687M22 11.875C22 13.3247 20.8247 14.5 19.375 14.5C17.9253 14.5 16.75 13.3247 16.75 11.875C16.75 10.4253 17.9253 9.25 19.375 9.25C20.8247 9.25 22 10.4253 22 11.875ZM8.5 17.95L8.5 22.3C8.5 22.72 8.5 22.9301 8.58175 23.0905C8.65365 23.2316 8.76839 23.3463 8.90951 23.4183C9.06994 23.5 9.27996 23.5 9.7 23.5H10.3C10.72 23.5 10.9301 23.5 11.0905 23.4183C11.2316 23.3463 11.3463 23.2316 11.4183 23.0905C11.5 22.9301 11.5 22.72 11.5 22.3V17.95C11.5 17.53 11.5 17.3199 11.4183 17.1595C11.3463 17.0184 11.2316 16.9037 11.0905 16.8317C10.9301 16.75 10.72 16.75 10.3 16.75L9.7 16.75C9.27996 16.75 9.06994 16.75 8.90951 16.8317C8.76839 16.9037 8.65365 17.0184 8.58175 17.1595C8.5 17.3199 8.5 17.53 8.5 17.95Z" stroke="#1B232F" stroke-width="1.5" stroke-linecap="round" stroke-linejoin="round"/>
</g>
<defs>
<clipPath id="clip0_239_38047">
<rect width="18" height="18" fill="white" transform="translate(7 7)"/>
</clipPath>
</defs>
</svg>
