<svg width="32" height="32" viewBox="0 0 32 32" fill="none" xmlns="http://www.w3.org/2000/svg">
<path d="M31.5 16C31.5 24.5604 24.5604 31.5 16 31.5C7.43959 31.5 0.5 24.5604 0.5 16C0.5 7.43959 7.43959 0.5 16 0.5C24.5604 0.5 31.5 7.43959 31.5 16Z" fill="white" stroke="#CED3E6"/>
<g clip-path="url(#clip0_4232_39534)">
<path d="M28 16C28 22.6274 22.6274 28 16 28C9.37263 28 4 22.6274 4 16C4 9.37263 9.37263 4 16 4C22.6274 4 28 9.37263 28 16Z" fill="white"/>
<path fill-rule="evenodd" clip-rule="evenodd" d="M27.4856 15.9941C27.4856 22.3078 22.3437 27.4261 16.0005 27.4261C9.65776 27.4261 4.51587 22.3078 4.51587 15.9941C4.51587 9.68081 9.65776 4.5625 16.0005 4.5625C22.3437 4.5625 27.4856 9.68081 27.4856 15.9941ZM15.47 5.52124C15.0902 5.69345 14.8022 6.21303 14.2266 7.25218L13.9327 7.78355C13.6552 8.28461 13.5163 8.53513 13.3125 8.69345C13.1331 8.83282 12.9188 8.92124 12.6923 8.94903C12.4363 8.98061 12.1601 8.90103 11.6077 8.74187L11.0224 8.57345C9.87713 8.24334 9.3045 8.07871 8.91334 8.22439C8.57271 8.35155 8.30366 8.61934 8.17608 8.95829C8.02955 9.34776 8.19545 9.91745 8.52682 11.0577L8.69608 11.64C8.85566 12.1899 8.93566 12.4648 8.90408 12.72C8.87587 12.9448 8.78702 13.1583 8.64723 13.3372C8.48807 13.5398 8.23629 13.6779 7.73313 13.9541L7.19923 14.2471C6.15502 14.8198 5.63291 15.1065 5.46028 15.4846C5.30955 15.8143 5.30955 16.1928 5.46028 16.5225C5.63291 16.901 6.15502 17.1873 7.19923 17.7604L7.73313 18.053C8.23629 18.3292 8.48807 18.4673 8.64723 18.6703C8.78702 18.8492 8.87587 19.0623 8.90408 19.2876C8.93566 19.5427 8.85566 19.8177 8.69608 20.3671L8.52682 20.9499C8.19545 22.0897 8.02955 22.6598 8.17608 23.0488C8.30366 23.3882 8.57271 23.656 8.91334 23.7827C9.3045 23.9288 9.87713 23.7638 11.0224 23.4341L11.6077 23.2657C12.1601 23.1065 12.4363 23.0269 12.6923 23.0585C12.9188 23.0863 13.1331 23.1747 13.3125 23.3141C13.5163 23.4724 13.6552 23.7229 13.9327 24.224L14.2266 24.7549C14.8022 25.7945 15.0902 26.3141 15.47 26.4863C15.8013 26.6362 16.1815 26.6362 16.5129 26.4863C16.8931 26.3141 17.1807 25.7945 17.7563 24.7549L18.0506 24.224C18.3281 23.7229 18.4666 23.4724 18.6704 23.3141C18.8502 23.1747 19.0645 23.0863 19.2906 23.0585C19.547 23.0269 19.8232 23.1065 20.3752 23.2657L20.9605 23.4341C22.1058 23.7638 22.6784 23.9288 23.0696 23.7827C23.4102 23.656 23.6792 23.3882 23.8068 23.0488C23.9533 22.6598 23.7879 22.0897 23.4565 20.9499L23.2872 20.3671C23.1272 19.8177 23.0477 19.5427 23.0792 19.2876C23.107 19.0623 23.1959 18.8492 23.3361 18.6703C23.4948 18.4673 23.7466 18.3292 24.2502 18.053L24.7837 17.7604C25.8279 17.1873 26.35 16.901 26.5226 16.5225C26.6733 16.1928 26.6733 15.8143 26.5226 15.4846C26.35 15.1065 25.8279 14.8198 24.7837 14.2471L24.2502 13.9541C23.7466 13.6779 23.4948 13.5398 23.3361 13.3372C23.1959 13.1583 23.107 12.9448 23.0792 12.72C23.0477 12.4648 23.1272 12.1899 23.2872 11.64L23.4565 11.0577C23.7879 9.91745 23.9533 9.34776 23.8068 8.95829C23.6792 8.61934 23.4102 8.35155 23.0696 8.22439C22.6784 8.07871 22.1058 8.24334 20.9605 8.57345L20.3752 8.74187C19.8232 8.90103 19.547 8.98061 19.2906 8.94903C19.0645 8.92124 18.8502 8.83282 18.6704 8.69345C18.4666 8.53513 18.3281 8.28461 18.0506 7.78355L17.7563 7.25218C17.7205 7.18734 17.6856 7.12419 17.6519 7.06355C17.1445 6.14945 16.8691 5.6825 16.5129 5.52124C16.1815 5.37134 15.8013 5.37134 15.47 5.52124Z" fill="black"/>
<path fill-rule="evenodd" clip-rule="evenodd" d="M16.0186 6.76474C16.1698 6.98706 16.3534 7.31632 16.6531 7.85738L16.9639 8.41864C17.0885 8.64306 17.2119 8.86664 17.3327 9.05106C17.467 9.25653 17.6414 9.48432 17.8957 9.6818C18.2553 9.96096 18.6839 10.1378 19.1361 10.1934C19.4561 10.2325 19.7416 10.1942 19.9828 10.1437C20.1988 10.0982 20.4447 10.0271 20.6923 9.9559L21.3108 9.7778C21.9075 9.60601 22.2713 9.50243 22.5361 9.4519C22.5529 9.44853 22.5681 9.44559 22.5828 9.44306C22.5803 9.45738 22.5774 9.47296 22.574 9.4898C22.523 9.75338 22.419 10.1155 22.2464 10.7096L22.0679 11.3247L22.0544 11.3711C21.987 11.6018 21.9218 11.8296 21.8793 12.0313C21.8283 12.2713 21.7896 12.5551 21.8291 12.8738C21.8851 13.3239 22.0624 13.7509 22.3428 14.1083C22.5411 14.3614 22.7702 14.5353 22.9769 14.6692C23.1618 14.7892 23.3862 14.9121 23.6119 15.0359L24.1757 15.345C24.7197 15.6435 25.0502 15.8266 25.2738 15.977C25.2877 15.9866 25.3007 15.9955 25.3129 16.0039C25.31 16.0056 25.3075 16.0077 25.3049 16.0094C25.2999 16.0127 25.2952 16.0161 25.2902 16.0195L25.2856 16.0224L25.2822 16.025L25.278 16.0279L25.2738 16.0304C25.0502 16.1812 24.7197 16.3639 24.1757 16.6624L23.6119 16.9719C23.3862 17.0957 23.1618 17.2186 22.9769 17.3386C22.7702 17.4725 22.5411 17.646 22.3428 17.8995C22.0624 18.257 21.8851 18.6835 21.8291 19.134C21.7896 19.4523 21.8283 19.7365 21.8793 19.9765C21.9247 20.1917 21.9959 20.4367 22.0679 20.6831L22.2464 21.2982C22.419 21.8923 22.523 22.2544 22.574 22.518C22.5774 22.5344 22.5803 22.55 22.5828 22.5643C22.5681 22.5618 22.5529 22.5593 22.5361 22.5559C22.2713 22.505 21.9075 22.4018 21.3108 22.23L20.6923 22.0519C20.4447 21.9807 20.1988 21.9096 19.9828 21.8641C19.7416 21.8132 19.4561 21.7753 19.1361 21.8144C18.6839 21.87 18.2553 22.0469 17.8957 22.326C17.6414 22.5235 17.467 22.7509 17.3327 22.9567C17.2123 23.1412 17.0885 23.3643 16.9639 23.5892L16.6531 24.15C16.3534 24.6915 16.1698 25.0207 16.0186 25.2431C16.0089 25.257 16.0001 25.27 15.9917 25.2818C15.9875 25.2759 15.9828 25.2696 15.9786 25.2633C15.974 25.257 15.9693 25.2502 15.9647 25.2431C15.8131 25.0207 15.6296 24.6915 15.3298 24.15L15.019 23.5892C14.8948 23.3643 14.771 23.1412 14.6506 22.9567C14.5159 22.7509 14.3416 22.5235 14.0872 22.326C13.7281 22.0469 13.2995 21.87 12.8468 21.8144C12.5268 21.7753 12.2418 21.8132 12.0005 21.8641C11.7845 21.9096 11.5382 21.9803 11.2906 22.0519L10.6725 22.23C10.0759 22.4018 9.7121 22.505 9.44725 22.5559C9.43041 22.5593 9.41482 22.5618 9.40051 22.5643C9.40303 22.55 9.40557 22.5344 9.40894 22.518C9.45988 22.2544 9.56388 21.8923 9.73651 21.2982L9.91546 20.6831C9.98704 20.4367 10.0582 20.1917 10.1041 19.9765C10.155 19.7365 10.1933 19.4523 10.1538 19.134C10.0982 18.6835 9.92051 18.257 9.64009 17.8995C9.44177 17.646 9.21273 17.4725 9.00641 17.3386C8.82115 17.2186 8.59673 17.0957 8.37104 16.9719L7.80724 16.6624C7.26367 16.3639 6.93272 16.1812 6.70914 16.0304C6.69524 16.0212 6.6822 16.0123 6.67041 16.0039C6.6822 15.9955 6.69524 15.9866 6.70914 15.977C6.93272 15.8266 7.26367 15.6435 7.80724 15.345L8.37104 15.0359C8.59673 14.9121 8.82115 14.7892 9.00641 14.6692C9.21273 14.5353 9.44177 14.3614 9.64009 14.1083C9.92051 13.7509 10.0982 13.3239 10.1538 12.8738C10.1933 12.5551 10.155 12.2713 10.1041 12.0313C10.0582 11.8161 9.98704 11.5711 9.91546 11.3247L9.90577 11.2919L9.73651 10.7096C9.56388 10.1155 9.45988 9.75338 9.40894 9.4898C9.40557 9.47296 9.40303 9.45738 9.40051 9.44306C9.41482 9.44559 9.43041 9.44853 9.44725 9.4519C9.7121 9.50243 10.0759 9.60601 10.6725 9.7778L11.2578 9.94622L11.2906 9.9559C11.5382 10.0271 11.7845 10.0982 12.0005 10.1437C12.2418 10.1942 12.5268 10.2325 12.8468 10.1934C13.2995 10.1378 13.7281 9.96096 14.0872 9.6818C14.3416 9.48432 14.5159 9.25653 14.6506 9.05106C14.771 8.86664 14.8948 8.64306 15.019 8.41864L15.3298 7.85738C15.6296 7.31632 15.8131 6.98706 15.9647 6.76474C15.974 6.75043 15.9833 6.7378 15.9917 6.72559C16.0001 6.7378 16.0089 6.75043 16.0186 6.76474ZM12.9816 10.7938C11.1256 11.8603 9.98199 13.8317 9.98199 15.9652C9.98199 18.0982 11.1256 20.0696 12.9816 21.1361C14.8376 22.2031 17.1243 22.2031 18.9807 21.1361C20.8367 20.0696 21.9803 18.0982 21.9803 15.9652C21.9803 13.8317 20.8367 11.8603 18.9807 10.7938C17.1243 9.72685 14.8376 9.72685 12.9816 10.7938Z" fill="black"/>
<path d="M17.642 15.1351C17.8113 15.0947 17.9961 15.0728 18.1856 15.0728C18.3751 15.0728 18.5603 15.0947 18.7292 15.1351C18.8989 15.1759 19.0425 15.2332 19.1545 15.298C19.2909 15.3768 19.4761 15.4058 19.6046 15.3145L19.7566 15.2067C19.9688 15.0564 20.0184 14.7574 19.8092 14.6025C19.7519 14.5604 19.6917 14.5212 19.6294 14.485C19.4264 14.3679 19.1953 14.2799 18.9507 14.221C18.7052 14.1625 18.4458 14.1326 18.1856 14.1326C17.9258 14.1326 17.666 14.1625 17.421 14.221C17.1759 14.2799 16.9448 14.3679 16.7418 14.485C16.5401 14.602 16.3612 14.7511 16.2302 14.9342C16.1721 15.0155 16.1523 15.0985 16.1486 15.1161L16.1481 15.1178C16.1405 15.1498 16.1359 15.1801 16.1326 15.2033C16.1267 15.2505 16.1224 15.3044 16.1195 15.3591C16.1132 15.4703 16.1094 15.6155 16.1073 15.7797C16.1035 16.1094 16.106 16.5359 16.1111 16.9591C16.1166 17.3831 16.1246 17.8071 16.1309 18.1321C16.1334 18.2639 16.1359 18.3797 16.138 18.4728L16.1393 18.5343C16.1401 18.5848 16.141 18.626 16.1418 18.6564L16.1422 18.6766V18.6841V18.6926C16.1422 18.6951 16.1427 18.6972 16.1427 18.6993V18.7023V18.7052L16.8323 18.7056C16.973 18.7056 17.0854 18.5919 17.0825 18.4521V18.4517C17.0753 18.122 17.0631 17.5254 17.0559 16.9477C17.0504 16.5263 17.0479 16.109 17.0517 15.7911C17.0525 15.7212 17.0538 15.6568 17.0555 15.5991C17.0584 15.4774 17.1107 15.3591 17.2168 15.298C17.3288 15.2332 17.4723 15.1759 17.642 15.1351Z" fill="black"/>
<path d="M13.1671 15.2543C13.328 15.216 13.5048 15.1953 13.6863 15.1953C13.8678 15.1953 14.0446 15.216 14.2054 15.2543C14.4353 15.3086 14.6993 15.2391 14.8172 15.0353L14.8391 14.997C14.9692 14.7718 14.8909 14.4812 14.6429 14.4008C14.5718 14.3777 14.4989 14.357 14.4244 14.3393C14.1882 14.2833 13.9376 14.2551 13.6863 14.2551C13.4349 14.2551 13.1844 14.2833 12.9482 14.3393C12.7124 14.3953 12.4909 14.4787 12.2976 14.5894C12.248 14.6176 12.2 14.648 12.1541 14.6804C11.941 14.8299 11.9878 15.1292 12.1995 15.2808L12.3865 15.4151C12.4951 15.4926 12.653 15.4707 12.7684 15.4046C12.8711 15.3457 13.0054 15.2926 13.1671 15.2543Z" fill="black"/>
</g>
<defs>
<clipPath id="clip0_4232_39534">
<rect width="24" height="24" fill="white" transform="translate(4 4)"/>
</clipPath>
</defs>
</svg>
