<svg width="181" height="181" viewBox="0 0 181 181" fill="none" xmlns="http://www.w3.org/2000/svg">
<path d="M177.512 90.1649C177.512 138.405 138.405 177.512 90.1649 177.512C41.9243 177.512 2.81765 138.405 2.81765 90.1649C2.81765 41.9243 41.9243 2.81765 90.1649 2.81765C138.405 2.81765 177.512 41.9243 177.512 90.1649Z" fill="white" stroke="#CED3E6" stroke-width="5.6353"/>
<g clip-path="url(#clip0_634_76799)">
<path d="M89.8583 158.717C127.336 158.717 157.717 128.336 157.717 90.8583C157.717 53.3812 127.336 23 89.8583 23C52.3812 23 22 53.3812 22 90.8583C22 128.336 52.3812 158.717 89.8583 158.717Z" fill="#1D2229"/>
<path d="M78.2533 84.4948H66.8906V95.8576H78.2533V84.4948Z" fill="white"/>
<path d="M66.8901 73.132H55.5273V84.4948L66.8902 84.4948L66.8901 73.132Z" fill="white"/>
<path d="M55.5258 84.4948H44.1631V95.8576H55.5258V84.4948Z" fill="white"/>
<path d="M66.8902 95.8576L55.5273 95.857V107.22H66.8901L66.8902 95.8576Z" fill="white"/>
<path d="M131.481 75.5794C130.681 67.2227 123.468 64.4175 114.358 63.6164V58.2634H107.304V63.311C105.451 63.311 103.556 63.3465 101.671 63.3821V58.2592H94.6215V63.6101C93.0945 63.6394 83.7127 63.6311 83.7127 63.6311L83.6918 69.8499L89.5782 69.8835V110.642H83.6938L83.6416 116.773C85.3506 116.773 92.9565 116.807 94.6048 116.817V122.102H101.654V116.943C103.587 116.985 105.461 117.001 107.29 116.999V122.103H114.345V116.842C126.208 116.167 134.514 113.182 135.545 102.045C136.382 93.0753 132.165 89.0758 125.431 87.4483C129.524 85.3566 132.082 81.6937 131.485 75.5773L131.481 75.5794ZM121.598 100.646C121.598 109.408 106.597 108.406 101.811 108.408V92.8745C106.595 92.8745 121.589 91.5085 121.591 100.646H121.598ZM118.323 78.7276C118.323 86.6995 105.806 85.7645 101.822 85.7645V71.674C105.813 71.6761 118.328 70.4126 118.323 78.7276Z" fill="white"/>
</g>
<defs>
<clipPath id="clip0_634_76799">
<rect width="136" height="136" fill="white" transform="translate(22 23)"/>
</clipPath>
</defs>
</svg>
