<svg width="32" height="32" viewBox="0 0 32 32" fill="none" xmlns="http://www.w3.org/2000/svg">
<path d="M31.5 16C31.5 24.5604 24.5604 31.5 16 31.5C7.43959 31.5 0.5 24.5604 0.5 16C0.5 7.43959 7.43959 0.5 16 0.5C24.5604 0.5 31.5 7.43959 31.5 16Z" fill="white" stroke="#CED3E6"/>
<g clip-path="url(#clip0_3480_185089)">
<path fill-rule="evenodd" clip-rule="evenodd" d="M16 27.9415C22.6146 27.9415 28 22.5561 28 16C28 9.4439 22.6146 4 16 4C9.38537 4 4 9.38537 4 15.9415C4 22.4976 9.38537 27.9415 16 27.9415Z" fill="#DDE4FF"/>
<path fill-rule="evenodd" clip-rule="evenodd" d="M4.87805 20.4488C3.94146 18.1659 3.76585 15.7073 4.29268 13.3073C4.40976 12.839 4.81951 12.4878 5.28781 12.4878C5.87317 12.4878 6.28293 12.9561 6.28293 13.4829C6.28293 13.5415 6.28293 13.6585 6.28293 13.7171C5.81464 15.7073 6.04878 17.7561 6.80976 19.6293C7.57073 21.5024 8.85854 23.0829 10.5561 24.1951C12.2537 25.3073 14.2439 25.8927 16.2341 25.8342C18.2829 25.7756 20.2146 25.1317 21.8537 23.961C23.4927 22.7902 24.722 21.0927 25.3659 19.2195C26.0098 17.2878 26.1268 15.239 25.6 13.3073C25.0732 11.3756 23.961 9.61952 22.3805 8.33171C20.8585 7.04391 18.9268 6.22439 16.9366 6.04878C16.4098 5.99025 16 5.58049 16 5.05366C16 4.4683 16.4683 4.05854 16.9951 4.05854C17.0537 4.05854 17.0537 4.05854 17.1122 4.05854C19.5122 4.29269 21.8537 5.22927 23.7268 6.80976C25.6 8.39025 26.9463 10.4976 27.5902 12.839C28.2341 15.1805 28.1171 17.6976 27.3561 19.9805C26.5366 22.2634 25.0732 24.2537 23.0829 25.7171C21.0927 27.122 18.7512 27.9415 16.2927 28C13.8341 28.0585 11.4341 27.3561 9.4439 26.0098C7.33659 24.6634 5.81464 22.7317 4.87805 20.4488Z" fill="#AC9456"/>
<path d="M16 25.8927C21.4959 25.8927 25.9512 21.4374 25.9512 15.9415C25.9512 10.4456 21.4959 5.99024 16 5.99024C10.5041 5.99024 6.04878 10.4456 6.04878 15.9415C6.04878 21.4374 10.5041 25.8927 16 25.8927Z" fill="white"/>
<path d="M16 13.2488C18.263 13.2488 20.0976 12.646 20.0976 11.9024C20.0976 11.1589 18.263 10.5561 16 10.5561C13.737 10.5561 11.9024 11.1589 11.9024 11.9024C11.9024 12.646 13.737 13.2488 16 13.2488Z" fill="#AC9456"/>
<path fill-rule="evenodd" clip-rule="evenodd" d="M13.2488 17.2293C10.8488 17.5805 9.15122 18.3415 9.15122 19.2195C9.15122 20.4488 12.1951 21.3854 15.9415 21.3854C19.6878 21.3854 22.7317 20.3902 22.7317 19.2195C22.7317 18.3415 21.0341 17.5805 18.6341 17.2293C17.8146 17.4049 16.878 17.4634 15.8829 17.4634C15.0049 17.4634 14.0683 17.4049 13.2488 17.2293Z" fill="#AC9456"/>
<path fill-rule="evenodd" clip-rule="evenodd" d="M13.7756 13.4244C11.8439 13.7171 10.5561 14.361 10.5561 15.1805C10.5561 16.2341 13.0146 17.1122 16 17.1122C18.9854 17.1122 21.4439 16.2341 21.4439 15.1805C21.4439 14.4195 20.0976 13.7171 18.2244 13.4244C17.5805 13.5415 16.8195 13.6585 16 13.6585C15.1805 13.6 14.4195 13.5415 13.7756 13.4244Z" fill="#AC9456"/>
</g>
<path d="M32 16C32 21 32 21 27 21C24.2386 21 22 18.7614 22 16C22 13.2386 24.2386 11 27 11C32 11 32 11 32 16Z" fill="#15202B"/>
<g clip-path="url(#clip1_3480_185089)">
<path d="M27.5 15.6667C27.9602 15.6667 28.3333 15.2936 28.3333 14.8333C28.3333 14.3731 27.9602 14 27.5 14C27.0398 14 26.6667 14.3731 26.6667 14.8333C26.6667 15.2936 27.0398 15.6667 27.5 15.6667Z" fill="#04A8F0"/>
<path d="M27.5 16.1474C26.6506 16.1474 25.9615 15.4583 25.9615 14.609C25.9968 14.1923 25.641 14.1923 25.5449 14.3045C25.5385 14.3109 25.5321 14.3173 25.5224 14.3269C25.1955 14.7532 25 15.2821 25 15.8622C25 16.3686 25.4808 16.6955 25.9904 16.6955H29.0128C29.5192 16.6955 30.0032 16.3718 30.0032 15.8622C30.0032 15.2853 29.8077 14.7532 29.4808 14.3301C29.4744 14.3205 29.4679 14.3141 29.4583 14.3077C29.359 14.1923 29.0032 14.1923 29.0385 14.609C29.0385 15.4583 28.3494 16.1474 27.5 16.1474Z" fill="#686DF1"/>
<path d="M27.7628 18.6538L28.4647 17.6442C28.6122 17.4327 28.4615 17.141 28.2019 17.141H27.5H26.7981C26.5385 17.141 26.3878 17.4327 26.5353 17.6442L27.2372 18.6538C27.3654 18.8365 27.6346 18.8365 27.7628 18.6538Z" fill="#04A8F0"/>
</g>
<defs>
<clipPath id="clip0_3480_185089">
<rect width="24" height="23.9415" fill="white" transform="translate(4 4)"/>
</clipPath>
<clipPath id="clip1_3480_185089">
<rect width="5" height="4.79167" fill="white" transform="translate(25 14)"/>
</clipPath>
</defs>
</svg>
