<svg width="32" height="32" viewBox="0 0 32 32" fill="none" xmlns="http://www.w3.org/2000/svg">
<path d="M31.5 16C31.5 24.5604 24.5604 31.5 16 31.5C7.43959 31.5 0.5 24.5604 0.5 16C0.5 7.43959 7.43959 0.5 16 0.5C24.5604 0.5 31.5 7.43959 31.5 16Z" fill="white" stroke="#CED3E6"/>
<g clip-path="url(#clip0_4232_39533)">
<mask id="mask0_4232_39533" style="mask-type:luminance" maskUnits="userSpaceOnUse" x="4" y="4" width="24" height="24">
<path d="M28 4H4V27.1724H28V4Z" fill="white"/>
</mask>
<g mask="url(#mask0_4232_39533)">
<mask id="mask1_4232_39533" style="mask-type:luminance" maskUnits="userSpaceOnUse" x="4" y="4" width="24" height="24">
<path d="M28 4H4V27.1724H28V4Z" fill="white"/>
</mask>
<g mask="url(#mask1_4232_39533)">
<mask id="mask2_4232_39533" style="mask-type:luminance" maskUnits="userSpaceOnUse" x="4" y="4" width="24" height="24">
<path fill-rule="evenodd" clip-rule="evenodd" d="M4.41382 15.5862C4.41382 9.18731 9.60113 4 16 4C22.3989 4 27.5862 9.18731 27.5862 15.5862C27.5862 21.9851 22.3989 27.1724 16 27.1724C9.60113 27.1724 4.41382 21.9851 4.41382 15.5862Z" fill="white"/>
</mask>
<g mask="url(#mask2_4232_39533)">
<mask id="mask3_4232_39533" style="mask-type:luminance" maskUnits="userSpaceOnUse" x="4" y="3" width="24" height="25">
<path d="M27.5862 3.58618H4.41382V27.1724H27.5862V3.58618Z" fill="white"/>
</mask>
<g mask="url(#mask3_4232_39533)">
<mask id="mask4_4232_39533" style="mask-type:luminance" maskUnits="userSpaceOnUse" x="4" y="3" width="24" height="25">
<path d="M27.5862 3.58618H4.41382V27.1724H27.5862V3.58618Z" fill="white"/>
</mask>
<g mask="url(#mask4_4232_39533)">
<path fill-rule="evenodd" clip-rule="evenodd" d="M4.33643 3.92261C12.0607 3.92261 19.785 3.92261 27.5088 3.92261C27.5088 11.6468 27.5088 19.3709 27.5088 27.095C19.785 27.095 12.0607 27.095 4.33643 27.095C4.33643 19.3709 4.33643 11.6468 4.33643 3.92261Z" fill="#12146E"/>
<path fill-rule="evenodd" clip-rule="evenodd" d="M14.6871 5.93095C18.9877 5.73059 21.691 7.68738 22.7975 11.8013C23.1947 15.1521 21.933 17.6496 19.0125 19.2937C18.7075 20.1145 18.6305 20.9641 18.7807 21.8427C18.9847 22.43 19.1652 23.0221 19.3216 23.6192C19.3547 24.3478 19.0456 24.8626 18.3947 25.1641C17.0668 25.4798 16.346 24.9649 16.2318 23.6192C16.3282 23.0717 16.4569 22.531 16.6179 21.9971C16.6361 20.5975 16.7391 19.2072 16.927 17.8261C17.8357 17.2677 18.6599 16.5983 19.3986 15.8178C20.7136 13.5998 20.4819 11.5657 18.7034 9.71575C15.746 7.92543 13.4031 8.51761 11.6747 11.4923C10.9472 14.2082 11.8485 16.1393 14.378 17.2854C15.0248 18.266 15.1534 19.3216 14.7641 20.4523C14.2832 20.9502 13.7428 21.0274 13.142 20.684C12.8884 20.2537 12.6566 19.816 12.4468 19.3709C9.06117 17.1773 7.97952 14.1391 9.20269 10.2565C10.3394 7.90665 12.1675 6.46483 14.6871 5.93095Z" fill="#F9F9FA"/>
<path fill-rule="evenodd" clip-rule="evenodd" d="M13.7601 11.1833C15.1901 12.3558 16.5292 13.6432 17.7764 15.0454C16.6761 15.9015 15.4914 16.0303 14.2235 15.4316C12.7839 14.1379 12.6292 12.7218 13.7601 11.1833Z" fill="#F5F5F7" fill-opacity="0.999"/>
</g>
</g>
</g>
</g>
</g>
</g>
<defs>
<clipPath id="clip0_4232_39533">
<rect width="24" height="23.1724" fill="white" transform="translate(4 4)"/>
</clipPath>
</defs>
</svg>
