<svg width="32" height="32" viewBox="0 0 32 32" fill="none" xmlns="http://www.w3.org/2000/svg">
<path d="M31.5 16C31.5 24.5604 24.5604 31.5 16 31.5C7.43959 31.5 0.5 24.5604 0.5 16C0.5 7.43959 7.43959 0.5 16 0.5C24.5604 0.5 31.5 7.43959 31.5 16Z" fill="white" stroke="#CED3E6"/>
<g clip-path="url(#clip0_4223_29227)">
<mask id="mask0_4223_29227" style="mask-type:luminance" maskUnits="userSpaceOnUse" x="4" y="4" width="24" height="24">
<path fill-rule="evenodd" clip-rule="evenodd" d="M4.40674 16C4.40674 9.59725 9.59725 4.40674 16 4.40674C22.4027 4.40674 27.5932 9.59725 27.5932 16C27.5932 22.4027 22.4027 27.5932 16 27.5932C9.59725 27.5932 4.40674 22.4027 4.40674 16Z" fill="white"/>
</mask>
<g mask="url(#mask0_4223_29227)">
<path d="M4.40674 4.40674H27.5932V27.5932H4.40674V4.40674Z" fill="#10101E"/>
<path d="M7.18457 16.3269H24.7981V17.834H7.18457V16.3269Z" fill="white"/>
<path d="M24.6115 19.0781C24.6115 19.0781 13.9132 19.0802 13.6199 19.0802C13.4922 19.0802 13.497 19.5569 13.4946 19.6066C13.4808 19.9279 13.4726 19.8828 13.447 20.0007C13.4226 20.1191 13.2001 20.6617 12.6111 20.6617C12.0225 20.6617 11.8903 20.1236 11.8533 20.0088C11.8158 19.8941 11.8158 19.7493 11.7996 19.6285C11.7845 19.5174 11.7349 19.3515 11.6316 19.2486C11.6071 19.2217 11.5783 19.1985 11.5482 19.179C11.5331 19.1672 11.5181 19.1579 11.5006 19.1497C11.4823 19.1383 11.4623 19.129 11.4436 19.1233C11.4286 19.1151 11.4135 19.1107 11.3985 19.1058C11.3859 19.1001 11.3696 19.0964 11.3545 19.0944C11.3513 19.092 11.3452 19.0908 11.3395 19.0908C11.322 19.0875 11.3057 19.0851 11.2862 19.0826C11.2781 19.0814 11.2699 19.0814 11.2618 19.0814H11.2736C11.263 19.0802 11.2524 19.0802 11.2431 19.0802C11.2386 19.0802 11.2341 19.0794 11.2293 19.0794C11.226 19.0794 11.2223 19.0802 11.2179 19.0802C11.2061 19.0802 11.1947 19.0802 11.1829 19.0814H11.1959C11.1878 19.0814 11.1784 19.0814 11.1703 19.0826C11.1577 19.0826 11.1434 19.085 11.1308 19.0883C11.1158 19.0907 11.1019 19.0944 11.0889 19.0977C11.0417 19.1095 10.9986 19.1257 10.9579 19.1489C10.9453 19.1571 10.9315 19.164 10.9185 19.1729C10.9071 19.179 10.8977 19.1859 10.8884 19.1941C10.8758 19.2034 10.8619 19.2148 10.8501 19.2266C10.8237 19.2498 10.7993 19.2762 10.7761 19.3039C10.768 19.3169 10.7586 19.3307 10.7492 19.3458C10.7403 19.3584 10.7309 19.3759 10.7228 19.3909C10.7078 19.421 10.6939 19.456 10.6833 19.4894C10.6797 19.5069 10.674 19.5231 10.6716 19.5406C10.6695 19.5463 10.6683 19.5533 10.6683 19.5594C10.6626 19.5895 10.6602 19.6196 10.6602 19.6497V20.1781C10.6602 20.7463 10.1651 21.2056 9.58993 21.1462C9.08796 21.0954 8.72064 20.6386 8.72064 20.1309V19.3019C8.72064 19.273 8.71494 19.2473 8.70559 19.2217C8.70193 19.2103 8.69623 19.201 8.69257 19.1916C8.67752 19.1652 8.65678 19.142 8.63359 19.1257C8.62546 19.1196 8.61854 19.1139 8.60918 19.1082C8.60593 19.1058 8.59983 19.1025 8.59657 19.1001C8.58722 19.0964 8.57908 19.0932 8.56972 19.0908C8.56769 19.0883 8.56647 19.0883 8.56403 19.0883C8.55264 19.085 8.54328 19.0802 8.53149 19.0802C8.52945 19.0781 8.52946 19.0781 8.52824 19.0781C8.51888 19.0757 8.50708 19.0757 8.49813 19.0757H7.36891C7.24606 19.0757 7.14722 19.1766 7.14722 19.2994V20.4217C7.14722 21.7653 8.23128 22.8595 9.5704 22.8595H22.4108C23.7512 22.8595 24.834 21.7641 24.834 20.4217V19.2994C24.8352 19.179 24.7343 19.0781 24.6115 19.0781Z" fill="white"/>
<path d="M24.8917 14.4709C24.8917 14.7988 24.6139 15.0668 24.2706 15.0668H7.7293C7.3872 15.0668 7.10815 14.8012 7.10815 14.4741C7.10815 10.5939 11.097 7.43726 16.0012 7.43726C18.2364 7.43726 20.5018 8.23007 22.2176 9.61312C23.9171 10.9823 24.8917 12.7539 24.8917 14.4709Z" fill="white"/>
</g>
</g>
<defs>
<clipPath id="clip0_4223_29227">
<rect width="24" height="24" fill="white" transform="translate(4 4)"/>
</clipPath>
</defs>
</svg>
