<svg width="32" height="32" viewBox="0 0 32 32" fill="none" xmlns="http://www.w3.org/2000/svg">
<g clip-path="url(#clip0_3_21241)">
<path d="M31.5 16C31.5 24.5906 24.5906 31.5 16 31.5C7.40942 31.5 0.5 24.5906 0.5 16C0.5 7.40942 7.40942 0.5 16 0.5C24.5906 0.5 31.5 7.40942 31.5 16Z" fill="white" stroke="#CED3E6"/>
<g clip-path="url(#clip1_3_21241)">
<path d="M16 28C22.6274 28 28 22.6274 28 16C28 9.37258 22.6274 4 16 4C9.37258 4 4 9.37258 4 16C4 22.6274 9.37258 28 16 28Z" fill="#FF007A"/>
<path d="M13.1957 8.32521C12.9819 8.29221 12.9729 8.28771 13.0734 8.27271C13.2662 8.24271 13.7222 8.28396 14.0364 8.35821C14.7692 8.53296 15.4359 8.97921 16.1484 9.77196L16.3374 9.98196L16.6074 9.93921C17.7474 9.75546 18.9077 9.90171 19.8774 10.3495C20.1444 10.4725 20.5652 10.7177 20.6177 10.7815C20.6349 10.801 20.6657 10.9307 20.6859 11.0687C20.7579 11.5465 20.7219 11.9125 20.5764 12.1862C20.4969 12.3347 20.4924 12.3812 20.5457 12.5087C20.571 12.5614 20.6105 12.6059 20.6598 12.6372C20.7092 12.6685 20.7663 12.6853 20.8247 12.6857C21.0662 12.6857 21.3257 12.2957 21.4457 11.7535L21.4937 11.5382L21.5882 11.6455C22.1072 12.2335 22.5144 13.0352 22.5842 13.6052L22.6029 13.7545L22.5152 13.6195C22.3652 13.387 22.2152 13.228 22.0217 13.0997C21.6737 12.8695 21.3054 12.7915 20.3304 12.7397C19.4499 12.6932 18.9512 12.6182 18.4577 12.457C17.6169 12.1832 17.1932 11.818 16.1942 10.5077C15.7509 9.92571 15.4764 9.60396 15.2042 9.34521C14.5839 8.75571 13.9749 8.44671 13.1957 8.32521Z" fill="white"/>
<path d="M20.8165 9.62489C20.839 9.23489 20.8915 8.97764 20.998 8.74289C21.04 8.64989 21.0798 8.57339 21.0858 8.57339C21.0791 8.62604 21.0652 8.67752 21.0445 8.72639C20.9673 8.95439 20.9545 9.26639 21.0078 9.62864C21.0753 10.0891 21.1143 10.1551 21.6003 10.6524C21.829 10.8856 22.0945 11.1796 22.1905 11.3064L22.3653 11.5359L22.1905 11.3716C21.9768 11.1714 21.4848 10.7791 21.376 10.7236C21.3033 10.6861 21.292 10.6869 21.247 10.7311C21.2058 10.7731 21.1968 10.8346 21.1915 11.1279C21.1825 11.5839 21.1203 11.8779 20.9695 12.1704C20.8885 12.3279 20.8758 12.2949 20.9493 12.1156C21.004 11.9821 21.0093 11.9236 21.0093 11.4819C21.0093 10.5939 20.9035 10.3809 20.2848 10.0149C20.0986 9.90686 19.9074 9.80775 19.7118 9.71789C19.6151 9.67913 19.5214 9.63351 19.4313 9.58139C19.4485 9.56414 20.0515 9.73964 20.2938 9.83339C20.6553 9.97214 20.7145 9.99014 20.7588 9.9729C20.788 9.96165 20.8023 9.87614 20.8165 9.62489ZM13.6113 11.1436C13.177 10.5459 12.9085 9.62864 12.9663 8.94314L12.9843 8.73089L13.0833 8.74889C13.2693 8.78264 13.5895 8.90189 13.7395 8.99339C14.1505 9.24314 14.329 9.57239 14.5098 10.4169C14.563 10.6644 14.6328 10.9441 14.665 11.0394C14.716 11.1916 14.911 11.5479 15.07 11.7796C15.184 11.9461 15.1075 12.0249 14.8555 12.0024C14.47 11.9671 13.948 11.6071 13.6113 11.1436ZM20.29 15.5949C18.2598 14.7774 17.545 14.0679 17.545 12.8709C17.545 12.6946 17.551 12.5506 17.5578 12.5506C17.5653 12.5506 17.644 12.6084 17.7325 12.6796C18.1443 13.0096 18.6055 13.1506 19.8813 13.3366C20.632 13.4469 21.055 13.5354 21.445 13.6644C22.684 14.0754 23.4505 14.9094 23.6335 16.0449C23.686 16.3749 23.6553 16.9936 23.569 17.3199C23.5015 17.5779 23.2938 18.0421 23.239 18.0601C23.224 18.0646 23.209 18.0069 23.2045 17.9266C23.1835 17.5006 22.9683 17.0851 22.606 16.7739C22.1943 16.4206 21.6415 16.1386 20.2893 15.5949H20.29ZM18.865 15.9339C18.841 15.789 18.8082 15.6458 18.7668 15.5049L18.7143 15.3504L18.811 15.4584C18.9438 15.6084 19.0495 15.7989 19.138 16.0539C19.2063 16.2481 19.2138 16.3059 19.213 16.6216C19.213 16.9321 19.2048 16.9966 19.1418 17.1721C19.0542 17.4295 18.9075 17.6627 18.7135 17.8531C18.3423 18.2311 17.866 18.4396 17.1775 18.5266C17.0575 18.5416 16.7095 18.5671 16.4028 18.5829C15.6303 18.6234 15.1225 18.7059 14.6658 18.8664C14.6246 18.8849 14.5803 18.8955 14.5353 18.8979C14.5173 18.8791 14.8278 18.6939 15.085 18.5701C15.4473 18.3954 15.8073 18.3001 16.615 18.1659C17.014 18.0991 17.4265 18.0189 17.5308 17.9866C18.5193 17.6836 19.027 16.9021 18.8643 15.9339H18.865Z" fill="white"/>
<path d="M19.7951 17.587C19.5251 17.0072 19.4636 16.447 19.6113 15.925C19.6271 15.8695 19.6526 15.8237 19.6676 15.8237C19.7183 15.8421 19.7661 15.8679 19.8093 15.9002C19.9338 15.9842 20.1828 16.1252 20.8466 16.4867C21.6753 16.939 22.1478 17.2892 22.4696 17.6882C22.7508 18.0385 22.9248 18.4375 23.0088 18.9235C23.0561 19.1987 23.0283 19.861 22.9578 20.1385C22.7351 21.013 22.2168 21.7 21.4788 22.1005C21.4092 22.1408 21.337 22.1766 21.2628 22.2077C21.2523 22.2077 21.2913 22.108 21.3506 21.985C21.5981 21.466 21.6273 20.9605 21.4391 20.398C21.3243 20.0537 21.0896 19.633 20.6163 18.9235C20.0658 18.0985 19.9308 17.878 19.7951 17.587ZM12.1698 20.7152C12.9236 20.0792 13.8603 19.6277 14.7146 19.489C15.0821 19.429 15.6956 19.453 16.0361 19.54C16.5821 19.6795 17.0711 19.993 17.3253 20.3657C17.5728 20.7302 17.6801 21.0482 17.7903 21.7547C17.8353 22.0337 17.8826 22.3135 17.8968 22.3772C17.9793 22.7432 18.1421 23.0365 18.3431 23.1835C18.6618 23.4167 19.2116 23.431 19.7516 23.221C19.808 23.1951 19.8675 23.1764 19.9286 23.1655C19.9481 23.185 19.6766 23.3672 19.4846 23.4632C19.258 23.5845 19.0042 23.6459 18.7473 23.6417C18.2523 23.6417 17.8413 23.3905 17.4986 22.8767C17.4311 22.7755 17.2796 22.4732 17.1611 22.204C16.7996 21.379 16.6211 21.127 16.2011 20.8517C15.8343 20.6117 15.3626 20.569 15.0078 20.743C14.5413 20.9717 14.4116 21.568 14.7453 21.9452C14.8781 22.0952 15.1256 22.225 15.3281 22.2497C15.4164 22.2614 15.5062 22.254 15.5914 22.228C15.6767 22.202 15.7553 22.1581 15.8221 22.099C15.8889 22.04 15.9422 21.9674 15.9784 21.886C16.0147 21.8046 16.0331 21.7163 16.0323 21.6272C16.0323 21.3782 15.9363 21.2372 15.6963 21.1285C15.3686 20.9807 15.0161 21.1532 15.0176 21.4615C15.0183 21.5927 15.0753 21.6752 15.2073 21.7352C15.2921 21.7727 15.2936 21.7765 15.2246 21.7622C14.9238 21.6992 14.8533 21.337 15.0956 21.0962C15.3858 20.8067 15.9866 20.9342 16.1928 21.3287C16.2798 21.4945 16.2896 21.8252 16.2138 22.0247C16.0451 22.471 15.5516 22.705 15.0513 22.5775C14.7108 22.4905 14.5721 22.3967 14.1618 21.9737C13.4486 21.2387 13.1718 21.0962 12.1428 20.9357L11.9456 20.905L12.1706 20.7152H12.1698Z" fill="white"/>
<path fill-rule="evenodd" clip-rule="evenodd" d="M8.64697 6.5124L8.71897 6.60015C11.5 10.0052 12.937 11.7722 13.0285 11.8982C13.1785 12.1067 13.1222 12.2934 12.8642 12.4404C12.721 12.5222 12.4255 12.6047 12.2785 12.6047C12.1112 12.6047 11.923 12.5244 11.7857 12.3947C11.689 12.3024 11.2982 11.7189 10.396 10.3187C9.97346 9.65685 9.54545 8.99858 9.11197 8.3439C9.07522 8.3094 9.07597 8.31015 10.3255 10.5459C11.11 11.9499 11.3755 12.4457 11.3755 12.5124C11.3755 12.6474 11.338 12.7179 11.1715 12.9039C10.894 13.2137 10.7702 13.5617 10.6802 14.2817C10.5797 15.0894 10.2977 15.6594 9.51472 16.6352C9.05722 17.2067 8.98222 17.3117 8.86597 17.5419C8.72047 17.8314 8.68072 17.9942 8.66422 18.3602C8.64697 18.7472 8.68072 18.9977 8.79922 19.3674C8.90272 19.6914 9.01072 19.9059 9.28672 20.3334C9.52522 20.7032 9.66247 20.9777 9.66247 21.0849C9.66247 21.1704 9.67897 21.1704 10.0487 21.0872C10.933 20.8877 11.6507 20.5359 12.055 20.1054C12.3047 19.8392 12.3632 19.6922 12.3655 19.3269C12.3662 19.0884 12.358 19.0382 12.2935 18.9009C12.1885 18.6774 11.9972 18.4914 11.5757 18.2034C11.023 17.8254 10.7875 17.5209 10.7222 17.1032C10.6682 16.7604 10.7305 16.5182 11.0365 15.8777C11.3522 15.2147 11.431 14.9327 11.4842 14.2644C11.518 13.8324 11.5652 13.6622 11.6897 13.5257C11.8187 13.3832 11.9357 13.3344 12.256 13.2909C12.778 13.2197 13.1102 13.0847 13.3832 12.8334C13.6202 12.6144 13.7192 12.4037 13.7342 12.0872L13.7462 11.8472L13.6135 11.6927C13.423 11.4707 11.8472 9.73215 8.88547 6.47565L8.80597 6.3894L8.64697 6.51315V6.5124ZM9.93247 18.7989C9.9848 18.7063 10.0004 18.5973 9.97625 18.4937C9.95209 18.3901 9.88989 18.2993 9.80197 18.2394C9.63097 18.1254 9.36472 18.1794 9.36472 18.3279C9.36472 18.3729 9.38947 18.4059 9.44572 18.4352C9.54097 18.4839 9.54772 18.5394 9.47347 18.6512C9.39772 18.7652 9.40372 18.8657 9.49072 18.9339C9.63022 19.0434 9.82822 18.9827 9.93322 18.7989H9.93247ZM14.0755 13.4169C13.8302 13.4919 13.5925 13.7522 13.5182 14.0244C13.4732 14.1902 13.4987 14.4819 13.5662 14.5719C13.675 14.7174 13.7807 14.7557 14.0657 14.7534C14.6237 14.7497 15.1082 14.5104 15.1652 14.2112C15.2117 13.9659 14.998 13.6262 14.7047 13.4762C14.5532 13.3997 14.2315 13.3689 14.0755 13.4169ZM14.728 13.9269C14.8142 13.8047 14.776 13.6719 14.6305 13.5834C14.3515 13.4132 13.93 13.5534 13.93 13.8174C13.93 13.9479 14.1497 14.0912 14.3507 14.0912C14.4857 14.0912 14.6687 14.0109 14.728 13.9269Z" fill="white"/>
</g>
</g>
<defs>
<clipPath id="clip0_3_21241">
<rect width="32" height="32" fill="white"/>
</clipPath>
<clipPath id="clip1_3_21241">
<rect width="24" height="24" fill="white" transform="translate(4 4)"/>
</clipPath>
</defs>
</svg>
