<svg width="528" height="528" viewBox="0 0 528 528" fill="none" xmlns="http://www.w3.org/2000/svg">
<circle cx="264" cy="264" r="264" fill="#0455FF"/>
<circle cx="264" cy="264" r="218" fill="white"/>
<path d="M297.3 224.018C296.571 216.666 293.442 210.954 287.912 206.883C282.383 202.812 274.878 200.776 265.399 200.776C258.958 200.776 253.52 201.687 249.084 203.51C244.648 205.273 241.245 207.733 238.876 210.893C236.567 214.053 235.412 217.638 235.412 221.648C235.291 224.99 235.989 227.907 237.508 230.398C239.088 232.89 241.245 235.047 243.98 236.87C246.714 238.632 249.874 240.181 253.459 241.518C257.044 242.794 260.872 243.888 264.943 244.799L281.714 248.81C289.857 250.633 297.331 253.063 304.136 256.102C310.942 259.14 316.836 262.877 321.818 267.312C326.801 271.748 330.66 276.974 333.394 282.99C336.189 289.005 337.617 295.902 337.678 303.68C337.617 315.103 334.7 325.008 328.928 333.393C323.216 341.718 314.952 348.189 304.136 352.807C293.381 357.365 280.408 359.643 265.217 359.643C250.147 359.643 237.022 357.334 225.842 352.716C214.722 348.098 206.033 341.262 199.774 332.208C193.576 323.094 190.325 311.822 190.021 298.393H228.212C228.637 304.652 230.429 309.878 233.589 314.07C236.81 318.202 241.094 321.332 246.441 323.458C251.849 325.524 257.956 326.557 264.761 326.557C271.445 326.557 277.248 325.585 282.17 323.641C287.153 321.696 291.011 318.992 293.745 315.529C296.48 312.065 297.847 308.085 297.847 303.589C297.847 299.396 296.601 295.872 294.11 293.016C291.679 290.16 288.094 287.729 283.355 285.724C278.676 283.719 272.934 281.896 266.128 280.255L245.803 275.151C230.065 271.323 217.639 265.338 208.524 257.195C199.409 249.053 194.883 238.085 194.943 224.292C194.883 212.99 197.89 203.115 203.967 194.669C210.104 186.223 218.52 179.63 229.214 174.891C239.909 170.151 252.061 167.781 265.673 167.781C279.527 167.781 291.619 170.151 301.949 174.891C312.339 179.63 320.421 186.223 326.193 194.669C331.966 203.115 334.943 212.898 335.126 224.018H297.3Z" fill="#0455FF"/>
<rect x="249" y="358" width="30" height="61" fill="#0455FF"/>
<rect x="249" y="43" width="30" height="130" fill="#0455FF"/>
</svg>
