<svg width="32" height="32" viewBox="0 0 32 32" fill="none" xmlns="http://www.w3.org/2000/svg">
<rect x="0.5" y="0.5" width="31" height="31" rx="15.5" fill="white" stroke="#CED3E6"/>
<g clip-path="url(#clip0_1_11625)">
<path d="M27.5 16C27.5 22.3739 22.3739 27.5 16 27.5C9.6261 27.5 4.5 22.3739 4.5 16C4.5 9.6261 9.6261 4.5 16 4.5C22.3739 4.5 27.5 9.6261 27.5 16Z" fill="#2775CA" stroke="#2775CA"/>
<path d="M19.3333 18.0027C19.3333 16.3569 18.2885 15.7926 16.1989 15.5575C14.7064 15.3693 14.4079 14.9932 14.4079 14.3347C14.4079 13.6763 14.9054 13.2531 15.9004 13.2531C16.796 13.2531 17.2935 13.5353 17.5422 14.2407C17.592 14.3818 17.7413 14.4758 17.8905 14.4758H18.6865C18.8855 14.4758 19.0348 14.3347 19.0348 14.1467V14.0996C18.8357 13.065 17.9402 12.2656 16.796 12.1716V11.043C16.796 10.8548 16.6467 10.7137 16.398 10.6667H15.6517C15.4527 10.6667 15.3034 10.8078 15.2536 11.043V12.1245C13.7611 12.3127 12.8159 13.2531 12.8159 14.4288C12.8159 15.9807 13.8109 16.592 15.9004 16.8272C17.2935 17.0623 17.7413 17.3444 17.7413 18.0969C17.7413 18.8493 17.0447 19.3666 16.0995 19.3666C14.8059 19.3666 14.3581 18.8492 14.2088 18.1438C14.1592 17.9558 14.0099 17.8617 13.8607 17.8617H13.0148C12.8159 17.8617 12.6666 18.0027 12.6666 18.1909V18.238C12.8656 19.4135 13.6616 20.26 15.3034 20.4952V21.6238C15.3034 21.8119 15.4527 21.9529 15.7014 22H16.4477C16.6467 22 16.796 21.8589 16.8458 21.6238V20.4952C18.3383 20.26 19.3333 19.2725 19.3333 18.0027Z" fill="white"/>
<path d="M13.5511 22.474C9.80573 21.1793 7.88498 17.1561 9.27757 13.5953C9.99784 11.6531 11.5824 10.1734 13.5511 9.47974C13.7432 9.38729 13.8392 9.24856 13.8392 9.01727V8.36991C13.8392 8.1849 13.7432 8.04617 13.5511 8C13.5031 8 13.4071 8 13.359 8.04617C8.79736 9.43346 6.30039 14.1041 7.74092 18.4971C8.60525 21.0867 10.6701 23.0752 13.359 23.9076C13.5511 24 13.7432 23.9076 13.7912 23.7225C13.8392 23.6764 13.8392 23.6301 13.8392 23.5376V22.8902C13.8392 22.7514 13.6952 22.5665 13.5511 22.474ZM18.6411 8.04617C18.449 7.95372 18.2568 8.04617 18.2089 8.23118C18.1608 8.27746 18.1608 8.32363 18.1608 8.41619V9.06355C18.1608 9.24856 18.3049 9.43346 18.449 9.52602C22.1944 10.8207 24.1151 14.8439 22.7225 18.4047C22.0022 20.3469 20.4176 21.8266 18.449 22.5203C18.2568 22.6127 18.1608 22.7514 18.1608 22.9827V23.6301C18.1608 23.8151 18.2568 23.9538 18.449 24C18.497 24 18.593 24 18.6411 23.9538C23.2027 22.5665 25.6997 17.8959 24.2592 13.5029C23.3948 10.867 21.282 8.87854 18.6411 8.04617Z" fill="white"/>
</g>
<defs>
<clipPath id="clip0_1_11625">
<rect x="4" y="4" width="24" height="24" fill="white"/>
</clipPath>
</defs>
</svg>
