<svg width="32" height="32" viewBox="0 0 32 32" fill="none" xmlns="http://www.w3.org/2000/svg">
<path d="M31.5 16C31.5 24.5604 24.5604 31.5 16 31.5C7.43959 31.5 0.5 24.5604 0.5 16C0.5 7.43959 7.43959 0.5 16 0.5C24.5604 0.5 31.5 7.43959 31.5 16Z" fill="white" stroke="#CED3E6"/>
<g clip-path="url(#clip0_24_41633)">
<path d="M12.0187 14.3738C11.9627 14.1215 11.9066 13.8411 11.9066 13.5607C11.9066 11.7103 13.3645 10.5047 15.3832 10.3084V8.82243H16.4206V10.3084C18.4113 10.4766 19.9533 11.7383 20.0094 13.6449H18.5234C18.4113 12.4953 17.5982 11.7944 16.4206 11.6542C16.2524 11.6262 16.0842 11.6262 15.9159 11.6262C15.8879 11.6262 15.8599 11.6262 15.8318 11.6262C15.6636 11.6262 15.5234 11.6542 15.3552 11.6822V11.6542C14.0374 11.8224 13.3645 12.6075 13.3645 13.4486C13.3645 13.4766 13.3645 13.4766 13.3645 13.5047C13.3645 13.5888 13.3645 13.6729 13.3926 13.757C13.3926 13.785 13.4206 13.8131 13.4206 13.8692C13.4206 13.9252 13.4487 13.9813 13.4767 14.0374C13.4767 14.0654 13.5047 14.1215 13.5328 14.1495C13.5608 14.2056 13.5888 14.2617 13.6169 14.2897C13.6449 14.3178 13.673 14.3738 13.701 14.4019C13.729 14.4579 13.7571 14.486 13.8131 14.5421C13.8412 14.5701 13.8973 14.5981 13.9253 14.6542C13.9814 14.6822 14.0094 14.7383 14.0655 14.7664C14.1215 14.7944 14.1496 14.8224 14.2057 14.8505C14.2617 14.8785 14.3178 14.9346 14.3739 14.9626C14.43 14.9907 14.486 15.0187 14.5421 15.0467C14.5982 15.0748 14.6823 15.1028 14.7664 15.1308C14.8225 15.1589 14.9066 15.1869 14.9627 15.215C15.0748 15.243 15.1589 15.271 15.2711 15.3271C15.5795 15.4393 15.972 15.5234 16.4206 15.5794L16.701 15.6355C18.243 16 19.2804 16.5607 19.7851 17.4579C24.6636 18.6916 27.5234 16.4206 28.0001 16.028L16.0001 4L4.39258 15.6075C5.31781 14.9346 7.92529 13.4206 12.0187 14.3738Z" fill="#00FBB2"/>
<path d="M28 16C27.5234 16.4206 24.6636 18.6635 19.785 17.4299C20.0093 17.8224 20.1495 18.2991 20.1495 18.8598C20.1495 20.9346 18.4673 22.0561 16.4486 22.2243V23.7103H15.4112V22.2243C13.3645 22.0561 11.6822 20.8224 11.5981 18.8318H13.0841C13.1122 19.1121 13.1963 19.3645 13.3084 19.5888C13.3084 19.6168 13.3364 19.6449 13.3645 19.6729C13.4206 19.757 13.4486 19.8411 13.5047 19.9252C13.5327 19.9533 13.5607 19.9813 13.5888 20.0093C13.6449 20.0654 13.7009 20.1495 13.757 20.2056C13.785 20.2336 13.8411 20.2617 13.8692 20.2897C13.9252 20.3458 13.9813 20.4019 14.0654 20.4299C14.1215 20.4579 14.1776 20.486 14.2056 20.514C14.2897 20.542 14.3458 20.5981 14.4299 20.6262C14.486 20.6542 14.5701 20.6822 14.6262 20.6822C14.7103 20.7103 14.7944 20.7383 14.8785 20.7663C14.9626 20.7944 15.0467 20.7944 15.1028 20.8224C15.1869 20.8505 15.271 20.8505 15.3832 20.8785C15.4673 20.8785 15.5234 20.9065 15.5794 20.9065C15.7196 20.9346 15.8318 20.9346 15.972 20.9346C16 20.9346 16.028 20.9346 16.0561 20.9346C16.2523 20.9346 16.4486 20.9065 16.6168 20.8785C16.729 20.8785 16.8411 20.8505 16.9252 20.8224C17.0093 20.7944 17.0935 20.7944 17.1495 20.7663C17.2336 20.7383 17.3178 20.7103 17.3738 20.6822C17.4299 20.6542 17.514 20.6542 17.5701 20.6262C17.6542 20.5981 17.7103 20.5701 17.7664 20.514C17.8224 20.486 17.8785 20.4579 17.9065 20.4299C17.9626 20.4019 18.0187 20.3458 18.0748 20.2897C18.1028 20.2617 18.1589 20.2336 18.1869 20.1776C18.243 20.1215 18.271 20.0654 18.2991 20.0093C18.3271 19.9813 18.3551 19.9533 18.3832 19.8972C18.4112 19.8411 18.4393 19.785 18.4673 19.7009C18.4953 19.6729 18.4953 19.6449 18.5234 19.5888C18.5514 19.5047 18.5794 19.4206 18.5794 19.3364C18.5794 19.3084 18.6075 19.2804 18.6075 19.2523C18.6355 19.1402 18.6355 19.028 18.6355 18.9159C18.6355 17.9626 18.1589 17.3738 16.4766 16.9533H16.4206C16.1122 16.8411 15.7196 16.757 15.243 16.6729L15.1869 16.6449C13.4206 16.2243 12.3271 15.4953 12.0187 14.2897C7.92523 13.4206 5.31776 14.9346 4.39252 15.6075L4 16V16.028L16 28.028L28 16Z" fill="#09C39F"/>
</g>
<defs>
<clipPath id="clip0_24_41633">
<rect width="24" height="24" fill="white" transform="translate(4 4)"/>
</clipPath>
</defs>
</svg>
