<svg width="32" height="32" viewBox="0 0 32 32" fill="none" xmlns="http://www.w3.org/2000/svg">
<path d="M31.5 16C31.5 24.5604 24.5604 31.5 16 31.5C7.43959 31.5 0.5 24.5604 0.5 16C0.5 7.43959 7.43959 0.5 16 0.5C24.5604 0.5 31.5 7.43959 31.5 16Z" fill="white" stroke="#CED3E6"/>
<mask id="mask0_906_211050" style="mask-type:luminance" maskUnits="userSpaceOnUse" x="4" y="4" width="24" height="24">
<path d="M28 4H4V28H28V4Z" fill="white"/>
</mask>
<g mask="url(#mask0_906_211050)">
<path d="M16 28C22.6274 28 28 22.6274 28 16C28 9.37256 22.6274 4 16 4C9.37256 4 4 9.37256 4 16C4 22.6274 9.37256 28 16 28Z" fill="url(#paint0_linear_906_211050)"/>
<path d="M12.5852 14.0237C12.4875 14.0237 12.3895 14.0007 12.3021 13.957L8.39642 12.0089C8.23434 11.9282 8.11435 11.7814 8.06717 11.6067C8.01999 11.4318 8.04989 11.2447 8.14933 11.0934C8.84809 10.0294 9.73515 9.13353 10.7862 8.43093C11.8337 7.73053 12.9933 7.25588 14.2326 7.01998C14.2714 7.01265 14.3109 7.00879 14.3502 7.00879C14.6698 7.00879 14.9391 7.25019 14.9765 7.57049C15.0149 7.89913 14.7917 8.20478 14.4683 8.2664C12.6126 8.62006 10.9283 9.62206 9.72563 11.0877L9.6286 11.2061L12.5231 12.6498L14.9283 10.8957C15.2427 10.6665 15.6133 10.5453 15.9998 10.5453C16.3865 10.5453 16.7568 10.6665 17.0714 10.8957L19.4762 12.65L22.3711 11.2063L22.2741 11.0879C21.0714 9.62226 19.3871 8.62026 17.5314 8.26661C17.2081 8.20499 16.985 7.89953 17.0232 7.57089C17.0606 7.25059 17.3298 7.00899 17.6496 7.00899C17.6888 7.00899 17.7282 7.01265 17.7671 7.02018C19.0064 7.25608 20.166 7.73074 21.2136 8.43113C22.2643 9.13378 23.1516 10.0296 23.8504 11.0936C23.9498 11.2449 23.9797 11.4322 23.9326 11.6069C23.8854 11.7818 23.7654 11.9284 23.6033 12.0091L19.6972 13.9572C19.6098 14.0007 19.512 14.0239 19.4142 14.0239C19.2789 14.0239 19.1496 13.9818 19.0404 13.9021L16.3242 11.9207C16.2291 11.8513 16.117 11.8147 16 11.8147C15.8831 11.8147 15.7711 11.8513 15.6759 11.9207L12.9589 13.9021C12.8497 13.9818 12.7204 14.0239 12.5852 14.0239V14.0237Z" fill="url(#paint1_radial_906_211050)"/>
<path d="M17.0262 24.9911C16.6765 24.9911 16.392 24.7066 16.392 24.3568V19.5204H18.6076C19.2366 19.5204 19.7485 19.0087 19.7485 18.3795V15.2003C19.7485 14.9583 19.8831 14.7409 20.0995 14.6327L23.9543 12.7094C24.0434 12.6651 24.1384 12.6426 24.237 12.6426C24.504 12.6426 24.744 12.8111 24.8343 13.0623C25.2005 14.0795 25.3862 15.1486 25.3862 16.2395C25.3862 18.1869 24.795 20.055 23.6767 21.6415C22.7205 22.9981 21.4232 24.0792 19.9257 24.7678C19.8429 24.8059 19.7548 24.8252 19.6645 24.8252C19.4018 24.8252 19.163 24.6594 19.0705 24.4128C18.9542 24.103 19.0977 23.7524 19.3975 23.6144C20.6917 23.0187 21.8128 22.0838 22.6399 20.9106C23.6068 19.5391 24.1178 17.9238 24.1178 16.2395C24.1178 15.5922 24.0416 14.9483 23.8911 14.3258L23.8551 14.177L21.0171 15.5928V18.3801C21.0171 19.7085 19.9364 20.789 18.6082 20.789H17.6608V24.357C17.6608 24.7068 17.3763 24.9913 17.0264 24.9913L17.0262 24.9911Z" fill="url(#paint2_radial_906_211050)"/>
<path d="M14.974 24.9911C14.8047 24.9911 14.6454 24.9252 14.5256 24.8055C14.4058 24.6857 14.34 24.5264 14.34 24.357V20.789H13.3929C12.0643 20.789 10.9836 19.7081 10.9836 18.3797V15.5928L8.14564 14.177L8.10964 14.3258C7.95915 14.9483 7.88289 15.5922 7.88289 16.2395C7.88289 17.924 8.39395 19.5391 9.36073 20.9106C10.1878 22.0838 11.309 23.0187 12.6032 23.6144C12.9022 23.752 13.0462 24.102 12.9308 24.4111L12.93 24.4136C12.8377 24.6594 12.599 24.8252 12.3362 24.8252C12.2457 24.8252 12.1579 24.8059 12.0751 24.7678C10.5775 24.0792 9.28041 22.9981 8.32399 21.6415C7.20569 20.0548 6.6145 18.1869 6.6145 16.2395C6.6145 15.1486 6.80018 14.0797 7.16644 13.0623C7.25673 12.8113 7.49691 12.6426 7.76372 12.6426C7.86215 12.6426 7.95732 12.6651 8.0464 12.7094L11.9012 14.6327C12.1178 14.7407 12.2522 14.9583 12.2522 15.2003V18.3799C12.2522 19.0087 12.7639 19.5204 13.3927 19.5204H15.6087V24.3568C15.6087 24.5262 15.5429 24.6855 15.4231 24.8053C15.3033 24.925 15.1441 24.9909 14.9747 24.9909L14.974 24.9911Z" fill="url(#paint3_radial_906_211050)"/>
</g>
<defs>
<linearGradient id="paint0_linear_906_211050" x1="16" y1="27.5981" x2="16" y2="3.8912" gradientUnits="userSpaceOnUse">
<stop stop-color="#2E5CFF"/>
<stop offset="1" stop-color="#6164FC"/>
</linearGradient>
<radialGradient id="paint1_radial_906_211050" cx="0" cy="0" r="1" gradientUnits="userSpaceOnUse" gradientTransform="translate(15.9998 10.5162) scale(6.14732)">
<stop stop-color="white"/>
<stop offset="1" stop-color="#E5E5E5"/>
</radialGradient>
<radialGradient id="paint2_radial_906_211050" cx="0" cy="0" r="1" gradientUnits="userSpaceOnUse" gradientTransform="translate(20.889 18.8167) scale(5.40118)">
<stop stop-color="white"/>
<stop offset="1" stop-color="#E5E5E5"/>
</radialGradient>
<radialGradient id="paint3_radial_906_211050" cx="0" cy="0" r="1" gradientUnits="userSpaceOnUse" gradientTransform="translate(11.1111 18.8169) scale(5.40118)">
<stop stop-color="white"/>
<stop offset="1" stop-color="#E5E5E5"/>
</radialGradient>
</defs>
</svg>
