<svg width="32" height="32" viewBox="0 0 32 32" fill="none" xmlns="http://www.w3.org/2000/svg">
<path d="M31.5 16C31.5 24.5604 24.5604 31.5 16 31.5C7.43959 31.5 0.5 24.5604 0.5 16C0.5 7.43959 7.43959 0.5 16 0.5C24.5604 0.5 31.5 7.43959 31.5 16Z" fill="white" stroke="#CED3E6"/>
<g clip-path="url(#clip0_3_27768)">
<path d="M27.5 16C27.5 22.3513 22.3513 27.5 16 27.5C9.64873 27.5 4.5 22.3513 4.5 16C4.5 9.64873 9.64873 4.5 16 4.5C22.3513 4.5 27.5 9.64873 27.5 16Z" fill="#50AF95" stroke="#F6F6F6"/>
<g clip-path="url(#clip1_3_27768)">
<path fill-rule="evenodd" clip-rule="evenodd" d="M10.0847 8.08511L6.68111 15.7166C6.66816 15.7449 6.66405 15.777 6.66939 15.8081C6.67474 15.8391 6.68925 15.8675 6.7108 15.8891L15.9031 25.2917C15.9292 25.3184 15.964 25.3333 16.0001 25.3333C16.0363 25.3333 16.0711 25.3184 16.0972 25.2917L25.2895 15.8897C25.311 15.8681 25.3255 15.8397 25.3309 15.8086C25.3362 15.7776 25.3321 15.7455 25.3192 15.7171L21.9156 8.0857C21.9046 8.06007 21.8869 8.03836 21.8647 8.02316C21.8425 8.00796 21.8166 7.99992 21.7902 7.99999H10.2112C10.1847 7.99964 10.1586 8.00749 10.1362 8.02259C10.1137 8.0377 10.0958 8.05941 10.0847 8.08511Z" fill="#50AF95"/>
<path fill-rule="evenodd" clip-rule="evenodd" d="M17.1809 16.5002C17.1149 16.5055 16.774 16.5272 16.0134 16.5272C15.4085 16.5272 14.979 16.5079 14.8283 16.5002C12.4905 16.3905 10.7455 15.9561 10.7455 15.436C10.7455 14.9158 12.4905 14.482 14.8283 14.3705V16.0676C14.9812 16.0793 15.4189 16.1069 16.0238 16.1069C16.7498 16.1069 17.1133 16.0746 17.1787 16.0682V14.3717C19.5116 14.4826 21.2527 14.917 21.2527 15.436C21.2527 15.9549 19.5121 16.3893 17.1787 16.4997L17.1809 16.5002ZM17.1809 14.1961V12.6775H20.4366V10.3616H11.5726V12.6775H14.8277V14.1955C12.1819 14.3253 10.1923 14.8847 10.1923 15.5551C10.1923 16.2255 12.1819 16.7844 14.8277 16.9147V21.7812H17.1804V16.9129C19.8201 16.7832 21.8065 16.2243 21.8065 15.5545C21.8065 14.8847 19.8217 14.3259 17.1804 14.1955L17.1809 14.1961Z" fill="white"/>
</g>
</g>
<defs>
<clipPath id="clip0_3_27768">
<rect width="24" height="24" fill="white" transform="translate(4 4)"/>
</clipPath>
<clipPath id="clip1_3_27768">
<rect width="18.6667" height="17.3333" fill="white" transform="translate(6.66663 8)"/>
</clipPath>
</defs>
</svg>
