<svg width="32" height="32" viewBox="0 0 32 32" fill="none" xmlns="http://www.w3.org/2000/svg">
<path d="M31.5 16C31.5 24.5604 24.5604 31.5 16 31.5C7.43959 31.5 0.5 24.5604 0.5 16C0.5 7.43959 7.43959 0.5 16 0.5C24.5604 0.5 31.5 7.43959 31.5 16Z" fill="white" stroke="#CED3E6"/>
<rect x="4" y="4" width="24" height="24" rx="12" fill="url(#paint0_linear_4232_39537)"/>
<g filter="url(#filter0_i_4232_39537)">
<rect x="6" y="6" width="20" height="20" rx="10" fill="url(#paint1_linear_4232_39537)"/>
</g>
<path d="M19.6052 21.3583C19.8337 21.5868 20.204 21.5868 20.4325 21.3583L24.8287 16.962C25.0572 16.7336 25.0572 16.3632 24.8287 16.1348L23.0136 14.3196L17.79 19.5431L19.6052 21.3583Z" fill="white"/>
<path d="M8.98653 18.3234L14.2101 13.0998L12.3949 11.2846C12.1664 11.0562 11.7961 11.0562 11.5676 11.2846L7.17133 15.6809C6.94289 15.9094 6.94289 16.2797 7.17133 16.5081L8.98653 18.3234Z" fill="white"/>
<path d="M12.2532 21.4708C12.4816 21.6993 12.852 21.6993 13.0804 21.4708L21.5647 12.9865L19.7495 11.1713C19.5211 10.9429 19.1507 10.9429 18.9223 11.1713L10.438 19.6557L12.2532 21.4708Z" fill="url(#paint2_linear_4232_39537)"/>
<defs>
<filter id="filter0_i_4232_39537" x="6" y="6" width="20" height="20" filterUnits="userSpaceOnUse" color-interpolation-filters="sRGB">
<feFlood flood-opacity="0" result="BackgroundImageFix"/>
<feBlend mode="normal" in="SourceGraphic" in2="BackgroundImageFix" result="shape"/>
<feColorMatrix in="SourceAlpha" type="matrix" values="0 0 0 0 0 0 0 0 0 0 0 0 0 0 0 0 0 0 127 0" result="hardAlpha"/>
<feOffset/>
<feGaussianBlur stdDeviation="1"/>
<feComposite in2="hardAlpha" operator="arithmetic" k2="-1" k3="1"/>
<feColorMatrix type="matrix" values="0 0 0 0 0 0 0 0 0 0 0 0 0 0 0 0 0 0 0.25 0"/>
<feBlend mode="normal" in2="shape" result="effect1_innerShadow_4232_39537"/>
</filter>
<linearGradient id="paint0_linear_4232_39537" x1="8.5" y1="6.5" x2="21" y2="27" gradientUnits="userSpaceOnUse">
<stop stop-color="#638ADD"/>
<stop offset="1" stop-color="#9BBEFF"/>
</linearGradient>
<linearGradient id="paint1_linear_4232_39537" x1="10" y1="9" x2="21" y2="23.5" gradientUnits="userSpaceOnUse">
<stop stop-color="#6085D2"/>
<stop offset="1" stop-color="#9BBEFF"/>
</linearGradient>
<linearGradient id="paint2_linear_4232_39537" x1="11.5317" y1="20.7593" x2="20.6449" y2="11.6386" gradientUnits="userSpaceOnUse">
<stop stop-color="white"/>
<stop offset="1" stop-color="white"/>
</linearGradient>
</defs>
</svg>
