<svg width="32" height="32" viewBox="0 0 32 32" fill="none" xmlns="http://www.w3.org/2000/svg">
<path d="M31.5 16C31.5 24.5604 24.5604 31.5 16 31.5C7.43959 31.5 0.5 24.5604 0.5 16C0.5 7.43959 7.43959 0.5 16 0.5C24.5604 0.5 31.5 7.43959 31.5 16Z" fill="white" stroke="#CED3E6"/>
<g clip-path="url(#clip0_4223_29892)">
<path d="M23.5378 14.8956L20.5156 20.2163C19.5803 21.8631 17.8517 22.8773 15.9812 22.8773V22.8752L17.492 20.2163L19.0028 17.5573L20.5136 14.897L22.0257 12.2367L23.5378 14.8956Z" fill="url(#paint0_linear_4223_29892)"/>
<path d="M23.5378 14.8956L20.5156 20.2163C19.5803 21.8631 17.8517 22.8773 15.9812 22.8773V22.8752L17.492 20.2163L19.0028 17.5573L20.5136 14.897L22.0257 12.2367L23.5378 14.8956Z" fill="url(#paint1_linear_4223_29892)"/>
<path d="M28.0725 12.2367L26.5617 14.897L25.0496 17.5573L23.5388 20.2163L23.5374 20.2184C22.6035 21.8638 20.8756 22.8773 19.0065 22.8773H15.9822C17.8521 22.8773 19.5813 21.8624 20.5166 20.2163L23.5388 14.8956L22.028 12.2367H28.0725Z" fill="url(#paint2_linear_4223_29892)"/>
<path d="M22.0278 12.2363H9.9375L10.8953 10.55L11.4476 9.5767L17.4934 9.57532C19.3448 9.57532 21.0584 10.5694 21.9998 12.1864L22.0278 12.2363Z" fill="url(#paint3_linear_4223_29892)"/>
<path d="M22.0278 12.2363H9.9375L10.8953 10.55L11.4476 9.5767L17.4934 9.57532C19.3448 9.57532 21.0584 10.5694 21.9998 12.1864L22.0278 12.2363Z" fill="url(#paint4_linear_4223_29892)"/>
<path d="M22.0006 12.1873C21.0592 10.5696 19.3457 9.57625 17.4942 9.57625L11.4484 9.57763L10.8961 10.5509L9.93762 12.2359L8.42684 9.57694L6.91675 6.91801L9.93762 6.91663L12.9598 6.91801H15.9862C16.2197 6.91801 16.4504 6.93327 16.6777 6.9638C16.7924 6.97906 16.9051 6.99779 17.0177 7.02207C17.0648 7.03108 17.1119 7.04149 17.1591 7.05328C17.2805 7.08103 17.4014 7.11363 17.5202 7.15109C17.6266 7.18439 17.7318 7.22046 17.8362 7.26139C17.8964 7.28428 17.9558 7.30787 18.0151 7.33423C18.1646 7.39735 18.3107 7.4695 18.4527 7.5465C18.4541 7.54719 18.4548 7.54858 18.4555 7.54719C18.7039 7.68316 18.9402 7.83854 19.1641 8.01197C19.2098 8.04804 19.2549 8.08342 19.2992 8.12019C19.3859 8.19371 19.4713 8.26863 19.5539 8.34702C19.5949 8.38656 19.6358 8.42679 19.6767 8.46773C19.999 8.79446 20.2823 9.16627 20.5158 9.57694H20.5165L22.0006 12.1873Z" fill="url(#paint5_linear_4223_29892)"/>
<path d="M9.93677 17.5566L12.961 22.8773H12.9597L9.93677 17.5566Z" fill="url(#paint6_linear_4223_29892)"/>
<path d="M15.9821 22.8752V22.8773H12.9599L9.93695 17.5567C9.01123 15.9265 9.00168 13.9224 9.90965 12.2853L9.93695 12.2367L10.4906 13.2106L11.4484 14.897L12.9605 17.5573L14.4713 20.2156L15.9821 22.8752Z" fill="url(#paint7_linear_4223_29892)"/>
<path d="M15.9821 22.8752V22.8773H12.9599L9.93695 17.5567C9.01123 15.9265 9.00168 13.9224 9.90965 12.2853L9.93695 12.2367L10.4906 13.2106L11.4484 14.897L12.9605 17.5573L14.4713 20.2156L15.9821 22.8752Z" fill="url(#paint8_linear_4223_29892)"/>
<path d="M15.9821 22.877L12.9598 28.1942L11.449 25.536L10.524 23.9093L9.93758 22.877L8.42544 20.216L8.42475 20.2146C8.33669 20.0606 8.25818 19.9025 8.1865 19.7429C8.11618 19.5827 8.05269 19.4197 7.99808 19.2545C7.98306 19.2081 7.96735 19.1609 7.95438 19.1145C7.93595 19.0541 7.91888 18.993 7.9025 18.9327C7.84106 18.6989 7.79532 18.461 7.76528 18.2217C7.75914 18.1717 7.75436 18.1231 7.7489 18.0732C7.74412 18.0212 7.74002 17.9685 7.7366 17.9165C7.73524 17.9095 7.73524 17.9012 7.73524 17.8929C7.73115 17.8387 7.72842 17.7846 7.72705 17.7305V17.7285C7.725 17.6757 7.72364 17.6237 7.72364 17.5703C7.72295 16.9924 7.81375 16.4146 7.99808 15.8603C8.03494 15.75 8.07454 15.6411 8.11891 15.5329C8.14007 15.4788 8.16397 15.4247 8.18718 15.372C8.23496 15.2652 8.28616 15.159 8.34078 15.055C8.36809 15.0029 8.39608 14.9509 8.42544 14.9003V14.8982L9.9089 12.2871C9.00162 13.9242 9.01049 15.9283 9.93621 17.5585L12.9591 22.8791H15.9821V22.877Z" fill="url(#paint9_linear_4223_29892)"/>
</g>
<defs>
<linearGradient id="paint0_linear_4223_29892" x1="26.9309" y1="11.3883" x2="15.0949" y2="21.5715" gradientUnits="userSpaceOnUse">
<stop stop-color="#02F0FE"/>
<stop offset="1" stop-color="#4D7EFE"/>
</linearGradient>
<linearGradient id="paint1_linear_4223_29892" x1="22.7159" y1="14.0062" x2="16.6614" y2="23.0528" gradientUnits="userSpaceOnUse">
<stop stop-color="#4D4AFE"/>
<stop offset="1" stop-color="#4D7EFE" stop-opacity="0"/>
</linearGradient>
<linearGradient id="paint2_linear_4223_29892" x1="27.586" y1="12.1495" x2="15.75" y2="22.3326" gradientUnits="userSpaceOnUse">
<stop stop-color="#02F0FE"/>
<stop offset="1" stop-color="#4D7EFE"/>
</linearGradient>
<linearGradient id="paint3_linear_4223_29892" x1="7.04288" y1="8.53174" x2="21.4096" y2="13.1891" gradientUnits="userSpaceOnUse">
<stop stop-color="#02F0FE"/>
<stop offset="1" stop-color="#4D7EFE"/>
</linearGradient>
<linearGradient id="paint4_linear_4223_29892" x1="9.79352" y1="10.928" x2="21.7088" y2="10.8924" gradientUnits="userSpaceOnUse">
<stop stop-color="#4D4AFE"/>
<stop offset="1" stop-color="#4D7EFE" stop-opacity="0"/>
</linearGradient>
<linearGradient id="paint5_linear_4223_29892" x1="7.3581" y1="7.55997" x2="21.7248" y2="12.2174" gradientUnits="userSpaceOnUse">
<stop stop-color="#02F0FE"/>
<stop offset="1" stop-color="#4D7EFE"/>
</linearGradient>
<linearGradient id="paint6_linear_4223_29892" x1="13.083" y1="28.1628" x2="9.73227" y2="12.3834" gradientUnits="userSpaceOnUse">
<stop stop-color="#02F0FE"/>
<stop offset="1" stop-color="#4D7EFE"/>
</linearGradient>
<linearGradient id="paint7_linear_4223_29892" x1="14.4025" y1="27.8826" x2="11.0518" y2="12.1033" gradientUnits="userSpaceOnUse">
<stop stop-color="#02F0FE"/>
<stop offset="1" stop-color="#4D7EFE"/>
</linearGradient>
<linearGradient id="paint8_linear_4223_29892" x1="14.9247" y1="23.6834" x2="8.74453" y2="13.1218" gradientUnits="userSpaceOnUse">
<stop stop-color="#4D4AFE"/>
<stop offset="1" stop-color="#4D7EFE" stop-opacity="0"/>
</linearGradient>
<linearGradient id="paint9_linear_4223_29892" x1="13.4172" y1="28.097" x2="10.0665" y2="12.3176" gradientUnits="userSpaceOnUse">
<stop stop-color="#02F0FE"/>
<stop offset="1" stop-color="#4D7EFE"/>
</linearGradient>
<clipPath id="clip0_4223_29892">
<rect width="22" height="22" fill="white" transform="translate(6 6)"/>
</clipPath>
</defs>
</svg>
