<svg width="32" height="32" viewBox="0 0 32 32" fill="none" xmlns="http://www.w3.org/2000/svg">
<path d="M31.5 16C31.5 24.5604 24.5604 31.5 16 31.5C7.43959 31.5 0.5 24.5604 0.5 16C0.5 7.43959 7.43959 0.5 16 0.5C24.5604 0.5 31.5 7.43959 31.5 16Z" fill="white" stroke="#CED3E6"/>
<g clip-path="url(#clip0_33_22661)">
<path d="M16 28C22.6274 28 28 22.6274 28 16C28 9.37258 22.6274 4 16 4C9.37258 4 4 9.37258 4 16C4 22.6274 9.37258 28 16 28Z" fill="#F3BA2F"/>
<path d="M13.087 14.803L16 11.89L18.9145 14.8045L20.6095 13.1095L16 8.5L11.392 13.108L13.087 14.803ZM8.5 16L10.195 14.305L11.89 16L10.195 17.695L8.5 16ZM13.087 17.197L16 20.11L18.9145 17.1955L20.6095 18.8898L16 23.5L11.392 18.892L11.3897 18.8898L13.087 17.197ZM20.11 16L21.805 14.305L23.5 16L21.805 17.695L20.11 16ZM17.719 15.9985H17.7205V16L16 17.7205L14.2817 16.003L14.2787 16L14.2817 15.9977L14.5825 15.6962L14.7288 15.55L16 14.2795L17.7197 15.9992L17.719 15.9985Z" fill="white"/>
</g>
<defs>
<clipPath id="clip0_33_22661">
<rect width="24" height="24" fill="white" transform="translate(4 4)"/>
</clipPath>
</defs>
</svg>
