<svg width="32" height="32" viewBox="0 0 32 32" fill="none" xmlns="http://www.w3.org/2000/svg">
<path d="M31.5 16C31.5 24.5604 24.5604 31.5 16 31.5C7.43959 31.5 0.5 24.5604 0.5 16C0.5 7.43959 7.43959 0.5 16 0.5C24.5604 0.5 31.5 7.43959 31.5 16Z" fill="white" stroke="#CED3E6"/>
<path d="M10.5957 28C16.7797 28 16.7797 27.9082 17.8287 27.5985C19.1988 27.1934 13.9594 23.5815 10.5957 23.5815C7.23193 23.5815 4.50476 24.5709 4.50476 25.791C4.50476 27.0111 7.23084 28 10.5957 28Z" fill="black"/>
<path d="M24.6382 9.21306L24.9227 9.51826L24.6744 9.85281C16.6088 20.7132 11.9624 25.6301 9.99095 24.971C8.79052 24.569 7.58626 23.3611 6.38183 21.6068C5.95858 20.9901 5.56099 20.3408 5.19958 19.6948C4.95895 19.2645 4.75524 18.8722 4.64938 18.6512C4.53898 18.4353 4.4594 18.2052 4.41294 17.9674L4.40748 17.9399C4.38929 17.843 4.38202 17.8131 4.36783 17.7587C3.81421 15.6811 3.88687 13.4872 4.57674 11.4504C5.26661 9.41361 6.54319 7.62407 8.24735 6.30484C9.9515 4.98561 12.0079 4.19504 14.1601 4.03168C16.3123 3.86831 18.4653 4.33937 20.3505 5.38615L20.3923 5.41223C21.7222 6.33455 23.1375 7.60155 24.6382 9.21324M19.8365 6.25068C18.1234 5.30647 16.1695 4.88438 14.2175 5.03689C12.2655 5.18939 10.4016 5.90976 8.85734 7.10846C7.31307 8.30717 6.15657 9.93137 5.53155 11.7792C4.90653 13.627 4.84055 15.617 5.34182 17.5019C5.36364 17.5838 5.37365 17.6298 5.39638 17.7484L5.40093 17.7729C5.43175 17.9282 5.48512 18.0781 5.55935 18.2181C5.65593 18.4199 5.85036 18.7932 6.08027 19.2051C6.42785 19.826 6.80962 20.4498 7.21395 21.0394C8.30234 22.6241 9.38109 23.7067 10.3118 24.018C11.5535 24.4334 16.2272 19.5065 23.6133 9.59144C22.4691 8.35549 21.2039 7.23636 19.8365 6.25068Z" fill="black"/>
<path d="M19.8366 6.25049C18.1235 5.3062 16.1695 4.88406 14.2174 5.03654C12.2654 5.18902 10.4014 5.90939 8.8571 7.10813C7.3128 8.30688 6.15628 9.93113 5.53127 11.779C4.90627 13.6269 4.84034 15.617 5.34169 17.5019C5.36351 17.5838 5.37352 17.6298 5.39625 17.7484L5.4008 17.7729C5.43144 17.9284 5.48469 18.0786 5.55886 18.2188C5.65544 18.4206 5.84987 18.7939 6.07977 19.2058C6.42735 19.8267 6.80913 20.4505 7.21345 21.0401C8.30185 22.6248 9.3806 23.7074 10.3113 24.0188C11.5537 24.4346 16.2269 19.5079 23.6134 9.59215C22.4692 8.35589 21.204 7.23646 19.8366 6.25049Z" fill="#EC1C79"/>
<path d="M17.0086 27.8993C14.8347 27.8993 12.7097 27.2574 10.9021 26.0546C9.0946 24.8519 7.6858 23.1424 6.85389 21.1423C6.02197 19.1422 5.80431 16.9413 6.22841 14.818C6.65252 12.6948 7.69935 10.7444 9.23653 9.2136C10.7737 7.68279 12.7322 6.6403 14.8643 6.21796C16.9964 5.79561 19.2065 6.01237 21.2149 6.84084C23.2233 7.6693 24.9399 9.07226 26.1477 10.8723C27.3554 12.6723 28.0001 14.7886 28.0001 16.9535C28.0001 18.3909 27.7158 19.8143 27.1634 21.1423C26.6111 22.4703 25.8015 23.677 24.7808 24.6934C23.7602 25.7098 22.5485 26.5161 21.2149 27.0662C19.8814 27.6162 18.4521 27.8993 17.0086 27.8993ZM17.0086 26.8951C18.9831 26.8951 20.9131 26.312 22.5548 25.2196C24.1964 24.1272 25.4759 22.5745 26.2315 20.758C26.987 18.9414 27.1847 16.9425 26.7995 15.0141C26.4143 13.0856 25.4635 11.3142 24.0674 9.92391C22.6712 8.53358 20.8924 7.58677 18.956 7.20319C17.0195 6.81961 15.0123 7.01649 13.1881 7.76895C11.364 8.5214 9.80491 9.79562 8.70799 11.4305C7.61106 13.0654 7.02558 14.9874 7.02558 16.9537C7.02563 19.5903 8.07741 22.1189 9.94955 23.9833C11.8217 25.8477 14.3609 26.8951 17.0085 26.8951" fill="black"/>
<path d="M17.0086 26.8953C18.9831 26.8953 20.9131 26.3123 22.5548 25.2199C24.1965 24.1275 25.476 22.5749 26.2316 20.7583C26.9872 18.9418 27.1849 16.9429 26.7997 15.0144C26.4145 13.086 25.4638 11.3146 24.0677 9.92422C22.6715 8.53387 20.8928 7.58702 18.9563 7.20341C17.0198 6.81979 15.0126 7.01664 13.1885 7.76906C11.3643 8.52148 9.80522 9.79568 8.70826 11.4305C7.61131 13.0654 7.02579 14.9874 7.02576 16.9537C7.02581 19.5903 8.07759 22.1189 9.94973 23.9833C11.8219 25.8477 14.361 26.8951 17.0086 26.8951" fill="white"/>
<path fill-rule="evenodd" clip-rule="evenodd" d="M9.54075 18.99L8.21936 15.0255H9.37723L10.0662 17.303L10.8281 15.0143H11.7708L12.5331 17.303L13.2221 15.0255H14.3574L13.036 18.99H12.0818L11.2857 16.7239L10.4949 18.99H9.54075ZM14.7923 18.9622V15.0255H17.9716V15.9536H15.8769V16.5497H17.7741V17.4106H15.8769V18.0346H17.9996V18.9627L14.7923 18.9622ZM19.5249 18.9622V15.9815H18.3392V15.0255H21.8057V15.9815H20.62V18.962L19.5249 18.9622ZM22.2861 18.9622V15.0255H23.3817V16.4986H24.7877V15.0255H25.8837V18.962H24.7877V17.4662H23.3817V18.962L22.2861 18.9622Z" fill="black"/>
<path d="M4.65551 13.8412C4.52152 13.7745 4.41964 13.6576 4.37226 13.5161C4.32488 13.3745 4.33589 13.2201 4.40287 13.0867C4.46985 12.9532 4.58731 12.8518 4.72941 12.8046C4.87151 12.7574 5.02662 12.7684 5.1606 12.8351L6.77373 13.6387C6.84004 13.6717 6.89919 13.7174 6.94777 13.7732C6.99636 13.829 7.03344 13.8937 7.0569 13.9638C7.08036 14.0338 7.08974 14.1077 7.0845 14.1814C7.07926 14.255 7.0595 14.3269 7.02636 14.393C6.99322 14.459 6.94734 14.5179 6.89135 14.5663C6.83535 14.6147 6.77033 14.6516 6.7 14.675C6.62968 14.6983 6.55542 14.7077 6.48146 14.7025C6.40751 14.6972 6.33532 14.6776 6.269 14.6446L4.65551 13.8412Z" fill="black"/>
<path d="M4.46982 16.5057C4.4025 16.4748 4.34195 16.431 4.29164 16.3767C4.24132 16.3225 4.20223 16.2589 4.17658 16.1897C4.15093 16.1204 4.13924 16.0468 4.14216 15.973C4.14509 15.8992 4.16257 15.8268 4.19363 15.7597C4.22468 15.6927 4.26868 15.6324 4.32313 15.5823C4.37758 15.5322 4.44141 15.4932 4.51097 15.4677C4.58053 15.4422 4.65446 15.4305 4.72854 15.4334C4.80262 15.4363 4.87539 15.4537 4.94271 15.4847L6.55621 16.2259C6.69037 16.2894 6.79395 16.4031 6.84452 16.5423C6.89508 16.6814 6.88855 16.8348 6.82634 16.9692C6.76413 17.1035 6.65124 17.2081 6.51216 17.2601C6.37307 17.3122 6.21899 17.3075 6.08331 17.2472L4.46982 16.5057Z" fill="black"/>
</svg>
