<svg width="32" height="32" viewBox="0 0 32 32" fill="none" xmlns="http://www.w3.org/2000/svg">
<path d="M31.5 16C31.5 24.5604 24.5604 31.5 16 31.5C7.43959 31.5 0.5 24.5604 0.5 16C0.5 7.43959 7.43959 0.5 16 0.5C24.5604 0.5 31.5 7.43959 31.5 16Z" fill="white" stroke="#CED3E6"/>
<g clip-path="url(#clip0_35_22625)">
<path d="M4.02233 9.2999L8.0175 7.0173L19.9874 13.8572L19.9877 13.8702C19.6746 14.0293 19.3766 14.2165 19.0695 14.3863L16.0024 16.1385C15.9759 16.1294 15.9497 16.1196 15.9238 16.109L4.52587 9.59545C4.35702 9.50389 4.19501 9.39959 4.02124 9.31697L4.02233 9.2999ZM19.9901 9.29773L23.9831 7.0173L27.9747 9.29801L27.9783 9.31291L23.9815 11.5874L20.9022 9.83005C20.6004 9.64882 20.2843 9.49089 19.9901 9.29773Z" fill="#2B6DEF"/>
<path d="M19.9875 13.857L19.9903 9.29749C20.2845 9.49064 20.6005 9.64857 20.9024 9.8298L23.9816 11.5871L23.9838 24.4727C23.9802 24.7382 23.9917 25.0042 23.975 25.2692L19.9897 22.9936L19.9884 18.4338L19.9878 13.87L19.9875 13.857ZM4.02139 9.31672C4.19516 9.39934 4.35717 9.50364 4.52602 9.5952L15.924 16.1087C15.9498 16.1193 15.976 16.1292 16.0025 16.1382C15.985 16.2702 15.9943 16.4034 15.9926 16.5362L15.9921 20.711L12.0125 18.4319C11.81 18.2962 11.5897 18.1884 11.3809 18.0624L8.16816 16.2266C8.12109 16.1989 8.0721 16.1754 8.02175 16.1545C8.01713 16.1912 8.01375 16.2281 8.01163 16.265L8.01299 24.1203C8.01765 24.5031 7.99958 24.8872 8.02531 25.2692L8.02011 25.2857H8.00916C8.00807 25.2814 8.00561 25.273 8.00451 25.2686L4.02002 22.9906L4.02139 9.31672Z" fill="#2891F9"/>
<path d="M23.9816 11.587L27.9784 9.3125L27.9801 22.9905L23.9956 25.2682L23.9912 25.2855H23.9805L23.975 25.269C23.9917 25.0041 23.9802 24.7381 23.9838 24.4726L23.9816 11.587ZM19.0697 14.3859C19.3767 14.2161 19.6747 14.0289 19.9878 13.8698L19.9884 18.4337L16.9827 20.1509L15.9921 20.7109L15.9926 16.536C15.9943 16.4033 15.985 16.27 16.0025 16.1381L19.0697 14.3859ZM8.02174 16.1543C8.07209 16.1752 8.12108 16.1988 8.16815 16.2264L11.3809 18.0623C11.5897 18.1883 11.81 18.2961 12.0125 18.4318L12.0101 22.994L8.0253 25.269C7.99957 24.8871 8.01764 24.5029 8.01298 24.1201L8.01162 16.2649C8.01374 16.2279 8.01712 16.1911 8.02174 16.1543Z" fill="#2BBDF7"/>
</g>
<defs>
<clipPath id="clip0_35_22625">
<rect width="24" height="18.2857" fill="white" transform="translate(4 7)"/>
</clipPath>
</defs>
</svg>
