<svg width="32" height="32" viewBox="0 0 32 32" fill="none" xmlns="http://www.w3.org/2000/svg">
<path d="M31.5 16C31.5 24.5604 24.5604 31.5 16 31.5C7.43959 31.5 0.5 24.5604 0.5 16C0.5 7.43959 7.43959 0.5 16 0.5C24.5604 0.5 31.5 7.43959 31.5 16Z" fill="white" stroke="#CED3E6"/>
<path d="M16 28C22.6274 28 28 22.6274 28 16C28 9.37258 22.6274 4 16 4C9.37258 4 4 9.37258 4 16C4 22.6274 9.37258 28 16 28Z" fill="#00A3FF"/>
<path d="M10.2547 15L10.1009 15.2308C8.33163 18 8.71627 21.6154 11.1009 23.9231C12.4086 25.3077 14.2547 26 16.1009 26C16.1009 26 16.1009 26 10.2547 15Z" fill="#9CDBFF"/>
<path opacity="0.6" d="M16.1009 18.3077L10.2547 14.9231C16.1009 26 16.1009 26 16.1009 26C16.1009 23.6154 16.1009 20.8462 16.1009 18.3077Z" fill="#9CDBFF"/>
<path opacity="0.6" d="M21.947 15L22.1009 15.2308C23.8701 18 23.4855 21.6154 21.1009 23.9231C19.7163 25.3077 17.947 26 16.1009 26C16.1009 26 16.1009 26 21.947 15Z" fill="#9CDBFF"/>
<path opacity="0.2" d="M16.1009 18.3077L21.947 14.9231C16.1009 26 16.1009 26 16.1009 26C16.1009 23.6154 16.1009 20.8462 16.1009 18.3077Z" fill="#9CDBFF"/>
<path opacity="0.2" d="M16.1009 10.8462V16.6154L21.1778 13.7692L16.1009 10.8462Z" fill="#9CDBFF"/>
<path opacity="0.6" d="M16.1009 10.8462L11.024 13.7692L16.1009 16.6154V10.8462Z" fill="#9CDBFF"/>
<path d="M16.1009 6L11.024 13.7692L16.1009 10.8462V6Z" fill="#9CDBFF"/>
<path opacity="0.6" d="M16.1009 10.8462L21.1778 13.7692L16.1009 6V10.8462Z" fill="#9CDBFF"/>
</svg>
