<svg width="37" height="37" viewBox="0 0 37 37" fill="none" xmlns="http://www.w3.org/2000/svg">
<ellipse cx="18.9846" cy="19.0219" rx="17.5263" ry="17.5263" fill="#00A3FF"/>
<g clip-path="url(#clip0_2362_1495)">
<path d="M11.7847 17.7903L11.5952 18.0745C9.41624 21.485 9.88993 25.9377 12.8268 28.7798C14.4373 30.485 16.711 31.3377 18.9847 31.3377C18.9847 31.3377 18.9847 31.3377 11.7847 17.7903Z" fill="white"/>
<path d="M18.9847 21.864L11.7847 17.6955C18.9847 31.3376 18.9847 31.3376 18.9847 31.3376C18.9847 28.4008 18.9847 24.9903 18.9847 21.864Z" fill="#99DAFF"/>
<path d="M26.1847 17.7903L26.3741 18.0745C28.5531 21.485 28.0794 25.9377 25.1426 28.7798C23.4373 30.485 21.2583 31.3377 18.9847 31.3377C18.9847 31.3377 18.9847 31.3377 26.1847 17.7903Z" fill="#99DAFF"/>
<path d="M18.9847 21.864L26.1847 17.6955C18.9847 31.3376 18.9847 31.3376 18.9847 31.3376C18.9847 28.4008 18.9847 24.9903 18.9847 21.864Z" fill="#33B5FF"/>
<path d="M18.9847 12.6745V19.7797L25.2373 16.2745L18.9847 12.6745Z" fill="#33B5FF"/>
<path d="M18.9847 12.6745L12.732 16.2745L18.9847 19.7797V12.6745Z" fill="#99DAFF"/>
<path d="M18.9847 6.70607L12.732 16.2745L18.9847 12.6745V6.70607Z" fill="white"/>
<path d="M18.9847 12.6745L25.2373 16.2745L18.9847 6.70607V12.6745Z" fill="#99DAFF"/>
</g>
<circle cx="18.5" cy="18.5" r="17.5" stroke="#1BE3C2" stroke-width="2"/>
<rect x="0.110962" y="22.5127" width="19.999" height="14" rx="7" fill="url(#paint0_radial_2362_1495)"/>
<path d="M4.75014 33.3127L5.84771 26.7014H7.2455L6.34161 32.1602H9.17593L8.98224 33.3127H4.75014Z" fill="white"/>
<path d="M9.90791 33.3127L11.0055 26.7014H13.6138C14.1131 26.7014 14.5231 26.7972 14.8438 26.9888C15.1666 27.1781 15.3925 27.4418 15.5217 27.7796C15.6529 28.1154 15.6831 28.5028 15.612 28.9418C15.5389 29.383 15.3796 29.7714 15.1343 30.1071C14.8911 30.4407 14.5747 30.7011 14.1852 30.8884C13.7957 31.0756 13.3459 31.1692 12.8358 31.1692H11.1733L11.3573 30.049H12.7939C13.065 30.049 13.2964 30.0028 13.4879 29.9102C13.6816 29.8155 13.8355 29.6853 13.9496 29.5196C14.0636 29.3518 14.1379 29.1591 14.1723 28.9418C14.2089 28.7201 14.197 28.5275 14.1368 28.3639C14.0765 28.2004 13.9657 28.0734 13.8043 27.983C13.645 27.8905 13.4309 27.8442 13.1619 27.8442H12.2193L11.3057 33.3127H9.90791Z" fill="white"/>
<defs>
<radialGradient id="paint0_radial_2362_1495" cx="0" cy="0" r="1" gradientUnits="userSpaceOnUse" gradientTransform="translate(10.1105 29.5127) rotate(-180) scale(13.1812 25.64)">
<stop stop-color="#090D18"/>
<stop offset="0.5" stop-color="#090D18" stop-opacity="0.505208"/>
<stop offset="1" stop-color="#090D18" stop-opacity="0"/>
</radialGradient>
<clipPath id="clip0_2362_1495">
<rect width="17.6211" height="24.6316" fill="white" transform="translate(10.1741 6.70607)"/>
</clipPath>
</defs>
</svg>
