<svg width="32" height="32" viewBox="0 0 32 32" fill="none" xmlns="http://www.w3.org/2000/svg">
<path d="M31.5 16C31.5 24.5604 24.5604 31.5 16 31.5C7.43959 31.5 0.5 24.5604 0.5 16C0.5 7.43959 7.43959 0.5 16 0.5C24.5604 0.5 31.5 7.43959 31.5 16Z" fill="white" stroke="#CED3E6"/>
<mask id="mask0_3541_206644" style="mask-type:luminance" maskUnits="userSpaceOnUse" x="4" y="4" width="24" height="24">
<path d="M28 4H4V28H28V4Z" fill="white"/>
</mask>
<g mask="url(#mask0_3541_206644)">
<path d="M16 28C22.6274 28 28 22.6274 28 16C28 9.37256 22.6274 4 16 4C9.37256 4 4 9.37256 4 16C4 22.6274 9.37256 28 16 28Z" fill="url(#paint0_linear_3541_206644)"/>
<path d="M12.5852 14.0237C12.4876 14.0237 12.3896 14.0007 12.3021 13.957L8.3965 12.0089C8.23442 11.9282 8.11443 11.7814 8.06725 11.6067C8.02007 11.4318 8.04997 11.2447 8.14941 11.0934C8.84818 10.0294 9.73524 9.13353 10.7863 8.43093C11.8338 7.73053 12.9934 7.25588 14.2327 7.01998C14.2715 7.01265 14.311 7.00879 14.3503 7.00879C14.6699 7.00879 14.9392 7.25019 14.9766 7.57049C15.015 7.89913 14.7918 8.20478 14.4684 8.2664C12.6127 8.62006 10.9284 9.62206 9.72571 11.0877L9.62868 11.2061L12.5232 12.6498L14.9284 10.8957C15.2428 10.6665 15.6133 10.5453 15.9999 10.5453C16.3866 10.5453 16.7569 10.6665 17.0715 10.8957L19.4763 12.65L22.3712 11.2063L22.2742 11.0879C21.0715 9.62226 19.3872 8.62026 17.5315 8.26661C17.2081 8.20499 16.9851 7.89953 17.0233 7.57089C17.0607 7.25059 17.3299 7.00899 17.6496 7.00899C17.6889 7.00899 17.7283 7.01265 17.7672 7.02018C19.0065 7.25608 20.1661 7.73074 21.2136 8.43113C22.2644 9.13378 23.1517 10.0296 23.8504 11.0936C23.9499 11.2449 23.9798 11.4322 23.9326 11.6069C23.8855 11.7818 23.7655 11.9284 23.6034 12.0091L19.6973 13.9572C19.6099 14.0007 19.5121 14.0239 19.4143 14.0239C19.279 14.0239 19.1497 13.9818 19.0405 13.9021L16.3243 11.9207C16.2292 11.8513 16.1171 11.8147 16.0001 11.8147C15.8832 11.8147 15.7711 11.8513 15.676 11.9207L12.959 13.9021C12.8498 13.9818 12.7205 14.0239 12.5852 14.0239V14.0237Z" fill="url(#paint1_radial_3541_206644)"/>
<path d="M17.0263 24.9913C16.6765 24.9913 16.392 24.7068 16.392 24.357V19.5206H18.6077C19.2367 19.5206 19.7486 19.0089 19.7486 18.3797V15.2005C19.7486 14.9585 19.8832 14.7411 20.0996 14.6329L23.9544 12.7096C24.0434 12.6653 24.1384 12.6428 24.237 12.6428C24.5041 12.6428 24.744 12.8113 24.8343 13.0625C25.2006 14.0797 25.3863 15.1488 25.3863 16.2396C25.3863 18.1871 24.7951 20.0552 23.6768 21.6417C22.7205 22.9983 21.4233 24.0794 19.9257 24.768C19.8429 24.806 19.7549 24.8254 19.6646 24.8254C19.4018 24.8254 19.163 24.6596 19.0705 24.413C18.9542 24.1032 19.0978 23.7526 19.3975 23.6145C20.6918 23.0189 21.8129 22.084 22.64 20.9108C23.6068 19.5393 24.1179 17.9239 24.1179 16.2396C24.1179 15.5924 24.0416 14.9485 23.8911 14.326L23.8551 14.1771L21.0172 15.593V18.3803C21.0172 19.7087 19.9365 20.7892 18.6083 20.7892H17.6608V24.3572C17.6608 24.707 17.3763 24.9915 17.0265 24.9915L17.0263 24.9913Z" fill="url(#paint2_radial_3541_206644)"/>
<path d="M14.9741 24.9913C14.8047 24.9913 14.6455 24.9253 14.5257 24.8056C14.4059 24.6858 14.34 24.5265 14.34 24.3571V20.7891H13.3929C12.0643 20.7891 10.9836 19.7082 10.9836 18.3798V15.5929L8.14567 14.1771L8.10967 14.326C7.95918 14.9484 7.88292 15.5923 7.88292 16.2396C7.88292 17.9241 8.39398 19.5392 9.36075 20.9107C10.1878 22.0839 11.309 23.0188 12.6033 23.6145C12.9022 23.7521 13.0462 24.1021 12.9309 24.4113L12.9301 24.4137C12.8377 24.6595 12.599 24.8253 12.3362 24.8253C12.2457 24.8253 12.1579 24.806 12.0751 24.7679C10.5775 24.0793 9.28044 22.9983 8.32402 21.6416C7.20571 20.0549 6.61453 18.187 6.61453 16.2396C6.61453 15.1487 6.8002 14.0799 7.16646 13.0624C7.25676 12.8115 7.49693 12.6427 7.76375 12.6427C7.86218 12.6427 7.95735 12.6653 8.04643 12.7096L11.9012 14.6328C12.1178 14.7408 12.2522 14.9584 12.2522 15.2004V18.38C12.2522 19.0088 12.7639 19.5205 13.3927 19.5205H15.6088V24.3569C15.6088 24.5263 15.5429 24.6856 15.4231 24.8054C15.3033 24.9251 15.1441 24.9911 14.9747 24.9911L14.9741 24.9913Z" fill="url(#paint3_radial_3541_206644)"/>
</g>
<circle cx="11" cy="22" r="5" fill="#FF4848"/>
<path d="M8.62074 25L7.11932 19.9091H8.66051L9.35653 23.0412H9.39631L10.2216 19.9091H11.4347L12.2599 23.0511H12.2997L12.9957 19.9091H14.5369L13.0355 25H11.7131L10.848 22.1562H10.8082L9.94318 25H8.62074Z" fill="white"/>
<defs>
<linearGradient id="paint0_linear_3541_206644" x1="16" y1="27.5981" x2="16" y2="3.8912" gradientUnits="userSpaceOnUse">
<stop stop-color="#2E5CFF"/>
<stop offset="1" stop-color="#6164FC"/>
</linearGradient>
<radialGradient id="paint1_radial_3541_206644" cx="0" cy="0" r="1" gradientUnits="userSpaceOnUse" gradientTransform="translate(15.9999 10.5162) scale(6.14732)">
<stop stop-color="white"/>
<stop offset="1" stop-color="#E5E5E5"/>
</radialGradient>
<radialGradient id="paint2_radial_3541_206644" cx="0" cy="0" r="1" gradientUnits="userSpaceOnUse" gradientTransform="translate(20.889 18.8169) scale(5.40118)">
<stop stop-color="white"/>
<stop offset="1" stop-color="#E5E5E5"/>
</radialGradient>
<radialGradient id="paint3_radial_3541_206644" cx="0" cy="0" r="1" gradientUnits="userSpaceOnUse" gradientTransform="translate(11.1111 18.8171) scale(5.40118)">
<stop stop-color="white"/>
<stop offset="1" stop-color="#E5E5E5"/>
</radialGradient>
</defs>
</svg>
