<svg width="32" height="32" viewBox="0 0 32 32" fill="none" xmlns="http://www.w3.org/2000/svg">
<path d="M31.5 16C31.5 24.5604 24.5604 31.5 16 31.5C7.43959 31.5 0.5 24.5604 0.5 16C0.5 7.43959 7.43959 0.5 16 0.5C24.5604 0.5 31.5 7.43959 31.5 16Z" fill="white" stroke="#CED3E6"/>
<g clip-path="url(#clip0_4232_39535)">
<path d="M27.25 16C27.25 22.2133 22.2133 27.25 16 27.25C9.78673 27.25 4.75 22.2133 4.75 16C4.75 9.78681 9.78673 4.75 16 4.75C22.2133 4.75 27.25 9.78681 27.25 16Z" fill="#121212"/>
<path d="M16.562 18.106V18.8935C16.562 19.0015 16.625 19.1095 16.724 19.1545L18.9515 20.2615C19.046 20.3065 19.1 20.401 19.1 20.5V20.779C19.1 20.878 19.046 20.9725 18.9515 21.0175L16.2155 22.3765C16.076 22.4485 15.914 22.4485 15.7745 22.3765L13.0385 21.0175C12.944 20.9725 12.89 20.878 12.89 20.779V20.5C12.89 20.401 12.944 20.3065 13.0385 20.2615L15.266 19.1545C15.365 19.1095 15.428 19.0015 15.428 18.8935V18.106C15.428 18.007 15.3515 17.9125 15.248 17.9035C14.924 17.863 14.6585 17.809 14.4605 17.7415C14.051 17.611 13.736 17.269 13.6235 16.846L11.999 10.7215L11.9585 10.582C11.9585 10.015 13.7675 9.56055 15.995 9.56055C18.2225 9.56055 20.0315 10.015 20.0315 10.582L19.991 10.7215L18.3665 16.846C18.2585 17.2645 17.9435 17.602 17.5295 17.7415C17.327 17.8135 17.066 17.8675 16.742 17.9035C16.643 17.9125 16.562 18.007 16.562 18.106Z" fill="#FFAF1D"/>
</g>
<defs>
<clipPath id="clip0_4232_39535">
<rect width="24" height="24" fill="white" transform="translate(4 4)"/>
</clipPath>
</defs>
</svg>
